<svg width="0" height="0" class="hidden">
  <symbol xmlns="http://www.w3.org/2000/svg" viewBox="0 0 115.11 105.07" id="banner">
    <path d="M35.88 54.16c.58 6.37 5.63 7.9 9 8.91a7.68 7.68 0 012.72 1.17c1.22 1.07 1.09 3.1.94 5.45a13.85 13.85 0 000 3.31c2.89 2 15.14 2 17 .77.53-.34 1-1.89.22-7.35a12.87 12.87 0 01-.2-1.91c.05-1.36 1.24-1.92 3.22-2.84 3.13-1.45 8.36-3.88 9.24-8.87.56-3.16-.67-12-6-18.31a18.69 18.69 0 00-15.38-6.62c-5.93.12-10.75 2.21-14.33 6.2-5.51 6.14-6.86 15.38-6.43 20.09zm26.85-4.64a5.65 5.65 0 11-.28 8 5.65 5.65 0 01.28-8zm-5.5 6.07c.28-.1 2.12 3.79 1.42 4.53-.53.55-3.76.08-4-.41s1.56-3.77 2.58-4.12zm-3.91 8.32a.47.47 0 010 .26 3.51 3.51 0 01-.11.57c0 .09-.08.2-.12.3a6.3 6.3 0 001.49.85h.1a5.06 5.06 0 01.28-.65 4.24 4.24 0 01.34-.52.46.46 0 01.7-.02.41.41 0 01.15.24 3.62 3.62 0 01.1.62 6.88 6.88 0 010 .75l.8.08h.71l.56-.09h.11c0-.27-.09-.52-.11-.74a3.69 3.69 0 010-.66.46.46 0 01.51-.4.43.43 0 01.27.13 4.66 4.66 0 01.41.52 6 6 0 01.3.52 5.14 5.14 0 00.49-.32 8.16 8.16 0 00.71-.74 3.42 3.42 0 01-.37-.41 2.7 2.7 0 01-.27-.46.48.48 0 01.25-.64.57.57 0 01.22 0 2.75 2.75 0 01.53.09 2.79 2.79 0 01.47.18c.17-.35.26-.56.25-.54a.42.42 0 01.5-.32.41.41 0 01.31.49v.2a4.43 4.43 0 01-.11.51c0 .09 0 .18-.08.28a3 3 0 01.43.45 2.16 2.16 0 01.26.47.49.49 0 01-.27.64.43.43 0 01-.19 0 2.33 2.33 0 01-.54-.08l-.3-.12v.06a5.82 5.82 0 01-.78 1 5.17 5.17 0 01-1 .8 3.84 3.84 0 01.08.55 4.24 4.24 0 010 .66.46.46 0 01-.53.39.42.42 0 01-.25-.12 4.36 4.36 0 01-.42-.51c-.07-.1-.13-.23-.2-.35l-.33.1-.86.14h-.72a9.07 9.07 0 01-1.26-.15l-.09.2a3.18 3.18 0 01-.36.52.47.47 0 01-.66 0 .44.44 0 01-.14-.22 3.24 3.24 0 01-.11-.62v-.31l-.47-.21a7.09 7.09 0 01-1.58-1 3.1 3.1 0 01-.48.48 3.28 3.28 0 01-.49.32.48.48 0 01-.65-.22.51.51 0 010-.24 2.88 2.88 0 01.1-.58 4.39 4.39 0 01.47-1 5.56 5.56 0 01-.8-1.57.41.41 0 01.3-.51.43.43 0 01.46.17l.08.13.27.36a4.54 4.54 0 00.44.53l.11-.1a3 3 0 01.48-.32.48.48 0 01.61.18zM51.05 49.1a5.65 5.65 0 11-8-.28 5.67 5.67 0 018 .28z"></path>
    <path d="M112.57 0A943.76 943.76 0 011.06.59v.17S-2.6 86.48 3.71 99c3.57 7 15.26 7.2 19.85 4.1a17.93 17.93 0 006.72-9.42s3.48 10.32 14.33 11 15.68-10 15.68-10 4.79 10.49 16.22 10.08S88.88 93.2 88.88 93.2s4.92 9.49 14 8.55C119.9 100 114.92 63.94 112.57 0zm-8.26 73.15c2.32.3.41 7.57-1.64 8-1.49.23-1.06-8.33 1.64-7.99zm-8.28-2c2.67-1.12 5.63 8.66 4.41 9.51s-8.18-7.94-4.44-9.53zm3.61 12.65c-1.75 1.31-8.73-2.51-7.31-4.52 1.67-2.34 8.59 3.56 7.31 4.52zm-.73-26.73c-.92 5.68-.16 8.44-2.58 9.81-3.92 2.21-5.29-15.07 6.12-18.67.67-.21-2.71 3.72-3.54 8.86zm-3.19-29.3c2.43 1.33 1.71 4.11 2.7 9.77.9 5.13 4.33 9 3.66 8.82-11.46-3.46-10.31-20.75-6.36-18.59zm4.94-19c2.54 1.25 2.24 11.54-.9 11.08-3.68-.51-.95-11.96.9-11.06zm-1.94-3.24c.74 1.82-10.22 3.54-10.49 0C88 2.55 97.7 3 98.72 5.53zM97.48 9.2c1.24 1.47-9.22 11.49-11.71 6.82C84 12.72 96.25 7.74 97.48 9.2zm-17.8 53.48c1-.79 9 3.65 5.11 6.65-3.16 2.46-6.73-5.39-5.11-6.65zM84.45 83a1.56 1.56 0 11-1.57-1.54A1.58 1.58 0 0184.45 83zM83 55.41c.17-1.28 9-3.67 8.31 1.18-.57 3.96-8.61.85-8.31-1.18zm.25-9.41c-.09-1.28 8-5.4 8.37-.53.28 4.03-8.23 2.62-8.37.53zm4.53-12.75c1.24 3.81-7.36 4.49-8 2.53-.39-1.18 6.5-7.14 8-2.49zm-8.09-9.66c2.44 3.18-5.43 6.7-6.68 5.07-.79-.98 3.7-8.9 6.68-5.03zM68.44 8A1.88 1.88 0 0170 7.08a1.58 1.58 0 011.52.41A1.62 1.62 0 0171.94 9a1.87 1.87 0 01-.94 1.56 2.36 2.36 0 01-1.35.31 1.58 1.58 0 01-1.51-1.49 2.33 2.33 0 01.3-1.38zm.35 9.24c3.66 1.61-1.54 8.48-3.42 7.66-1.18-.5-1.06-9.6 3.42-7.64zm5.69 15.11C80.4 39.28 82 49 81.24 53.37 80.06 60 73.63 63 70.17 64.63c-.43.2-.92.43-1.27.61 0 .23.06.48.1.72.46 3.25 1.25 8.69-1.71 10.56-1.26.8-4.67 1.28-8.43 1.31-4.85 0-10.27-.66-12.43-2.34-1.48-1.14-1.33-3.51-1.17-6a17 17 0 00.05-2.82c-.33-.14-.92-.32-1.41-.47-3.4-1-10.48-3.18-11.26-11.74-.49-5.28 1-15.64 7.22-22.55 4.21-4.7 9.82-7.15 16.69-7.29a22.27 22.27 0 0117.93 7.75zm.92 53.84a1.38 1.38 0 01.92 0 1.78 1.78 0 011.23 2.13c0 .11 0 .23-.07.34a1.68 1.68 0 01-3.21 0c0-.12 0-.23-.07-.34a1.79 1.79 0 011.2-2.11zm-2.67-18.8c1.23-.4 7.16 6.51 2.51 8-3.82 1.22-4.46-7.39-2.51-8zm-3.5 17.34l-.18.28a1.59 1.59 0 01-2.7 0l-.19-.28c-2.16-3.26 5.21-3.32 3.07 0zm-17.82 1.61a1.43 1.43 0 010-2.86 1.43 1.43 0 010 2.86zm-5 1.81v.06a1.66 1.66 0 01-1.57 1.22 1.62 1.62 0 00-.22 0 1.47 1.47 0 01-1.11-.49 1.75 1.75 0 01-.37-1.88A1.71 1.71 0 0144.72 86h.06a1.73 1.73 0 011.66 2.15zm-9.59-3.66a1.58 1.58 0 012.34-1.17 1.35 1.35 0 01.65.64 1.53 1.53 0 01-.81 2.22.23.23 0 01-.11 0 1.59 1.59 0 01-2.04-1.69zm-1.32-9.61c-4.54-1.82 1.86-8.29 3-7.81 1.99.76.74 9.29-2.97 7.81zM57.24 24c-2 .21-4.89-7.93-.91-8.34 4.86-.54 2.19 8.17.91 8.34zM56.19 6.78a2 2 0 11-2 2 2 2 0 012-2zm-11.14 9.93c4.36-2.21 5 6.88 3.83 7.46-1.83.92-7.41-5.66-3.83-7.46zm-4.7-8.79a2.48 2.48 0 012.32-.48 1.73 1.73 0 011 2.47 2.47 2.47 0 01-1.94 1.28 1.84 1.84 0 01-2.13-1 1.82 1.82 0 01.75-2.27zm-5.63 15C38 19.28 41.88 27.5 41 28.46c-1.33 1.54-8.94-2.53-6.28-5.52zm-1 12.15C33 37 24.47 35.71 26 32c1.8-4.53 8.24 1.89 7.76 3.09zm-9 45.61c1 2.24-6.59 4.37-8 2.73-1.01-1.18 6.92-5.32 8.04-2.71zm-.82-8.64c2.2 2.07-5.88 9-7.2 8.24s4.13-11.14 7.24-8.22zM20.85 55c-.32-4.87 8.28-1.87 8.36-.59.13 2.04-8.11 4.59-8.36.59zm.43-11.07c.69-4.84 8.5-.16 8.31 1.12-.28 2.02-8.87 2.83-8.31-1.13zm10.7 18c1.53 1.37-2.58 8.95-5.55 6.28C22.79 64.9 31 61 32 61.88zm-4.22-45.2c-2.82 4.48-12.54-6.25-11.21-7.62s13.2 4.45 11.21 7.62zM15.57 5.36C16.77 3 26.49 3.14 26 6.12c-.48 3.48-11.29 1-10.43-.76zm-2.16 3.12c1.91-.78 3.82 10.84.12 11.11-3.17.24-2.74-10.05-.12-11.11zm-.57 28.09c.94-5.68.19-8.45 2.61-9.81 3.92-2.19 5.25 15.09-6.17 18.66-.68.21 2.72-3.71 3.56-8.85zm-3.92 10.7c11.45 3.49 10.25 20.78 6.31 18.61-2.43-1.34-1.7-4.11-2.68-9.79-.88-5.09-4.3-9.02-3.63-8.82zm5.5 34.17c-2.26-.3-4.7-8.24-2.17-8.71 2.94-.54 3.82 8.92 2.17 8.71zm97.14-4.28a41.57 41.57 0 01-.82 6.76 17.37 17.37 0 01-1.07 3.4 9.19 9.19 0 01-2.18 3.19 6.73 6.73 0 01-1.81 1.13 7 7 0 01-1 .31h-.96a9.44 9.44 0 01-1.84.05l-.93-.05c-.3 0-.6-.1-.91-.15a16.21 16.21 0 01-6.58-2.85 23.92 23.92 0 01-3-2.51 14 14 0 01-.79 2.07 8.3 8.3 0 01-.67 1.33 7.77 7.77 0 01-.75 1.16 8.19 8.19 0 01-.89 1 9.08 9.08 0 01-1 1 14.06 14.06 0 01-2.27 1.56 15.56 15.56 0 01-2.56 1c-.44.12-.93.28-1.33.36l-1.2.22-.6.1h-.73l-1.33.07a26.22 26.22 0 01-2.66-.19 18.68 18.68 0 01-2.59-.58 18.06 18.06 0 01-2.49-.91 22.27 22.27 0 01-2.32-1.22l-1.11-.7-1-.76c-.69-.53-1.36-1.08-2-1.67a24.16 24.16 0 01-1.81-1.84l-.34-.39-.23.27c-.53.61-1.08 1.2-1.67 1.76s-1.18 1.1-1.79 1.63-1.28 1-2 1.47a20.5 20.5 0 01-2.11 1.29l-1.11.57c-.38.17-.78.32-1.17.47a8.08 8.08 0 01-1.2.41c-.42.11-.81.24-1.24.33a14.86 14.86 0 01-2.56.29h-1.3l-1.31-.15a14.23 14.23 0 01-2.5-.69 15.76 15.76 0 01-2.32-1.07 21.59 21.59 0 01-2.08-1.4 22.43 22.43 0 01-1.88-1.61c-.6-.56-1.15-1.16-1.69-1.77s-1-1.25-1.51-1.9c-.11-.14-.2-.29-.3-.43a36.08 36.08 0 01-4.18 3.27 20.53 20.53 0 01-6.78 3 12.92 12.92 0 01-3.89.29 11.17 11.17 0 01-3.84-1.07 7.58 7.58 0 01-.91-.52 6.8 6.8 0 01-.88-.49l-.67-.53-.17-.14a2.16 2.16 0 01-.34-.33 3.49 3.49 0 01-.25-.32L8 90.43a8.23 8.23 0 01-.77-2c-.18-.62-.3-1.21-.42-1.8a65.86 65.86 0 01-.89-7c-.19-2.32-.33-4.63-.44-6.94-.22-4.62-.33-9.24-.4-13.85-.13-9.23-.13-18.45.06-27.67s.39-18.42.78-27.63a.61.61 0 011.22 0v27.61c0 9.2.18 18.41.47 27.6.17 4.65.39 9.25.65 13.81.14 2.29.31 4.57.54 6.84s.5 4.53.92 6.68a14.24 14.24 0 00.37 1.56 5.9 5.9 0 00.47 1.25v.1l.17.14.68.53a3.25 3.25 0 00.62.39 4.75 4.75 0 00.59.33 8.52 8.52 0 005.74.51 17.17 17.17 0 005.74-2.62 35.4 35.4 0 005.07-4.21 1.57 1.57 0 012.43.3c.33.55.76 1.19 1.18 1.75s.89 1.15 1.36 1.69a20 20 0 001.5 1.55 16.09 16.09 0 001.61 1.38A19.48 19.48 0 0039 91.92a13.32 13.32 0 001.85.84 11.06 11.06 0 001.93.53l1 .1h1a10.85 10.85 0 002-.24c.31-.06.65-.18 1-.27a5.65 5.65 0 001-.33c.32-.14.64-.25 1-.4l.93-.48a18.66 18.66 0 001.81-1.11c.59-.41 1.16-.85 1.71-1.31s1.1-.93 1.62-1.45 1-1 1.51-1.57a21.23 21.23 0 001.35-1.64 1.63 1.63 0 012.27-.35 1.75 1.75 0 01.38.39 17.12 17.12 0 001.38 1.73A19 19 0 0064.27 88 22.14 22.14 0 0066 89.48l.92.68 1 .6a19.87 19.87 0 002 1.06 15.94 15.94 0 002.09.78 17.37 17.37 0 002.16.5 20 20 0 002.2.16l1.1-.05H78l.54-.09 1.2-.2c.39-.07.67-.19 1-.28a12.83 12.83 0 002-.77 11.22 11.22 0 001.75-1.19 5.74 5.74 0 00.77-.71 10.46 10.46 0 001.28-1.67 5.7 5.7 0 00.51-.94 12 12 0 00.76-2 11 11 0 00.35-2 1.5 1.5 0 012.7-.81 19.69 19.69 0 004.35 4.24 13.3 13.3 0 005.4 2.4c.24 0 .48.1.72.13h.72a7.83 7.83 0 001.45 0h.67a2.78 2.78 0 00.54-.15 4.14 4.14 0 001-.61c1.24-1.08 2-3.08 2.47-5.07A39.14 39.14 0 00109 77c.13-2.16.22-4.33.26-6.54 0-4.33 0-8.75-.09-13.14l-1.1-52.76a.45.45 0 01.44-.47.47.47 0 01.47.43c.5 8.79.93 17.58 1.34 26.36s.8 17.59 1.08 26.39c.13 4.4.29 8.78.31 13.24q0 3.3-.15 6.65z"></path>
  </symbol>
  <symbol xmlns="http://www.w3.org/2000/svg" viewBox="0 0 46.27 31.17" id="bread">
    <path d="M23.37 3C16.12 3.27 7.32 7.93 3 15.26c-3.51 5.8-3.4 8.49-2.37 9.45 2.09 1.94 10.94 6.63 23.37 6.46 16.2-.23 22-4.62 22.18-8.52S42.62 2.34 23.37 3z" fill="#bd9468"></path>
    <path d="M19 4.38C18.85 3.07 16.41.88 14.29 2s-2.92 4-3.36 4.45c-1.15 1.09-3.16.26-6.17 3.42-2.12 2.24-2.35 5.28-1.44 5.8s5.89-5.91 9.4-7.75c1.54-.8 6.56-1.15 6.28-3.54zm12-.61c.54-.93 2.09-2.24 4.74-1 2.16 1 3.28 3.9 3.65 4.38 1 1.26 3.08.75 5.56 4.34 1.75 2.53 1.52 5.58.53 6s-4.9-6.75-8.09-9.11C36 7.32 29.79 5.84 31 3.77zm-2.75-.35c.31-.9-1.51-3.54-3.77-3.42-2.68.15-4 3.5-3.52 4 1.04 1 6.89.55 7.29-.58zM25.8 6.07c-1.56-.83-3.68 1.11-3.73 2.69s1.22 2.14 1.08 3.17c-.11.79-2 4.34-1.72 6.86.35 2.74 2.71 5.95 4.54 5.61 1.12-.21 3-5.18 2.13-8-.79-2.57-1.56-3.83-1.52-4.41.09-1.5 3.61-3.6-.78-5.92z" fill="#a87a5a"></path>
    <path d="M22.55 27.49c-6.64-.72-13.66-1.92-19.67-5-.06 0-.11 0-.06.09 5.1 4.25 13.33 4.69 19.72 5a.08.08 0 10.01-.09zm-.27 1.67c-4.82.3-9.33-1.46-14-2.41 0 0-.05 0 0 .05 4.46 1.22 9.26 3.67 14 2.69.2-.04.19-.35 0-.33z" fill="#5a287f" opacity=".16"></path>
    <path d="M15.25 24a38 38 0 01-6.75-1.64c-2.11-.67-4-1.71-6.12-2.39a.08.08 0 00-.08.12c2.82 3.39 8.75 4.21 12.92 4.3a.2.2 0 00.03-.39zm.41-3a13.63 13.63 0 00-5.06-.88 12.13 12.13 0 01-2.94-.42 7.35 7.35 0 00-2.17-.7.09.09 0 000 .17c3 2.63 6.48 1.51 10.06 2.3a.25.25 0 00.11-.47zm.78-2.73c-2.86-1-6 .15-8.8-1.1-.08 0-.12.08-.07.13 2.43 2.06 5.88.82 8.73 1.39.27.05.42-.33.14-.42zM15.15 15c-1.74-.28-3.77 0-5.39-.8 0 0-.09 0 0 .08 1.52 1.47 3.46 1.55 5.48 1.29.29-.02.21-.5-.09-.57zm23.6 11.11a43.81 43.81 0 01-5 1.17c-.06 0-.05.1 0 .1a28.37 28.37 0 005.06-1.1.09.09 0 00-.06-.17zm-.44-1.46a14 14 0 01-2.94.49 5 5 0 00-2.47.57.08.08 0 000 .14 7.48 7.48 0 002.71 0 6.72 6.72 0 002.81-.78c.25-.07.16-.51-.11-.42z" fill="#5a287f" opacity=".16"></path>
    <path d="M14.92 2.56a.25.25 0 00-.36.31.15.15 0 00.13.09.25.25 0 00.23-.4zm-1.08 1.7h-.09a.15.15 0 00-.16.23l.06.08c.19.2.48-.22.19-.31zm1.58-.72a.36.36 0 00-.4.6.36.36 0 00.4-.6zM12.4 5.52a.57.57 0 00-.64 1 .57.57 0 00.64-1zM8.84 7.77l-.14.05c-.07 0 0 .15 0 .14h.15C9 8 9 7.72 8.84 7.77zm-1.69.65a.23.23 0 00.25.38c.3-.14 0-.6-.25-.38zM5.56 9.91l-.09-.07a.27.27 0 00-.31 0l-.07.05a.17.17 0 000 .25l.06.07a.27.27 0 00.31.07h.09a.21.21 0 00.01-.37zm-.39 2.38v-.09a.11.11 0 00-.21 0v.11c-.15.36.41.25.21-.02zm1.63-1.92a.3.3 0 00-.33.5.3.3 0 00.33-.5zm2.3-1.3a.29.29 0 00-.45.3.3.3 0 00.53.11.26.26 0 00-.08-.41zm1.53-2.01c-.18-.37-.74 0-.46.3a.28.28 0 00.46-.3zm15.21-.36a.9.9 0 00-.4 0 .36.36 0 00-.29.43.75.75 0 00.19.35c.52.52 1.22-.48.5-.78zm-2.67.92c-.14-.1-.29.12-.15.21s.29-.12.15-.21zm1.83.82a.34.34 0 00-.38.56.34.34 0 00.38-.56zM26.92 8a.21.21 0 00-.29.09c-.07.1.08.25.18.15.19.04.29-.24.11-.24zM25.8 9.87a.16.16 0 00-.18.27.16.16 0 00.18-.27zm1.02-.14h-.08a.2.2 0 00-.15.23v.07c0 .26.39.29.51.11s-.04-.49-.28-.41zm-2.35 1.73a.25.25 0 00-.28.41.25.25 0 00.28-.41zm-1.27 3.11c-.26.19 0 .61.31.47s.04-.71-.31-.47zm.42 3.76c.12-.15-.17-.31-.24-.12a.2.2 0 00.13.29c.11.03.16-.1.11-.17zM25 14.08a.22.22 0 00-.24.36.22.22 0 00.24-.36zm.13-2.08a.13.13 0 00-.08-.23.21.21 0 00-.19.1.12.12 0 000 .15l.05.05a.12.12 0 00.22-.07zm1.67 2.53a.3.3 0 00-.33.5c.32.21.66-.29.33-.5zm-2.04 1.3a.44.44 0 00-.49.73.44.44 0 00.49-.73zm1.85 1.1a.35.35 0 00-.39.58.35.35 0 00.39-.58zm.76 2.66v.1c0 .11.11.21.19.13l.08-.08c.12-.16-.18-.36-.27-.15zM24.59.51a.16.16 0 00-.18.26c.18.12.36-.15.18-.26zm-1.32 1a.21.21 0 00-.23.34c.22.15.45-.2.23-.34zm-.87.91a.25.25 0 00-.28.41.25.25 0 00.28-.41zm1.83-.22a.38.38 0 00-.42.63.38.38 0 00.42-.63zm.85-1.06a.44.44 0 00-.5.73.44.44 0 00.5-.73zm2.15 1.03a.47.47 0 00-.52.78.47.47 0 00.52-.78zm-1-1.17a.38.38 0 00-.42.63.38.38 0 00.42-.63zm7.48 1.75a.6.6 0 00-.67 1 .6.6 0 00.67-1zm1.74.5a.09.09 0 10-.1.15c.09.06.19-.09.1-.15zm-.11 2.27a.18.18 0 00-.21.3.18.18 0 00.21-.3zm1.08-.83a.08.08 0 10-.09.13c.08.06.17-.07.09-.13zm1.97 2.53c0-.15-.06-.23-.1-.33a.19.19 0 00-.36.06.26.26 0 00.14.45.27.27 0 00.32-.18zm2.7 1.29a.49.49 0 00-.55.82.49.49 0 00.55-.82zm2.13 1.56c-.35-.08-.58.41-.2.53s.52-.45.2-.53zm.91 2.59s-.08 0 0 .06.03-.03 0-.06zm.63.86a.14.14 0 00-.24-.16l-.07.08c-.13.16.16.35.26.18z" fill="#fff"></path>
    <path d="M44.74 13.29a.18.18 0 00-.2.3.18.18 0 00.2-.3zm-.8-1.71v-.08a.48.48 0 00-.64-.05l-.06.05a.37.37 0 000 .52l.05.07a.48.48 0 00.64.05l.06-.06a.36.36 0 00-.05-.5zM41.87 11a.9.9 0 00-.68-.16.32.32 0 00-.24.37.83.83 0 00.4.56.46.46 0 00.52-.77zm-2.6-2.86a.53.53 0 00-.59.88.53.53 0 00.59-.88zM38 4.91A.65.65 0 0037.23 6 .65.65 0 0038 4.91zM36.37 6a.58.58 0 00-.26 0 .23.23 0 00-.21.32.62.62 0 00.14.23c.35.26.81-.41.33-.55zm-.93-2.18a.47.47 0 00-.52.78.47.47 0 00.52-.78zM32.9 4.85h-.1c-.1 0-.21.12-.13.19l.08.07a.13.13 0 10.15-.26zm-12.53-.26a.17.17 0 00-.29-.19l-.08.08c-.14.18.17.39.29.2zm-1.13 1.2a.83.83 0 00-.39.21.09.09 0 000 .16.5.5 0 00.49-.16.13.13 0 00-.1-.21zm-2.81 1.45c-.23-.15-.48.21-.25.36a.22.22 0 00.25-.36zm1.46.52a.5.5 0 00-.56.83.5.5 0 00.56-.83zM19 6.88c-.25-.18-.52.22-.27.4a.24.24 0 00.27-.4zm2.37-1.4a.25.25 0 00-.28.42.25.25 0 00.28-.42zm.04 2.05a.4.4 0 00-.44.66.4.4 0 00.44-.66zm-6.74 2.61a.35.35 0 00-.33-.38.19.19 0 00-.21.17.3.3 0 000 .45.32.32 0 00.54-.24zm11.71-5.36c-.31.21 0 .72.36.55s.05-.83-.36-.55zm2.19-.57c-.18-.12-.37.17-.19.29a.17.17 0 00.19-.29zm.5 1.38c-.18-.12-.36.16-.19.28a.17.17 0 00.19-.28zm1.25-1.28a.42.42 0 00-.47.7.42.42 0 00.47-.7zm4.17 3.24a.18.18 0 00-.2.29.18.18 0 00.2-.29zM37.11 9a.52.52 0 00-.58.86.52.52 0 00.58-.86zm-4.71-.71h-.1a.09.09 0 00-.1.15l.07.08c.13.11.32-.16.13-.23zM30.71 8a.45.45 0 10-.8-.4v.06c-.22.45.54.82.8.39zm-.07-1.85a.36.36 0 00-.41.6.36.36 0 00.41-.6zm.56 4.16a.56.56 0 00-.63.93.56.56 0 00.63-.93zM15.07 8.25a.47.47 0 00-.82 0 .3.3 0 00-.1.47.89.89 0 00.38.21.49.49 0 00.54-.68zM11.64 11a.59.59 0 10-1.18.07c.07.71 1.13.64 1.18-.07z" fill="#fff"></path>
  </symbol>
  <symbol xmlns="http://www.w3.org/2000/svg" viewBox="0 0 20.73 51.28" id="candles">
    <path d="M14.12 0S6.36 6.06 5.81 11.92A4.62 4.62 0 0015 13c.83-4.54-1.51-3.31-.88-13z" fill="#f1c631"></path>
    <path d="M11.8 6s-6.09 7.46-1.66 9 1.66-9 1.66-9z" fill="#e09230"></path>
    <path d="M19.83 31.1c.36 7 .44 17.27.33 17.84-.19.83-3.95 2.34-10.25 2.34-4.91 0-8.27-1.14-9-2.1-.5-.63-.33-10.09 0-17.09 1.78.81 2.23-1.21 3.13-1.31s1-.59 3.17-.77 1.21-1.25 2.71-1.73a15.31 15.31 0 014-1.09c2.88-.48 2.88.42 3.89 0s.82 2.74 2.02 3.91z" fill="#f9e9c2"></path>
    <path d="M19.44 23.83c.61.55 2.34 7.07.39 7.27s-1.59-2-2.61-1.58.66 6.23-2.21 6.71-2.64-7.23-4.14-6.71-1 3.54-3.23 3.71S5 30.66 4 30.78 2.69 32.9.91 32.09a2.7 2.7 0 01-.34-.17c-1.38-.82.05-6 1.13-7.71s16.54-1.47 17.74-.38z" fill="#f5dbae"></path>
    <path d="M2.6 24.45l.67.12a14.22 14.22 0 001.73.18c.73.06 1.58.07 2.5.07h2.88c.98 0 2-.06 2.89-.11l2.52-.12 2.47-.11a.27.27 0 01.27.25.28.28 0 01-.21.26s-1 .2-2.46.39-3.46.37-5.45.43H7.48c-.93 0-1.81-.13-2.56-.23a9 9 0 01-1-.19 6.18 6.18 0 01-.77-.19l-.65-.21a.26.26 0 01-.17-.32.26.26 0 01.27-.22z" fill="#dac39c"></path>
    <path d="M10 24.71a.5.5 0 01-.49-.43c0-.29-1-7.28 1.16-13.38a.5.5 0 11.94.33c-2.09 5.87-1.12 12.84-1.11 12.91a.51.51 0 01-.43.57z" fill="#1d262d"></path>
    <path d="M13 45.64c-1.72-.24-3.46-.11-5.19-.28a14.86 14.86 0 01-3.3-.66 5.78 5.78 0 00-2.13-.61.2.2 0 00-.17.3c.71 1.45 3 1.53 4.39 1.7a25.39 25.39 0 006.4 0c.27.01.27-.42 0-.45zm-7.44 1.92c-.5-.13-1-.29-1.52-.38a9 9 0 00-1.47-.06.37.37 0 000 .73 9.82 9.82 0 011.51.38 4.88 4.88 0 001.37.15.42.42 0 00.11-.82zm-.85-4.93a2.57 2.57 0 00-2.07-.13.37.37 0 00-.09.67 2.24 2.24 0 002.16.22.44.44 0 000-.76z" fill="#5a287f" opacity=".16"></path>
  </symbol>
  <symbol xmlns="http://www.w3.org/2000/svg" viewBox="0 0 35.95 52.08" id="chocolate">
    <path d="M28.82 39.57c.08.47.7.26.73.76C39.7 39.9 35.88 28.84 31 27.49s-6 4-6 4a14.52 14.52 0 011.2 1.19s1.31-3.45 4.14-2.49c3.2 1.09 4.45 6.91-1.18 8.45a1.64 1.64 0 00-.34.93z" fill="#a0594d"></path>
    <path d="M24.41 31s-9.93 3.29-18.94-.38c0 0-3.45 2.63-4.15 5.51a3.66 3.66 0 00-.08.48S4.89 40.44 14 41.33a29.51 29.51 0 0015.42-2.44 9.81 9.81 0 00-.27-1.13 13.47 13.47 0 00-2.93-5.09A14.52 14.52 0 0025 31.48c-.37-.31-.59-.48-.59-.48z" fill="#c58458"></path>
    <path d="M5.26 25.13a18.26 18.26 0 007.93 2 23.69 23.69 0 008.42-.93s-2.14-1.7-7.67-1.67c-5.83.03-7.51.73-8.68.6z" fill="#401d14"></path>
    <path d="M18.29 23.8c-3.4-.55-13.08-1.71-15.06-.2a7 7 0 002 1.52c1.17.13 4.26-.6 8.74-.43a24.44 24.44 0 017.61 1.49A13.22 13.22 0 0026 24c-1.12-.41-4.36.33-7.71-.2z" fill="#78473c"></path>
    <path d="M5.26 25.13a7 7 0 01-2-1.52.78.78 0 00-.35.68C3 26.76 5.5 30.64 5.5 30.64c9 3.67 18.94.38 18.94.38s2.48-5.83 1.91-6.74A.6.6 0 0026 24a13.22 13.22 0 01-4.38 2.16 23.69 23.69 0 01-8.42.93 18.26 18.26 0 01-7.94-1.96zm24.12 13.76A29.51 29.51 0 0114 41.33c-9.07-.89-12.72-4.71-12.72-4.71C-.32 43.3 2.64 48.72 8 51c3.85 1.61 16.79 2.12 19.57-3.14a17.81 17.81 0 002-7.5 13.19 13.19 0 00-.17-1.44z" fill="#8d5347"></path>
    <path d="M13.09 25.81s5.25-5.06 4.08-8.49c-1.4-4.11-10.42-6.6-11.88-9C3.47 5.27 7.12.88 6.58.1S-1.09 2.92.14 9c1.06 5.27 11.49 5.53 14 9.63 2.44 3.91-1.83 7.04-1.05 7.18z" fill="#fae6a7"></path>
    <path d="M13.11 37.05a1.11 1.11 0 111.1 1.12 1.11 1.11 0 01-1.1-1.12zm3.05-2.77a.27.27 0 01.25.29.85.85 0 01-.33.59 1.26 1.26 0 01-.56.32.22.22 0 01-.26-.23c-.04-.47.41-1.04.9-.97zM16 36a.94.94 0 01.91-.48.47.47 0 01.19.87 1 1 0 01-1-.07.24.24 0 01-.1-.32zm0 1.57a.81.81 0 01.66-.35c.35 0 .82.14.8.57a.51.51 0 01-.68.42 2.51 2.51 0 01-.71-.31.24.24 0 01-.07-.33zm-.75 1.21c0-.14.11-.34.29-.35s.31.22.4.33.38.41.28.73a.42.42 0 01-.31.28.52.52 0 01-.53-.25 1 1 0 01-.13-.74zm-2.05.91a.84.84 0 01.45-.67c.29-.19.63.16.54.45a1.35 1.35 0 000 .28.48.48 0 01-.99-.06zm-1.92-1.48a1.37 1.37 0 011.1-.28.3.3 0 01.2.38 1.73 1.73 0 01-.74.7c-.48.27-.99-.45-.56-.8zm.21-2c.22 0 .92.1.86.47a.58.58 0 01-.49.47.6.6 0 01-.7-.43.43.43 0 01.33-.51zm.64-1.21a.39.39 0 01.6-.38.82.82 0 01.32.74.3.3 0 01-.38.25.77.77 0 01-.54-.61zm1.71-.54a.38.38 0 01.62-.13.41.41 0 01.14.42.38.38 0 01-.72.16.43.43 0 01-.04-.45zm-8.48.41A1 1 0 116.19 36a1 1 0 01-.83-1.13zm3.13-2.05a.26.26 0 01.19.3.76.76 0 01-.38.48 1.19 1.19 0 01-.55.21.21.21 0 01-.2-.25.83.83 0 01.94-.74zm-.42 1.49A.84.84 0 019 34a.42.42 0 010 .81.86.86 0 01-.91-.21.22.22 0 01-.02-.29zm-.16 1.45a.74.74 0 01.65-.22c.32 0 .71.24.63.63a.46.46 0 01-.67.27 2.29 2.29 0 01-.59-.38.22.22 0 01-.02-.3zm-.91.98c.06-.13.15-.3.32-.28s.24.24.31.36.28.41.15.69a.42.42 0 01-.33.21.47.47 0 01-.44-.3.94.94 0 01-.01-.68zm-1.93.52a.72.72 0 01.5-.54c.28-.13.54.23.41.48a1.83 1.83 0 00-.08.25.43.43 0 01-.83-.19zm-1.52-1.61a1.29 1.29 0 011-.1.28.28 0 01.12.38 1.51 1.51 0 01-.76.52c-.44.17-.8-.55-.36-.8zM4 33.88c.2 0 .8.23.7.55a.52.52 0 01-.51.35.53.53 0 01-.56-.49.38.38 0 01.37-.41zm.78-1.01a.35.35 0 01.59-.26.74.74 0 01.18.71.27.27 0 01-.38.17.7.7 0 01-.39-.62zm1.61-.22a.34.34 0 01.57 0A.39.39 0 017 33a.36.36 0 01-.68 0 .4.4 0 01.07-.35zm17.33 3.92a1 1 0 11-.89-1.11 1 1 0 01.89 1.11zm-3.02 2.21a.25.25 0 01-.2-.28.75.75 0 01.35-.5 1.2 1.2 0 01.54-.24.21.21 0 01.22.23c-.02.43-.47.91-.91.79zm.35-1.5a.87.87 0 01-.87.35.43.43 0 01-.08-.81.85.85 0 01.9.18.22.22 0 01.05.28zm.07-1.46a.75.75 0 01-.63.26c-.32 0-.73-.21-.67-.6a.47.47 0 01.66-.31 2.47 2.47 0 01.61.35.21.21 0 01.03.3zM22 34.8c-.05.13-.13.3-.3.29s-.26-.22-.33-.34-.31-.4-.18-.68a.39.39 0 01.31-.23.48.48 0 01.46.28.94.94 0 01.04.68zm1.89-.63a.77.77 0 01-.48.57c-.27.14-.55-.2-.43-.46A2.27 2.27 0 0023 34a.43.43 0 01.89.17zm1.59 1.52a1.23 1.23 0 01-1 .16.29.29 0 01-.14-.37 1.51 1.51 0 01.73-.56c.44-.2.84.5.41.77zm-.38 1.8c-.2 0-.81-.19-.73-.51a.56.56 0 011.08.07.39.39 0 01-.35.44zm-.69 1.05a.35.35 0 01-.58.29.76.76 0 01-.22-.7.27.27 0 01.37-.19.7.7 0 01.43.6zm-1.59.3a.33.33 0 01-.57.06.38.38 0 01-.1-.39.35.35 0 01.67-.07.38.38 0 010 .4z" fill="#fff"></path>
    <path d="M17.15 42.92a21.54 21.54 0 006-.12c1.79-.35 3.42-1.1 5.16-1.61.17 0 .32.22.17.33-2.91 2.15-8 3-11.4 1.8a.21.21 0 01.07-.4zm5.7 1.55a24.36 24.36 0 004.32-1s.07 0 0 .07a8.14 8.14 0 01-4.32 1.21c-.14.01-.17-.26 0-.28zm-5.11 1.45c1.25-.1 2.5-.05 3.76-.06A15.37 15.37 0 0027 44.6s.08 0 0 .08c-2.85 2-6.08 1.22-9.32 1.37-.01 0-.02-.13.06-.13zm.64 1.75c2.22-.56 4.41.08 6.6-.82v.07a8 8 0 01-3 1.23c-1.17.11-2.34-.25-3.5 0a.26.26 0 01-.1-.48zm.45-19.83a15.36 15.36 0 004.29-1.29c.47-.18 1.43-.79 1.84-.24a.09.09 0 010 .12c-.34.64-1.57.95-2.23 1.17a9.77 9.77 0 01-3.93.62.19.19 0 01.03-.38zm-.89 2c2.07-.59 4.24-.53 6.12-1.74.08-.05.15.07.09.13C22.67 29.83 20 29.81 18 30a.09.09 0 01-.06-.16zm1.83.45a9 9 0 013.31-.51c.05 0 .1.06.05.09a5.81 5.81 0 01-3.26.9c-.25.01-.31-.38-.1-.48zm10.04 8.18a8.27 8.27 0 002.93-1.23A5.53 5.53 0 0034.57 34c0-.09.15-.09.14 0a4.88 4.88 0 01-4.84 4.78.15.15 0 01-.06-.31z" fill="#5a287f" opacity=".16"></path>
    <path d="M32.63 30.19c1.61 1 1.73 3.05 1.16 4.72h-.07c.41-1.6.31-3.54-1.18-4.56-.08-.08 0-.21.09-.16zm-1.12 9.13a9.1 9.1 0 011.49-1 10.43 10.43 0 011.58-1 .15.15 0 01.14.27 14.13 14.13 0 01-1.35.94 11.3 11.3 0 00-1.82.88s-.06-.06-.04-.09z" fill="#5a287f" opacity=".16"></path>
  </symbol>
  <symbol xmlns="http://www.w3.org/2000/svg" viewBox="0 0 23.6 21.73" id="flower">
    <path d="M6.2 10c.07-1.31-5.64-1.86-6.14.7-.53 2.78 2.56 2.3 2.56 2.3S-.28 14.7.9 17.24c1.45 3.13 5.48-.54 5.48-.54s-2.43 4.37 0 5S11 17.56 11 17.56s.56 4.42 3.28 4 .53-5.13.53-5.13 3.08 4.48 5.7 2.81-.6-4.77-.6-4.77 3.73.14 3.74-1.38c0-2.14-2.72-2.82-2.72-2.82s2.41-1.59 1-3.85-4.45.73-4.45.73 4.45-3.75 1.41-4.86S14 5.42 15 5.26s2.15-4.44.17-4.95S9.87 5 11.25 5.4s1-6.27-2.41-5.3-1.57 5.35-1.57 5.35-3.76-2.77-5.12-.68C0 8 6.14 11.34 6.2 10z" fill="#e09230"></path>
    <path d="M8.19 7.85s-2.55-2.37-3.54-.4a2 2 0 00.84 2.69s-2.56.75-1.49 2.95c.76 1.56 3 .77 3 .77s-.79 2.83.56 3.45S11.3 15 11.3 15s.63 3 1.86 2.66 1-2.66 1-2.66 2.24 1.64 3.64.65-1.57-3.29-1.57-3.29 2.89 1.35 3.27-.53-2.66-2.07-2.66-2.07 2.35-1.17 1.64-2.37a2.5 2.5 0 00-3.62-.55s.64-3.14-1.12-3.16-2.44 2.53-2.44 2.53-.73-2.52-2.42-2.07S8.23 8 8.23 8s1.61-.24-.04-.15z" fill="#e49f32"></path>
    <path d="M9.57 10.61s-5.83.11-4.45 2.6 3.94.49 4.67-.41c0 0-.75 4.58 1.68 4.07s1.35-4.71 1.35-4.71 2.56 3.26 4.56 2.15-3.11-3.58-3.11-3.58 3.94.4 4.07-1.6-5.09.83-5.09.83 3.58-3.62 2.09-4.63-3.2 1-3.59 4.35c0 0-.8-5.26-3.68-3.5-2.07 1.26 1.5 4.43 1.5 4.43z" fill="#ecbb34"></path>
  </symbol>
  <symbol xmlns="http://www.w3.org/2000/svg" viewBox="0 0 38.57 51.44" id="food">
    <path d="M21.81 30.8A6.21 6.21 0 0024.5 32l-.23 1.07h-.19a5.92 5.92 0 00-1.22.29v-.09a11.45 11.45 0 00-6.26-2.06v-2.4a4.44 4.44 0 002.88-2c1.48-2.48.4-7.06-.14-8.92 1.45-.08 2.2-1.81 2.12-2.88-.12-1.73-2.31-2.07-4.16-2.24a21.2 21.2 0 00-5.89-.08c-1.93.23-1.41 1.7-1.41 1.7a1.84 1.84 0 00-1.56 1.28c-.62 2 .07 6.25.07 6.25a1.27 1.27 0 00-.73.33 1.66 1.66 0 00-.59 1.31H5.26V5.24h28v15.62h-1.44v-.14C31.77 20 30 18.17 28.56 19a1.49 1.49 0 00-.56 2.15c-1.7-.68-4.13-.65-5.18.9a10.48 10.48 0 00-1.23 3.41c-.48 2.18-.59 4.54.22 5.34z" fill="#cecece"></path>
    <path d="M25.41 33.72c-1.05 0-1.18-.48-1.18-.48v-.19L24.5 32a8.38 8.38 0 002.05.19l-.18 1.06s.08.42-.96.47z" fill="#f4f0ed"></path>
    <path d="M24.23 33.24s.13.52 1.18.48 1-.48 1-.48 3.16-.08 4.4 2.33 2.15 9.14 2.15 9.14h.38v1.49H20.19v-.26c.17-2.26.43-4.26.7-5.88a41.23 41.23 0 00-1-4.68h.17a5.57 5.57 0 012.8-2 5.92 5.92 0 011.22-.38h.19z" fill="#3f3e3e"></path>
    <path d="M30.44 27.76c.41.13 1.41.6.9 2.11a1.31 1.31 0 01-1.89.71 3 3 0 01-2.9 1.59A8.38 8.38 0 0124.5 32a6.21 6.21 0 01-2.69-1.18c-.78-.76-.7-3.16-.24-5.34a8.39 8.39 0 005-2.82 5 5 0 003.71 5.08zm-13.88 1.05v2.34s0 .76-1.27 1a2.81 2.81 0 01-2.26-.8l.23-2.56a7.06 7.06 0 003.3.02z" fill="#f4f0ed"></path>
    <path d="M19.05 17s.11.31.25.82c.54 1.86 1.62 6.44.14 8.92a4.44 4.44 0 01-2.88 2 7.06 7.06 0 01-3.3 0 5.93 5.93 0 01-.84-.26 7.13 7.13 0 01-3.13-3.13 1.76 1.76 0 01-2.15-1.82 1.66 1.66 0 01.59-1.31 1.27 1.27 0 01.73-.33c.72-.06 1.06.85 1.06.85 3-2.08 1.66-6.44 1.66-6.44 1.94-.71 3.63-.09 4.64-.27.43.26 2.28 1.33 3.21.9z" fill="#f4f0ed"></path>
    <path d="M9.52 22.78s-.34-.91-1.06-.85-.69-4.26-.07-6.25A1.84 1.84 0 0110 14.39s-.47-1.47 1.42-1.75a21.2 21.2 0 015.89.08c1.85.17 4 .51 4.16 2.24.08 1.07-.67 2.8-2.12 2.88-.14-.51-.25-.82-.25-.82L19 17c-.93.43-2.78-.64-3.21-.9-1 .18-2.7-.44-4.64.27.03-.03 1.32 4.33-1.63 6.41z" fill="#3f3e3e"></path>
    <path d="M30.17 22.59c.59.61 1.3 2.05.28 5.15h-.17a5 5 0 01-3.71-5.08 8.39 8.39 0 01-5 2.82 10.48 10.48 0 011.23-3.41c1.05-1.55 3.48-1.58 5.18-.9a1.49 1.49 0 01.58-2.17c1.39-.85 3.21.94 3.26 1.7v.14a1.65 1.65 0 01-1.52 1.61z" fill="gray"></path>
    <path d="M20.19 46.2H5.26v-3.52s.6-5 3-8.07A8.38 8.38 0 0113 31.34a2.81 2.81 0 002.26.8c1.24-.23 1.27-1 1.27-1a11.45 11.45 0 016.26 2.06v.09a5.57 5.57 0 00-2.8 2h-.17a41.23 41.23 0 011 4.68c-.27 1.62-.53 3.62-.7 5.88z" fill="#585857"></path>
    <path d="M13.26 28.78L13 31.34a8.38 8.38 0 00-4.76 3.27c-2.41 3.09-3 8.07-3 8.07V23.57h1.9a1.76 1.76 0 002.15 1.82 7.13 7.13 0 003.13 3.13 5.93 5.93 0 00.84.26zm20.04-7.92v23.85h-.38S32 38 30.77 35.57s-4.4-2.33-4.4-2.33l.18-1.06a3 3 0 002.9-1.59 1.31 1.31 0 001.89-.71c.51-1.51-.49-2-.9-2.11 1-3.1.31-4.54-.28-5.15l.13-.12a1.65 1.65 0 001.52-1.61z" fill="#cecece"></path>
    <path fill="#80603c" d="M5.26 42.67v3.53L0 51.44V0l5.26 5.24v37.43z"></path>
    <path fill="#9b7249" d="M38.57 51.44H0l5.26-5.24H33.3l5.27 5.24z"></path>
    <path fill="#80603c" d="M38.57 0v51.44L33.3 46.2V5.24L38.57 0z"></path>
    <path fill="#9b7249" d="M38.57 0L33.3 5.24H5.26L0 0h38.57z"></path>
    <path d="M21.5 36.06s0 .62-.09 1.56-.2 2.17-.35 3.4-.34 2.47-.49 3.4-.28 1.58-.28 1.58a.1.1 0 01-.12.08.12.12 0 01-.09-.09v-1.57c0-.94.11-2.19.25-3.43s.34-2.48.53-3.4.37-1.53.37-1.53a.14.14 0 01.17-.09.15.15 0 01.1.09zm7.23-.06s.21.57.45 1.43.5 2 .71 3.22a26.61 26.61 0 01.39 3.35 12.18 12.18 0 010 1.51.12.12 0 01-.12.1.14.14 0 01-.09-.09l-.07-.46c0-.25-.11-.62-.2-1.05-.17-.88-.4-2-.63-3.22s-.41-2.35-.53-3.24-.17-1.49-.17-1.49a.13.13 0 01.26-.05z" fill="#363535"></path>
    <path d="M19.68 34.27a13.48 13.48 0 01.92 2.82A13.92 13.92 0 0121 40a.07.07 0 01-.09.06.06.06 0 01-.06-.06c-.28-1-.51-1.9-.74-2.85-.11-.47-.22-1-.32-1.43-.05-.24-.09-.47-.15-.72s-.09-.48-.12-.73a.1.1 0 01.09-.12.11.11 0 01.07.12zm-8.29 1.1s-.14.68-.41 1.68c-.14.5-.27 1.09-.47 1.71s-.37 1.29-.58 2-.41 1.24-.61 1.88l-.55 1.69L8.23 46a.1.1 0 01-.13 0 .09.09 0 01-.1-.08l.06-.47c.05-.31.11-.74.22-1.25s.23-1.11.39-1.74.36-1.29.54-2 .42-1.33.62-1.94.43-1.19.6-1.68c.37-1 .67-1.6.67-1.6a.14.14 0 01.18-.07.15.15 0 01.11.2z" fill="#363535"></path>
    <path fill="#fff" d="M13.38 6.39l-6.9 6.07v4.96L19.58 6.5l-6.2-.11zm8.19.11L6.48 20.86v4.86L28.55 6.5h-6.98z"></path>
  </symbol>
  <symbol xmlns="http://www.w3.org/2000/svg" viewBox="0 0 62.91 38.99" id="picture">
    <path d="M53.09 19s-.3-.9.3-5.67S55 6.86 55 6.86c.56-.32 3.33 2.24 3.26 3.39s-.74 6.72-.53 8.27v.12c-1.31.23-2.85.48-4.61.72zm-12.35 1.28v.29q-2.84.16-5.94.23c-.5-1.19.09-7.36.75-8.18s5.18-.34 5.18.34-.59 6.31.01 7.32zM50 11.23c.31.78-1.34 4.11-1 8.5v.15c-1.55.16-3.21.33-5 .48a17.62 17.62 0 01.47-9.42c.32-.85 2.46-.8 4-.44.81.18 1.44.5 1.53.73zm2.56-8.84C51.3 5.48 50.77 8.3 50.39 8.8c-.16.2-.86.25-1.71.14a5 5 0 01-3.13-1.29C44.67 6.45 47 .33 47 .33a18.42 18.42 0 015.56 2.06zM43.28.05S41 2.87 41 10.1c0 .41-4.41 1-5.47-.35s-.09-6.19 1.23-8.33A16.94 16.94 0 0143.28 0z" fill="#efa0b1"></path>
    <path d="M52.56 2.39C51.3 5.48 50.77 8.3 50.39 8.8c-.16.2-.86.25-1.71.14a5 5 0 01-3.13-1.29C44.67 6.45 47 .33 47 .33a16.59 16.59 0 00-2-.28 16.4 16.4 0 00-1.7 0S41 2.87 41 10.1c0 .41-4.41 1-5.47-.35s-.09-6.19 1.23-8.33a19.66 19.66 0 00-7.66 6.09 9.91 9.91 0 01.76.81c2.93 3.45 4.76 9.65-.85 12.5h5.77c-.5-1.19.09-7.36.75-8.18s5.18-.34 5.18.34-.6 6.31 0 7.32v.29l3.29-.23a17.62 17.62 0 01.47-9.42c.32-.85 2.46-.8 4-.44.82.18 1.45.45 1.55.73.31.78-1.34 4.11-1 8.5v.15c1.5-.16 2.89-.34 4.16-.52v-.38s-.3-.9.3-5.67S55 6.86 55 6.86c.56-.32 3.33 2.24 3.26 3.39s-.74 6.72-.53 8.27v.12c1.13-.2 2.11-.38 2.87-.55l-.07-.37c2.07-5.26-1.77-11.86-7.97-15.33z" fill="#b78963"></path>
    <path d="M29.89 8.32a10.68 10.68 0 01.46 9.27c-.28.53-5.15.21-4.84-1.59 1.31-7.68-2.69-11.6-3-11.86a17.4 17.4 0 016 2.86c.19.16.38.32.57.51a9.91 9.91 0 01.81.81zM23.21 16c.16.79.24 4-.22 4.67-1.9-.08-3.71-.18-5.41-.29a17.94 17.94 0 00.54-4.7c-.01-.54 4.94-.49 5.09.32zm-7.6 1.32a5.57 5.57 0 01-.09 2.88c-1.73-.14-3.35-.28-4.82-.42 0-.16-.29-1.88.26-2 1.32-.19 4.4-1.05 4.65-.46zm3.87-13.76c2.24 1.51 3.69 6.58 3.48 8.63s-3.64 1.49-4.54 1.24-.39-3.11-1.1-5.35a12.11 12.11 0 00-2.68-4.42 18 18 0 014.84-.1zm-7.62 1.1c4.09 4.2 3.41 9.07 2.81 10.2s-3.58 1.3-4 1c-.67-.54-.58-2.81-1.32-4.92a8.67 8.67 0 00-2.6-4.11 13.83 13.83 0 013.4-2 15.37 15.37 0 011.56-.55zM4 19c.41-2.3-2.38-4.27-2.38-4.27a17.6 17.6 0 012-4.4c.24.11 4.16 2.07 3.87 9.12C6.18 19.3 5 19.16 4 19z" fill="#fffde7"></path>
    <path d="M4 19c-1.39-.2-2.44-.37-3.11-.48a16.92 16.92 0 01.73-3.78S4.42 16.71 4 19z" fill="#cea278"></path>
    <path d="M44 20.36c1.76-.15 3.42-.32 5-.48s2.89-.34 4.16-.52c1.76-.24 3.3-.49 4.61-.72 1.13-.2 2.11-.38 2.87-.55 1.49-.3 2.29-.5 2.29-.5S62.44 39 32.5 39 0 18.37 0 18.37l.9.16c.67.11 1.72.28 3.11.48 1 .15 2.17.29 3.5.45 1 .12 2 .24 3.19.34 1.47.14 3.09.28 4.82.42l2.06.14c1.7.11 3.51.21 5.41.29s3.94.13 6.05.15h5.77q3.11-.06 5.94-.23z" fill="#1e98d9"></path>
    <path d="M10.71 15.86c.38.3 3.36.12 4-1s1.28-6-2.81-10.2l-.11-.34a17.61 17.61 0 012.89-.66 12.11 12.11 0 012.68 4.42c.71 2.24.2 5.1 1.1 5.35s4.34.79 4.54-1.24-1.24-7.12-3.48-8.63a19.64 19.64 0 013 .56c.3.26 4.3 4.18 3 11.86-.31 1.8 4.56 2.12 4.84 1.59a10.68 10.68 0 00-.46-9.27c2.93 3.45 4.76 9.65-.85 12.5-2.11 0-4.13-.08-6.05-.15.46-.71.38-3.88.22-4.67s-5.1-.86-5.09-.32a17.94 17.94 0 01-.54 4.7l-2.06-.14a5.57 5.57 0 00.09-2.88c-.25-.59-3.33.27-4.65.5-.55.1-.29 1.82-.26 2a87.9 87.9 0 01-3.19-.34c.29-7-3.63-9-3.87-9.12a13.93 13.93 0 013.14-3.55 8.67 8.67 0 012.6 4.11c.74 2.11.61 4.38 1.32 4.92z" fill="#cea278"></path>
    <path d="M57.17 22.34c-2.05.31-4 .91-6.12 1.21-2.79.39-5.6.56-8.38 1v.07a31.6 31.6 0 009.61.05c1.78-.21 4.21-.23 5.22-1.94a.29.29 0 00-.33-.39zM56 25.22c-3 .63-6 1.24-8.9 1.9a.09.09 0 000 .18c3.05.81 6.7.61 9.29-1.41.29-.26-.09-.74-.39-.67zm-1.8 4.57c-6.75 1.26-13.68 1.39-20.51 1.85a.16.16 0 00-.08.3c2.43 1.75 6.11.65 8.86.39 4.08-.38 8-.67 11.85-2.11a.22.22 0 00-.12-.43zm-6.13 2.99c-1.71 0-3.31.7-5 .7-.15 0-.14.21 0 .23a12.91 12.91 0 005.05-.51.22.22 0 00-.05-.42z" fill="#5a287f" opacity=".16"></path>
    <path d="M15.62 6l-.1-.1a.28.28 0 00-.38 0L15 6a.41.41 0 10.58 0zm-.69 2.21a.63.63 0 000 1.26.63.63 0 000-1.26zm1.4 2.2a.63.63 0 000 1.25.63.63 0 000-1.25zm.2-2.3a.13.13 0 000 .26.13.13 0 000-.26z" fill="#fff"></path>
    <path d="M16.53 8.18a.07.07 0 100 .13.07.07 0 000-.13zM5.48 10h-.19a.22.22 0 000 .43h.19a.25.25 0 100-.43z" fill="#fff"></path>
    <path d="M5.55 10a.21.21 0 000 .41.21.21 0 000-.41zM7.8 8.92L7.61 9a.48.48 0 000 .92h.19c.86.29.86-1.25 0-1zm-.86 2.39a.53.53 0 000 1 .53.53 0 000-1zm2.34 2.01l-.18-.07c-1-.33-1 1.49 0 1.16l.18-.06a.54.54 0 000-1.03zm5.1 1.86a.71.71 0 00-.5-.65 1 1 0 00-.18 0 .68.68 0 00-.65.86v.12a.66.66 0 00.47.46h.09a.62.62 0 00.76-.58c.02-.07.02-.14.01-.21zm1.95-1.86a.31.31 0 000 .62.31.31 0 000-.62zm7.38-6.68h-.2c-.27 0-.27.44 0 .43h.2a.21.21 0 000-.43zm.2 2.72a.48.48 0 000 1 .48.48 0 000-1zM22.52 8h-.2a.18.18 0 000 .36h.2c.25.1.25-.36 0-.36zm.79 4.48a.75.75 0 000 1.5.75.75 0 000-1.5zm2.33-.38l-.11-.1a.6.6 0 100 .85l.11-.1a.47.47 0 000-.65zm5.67.9l-.1-.14a.37.37 0 00-.62 0l-.1.14c-.23.3.08.72.41.72s.64-.43.41-.72zm2.19-7.9a.55.55 0 000 1.09.55.55 0 000-1.09zm-.37 2.61c-.29-.58-1.14-.19-.82.36s1.05.09.82-.36zm2.78 1.57V9.2c-.41-1.17-1.91.33-.74.74h.08a.56.56 0 00.66-.66zm6.37-3.46c0-.24-.43-.18-.43.06s.14.39.42.42.29-.45.01-.48zm-1.4-2.88a.51.51 0 000 1 .51.51 0 000-1zm-1.53 2.64h-.18a.44.44 0 000 .85h.18c.79.27.79-1.04 0-.85zm-1.88.24l-.07-.15a.36.36 0 00-.62 0l-.07.15c-.38.83 1.14.83.76 0zm1.22-4.01a.44.44 0 000 .88.44.44 0 000-.88zm8.98-.14a.79.79 0 000 1.57.79.79 0 000-1.57zM46.27 5a.67.67 0 000 1.33.67.67 0 000-1.33zm2.41-.59l-.07-.16a.39.39 0 00-.68 0l-.07.16c-.42.9 1.24.9.82 0zM48 6.49l-.18.07a.3.3 0 000 .57l.18.07c.56.2.56-.91 0-.71zm-4.52-2.57a.53.53 0 000 1 .53.53 0 000-1zm.6-2.45a.58.58 0 000 1.16.58.58 0 000-1.16zm-5.66 9.13h-.19c-.21 0-.21.39 0 .41h.19a.24.24 0 100-.41zm.47 1.89a.74.74 0 000 1.48.74.74 0 000-1.48zm2.04-1.63l-.18-.07c-.4-.16-.41.65 0 .49l.18-.07a.18.18 0 000-.35zm3.35-3a.78.78 0 000 1.56.78.78 0 000-1.56zm-1.2 2.34a.44.44 0 000 .88.44.44 0 000-.88zm2.99 1.45a.39.39 0 000 .77.39.39 0 000-.77zm-.8 2.16a.62.62 0 000 1.24.62.62 0 000-1.24zm2.85-1.03L48 12.7a.5.5 0 00-.68 0l-.11.08c-.46.36 0 1.09.45 1.09s.92-.73.46-1.09zm1.15-2.19a.25.25 0 000 .49.25.25 0 000-.49zm2.39-2.45a.51.51 0 000 1 .51.51 0 000-1zm0 2.17a.53.53 0 000 1 .53.53 0 000-1zm1.44-3.59l-.1-.18a.39.39 0 00-.74 0l-.07.18c-.27.73 1.21.74.91 0zM55 5.63l.07.15a.27.27 0 00.47 0l.07-.15c.26-.63-.97-.63-.61 0zm-2.44-1.29c-.77-.45-1.28.92-.46 1.08a.6.6 0 00.46-1.08zm1.9 4.89l-.09-.1a.44.44 0 00-.75.31.44.44 0 00.75.31l.09-.11a.3.3 0 000-.41zm2.19-.09a.3.3 0 000 .6.3.3 0 000-.6zm-1.19 2.4a.29.29 0 000 .58.29.29 0 000-.58zM37.49 13a.23.23 0 000 .45.23.23 0 000-.45zm2.39 2.07a.76.76 0 000 1.52.76.76 0 000-1.52zm-14.37-.71a.47.47 0 000 .94.47.47 0 000-.94zM14.33 4.17a.88.88 0 000 1.76.88.88 0 000-1.76zM49.85 13a.64.64 0 001.24-.28c-.17-.84-1.48-.53-1.24.28z" fill="#fff"></path>
  </symbol>
  <symbol xmlns="http://www.w3.org/2000/svg" viewBox="0 0 74.41 69.39" id="skull">
    <path d="M68.8 48.45c.52-1.9 8.43-13.69 4.53-25C69.22 11.5 56.67-3.26 31.88.64 9.52 4.16-3.84 23.75 1 43.56c6.1 25.1 34.05 22.85 41 20.53 3.8-1.27 5.84 5.89 11 5.26s14.7-5 16.52-8.49c1.07-2.01-.72-12.41-.72-12.41z" fill="#efefef"></path>
    <path d="M25.87 42.24s-3.39-1.9-4.76 1.11 2.2 4.5 2.2 4.5-2.8 1.79-2.08 4.48a3.21 3.21 0 003.4 2.41s-1.95 2.76.49 4.35 4.88-.48 4.88-.48 1.32 2.61 4 2.61a3.93 3.93 0 003.85-3.4s2.78.7 4.29-.72c1.71-1.62.16-4.34.16-4.34a3.48 3.48 0 003-2.85 4.54 4.54 0 00-2.06-4.75s1.46-2.63-.45-4.45-4.14 0-4.14 0-.23-3.52-3.4-3.53a3.61 3.61 0 00-3.08 1.74s-3-2-5-.48a3.65 3.65 0 00-1.3 3.8zm39.37-15.83a3 3 0 014.43.69 2.71 2.71 0 01-.78 4.28s3.1 1.18 3 3.95A3.21 3.21 0 0169 38.39s2.47 2.31.41 4.36-4.88.53-4.88.53-.76 2.83-3.36 3.37a3.93 3.93 0 01-4.47-2.54s-2.58 1.26-4.34.18c-2-1.24-1-4.22-1-4.22a3.48 3.48 0 01-3.51-2.17 4.54 4.54 0 011-5.07s-2-2.28-.47-4.45 4-.85 4-.85S51.94 24 55 23.37a3.64 3.64 0 013.38 1.07S61 21.89 63.19 23a3.65 3.65 0 012.05 3.41z" fill="#f2ce35"></path>
    <path d="M42.78 12.65c-2.84-.85-19.53 5.94-21.61 9.63-1.16 2 2.19 10.16 3.16 9.63 17.51-9.63 20-9.29 24.43-11.68 1.4-.76-4.11-7.03-5.98-7.58z" fill="#66a4da"></path>
    <path d="M22.13 5.93s.12.09.36.31a8 8 0 01.88 1A9.92 9.92 0 0124.44 9a7.92 7.92 0 01.68 2.67 9.67 9.67 0 010 1.61 9.14 9.14 0 01-.4 1.72l-.29.84-.4.81a10.92 10.92 0 01-1 1.55 11.76 11.76 0 01-1.19 1.45l-.31.35-.08.09-.08.08-.17.15-.66.6a18 18 0 01-1.6 1.21 9.56 9.56 0 01-1.87.92 5.55 5.55 0 01-4.49-.11 4 4 0 01-1.72-1.75 4.29 4.29 0 01-.4-2.34 4.94 4.94 0 01.78-2 8.74 8.74 0 01.55-.74 8.18 8.18 0 01.63-.68A5 5 0 0115.58 14a2.78 2.78 0 011.71.44c.12.09.24.18.35.28l.14.15.07.08.15.05.14.26a2.09 2.09 0 01.16.5 2.27 2.27 0 01-.3 1.42 4.89 4.89 0 01-.55.84 7 7 0 01-.93.92l-.37.29a.35.35 0 01-.48-.5l.26-.31a8 8 0 00.66-1 2 2 0 00.41-1.34l-.17-.24s.1.13.05.06l-.07-.06-.15-.08a1.52 1.52 0 00-.81-.08 3.62 3.62 0 00-1.92 1.21c-.15.16-.28.35-.41.52A5.82 5.82 0 0013 18a2.94 2.94 0 00-.37 1.13 1.74 1.74 0 001 1.72 3.19 3.19 0 002.54-.09 8.62 8.62 0 001.39-.7 13.93 13.93 0 001.29-.94l.66-.6.17-.14.07-.07.28-.3a11.85 11.85 0 001.07-1.19 8.13 8.13 0 00.9-1.33l.38-.62.27-.65a7 7 0 00.56-2.49A8.25 8.25 0 0023 9.55a8.05 8.05 0 00-.67-1.64 9.87 9.87 0 00-.59-1 6.81 6.81 0 00-.24-.32.46.46 0 01.05-.66.47.47 0 01.59 0zm4.28-1.79a6.09 6.09 0 00.9 1.27 7.36 7.36 0 001.34 1.19 10.07 10.07 0 002.05 1.05 11.63 11.63 0 002.67.6 9.51 9.51 0 001.52.07 12.58 12.58 0 001.61-.06h.78l.89-.13c.63-.08 1-.24 1.6-.34a5.58 5.58 0 002.52-1.43 1.85 1.85 0 00.15-2.14 2.62 2.62 0 00-.77-.93 3.21 3.21 0 00-1.19-.41 5.78 5.78 0 00-2.76.12 2.47 2.47 0 00-.94.54.57.57 0 00-.15.22v-.1.59a1.13 1.13 0 00.34.51 2 2 0 00.84.31A4.49 4.49 0 0039.56 5a3.85 3.85 0 001-.35c.16-.13.12-.08.15-.09a.35.35 0 01.37-.33.36.36 0 01.33.38 1.25 1.25 0 01-.34.64 3.78 3.78 0 01-1.22.75 5.72 5.72 0 01-2.14.39 3.53 3.53 0 01-1.47-.32A2.48 2.48 0 0135 4.51l-.08-.34v-.61a2.37 2.37 0 01.45-1.12 4.12 4.12 0 011.59-1.21A7.45 7.45 0 0140.77.6a5.34 5.34 0 012.16.67A5 5 0 0144.56 3a4.53 4.53 0 01.58 2.41 4.24 4.24 0 01-.9 2.41 7.41 7.41 0 01-3.8 2.26 16.24 16.24 0 01-1.95.38l-.89.1h-.97a14 14 0 01-1.83 0 11.31 11.31 0 01-1.75-.22 11.28 11.28 0 01-3.1-1 9 9 0 01-3.65-3.18 6.21 6.21 0 01-.61-1.23 4.09 4.09 0 01-.16-.48.47.47 0 01.29-.59.46.46 0 01.59.28z" fill="#db42a1"></path>
    <circle cx="33.31" cy="48.91" r="8.19" fill="#230000"></circle>
    <circle cx="59.32" cy="34.46" r="8.19" transform="rotate(-37.41 59.308 34.467)" fill="#230000"></circle>
    <path d="M50.06 45.92c-1.82.58-2.43 6-1 6.34 1.14.23 2-2.1 2.56-2.26s2.79.58 3.22-.44c.64-1.56-2.84-4.25-4.78-3.64zm-4.43 9.41s.27.21.78.55a16.57 16.57 0 002.18 1.23 12.67 12.67 0 001.52.6 11 11 0 001.76.39 7 7 0 003.71-.47c.26-.14.62-.26.83-.39a7.71 7.71 0 00.87-.57 6.64 6.64 0 001.27-1.27 5 5 0 00.48-.75 4.55 4.55 0 00.39-.76 8 8 0 00.48-1.52 11.66 11.66 0 00.24-2.45V49a.42.42 0 01.36-.47.42.42 0 01.44.28 6.61 6.61 0 01.23 1 10 10 0 010 2.74 9.08 9.08 0 01-.42 1.82 6.62 6.62 0 01-1 1.89A7.88 7.88 0 0158.18 58c-.32.26-.6.41-.9.62a7.86 7.86 0 01-1.09.54 8.54 8.54 0 01-4.55.46A11.19 11.19 0 0148 58.23a12.49 12.49 0 01-2.93-2.29.41.41 0 010-.58.42.42 0 01.56-.03z" fill="#230000"></path>
    <path d="M49.14 55.43a4.36 4.36 0 01-.06.63c0 .18-.07.4-.14.62s-.14.45-.22.68a5.83 5.83 0 01-.59 1.2 3.52 3.52 0 01-.38.51.36.36 0 01-.49 0 .38.38 0 01-.11-.24 3.11 3.11 0 01.06-.63 6.27 6.27 0 01.35-1.29q.15-.35.3-.66c.1-.2.22-.38.31-.55a4.39 4.39 0 01.37-.5.35.35 0 01.48 0 .33.33 0 01.12.23zm4.19.68a7.54 7.54 0 01.17.74c0 .23.07.48.09.76s0 .58 0 .87a8.86 8.86 0 01-.13 1.64 5.13 5.13 0 01-.17.74.33.33 0 01-.43.2.35.35 0 01-.21-.2 5.13 5.13 0 01-.17-.74 8.86 8.86 0 01-.13-1.64v-.87c0-.28.07-.53.09-.76a7.54 7.54 0 01.17-.74.34.34 0 01.42-.21.31.31 0 01.3.21zm3.25-.94a4.62 4.62 0 01.45.49 6.62 6.62 0 01.4.53l.4.65a6.77 6.77 0 01.57 1.31 3.78 3.78 0 01.15.65.33.33 0 01-.29.38.38.38 0 01-.26-.07 3.64 3.64 0 01-.47-.49 7 7 0 01-.79-1.19l-.33-.68c-.1-.22-.16-.45-.23-.63a4.67 4.67 0 01-.16-.65.34.34 0 01.28-.38.35.35 0 01.28.08zM58.35 52a4.51 4.51 0 01.65 0c.19 0 .42 0 .66.06l.73.15a6.24 6.24 0 011.33.46 3.08 3.08 0 01.58.33.34.34 0 01.07.47.31.31 0 01-.23.14 3.69 3.69 0 01-.66 0 6.41 6.41 0 01-1.39-.22l-.71-.22c-.23-.08-.44-.18-.61-.25a4.66 4.66 0 01-.58-.32.33.33 0 01-.09-.47.35.35 0 01.25-.13z" fill="#230000"></path>
    <path d="M7.37 42.33c.25 1.71-.58 3.24-1.84 3.43S3 44.7 2.78 43s.58-3.25 1.85-3.43 2.5 1.05 2.74 2.76z" fill="#f2ce35"></path>
    <path d="M4.49 37.78C2.9 38 2 29.9 4.11 29.92c2.68.02 1.7 7.64.38 7.86zm3.88 2.14c-.71-.22 1.44-8.28 4-6.9s-2.37 7.39-4 6.9zm.91 3.82c0 1.11 6.52 2.28 6.4.18-.19-3.25-6.38-1.28-6.4-.18zM7.09 47.2c-.6.46 2.27 6.3 4.29 4.61s-3.05-5.59-4.29-4.61z" fill="#60a07c"></path>
    <ellipse cx="60" cy="9.97" rx="2.14" ry="2.88" transform="rotate(-41.89 60.001 9.966)" fill="#f2ce35"></ellipse>
    <path d="M62.94 13.41c1.09-1 5.91 4.79 4.31 5.83-2.08 1.36-5.25-4.99-4.31-5.83zm-4.07.34c.65-.2 3.12 7.09.49 7.32s-1.95-6.89-.49-7.32zm-2.65-2.47c-.56-.86-6.17 1.58-5 3.14 1.78 2.39 5.55-2.28 5-3.14zm-.08-3.77c.21-.66-5-3.67-5.65-1.35s5.19 2.73 5.65 1.35z" fill="#60a07c"></path>
  </symbol>
  <symbol xmlns="http://www.w3.org/2000/svg" viewBox="0 0 202.39 108.52" id="skulls">
    <path d="M74.83 52.7c.57-2.07 9.18-14.89 4.93-27.21-4.47-13-18.12-29-45.08-24.8C10.36 4.52-4.18 25.83 1.07 47.38c6.65 27.31 37.06 24.85 44.61 22.33 4.14-1.38 6.36 6.41 12 5.72s16-5.46 18-9.23c1.1-2.2-.85-13.5-.85-13.5z" fill="#efefef"></path>
    <path d="M28.14 45.94s-3.69-2.06-5.14 1.21c-1.56 3.42 2.39 4.9 2.39 4.9s-3.08 1.95-2.3 4.87a3.49 3.49 0 003.7 2.62s-2.12 3 .54 4.73 5.31-.52 5.31-.52 1.44 2.84 4.33 2.84c3.68 0 4.19-3.7 4.19-3.7s3 .77 4.66-.78c1.86-1.76.18-4.72.18-4.72a3.8 3.8 0 003.25-3.1A4.92 4.92 0 0047 49.13s1.59-2.87-.49-4.84-4.5 0-4.5 0-.25-3.84-3.7-3.85A3.92 3.92 0 0035 42.33s-3.27-2.15-5.42-.52a4 4 0 00-1.44 4.13zM71 28.73a3.27 3.27 0 014.82.75 3 3 0 01-.85 4.66s3.38 1.27 3.22 4.29a3.5 3.5 0 01-3.09 3.33s2.7 2.51.45 4.74-5.31.58-5.31.58-.82 3.07-3.66 3.67C63 51.5 61.69 48 61.69 48s-2.81 1.36-4.72.18c-2.19-1.34-1.15-4.58-1.15-4.58A3.78 3.78 0 0152 41.22a4.92 4.92 0 011.13-5.51s-2.14-2.47-.52-4.84S57 30 57 30s-.54-3.8 2.83-4.53a3.94 3.94 0 013.67 1.17s2.76-2.78 5.2-1.62a4 4 0 012.3 3.71z" fill="#f2ce35"></path>
    <path d="M46.54 13.76c-3.1-.92-21.25 6.46-23.52 10.48-1.26 2.23 2.39 11.05 3.44 10.47C45.51 24.24 48.22 24.61 53 22c1.56-.82-4.43-7.64-6.46-8.24z" fill="#66a4da"></path>
    <path d="M24.07 6.45a4 4 0 01.39.34 7.47 7.47 0 011 1.07 10.53 10.53 0 011.16 1.93 8.67 8.67 0 01.75 2.91 11.44 11.44 0 010 1.75 11 11 0 01-.42 1.81c-.11.3-.21.61-.32.92s-.29.58-.43.88a11.68 11.68 0 01-1.07 1.69 13.61 13.61 0 01-1.29 1.57l-.34.38-.09.1-.09.08v.05l-.18.16-.72.65a18 18 0 01-1.74 1.32 10.64 10.64 0 01-2 1 6 6 0 01-5.02-.06 4.44 4.44 0 01-1.87-2 4.6 4.6 0 01-.43-2.53 5.28 5.28 0 01.85-2.17 9.47 9.47 0 01.59-.81 8 8 0 01.69-.73A5.5 5.5 0 0117 15.17a3.07 3.07 0 011.86.49 3.65 3.65 0 01.37.29l.16.17.07.09.07.09.15.28a3.8 3.8 0 01.18.54 2.54 2.54 0 01-.28 1.49 4.88 4.88 0 01-.6.92 7.6 7.6 0 01-1 1l-.4.32a.38.38 0 01-.54-.07.39.39 0 010-.48l.29-.34a10.44 10.44 0 00.71-1 2.13 2.13 0 00.38-1.47l-.19-.25s.11.15.05.08l-.07-.06c-.06 0-.12-.06-.17-.1a1.66 1.66 0 00-.94-.16 3.86 3.86 0 00-2.1 1.3 4.18 4.18 0 00-.45.57 5.45 5.45 0 00-.4.65 3.16 3.16 0 00-.4 1.23 1.91 1.91 0 001.09 1.88 3.51 3.51 0 002.76-.1 10.17 10.17 0 001.51-.76 13.5 13.5 0 001.4-1l.73-.65.18-.16.07-.09.31-.32A11.75 11.75 0 0023 18.2a10.59 10.59 0 001-1.35l.41-.68c.1-.24.2-.47.29-.7a7.84 7.84 0 00.61-2.71 8.87 8.87 0 00-.31-2.38 9.51 9.51 0 00-.72-1.78 12 12 0 00-.65-1.07 3 3 0 00-.26-.35.52.52 0 01.06-.72.51.51 0 01.64 0zm4.66-1.94a6.52 6.52 0 001 1.37 8.3 8.3 0 001.45 1.3 10.8 10.8 0 002.23 1.14A12.44 12.44 0 0036.3 9a9.92 9.92 0 001.7.05A14.84 14.84 0 0039.7 9h.86l1-.15a15.13 15.13 0 001.74-.37A5.9 5.9 0 0046 6.84a2 2 0 00.17-2.32 3 3 0 00-.84-1A3.49 3.49 0 0044 3.05a6.32 6.32 0 00-3 .26 2.91 2.91 0 00-1 .58 1 1 0 00-.16.24v-.1.53a1.29 1.29 0 00.38.56 2.3 2.3 0 00.91.34 5 5 0 001.87 0 4.28 4.28 0 001.11-.38c.18-.15.13-.09.16-.1a.38.38 0 01.41-.35.37.37 0 01.35.4 1.15 1.15 0 01-.36.7 4.24 4.24 0 01-1.35.8A6.26 6.26 0 0141 7a3.87 3.87 0 01-1.6-.35 2.72 2.72 0 01-1.35-1.69L38 4.53v-.62a2.47 2.47 0 01.49-1.21 4.34 4.34 0 011.74-1.32 8 8 0 014.12-.73 5.85 5.85 0 012.35.73 5.45 5.45 0 011.77 1.9 4.9 4.9 0 01.63 2.62 4.63 4.63 0 01-1 2.62A8.16 8.16 0 0144 11a17.23 17.23 0 01-2.13.41l-1 .1h-1.06a14.51 14.51 0 01-2 0 12 12 0 01-1.81-.22 12.52 12.52 0 01-3.38-1.08 9.71 9.71 0 01-4-3.51 6.57 6.57 0 01-.67-1.34 4.53 4.53 0 01-.17-.51.51.51 0 01.31-.65.5.5 0 01.64.31z" fill="#db42a1"></path>
    <circle cx="36.24" cy="53.2" r="8.91" fill="#230000"></circle>
    <circle cx="64.52" cy="37.49" r="8.91" transform="rotate(-37.41 64.525 37.484)" fill="#230000"></circle>
    <path d="M54.45 50c-2 .63-2.65 6.57-1.11 6.89 1.25.26 2.21-2.28 2.78-2.46s3 .64 3.51-.47c.71-1.7-3.08-4.67-5.18-3.96zm-4.81 10.19s.29.22.84.59a16.88 16.88 0 002.37 1.34 14.35 14.35 0 001.66.66 14 14 0 001.91.42 7.58 7.58 0 004-.51c.29-.16.68-.28.91-.43s.7-.41 1-.61a7.57 7.57 0 001.38-1.39 9.26 9.26 0 00.94-1.64 8.78 8.78 0 00.5-1.62 11.83 11.83 0 00.26-2.66v-1a.45.45 0 01.39-.51.47.47 0 01.49.31 7.85 7.85 0 01.24 1.11 10.87 10.87 0 010 3 9.85 9.85 0 01-.46 2 7.27 7.27 0 01-1 2.06 8.84 8.84 0 01-1.75 1.83c-.34.28-.65.44-1 .67a8.77 8.77 0 01-6.13 1.09 12.26 12.26 0 01-4-1.48A13.76 13.76 0 0149 60.85a.46.46 0 010-.64.45.45 0 01.64-.02z" fill="#230000"></path>
    <path d="M53.45 60.3a4.37 4.37 0 01-.07.68c0 .2-.07.43-.14.67l-.24.74a6.66 6.66 0 01-.65 1.31 4.71 4.71 0 01-.41.55.38.38 0 01-.53 0 .34.34 0 01-.12-.26 3.61 3.61 0 01.06-.68 6.43 6.43 0 01.39-1.41c.11-.24.21-.48.32-.71s.24-.42.33-.6a4.71 4.71 0 01.41-.55.38.38 0 01.53 0 .36.36 0 01.12.26zM58 61a7.12 7.12 0 01.18.81c0 .24.08.53.1.83s0 .62.05.95a10.25 10.25 0 01-.14 1.77 5.89 5.89 0 01-.19.81.37.37 0 01-.47.22.34.34 0 01-.22-.22 4.52 4.52 0 01-.19-.81 8.58 8.58 0 01-.12-1.74v-.95c0-.3.07-.59.1-.83a5.89 5.89 0 01.19-.81.35.35 0 01.45-.23.39.39 0 01.26.2zm3.54-1a4.77 4.77 0 01.5.53c.12.17.29.36.43.58l.44.71a6.89 6.89 0 01.61 1.42 3.52 3.52 0 01.17.71.37.37 0 01-.32.42.38.38 0 01-.28-.09 3.74 3.74 0 01-.51-.52 7.91 7.91 0 01-.86-1.3l-.36-.74c-.11-.24-.18-.49-.25-.68a5.72 5.72 0 01-.18-.71.37.37 0 01.31-.42.4.4 0 01.3.09zm1.93-3.48a5.42 5.42 0 01.72 0c.21 0 .46 0 .71.08l.8.15a7.84 7.84 0 011.45.51 4.53 4.53 0 01.62.35.37.37 0 01-.16.67 4.43 4.43 0 01-.72 0 6.91 6.91 0 01-1.51-.24l-.78-.24c-.25-.08-.47-.19-.67-.27a5.16 5.16 0 01-.63-.35.37.37 0 01-.09-.51.4.4 0 01.26-.15z" fill="#230000"></path>
    <path d="M8 46c.27 1.86-.63 3.53-2 3.73s-2.72-1.15-3-3 .66-3.5 2-3.73 2.75 1.18 3 3z" fill="#f2ce35"></path>
    <path d="M4.88 41.09c-1.73.29-2.67-8.57-.41-8.55 2.92.03 1.85 8.31.41 8.55zm4.23 2.34c-.77-.24 1.57-9 4.3-7.52s-2.59 8.09-4.3 7.52zm.99 4.15c0 1.21 7.09 2.48 7 .19-.25-3.53-6.99-1.39-7-.19zm-2.39 3.76c-.65.5 2.47 6.86 4.67 5s-3.32-6.06-4.67-5z" fill="#60a07c"></path>
    <ellipse cx="65.26" cy="10.84" rx="2.33" ry="3.14" transform="rotate(-41.89 65.267 10.844)" fill="#f2ce35"></ellipse>
    <path d="M68.47 14.59c1.17-1.11 6.42 5.2 4.68 6.34-2.26 1.47-5.66-5.43-4.68-6.34zM64 15c.71-.21 3.4 7.71.54 8s-2.09-7.58-.54-8zm-2.85-2.73c-.61-.93-6.7 1.72-5.43 3.41 1.96 2.6 6.03-2.48 5.43-3.41zm-.09-4.1c.24-.72-5.4-4-6.14-1.47s5.65 2.98 6.14 1.47z" fill="#60a07c"></path>
    <path d="M134.47 65.9c-.55-1.85-8.72-14-5.12-25.14C133.14 29 143.61 15.18 168 18.51c22 3 35.53 22 31.19 41.5-5.5 24.75-30.85 21.24-37.71 19.1-3.76-1.17-7.13 6.27-12.21 5.75s-15.93-2.18-17.45-7.44c-.6-2.14 2.65-11.52 2.65-11.52z" fill="#efefef"></path>
    <path d="M157.24 29.45c5.49-.54 19.6 6.5 21.73 10.08 1.17 2-4.35 9.82-5.27 9.25-9.94-6.1-16.46-8.79-21.33-10.11-1.51-.41 2.97-9.03 4.87-9.22z" fill="#7db293"></path>
    <path d="M158.35 66.69a8 8 0 107.88-8.21 8 8 0 00-7.88 8.21z" fill="#230000"></path>
    <circle cx="141.39" cy="53.17" r="8.04" transform="matrix(.99 -.17 .17 .99 -6.84 24.09)" fill="#230000"></circle>
    <path d="M149.07 63.05c1.72.53 1.68 5.81.36 6.11-1.06.24-2-2-2.45-2.12s-2.6.6-3-.36c-.68-1.45 3.27-4.18 5.09-3.63zm6.17 10.66a8.9 8.9 0 01-.62.8 14.14 14.14 0 01-1.93 1.83 11 11 0 01-3.38 1.82 8.82 8.82 0 01-2.21.39 8 8 0 01-2.32-.26 7.44 7.44 0 01-1.15-.39 8.59 8.59 0 01-1-.48 7.32 7.32 0 01-1.8-1.46 6.61 6.61 0 01-1.18-1.74 9.28 9.28 0 01-.64-1.74 8.55 8.55 0 01-.26-1.51v-1.18c0-.33 0-.58.06-.75v-.28a.44.44 0 01.51-.38.47.47 0 01.39.42v.27c0 .16 0 .39.07.68a10.73 10.73 0 00.55 2.32 8.56 8.56 0 00.67 1.41 5.91 5.91 0 00.47.68 4.84 4.84 0 00.56.64 6.87 6.87 0 001.38 1.06 9.69 9.69 0 00.91.44c.21.1.57.17.85.28a7.16 7.16 0 003.62 0 11.74 11.74 0 001.64-.58 13.32 13.32 0 001.41-.78 15.59 15.59 0 002-1.45c.45-.39.69-.62.69-.62a.45.45 0 01.64 0 .45.45 0 01.07.56z" fill="#230000"></path>
    <path d="M151.73 73.41a4.45 4.45 0 01.42.45c.11.15.25.31.37.5s.25.39.37.6a6 6 0 01.52 1.21 3.68 3.68 0 01.14.6.33.33 0 01-.29.36.37.37 0 01-.25-.07 3.84 3.84 0 01-.43-.45 6.64 6.64 0 01-.73-1.09l-.3-.64c-.09-.2-.15-.41-.21-.58a3.68 3.68 0 01-.14-.6.31.31 0 01.27-.36.33.33 0 01.26.07zm-3.93 1.41a6.15 6.15 0 01.26.7c.05.21.13.46.19.73s.09.55.14.84a8.38 8.38 0 01.09 1.6 4.76 4.76 0 01-.07.75.32.32 0 01-.37.25.34.34 0 01-.23-.17 6.15 6.15 0 01-.26-.7 9.69 9.69 0 01-.33-1.58c0-.29-.05-.58-.07-.85s0-.53 0-.75a6.88 6.88 0 01.07-.74.32.32 0 01.36-.26.31.31 0 01.22.18zm-3.53-.68a6.75 6.75 0 01-.29.68c-.1.19-.21.42-.35.65l-.46.7a8.71 8.71 0 01-1 1.21 4 4 0 01-.55.48.31.31 0 01-.44-.07.32.32 0 010-.28 5.34 5.34 0 01.28-.68 8.9 8.9 0 01.81-1.35l.52-.66c.17-.2.36-.38.5-.54a5.75 5.75 0 01.55-.49.32.32 0 01.44.07.32.32 0 01-.01.28zM142 72.08a5.76 5.76 0 01-.52.38c-.16.09-.35.21-.56.31l-.67.31a6.9 6.9 0 01-1.33.39 4.77 4.77 0 01-.64.08.32.32 0 01-.32-.33.35.35 0 01.1-.24 4.1 4.1 0 01.52-.38 7 7 0 011.23-.62l.7-.23c.23-.07.45-.11.63-.15a3.44 3.44 0 01.64-.08.31.31 0 01.33.31.34.34 0 01-.11.25z" fill="#230000"></path>
    <path d="M192.9 58.92c-.21 1.69.64 3.18 1.88 3.33s2.43-1.08 2.64-2.77-.63-3.17-1.88-3.32-2.43 1.08-2.64 2.76z" fill="#f2ce35"></path>
    <path d="M195.64 54.4c1.57.23 2.26-7.78.22-7.72-2.64.08-1.52 7.53-.22 7.72zm-3.77 2.19c.7-.23-1.58-8.1-4-6.7s2.47 7.2 4 6.7zm-.81 3.76c0 1.09-6.35 2.37-6.27.3.12-3.19 6.21-1.38 6.27-.3zm2.22 3.35c.59.44-2.11 6.23-4.12 4.61s2.84-5.54 4.12-4.61z" fill="#f995c7"></path>
    <path d="M143.56 28.21a2 2 0 00.21-2.77 2 2 0 00-2.71.61 2 2 0 00-.2 2.77 2 2 0 002.7-.61z" fill="#f2ce35"></path>
    <path d="M140.09 29.84c-.85-.77-4.49 3.79-3.23 4.57 1.62 1.01 3.94-3.94 3.23-4.57zm3.16.16c-.51-.14-2.31 5.53-.27 5.66s1.4-5.32.27-5.66zm2-1.91c.42-.67 4.79 1.12 3.91 2.34-1.35 1.87-4.32-1.67-3.91-2.34zm.01-2.92c-.18-.5 3.77-2.91 4.34-1.13s-3.97 2.19-4.34 1.13z" fill="#f995c7"></path>
    <path d="M171.94 58.31c-.67-.31-.15-5.23 1.87-4.35s-1.37 4.58-1.87 4.35zm2.74 2.74c-.27-.51 2.84-4.9 4.71-3s-4.14 4.04-4.71 3zm1.92 4.24c0 .79 4.48 1.83 4.55-.41s-4.6-.98-4.55.41zm-41.93-19.17c-.38.59-4.93-.55-3.83-2.33s4.16 1.89 3.83 2.33zm2.94-2.21c-.51.2-4.22-3.32-2.22-4.83s3.27 4.44 2.22 4.83zm4.24-1.23c.74.08 2.32-4 .22-4.33s-1.54 4.19-.22 4.33z" fill="#1e98d9"></path>
    <path d="M156.76 51.17s.51-4.6-1.73-3.72c-1.65.66-1.62 6.58.68 7.09s7.49-2.84 5.81-4.33-4.76.96-4.76.96z" fill="#dd2f76"></path>
    <path d="M195.2 27.48c1.38-.61 2.46-1.69 1.94-3.24-.69-2.07-2.62-2-4.15-1.25 1.23-1.45 2.2-3.48.32-5.21-2.68-2.46-4.55 1.47-4.55 1.47s-.07-4.38-4.17-3.89c-2.12.25-2.58 2-2.34 3.56-1.74-1.14-4.21-1.79-5.56.48a3.52 3.52 0 00.86 4.72c-1.34 0-2.61.46-2.85 1.62-.29 1.44 1.17 2.79 2.58 3.57a2.87 2.87 0 00-2.13 3.15c.29 2.62 3.58 2.84 5 2.12 0 1.57.61 3.93 2.87 4.29 4.05.65 3.5-3.66 3.5-3.66s1.23 3.3 4.39 2.32c2.12-.66 2.28-2.84 2-4.46a3.06 3.06 0 002.29-5.59z" fill="#d76f2e"></path>
    <path d="M185.73 23.13s-1.2-3.68-3.28-2.64c-2.35 1.17.48 4 1.81 4.23s-.91-1.55-3.76-1a2.26 2.26 0 00-1.28 4 4.73 4.73 0 004.81.59c2-.87.89-.91 0-.74s-4.65 2.68-2.16 5.09 5-3.21 4.32-3.46c-1-.38-1.94 5.27 2 4.76s2.45-5.17.27-6.34.14 2.35 2.83 1.11.59-4.06-2.07-3.87c-2.44.16-2.37 1.24-1.89 1.24 1.3 0 4.27-2.57 2.21-4.57-1.79-1.74-3.66-.36-3.81 1.6z" fill="#e29a33"></path>
    <path d="M187.72 25.69s1.37-1.92.11-2.56c-.93-.47-1.4.38-1.52 1.23a3.61 3.61 0 00-.75-1 1.37 1.37 0 00-2.44.84 2.85 2.85 0 00.62 1.84c-.87-.15-1.89 0-2.06 1.26-.15 1.1.8 1.39 1.71 1.36a1.41 1.41 0 00-.07 2.19c1.26 1.31 2.57.26 3-1a1.71 1.71 0 00.64.61c1.54.84 2.16-1.08 1.22-2.32a1.35 1.35 0 001.7-1.14c.21-1.53-1.14-1.95-2.16-1.31z" fill="#ecbb34"></path>
    <path d="M157.79 10.23c-.39-1.24-1.2-2.27-2.58-2-1.84.39-1.93 2.05-1.48 3.43-1.12-1.19-2.76-2.23-4.43-.79-2.36 2 .81 4 .81 4s-3.75-.37-3.73 3.18c0 1.84 1.46 2.41 2.82 2.36-1.16 1.37-2 3.42-.14 4.8a3 3 0 004.12-.27c-.11 1.15.13 2.27 1.1 2.59 1.2.39 2.51-.72 3.31-1.85a2.47 2.47 0 002.48 2.13c2.28 0 2.78-2.78 2.32-4.1 1.34.16 3.42-.14 4-2 .95-3.4-2.79-3.35-2.79-3.35s2.94-.72 2.41-3.53c-.35-1.87-2.2-2.23-3.62-2.11a2.63 2.63 0 00-4.55-2.51z" fill="#d76f2e"></path>
    <path d="M153.14 17.9s-3.27.66-2.59 2.54c.78 2.14 3.47 0 3.8-1.12s-1.42.62-1.25 3.11a2 2 0 003.34 1.49 4.06 4.06 0 001-4.06c-.55-1.77-.69-.84-.63-.1s1.83 4.24 4.14 2.35-2.26-4.57-2.53-4c-.43.84 4.31 2.18 4.27-1.23s-4.19-2.61-5.41-.86 2 .12 1.24-2.31-3.42-.9-3.52 1.39c-.1 2.11.83 2.15.87 1.74.13-1.11-1.77-3.9-3.68-2.34-1.71 1.34-.72 3.08.95 3.4z" fill="#e29a33"></path>
    <path d="M155.52 16.45s-1.5-1.36-2.17-.34c-.5.74.18 1.23.9 1.41a3.33 3.33 0 00-.95.55 1.18 1.18 0 00.48 2.17 2.45 2.45 0 001.63-.35c-.22.73-.19 1.62.88 1.89s1.27-.55 1.33-1.34a1.22 1.22 0 001.87.28c1.24-.95.47-2.17-.54-2.7a1.47 1.47 0 00.58-.49c.87-1.23-.71-2-1.86-1.27a1.17 1.17 0 00-.82-1.53c-1.28-.32-1.77.79-1.33 1.72z" fill="#ecbb34"></path>
    <path d="M180 26.19c1.71-2-1.47-5.37-1.47-5.37s4.38 1 4.93-1.57c.85-4-5.51-2.72-5.51-2.72s4.58-2.72 2.75-5.1-5.13.27-5.13.27-.89-5.24-3.56-4.83c-3 .48-2.16 3.84-2.16 3.84s-4.91-3.43-6.56-.49c-2.13 3.81 3.15 5.48 3.15 5.48s-6 .71-5.14 4.42c.7 3.1 4.8 1.35 4.8 1.35s-2 3.58-.09 4.83c2.45 1.62 4.59-3 4.59-3s-1 4.32 1.8 4.59c2.44.25 2.37-3.78 2.37-3.78s3.5 4.11 5.23 2.08z" fill="#e09230"></path>
    <path d="M180.64 22.92c1.1-1.73-.46-3.45-2.43-4.68 1.65 0 3-.66 2.91-2.43-.17-2.39-2.05-3-4-2.76a4 4 0 00.4-2.55c-.5-3.38-4.5-2.21-6.18 0-1.42-1.81-4.88-3.36-5.61-1.36a5.5 5.5 0 000 4.18c-1.57.18-3 .95-3 2.4 0 2.06 1.46 2.71 3.15 2.72-1.18.89-2 2.13-1.54 3.74.62 1.94 3.05.63 4.9-1-.82 3.5.87 7.14 3.56 5.09a4.91 4.91 0 001.49-4.18c2.03 1.76 4.96 3.02 6.35.83z" fill="#ecbb34"></path>
    <path d="M176.71 20.15a2.78 2.78 0 00-1.3-2.14c1.46-.23 3.06-1.07 2.59-2.46-.37-1.1-1.68-1-2.92-.58.57-.74.8-1.58 0-2.15-1.11-.77-2-.14-2.61.76a2.23 2.23 0 00-1-1.08c-1.66-1-2.56 1.19-2.18 2.71-1.3 0-3.21.95-2.59 2a3.11 3.11 0 001.84 1.47c-.48.75-.65 1.65 0 2.16a1.51 1.51 0 002.31-.41 1.87 1.87 0 001.1 2c1.07.41 1.35-1.12 1.29-2.51 1.22 1.59 3.42 2.14 3.47.23z" fill="#f2ce35"></path>
    <path d="M202.08 41.34c.5-1.65-2.27-2.84-2.27-2.84s2.88-.54 2.56-2.21c-.51-2.59-4-.21-4-.21s2-2.81.33-3.77-3 1.48-3 1.48-1.88-2.91-3.37-2c-1.7 1.07-.31 2.86-.31 2.86s-3.83-.79-4.06 1.39c-.3 2.83 3.29 2.48 3.29 2.48s-3.4 2-1.94 4c1.21 1.68 3.22-.42 3.22-.42s-.27 2.66 1.19 2.92c1.89.34 2-3 2-3s.52 2.84 2.26 2.29c1.52-.48.45-2.87.45-2.87s3.14 1.56 3.65-.1z" fill="#e09230"></path>
    <path d="M201.64 39.21c.21-1.32-1.16-2-2.67-2.18 1-.45 1.66-1.18 1.13-2.21-.72-1.39-2-1.24-3.08-.63a2.62 2.62 0 00-.42-1.64c-1.17-1.9-3.26-.17-3.7 1.6-1.32-.73-3.79-.77-3.72.63a3.64 3.64 0 001.08 2.5c-.89.51-1.55 1.33-1.17 2.2.53 1.24 1.57 1.26 2.58.83a2.16 2.16 0 00.05 2.64c.86 1 2-.41 2.67-1.87.41 2.31 2.36 4.06 3.44 2.14a3.19 3.19 0 00-.17-2.89c1.62.55 3.71.55 3.98-1.12z" fill="#ecbb34"></path>
    <path d="M198.57 38.56a1.81 1.81 0 00-1.33-1c.81-.51 1.56-1.43.92-2.14s-1.27-.18-1.9.4c.15-.59.07-1.15-.57-1.28-.87-.18-1.25.43-1.37 1.13a1.51 1.51 0 00-.87-.4c-1.25-.16-1.23 1.37-.61 2.19-.78.32-1.68 1.39-1 1.85a2.06 2.06 0 001.48.42c-.09.57 0 1.15.55 1.3.73.2 1.11-.25 1.28-.85a1.22 1.22 0 001.17.92c.75 0 .53-1 .13-1.84 1.12.74 2.55.46 2.12-.7z" fill="#f2ce35"></path>
    <path d="M111.1 44.48c.52.24 10.31 4.88 6.39 6.89s-10-5.48-10-5.48-.38 8.85-3.63 8.4a1.09 1.09 0 01-.25 0c-3.48-.94-.78-8.78-.78-8.78s-9.21 6.27-11.22 2.1c-1.72-3.54 7.75-4.71 7.75-4.71a43.08 43.08 0 017.58.65 41.39 41.39 0 014.18 1z" fill="#dd2f76"></path>
    <path d="M131.12 58.3c-6.48 3.59-14.35-2.76-14.35-2.76s1.14 5.78-4.09 6.52c-5.57.8-9-5.35-9-5.35l.14-2.42c3.25.45 3.63-8.4 3.63-8.4s6 7.54 10 5.48-5.87-6.65-6.39-6.89c7.86 2.25 15.49 6.89 20.06 13.82zm-39.44-4.93a11.18 11.18 0 01-7 .56c-3.9-.89-4.28-5.39-4.28-5.39a32.42 32.42 0 0118.9-5.69s-9.45 1.15-7.73 4.72c2 4.17 11.22-2.1 11.22-2.1s-2.7 7.84.78 8.78a1.09 1.09 0 00.25 0l-.14 2.42s-4.1 5.95-9.84 3.76c-3.79-1.43-2.25-6.74-2.16-7.06z" fill="#f995c7"></path>
    <path d="M131.13 58.3a26.2 26.2 0 014.2 17C133.37 98 113.14 97.7 111.18 99s-3.22 6.44-6.1 8.62-15.33-.2-19.85-2.39c-2.31-1.1-1.91-9.23-3.23-9.44-1.7-.29-18-10.94-12-31.77a28 28 0 0110.42-15.48s.38 4.5 4.28 5.39a11.18 11.18 0 007-.56c-.09.32-1.63 5.65 2.16 7.1 5.74 2.19 9.84-3.76 9.84-3.76s3.43 6.15 9 5.35c5.23-.74 4.09-6.52 4.09-6.52s7.87 6.35 14.35 2.76z" fill="#efefef"></path>
    <path d="M93.31 86.53a6.83 6.83 0 10-7.75 5.77 6.84 6.84 0 007.75-5.77zm24.34 3.57a6.83 6.83 0 10-7.75 5.77 6.83 6.83 0 007.75-5.77zM98.43 90c-1.45-.22-4.5 3.9-3.49 4.58.74.5 2.11-.22 2.53-.16s1.57 1.21 2.52.79c1.2-.53-.21-5-1.56-5.21zm-9.13 5a7.06 7.06 0 00.42.67 10.59 10.59 0 001.38 1.59 9.77 9.77 0 002.41 1.68 9 9 0 001.53.61 10.79 10.79 0 001.65.35l.9.09h.83a8.77 8.77 0 001.64-.17 9.07 9.07 0 002.72-1 8.48 8.48 0 001.68-1.24A6.12 6.12 0 00105 97a.31.31 0 01.43 0 .3.3 0 01.08.38 5.1 5.1 0 01-.51.73 8.1 8.1 0 01-1.7 1.55 8.78 8.78 0 01-3 1.3 10.07 10.07 0 01-1.84.24h-1l-.91-.09a10.87 10.87 0 01-1.87-.44 9.64 9.64 0 01-1.68-.78 8.7 8.7 0 01-1.43-1 9.52 9.52 0 01-1.12-1.05 8.16 8.16 0 01-1.69-2.66.31.31 0 01.54-.18z" fill="#230000"></path>
    <path d="M91.84 96.39a2.92 2.92 0 01-.25.46c-.09.12-.18.27-.3.41l-.39.42a4.34 4.34 0 01-.87.66 2.33 2.33 0 01-.47.21.34.34 0 01-.43-.22.33.33 0 010-.22 2.37 2.37 0 01.24-.46 4.23 4.23 0 01.7-.83l.45-.37c.14-.11.3-.2.42-.28a3.37 3.37 0 01.47-.22.32.32 0 01.42.21.3.3 0 01.01.23zm2.65 1.32a4.19 4.19 0 01-.16.62c-.07.18-.13.39-.23.6l-.32.66a6.83 6.83 0 01-.77 1.14 3.34 3.34 0 01-.45.47.33.33 0 01-.46 0 .32.32 0 01-.07-.25 3.41 3.41 0 01.15-.62 6.71 6.71 0 01.56-1.33c.13-.21.26-.43.39-.62a6.39 6.39 0 01.39-.52 4.87 4.87 0 01.44-.47.33.33 0 01.45 0 .35.35 0 01.08.32zm3.08.95a4.36 4.36 0 01.14.6c0 .18.05.39.06.61v.7a5.91 5.91 0 01-.18 1.3 3.88 3.88 0 01-.2.59.33.33 0 01-.44.15.3.3 0 01-.17-.18 4.36 4.36 0 01-.14-.6 6.15 6.15 0 010-1.32l.07-.69c0-.22.08-.43.12-.6a4.15 4.15 0 01.19-.59.32.32 0 01.6 0zm3.08-.66a3.67 3.67 0 01.38.41c.09.14.22.28.32.46s.21.36.31.55a4.53 4.53 0 01.41 1.12 3.06 3.06 0 01.09.55.33.33 0 01-.33.34.29.29 0 01-.22-.07 2.81 2.81 0 01-.38-.41 5 5 0 01-.63-1l-.25-.58c-.07-.19-.11-.38-.16-.54a3.06 3.06 0 01-.09-.55.33.33 0 01.31-.35.35.35 0 01.24.07zm2.75-1.34a3.52 3.52 0 01.45.31 3.16 3.16 0 01.4.36l.41.45a4.43 4.43 0 01.62 1 2.66 2.66 0 01.19.51.35.35 0 01-.25.41.45.45 0 01-.23 0 2.84 2.84 0 01-.45-.3 4.76 4.76 0 01-.81-.81l-.34-.5a4.68 4.68 0 01-.26-.47 3.31 3.31 0 01-.2-.51.33.33 0 01.47-.38z" fill="#230000"></path>
    <path d="M73.51 60.67c-.16 1.8 10.38.7 9.63-2.5-.64-2.73-9.41.04-9.63 2.5zm-2.2 6.07c1.13-1.41 8 6.71 5.19 8.48-2.36 1.53-6.74-6.56-5.19-8.48z" fill="#1e98d9"></path>
    <path d="M85 67.87c.77-3-11.19-5.2-11.92-3.8s10.84 8.05 11.92 3.8z" fill="#84d3c9"></path>
    <path d="M133.35 76.66c-.44-1.75-10 2.82-8.24 5.58 1.52 2.36 8.89-3.19 8.24-5.58zm.05-6.45c-.6 1.7-9.74-3.67-7.73-6.26 1.71-2.23 8.54 3.92 7.73 6.26z" fill="#1e98d9"></path>
    <path d="M120.11 73.72c.29 3.09 12.29 1.16 12.51-.41s-12.91-3.96-12.51.41z" fill="#84d3c9"></path>
    <path d="M91.63 65.56c-1 .69-1.74 6.86-.63 7.5s19.13 3.89 20.77 2.55c1.25-1 1.73-6.5 1.09-7.52s-19.19-3.9-21.23-2.53z" fill="#682189"></path>
  </symbol>
  <symbol xmlns="http://www.w3.org/2000/svg" viewBox="0 0 68.77 57.82" id="water">
    <g opacity=".69">
      <path d="M9.81 32.3c.4-1.15.84-2.31 1.3-3.46 1-2.48 2.11-4.9 3.1-7 .37-.77.73-1.5 1.06-2.15 1.19-2.37 2-3.91 2-3.91s-4.93-9-3.22-12.52c.15.16 2.69 2.72 17.85 3.26C45.5 7 46.72 4.77 46.72 4.77a29.31 29.31 0 004-.52l1-.53c-.26 2.12-3 2.59-3.25 3.24-.41 1-2.76 7.23-2.52 8.13.05.49 8.4 18.91 8.89 22.81S55 51.72 38 55.05 8.21 49.61 7.88 41.51c-.09-2.45.73-5.77 1.93-9.21z" fill="#cae2ea"></path>
      <path d="M51.68 3.72c0 .21-.38.38-1 .53a29.31 29.31 0 01-4 .52S45.5 7 31.94 6.55C16.78 6 14.24 3.45 14.09 3.29a2.09 2.09 0 01.83-1c5.82-3.72 25-2.44 31.07.08.01.04 5.6.63 5.69 1.35z" fill="#a9bdc5"></path>
      <path d="M15.27 19.72c-.33.65-.69 1.38-1.06 2.15l-.13-.06s-3.11-6-7.34-4-2.84 7.33-.81 9.15c3.33 3 5.18 1.91 5.18 1.91-.46 1.15-.9 2.31-1.3 3.46C-3.7 31.64-1.16 15.8 5 13.67c8.16-2.84 10.27 6.05 10.27 6.05z" fill="#c0d6de"></path>
    </g>
    <path d="M19.75 18.09C18.5 19 9.67 40.43 12.84 44.17s9.67 8.12 22.1 6.82 14.87-8.12 15.11-10.88-3.66-19.42-6-20.88c-1.93-1.2-2.69.49-6.09.4-3.09-.08-3.34-1.95-6.26-1.54S29 20 26 19.47s-3.41-3.41-6.25-1.38z" fill="#b7d9e8"></path>
    <path d="M44 27.6c-1.82.77 1.35 10.49-3.82 13.86-2.43 1.59-9.75 4.34-9.65 6s9.85 3.1 16.55-4.05c3.74-4.03-1.34-16.55-3.08-15.81z" fill="#603c7f" opacity=".08"></path>
    <path d="M16.27 7.23c-.31 1.21 4.07 4 13.15 4 6.5 0 7.69-1.56 7.1-2.3s-6.66-.54-9.38-.74c-4.87-.4-10.39-2.84-10.87-.96z" fill="#fff"></path>
    <path d="M53.13 34.09c-.6.46 1.54 21 2.07 21.21s8.81 1 9.8.33 2.4-22.19 1.81-22.27-1.58 1-3.48 1.07-2.08-1.15-4.51-.46c-2.82.8-4.43-.84-5.69.12z" fill="#9fd0f3"></path>
    <g opacity=".76">
      <path d="M68.77 28.55s-1.17 27.71-2.48 28.28c-3.84 1.68-11.23.86-12.93.12s-2.5-28.65-2.5-28.65c0 .73 4 1.37 8.94 1.44s8.96-.46 8.97-1.19z" fill="#e7f0f7"></path>
      <path d="M59.84 27.12c4.94.07 8.94.71 8.93 1.43s-4 1.26-9 1.19-8.92-.74-8.91-1.44 4.03-1.25 8.98-1.18z" fill="#a9bdc5"></path>
    </g>
    <path d="M52.56 31.33c-.16 1 .12 12.28 1.23 12.19s1.48-1.76 1.52-3c.11-3.65.5-7.86-.18-8.58s-2.42-1.48-2.57-.61z" fill="#fff"></path>
    <path d="M63.62 45.27c-.61.79-.55 6.73-1.75 7.23s-5 1.27-5 2.31 6.11 1 7.35.31 1.84-10.44 1.2-10.6a2.18 2.18 0 00-1.8.75z" fill="#603c7f" opacity=".08"></path>
  </symbol>
</svg>
