<svg width="0" height="0" class="hidden">
  <symbol xmlns="http://www.w3.org/2000/svg" viewBox="0 0 46.27 31.17" id="bread">
    <path d="M23.37 3C16.12 3.27 7.32 7.93 3 15.26c-3.51 5.8-3.4 8.49-2.37 9.45 2.09 1.94 10.94 6.63 23.37 6.46 16.2-.23 22-4.62 22.18-8.52S42.62 2.34 23.37 3z" fill="#bd9468"></path>
    <path d="M19 4.38C18.85 3.07 16.41.88 14.29 2s-2.92 4-3.36 4.45c-1.15 1.09-3.16.26-6.17 3.42-2.12 2.24-2.35 5.28-1.44 5.8s5.89-5.91 9.4-7.75c1.54-.8 6.56-1.15 6.28-3.54zm12-.61c.54-.93 2.09-2.24 4.74-1 2.16 1 3.28 3.9 3.65 4.38 1 1.26 3.08.75 5.56 4.34 1.75 2.53 1.52 5.58.53 6s-4.9-6.75-8.09-9.11C36 7.32 29.79 5.84 31 3.77zm-2.75-.35c.31-.9-1.51-3.54-3.77-3.42-2.68.15-4 3.5-3.52 4 1.04 1 6.89.55 7.29-.58zM25.8 6.07c-1.56-.83-3.68 1.11-3.73 2.69s1.22 2.14 1.08 3.17c-.11.79-2 4.34-1.72 6.86.35 2.74 2.71 5.95 4.54 5.61 1.12-.21 3-5.18 2.13-8-.79-2.57-1.56-3.83-1.52-4.41.09-1.5 3.61-3.6-.78-5.92z" fill="#a87a5a"></path>
    <path d="M22.55 27.49c-6.64-.72-13.66-1.92-19.67-5-.06 0-.11 0-.06.09 5.1 4.25 13.33 4.69 19.72 5a.08.08 0 10.01-.09zm-.27 1.67c-4.82.3-9.33-1.46-14-2.41 0 0-.05 0 0 .05 4.46 1.22 9.26 3.67 14 2.69.2-.04.19-.35 0-.33z" fill="#5a287f" opacity=".16"></path>
    <path d="M15.25 24a38 38 0 01-6.75-1.64c-2.11-.67-4-1.71-6.12-2.39a.08.08 0 00-.08.12c2.82 3.39 8.75 4.21 12.92 4.3a.2.2 0 00.03-.39zm.41-3a13.63 13.63 0 00-5.06-.88 12.13 12.13 0 01-2.94-.42 7.35 7.35 0 00-2.17-.7.09.09 0 000 .17c3 2.63 6.48 1.51 10.06 2.3a.25.25 0 00.11-.47zm.78-2.73c-2.86-1-6 .15-8.8-1.1-.08 0-.12.08-.07.13 2.43 2.06 5.88.82 8.73 1.39.27.05.42-.33.14-.42zM15.15 15c-1.74-.28-3.77 0-5.39-.8 0 0-.09 0 0 .08 1.52 1.47 3.46 1.55 5.48 1.29.29-.02.21-.5-.09-.57zm23.6 11.11a43.81 43.81 0 01-5 1.17c-.06 0-.05.1 0 .1a28.37 28.37 0 005.06-1.1.09.09 0 00-.06-.17zm-.44-1.46a14 14 0 01-2.94.49 5 5 0 00-2.47.57.08.08 0 000 .14 7.48 7.48 0 002.71 0 6.72 6.72 0 002.81-.78c.25-.07.16-.51-.11-.42z" fill="#5a287f" opacity=".16"></path>
    <path d="M14.92 2.56a.25.25 0 00-.36.31.15.15 0 00.13.09.25.25 0 00.23-.4zm-1.08 1.7h-.09a.15.15 0 00-.16.23l.06.08c.19.2.48-.22.19-.31zm1.58-.72a.36.36 0 00-.4.6.36.36 0 00.4-.6zM12.4 5.52a.57.57 0 00-.64 1 .57.57 0 00.64-1zM8.84 7.77l-.14.05c-.07 0 0 .15 0 .14h.15C9 8 9 7.72 8.84 7.77zm-1.69.65a.23.23 0 00.25.38c.3-.14 0-.6-.25-.38zM5.56 9.91l-.09-.07a.27.27 0 00-.31 0l-.07.05a.17.17 0 000 .25l.06.07a.27.27 0 00.31.07h.09a.21.21 0 00.01-.37zm-.39 2.38v-.09a.11.11 0 00-.21 0v.11c-.15.36.41.25.21-.02zm1.63-1.92a.3.3 0 00-.33.5.3.3 0 00.33-.5zm2.3-1.3a.29.29 0 00-.45.3.3.3 0 00.53.11.26.26 0 00-.08-.41zm1.53-2.01c-.18-.37-.74 0-.46.3a.28.28 0 00.46-.3zm15.21-.36a.9.9 0 00-.4 0 .36.36 0 00-.29.43.75.75 0 00.19.35c.52.52 1.22-.48.5-.78zm-2.67.92c-.14-.1-.29.12-.15.21s.29-.12.15-.21zm1.83.82a.34.34 0 00-.38.56.34.34 0 00.38-.56zM26.92 8a.21.21 0 00-.29.09c-.07.1.08.25.18.15.19.04.29-.24.11-.24zM25.8 9.87a.16.16 0 00-.18.27.16.16 0 00.18-.27zm1.02-.14h-.08a.2.2 0 00-.15.23v.07c0 .26.39.29.51.11s-.04-.49-.28-.41zm-2.35 1.73a.25.25 0 00-.28.41.25.25 0 00.28-.41zm-1.27 3.11c-.26.19 0 .61.31.47s.04-.71-.31-.47zm.42 3.76c.12-.15-.17-.31-.24-.12a.2.2 0 00.13.29c.11.03.16-.1.11-.17zM25 14.08a.22.22 0 00-.24.36.22.22 0 00.24-.36zm.13-2.08a.13.13 0 00-.08-.23.21.21 0 00-.19.1.12.12 0 000 .15l.05.05a.12.12 0 00.22-.07zm1.67 2.53a.3.3 0 00-.33.5c.32.21.66-.29.33-.5zm-2.04 1.3a.44.44 0 00-.49.73.44.44 0 00.49-.73zm1.85 1.1a.35.35 0 00-.39.58.35.35 0 00.39-.58zm.76 2.66v.1c0 .11.11.21.19.13l.08-.08c.12-.16-.18-.36-.27-.15zM24.59.51a.16.16 0 00-.18.26c.18.12.36-.15.18-.26zm-1.32 1a.21.21 0 00-.23.34c.22.15.45-.2.23-.34zm-.87.91a.25.25 0 00-.28.41.25.25 0 00.28-.41zm1.83-.22a.38.38 0 00-.42.63.38.38 0 00.42-.63zm.85-1.06a.44.44 0 00-.5.73.44.44 0 00.5-.73zm2.15 1.03a.47.47 0 00-.52.78.47.47 0 00.52-.78zm-1-1.17a.38.38 0 00-.42.63.38.38 0 00.42-.63zm7.48 1.75a.6.6 0 00-.67 1 .6.6 0 00.67-1zm1.74.5a.09.09 0 10-.1.15c.09.06.19-.09.1-.15zm-.11 2.27a.18.18 0 00-.21.3.18.18 0 00.21-.3zm1.08-.83a.08.08 0 10-.09.13c.08.06.17-.07.09-.13zm1.97 2.53c0-.15-.06-.23-.1-.33a.19.19 0 00-.36.06.26.26 0 00.14.45.27.27 0 00.32-.18zm2.7 1.29a.49.49 0 00-.55.82.49.49 0 00.55-.82zm2.13 1.56c-.35-.08-.58.41-.2.53s.52-.45.2-.53zm.91 2.59s-.08 0 0 .06.03-.03 0-.06zm.63.86a.14.14 0 00-.24-.16l-.07.08c-.13.16.16.35.26.18z" fill="#fff"></path>
    <path d="M44.74 13.29a.18.18 0 00-.2.3.18.18 0 00.2-.3zm-.8-1.71v-.08a.48.48 0 00-.64-.05l-.06.05a.37.37 0 000 .52l.05.07a.48.48 0 00.64.05l.06-.06a.36.36 0 00-.05-.5zM41.87 11a.9.9 0 00-.68-.16.32.32 0 00-.24.37.83.83 0 00.4.56.46.46 0 00.52-.77zm-2.6-2.86a.53.53 0 00-.59.88.53.53 0 00.59-.88zM38 4.91A.65.65 0 0037.23 6 .65.65 0 0038 4.91zM36.37 6a.58.58 0 00-.26 0 .23.23 0 00-.21.32.62.62 0 00.14.23c.35.26.81-.41.33-.55zm-.93-2.18a.47.47 0 00-.52.78.47.47 0 00.52-.78zM32.9 4.85h-.1c-.1 0-.21.12-.13.19l.08.07a.13.13 0 10.15-.26zm-12.53-.26a.17.17 0 00-.29-.19l-.08.08c-.14.18.17.39.29.2zm-1.13 1.2a.83.83 0 00-.39.21.09.09 0 000 .16.5.5 0 00.49-.16.13.13 0 00-.1-.21zm-2.81 1.45c-.23-.15-.48.21-.25.36a.22.22 0 00.25-.36zm1.46.52a.5.5 0 00-.56.83.5.5 0 00.56-.83zM19 6.88c-.25-.18-.52.22-.27.4a.24.24 0 00.27-.4zm2.37-1.4a.25.25 0 00-.28.42.25.25 0 00.28-.42zm.04 2.05a.4.4 0 00-.44.66.4.4 0 00.44-.66zm-6.74 2.61a.35.35 0 00-.33-.38.19.19 0 00-.21.17.3.3 0 000 .45.32.32 0 00.54-.24zm11.71-5.36c-.31.21 0 .72.36.55s.05-.83-.36-.55zm2.19-.57c-.18-.12-.37.17-.19.29a.17.17 0 00.19-.29zm.5 1.38c-.18-.12-.36.16-.19.28a.17.17 0 00.19-.28zm1.25-1.28a.42.42 0 00-.47.7.42.42 0 00.47-.7zm4.17 3.24a.18.18 0 00-.2.29.18.18 0 00.2-.29zM37.11 9a.52.52 0 00-.58.86.52.52 0 00.58-.86zm-4.71-.71h-.1a.09.09 0 00-.1.15l.07.08c.13.11.32-.16.13-.23zM30.71 8a.45.45 0 10-.8-.4v.06c-.22.45.54.82.8.39zm-.07-1.85a.36.36 0 00-.41.6.36.36 0 00.41-.6zm.56 4.16a.56.56 0 00-.63.93.56.56 0 00.63-.93zM15.07 8.25a.47.47 0 00-.82 0 .3.3 0 00-.1.47.89.89 0 00.38.21.49.49 0 00.54-.68zM11.64 11a.59.59 0 10-1.18.07c.07.71 1.13.64 1.18-.07z" fill="#fff"></path>
  </symbol>
  <symbol xmlns="http://www.w3.org/2000/svg" viewBox="0 0 20.73 51.28" id="candles">
    <path d="M14.12 0S6.36 6.06 5.81 11.92A4.62 4.62 0 0015 13c.83-4.54-1.51-3.31-.88-13z" fill="#f1c631"></path>
    <path d="M11.8 6s-6.09 7.46-1.66 9 1.66-9 1.66-9z" fill="#e09230"></path>
    <path d="M19.83 31.1c.36 7 .44 17.27.33 17.84-.19.83-3.95 2.34-10.25 2.34-4.91 0-8.27-1.14-9-2.1-.5-.63-.33-10.09 0-17.09 1.78.81 2.23-1.21 3.13-1.31s1-.59 3.17-.77 1.21-1.25 2.71-1.73a15.31 15.31 0 014-1.09c2.88-.48 2.88.42 3.89 0s.82 2.74 2.02 3.91z" fill="#f9e9c2"></path>
    <path d="M19.44 23.83c.61.55 2.34 7.07.39 7.27s-1.59-2-2.61-1.58.66 6.23-2.21 6.71-2.64-7.23-4.14-6.71-1 3.54-3.23 3.71S5 30.66 4 30.78 2.69 32.9.91 32.09a2.7 2.7 0 01-.34-.17c-1.38-.82.05-6 1.13-7.71s16.54-1.47 17.74-.38z" fill="#f5dbae"></path>
    <path d="M2.6 24.45l.67.12a14.22 14.22 0 001.73.18c.73.06 1.58.07 2.5.07h2.88c.98 0 2-.06 2.89-.11l2.52-.12 2.47-.11a.27.27 0 01.27.25.28.28 0 01-.21.26s-1 .2-2.46.39-3.46.37-5.45.43H7.48c-.93 0-1.81-.13-2.56-.23a9 9 0 01-1-.19 6.18 6.18 0 01-.77-.19l-.65-.21a.26.26 0 01-.17-.32.26.26 0 01.27-.22z" fill="#dac39c"></path>
    <path d="M10 24.71a.5.5 0 01-.49-.43c0-.29-1-7.28 1.16-13.38a.5.5 0 11.94.33c-2.09 5.87-1.12 12.84-1.11 12.91a.51.51 0 01-.43.57z" fill="#1d262d"></path>
    <path d="M13 45.64c-1.72-.24-3.46-.11-5.19-.28a14.86 14.86 0 01-3.3-.66 5.78 5.78 0 00-2.13-.61.2.2 0 00-.17.3c.71 1.45 3 1.53 4.39 1.7a25.39 25.39 0 006.4 0c.27.01.27-.42 0-.45zm-7.44 1.92c-.5-.13-1-.29-1.52-.38a9 9 0 00-1.47-.06.37.37 0 000 .73 9.82 9.82 0 011.51.38 4.88 4.88 0 001.37.15.42.42 0 00.11-.82zm-.85-4.93a2.57 2.57 0 00-2.07-.13.37.37 0 00-.09.67 2.24 2.24 0 002.16.22.44.44 0 000-.76z" fill="#5a287f" opacity=".16"></path>
  </symbol>
  <symbol xmlns="http://www.w3.org/2000/svg" viewBox="0 0 35.95 52.08" id="chocolate">
    <path d="M28.82 39.57c.08.47.7.26.73.76C39.7 39.9 35.88 28.84 31 27.49s-6 4-6 4a14.52 14.52 0 011.2 1.19s1.31-3.45 4.14-2.49c3.2 1.09 4.45 6.91-1.18 8.45a1.64 1.64 0 00-.34.93z" fill="#a0594d"></path>
    <path d="M24.41 31s-9.93 3.29-18.94-.38c0 0-3.45 2.63-4.15 5.51a3.66 3.66 0 00-.08.48S4.89 40.44 14 41.33a29.51 29.51 0 0015.42-2.44 9.81 9.81 0 00-.27-1.13 13.47 13.47 0 00-2.93-5.09A14.52 14.52 0 0025 31.48c-.37-.31-.59-.48-.59-.48z" fill="#c58458"></path>
    <path d="M5.26 25.13a18.26 18.26 0 007.93 2 23.69 23.69 0 008.42-.93s-2.14-1.7-7.67-1.67c-5.83.03-7.51.73-8.68.6z" fill="#401d14"></path>
    <path d="M18.29 23.8c-3.4-.55-13.08-1.71-15.06-.2a7 7 0 002 1.52c1.17.13 4.26-.6 8.74-.43a24.44 24.44 0 017.61 1.49A13.22 13.22 0 0026 24c-1.12-.41-4.36.33-7.71-.2z" fill="#78473c"></path>
    <path d="M5.26 25.13a7 7 0 01-2-1.52.78.78 0 00-.35.68C3 26.76 5.5 30.64 5.5 30.64c9 3.67 18.94.38 18.94.38s2.48-5.83 1.91-6.74A.6.6 0 0026 24a13.22 13.22 0 01-4.38 2.16 23.69 23.69 0 01-8.42.93 18.26 18.26 0 01-7.94-1.96zm24.12 13.76A29.51 29.51 0 0114 41.33c-9.07-.89-12.72-4.71-12.72-4.71C-.32 43.3 2.64 48.72 8 51c3.85 1.61 16.79 2.12 19.57-3.14a17.81 17.81 0 002-7.5 13.19 13.19 0 00-.17-1.44z" fill="#8d5347"></path>
    <path d="M13.11 37.05a1.11 1.11 0 111.1 1.12 1.11 1.11 0 01-1.1-1.12zm3.05-2.77a.27.27 0 01.25.29.85.85 0 01-.33.59 1.26 1.26 0 01-.56.32.22.22 0 01-.26-.23c-.04-.47.41-1.04.9-.97zM16 36a.94.94 0 01.91-.48.47.47 0 01.19.87 1 1 0 01-1-.07.24.24 0 01-.1-.32zm0 1.57a.81.81 0 01.66-.35c.35 0 .82.14.8.57a.51.51 0 01-.68.42 2.51 2.51 0 01-.71-.31.24.24 0 01-.07-.33zm-.75 1.21c0-.14.11-.34.29-.35s.31.22.4.33.38.41.28.73a.42.42 0 01-.31.28.52.52 0 01-.53-.25 1 1 0 01-.13-.74zm-2.05.91a.84.84 0 01.45-.67c.29-.19.63.16.54.45a1.35 1.35 0 000 .28.48.48 0 01-.99-.06zm-1.92-1.48a1.37 1.37 0 011.1-.28.3.3 0 01.2.38 1.73 1.73 0 01-.74.7c-.48.27-.99-.45-.56-.8zm.21-2c.22 0 .92.1.86.47a.58.58 0 01-.49.47.6.6 0 01-.7-.43.43.43 0 01.33-.51zm.64-1.21a.39.39 0 01.6-.38.82.82 0 01.32.74.3.3 0 01-.38.25.77.77 0 01-.54-.61zm1.71-.54a.38.38 0 01.62-.13.41.41 0 01.14.42.38.38 0 01-.72.16.43.43 0 01-.04-.45zm-8.48.41A1 1 0 116.19 36a1 1 0 01-.83-1.13zm3.13-2.05a.26.26 0 01.19.3.76.76 0 01-.38.48 1.19 1.19 0 01-.55.21.21.21 0 01-.2-.25.83.83 0 01.94-.74zm-.42 1.49A.84.84 0 019 34a.42.42 0 010 .81.86.86 0 01-.91-.21.22.22 0 01-.02-.29zm-.16 1.45a.74.74 0 01.65-.22c.32 0 .71.24.63.63a.46.46 0 01-.67.27 2.29 2.29 0 01-.59-.38.22.22 0 01-.02-.3zm-.91.98c.06-.13.15-.3.32-.28s.24.24.31.36.28.41.15.69a.42.42 0 01-.33.21.47.47 0 01-.44-.3.94.94 0 01-.01-.68zm-1.93.52a.72.72 0 01.5-.54c.28-.13.54.23.41.48a1.83 1.83 0 00-.08.25.43.43 0 01-.83-.19zm-1.52-1.61a1.29 1.29 0 011-.1.28.28 0 01.12.38 1.51 1.51 0 01-.76.52c-.44.17-.8-.55-.36-.8zM4 33.88c.2 0 .8.23.7.55a.52.52 0 01-.51.35.53.53 0 01-.56-.49.38.38 0 01.37-.41zm.78-1.01a.35.35 0 01.59-.26.74.74 0 01.18.71.27.27 0 01-.38.17.7.7 0 01-.39-.62zm1.61-.22a.34.34 0 01.57 0A.39.39 0 017 33a.36.36 0 01-.68 0 .4.4 0 01.07-.35zm17.33 3.92a1 1 0 11-.89-1.11 1 1 0 01.89 1.11zm-3.02 2.21a.25.25 0 01-.2-.28.75.75 0 01.35-.5 1.2 1.2 0 01.54-.24.21.21 0 01.22.23c-.02.43-.47.91-.91.79zm.35-1.5a.87.87 0 01-.87.35.43.43 0 01-.08-.81.85.85 0 01.9.18.22.22 0 01.05.28zm.07-1.46a.75.75 0 01-.63.26c-.32 0-.73-.21-.67-.6a.47.47 0 01.66-.31 2.47 2.47 0 01.61.35.21.21 0 01.03.3zM22 34.8c-.05.13-.13.3-.3.29s-.26-.22-.33-.34-.31-.4-.18-.68a.39.39 0 01.31-.23.48.48 0 01.46.28.94.94 0 01.04.68zm1.89-.63a.77.77 0 01-.48.57c-.27.14-.55-.2-.43-.46A2.27 2.27 0 0023 34a.43.43 0 01.89.17zm1.59 1.52a1.23 1.23 0 01-1 .16.29.29 0 01-.14-.37 1.51 1.51 0 01.73-.56c.44-.2.84.5.41.77zm-.38 1.8c-.2 0-.81-.19-.73-.51a.56.56 0 011.08.07.39.39 0 01-.35.44zm-.69 1.05a.35.35 0 01-.58.29.76.76 0 01-.22-.7.27.27 0 01.37-.19.7.7 0 01.43.6zm-1.59.3a.33.33 0 01-.57.06.38.38 0 01-.1-.39.35.35 0 01.67-.07.38.38 0 010 .4z" fill="#fff"></path>
    <path d="M32.63 30.19c1.61 1 1.73 3.05 1.16 4.72h-.07c.41-1.6.31-3.54-1.18-4.56-.08-.08 0-.21.09-.16zm-1.12 9.13a9.1 9.1 0 011.49-1 10.43 10.43 0 011.58-1 .15.15 0 01.14.27 14.13 14.13 0 01-1.35.94 11.3 11.3 0 00-1.82.88s-.06-.06-.04-.09z" fill="#5a287f" opacity=".16"></path>
  </symbol>
  <symbol xmlns="http://www.w3.org/2000/svg" viewBox="0 0 23.6 21.73" id="flower">
    <path d="M6.2 10c.07-1.31-5.64-1.86-6.14.7-.53 2.78 2.56 2.3 2.56 2.3S-.28 14.7.9 17.24c1.45 3.13 5.48-.54 5.48-.54s-2.43 4.37 0 5S11 17.56 11 17.56s.56 4.42 3.28 4 .53-5.13.53-5.13 3.08 4.48 5.7 2.81-.6-4.77-.6-4.77 3.73.14 3.74-1.38c0-2.14-2.72-2.82-2.72-2.82s2.41-1.59 1-3.85-4.45.73-4.45.73 4.45-3.75 1.41-4.86S14 5.42 15 5.26s2.15-4.44.17-4.95S9.87 5 11.25 5.4s1-6.27-2.41-5.3-1.57 5.35-1.57 5.35-3.76-2.77-5.12-.68C0 8 6.14 11.34 6.2 10z" fill="#e09230"></path>
    <path d="M8.19 7.85s-2.55-2.37-3.54-.4a2 2 0 00.84 2.69s-2.56.75-1.49 2.95c.76 1.56 3 .77 3 .77s-.79 2.83.56 3.45S11.3 15 11.3 15s.63 3 1.86 2.66 1-2.66 1-2.66 2.24 1.64 3.64.65-1.57-3.29-1.57-3.29 2.89 1.35 3.27-.53-2.66-2.07-2.66-2.07 2.35-1.17 1.64-2.37a2.5 2.5 0 00-3.62-.55s.64-3.14-1.12-3.16-2.44 2.53-2.44 2.53-.73-2.52-2.42-2.07S8.23 8 8.23 8s1.61-.24-.04-.15z" fill="#e49f32"></path>
    <path d="M9.57 10.61s-5.83.11-4.45 2.6 3.94.49 4.67-.41c0 0-.75 4.58 1.68 4.07s1.35-4.71 1.35-4.71 2.56 3.26 4.56 2.15-3.11-3.58-3.11-3.58 3.94.4 4.07-1.6-5.09.83-5.09.83 3.58-3.62 2.09-4.63-3.2 1-3.59 4.35c0 0-.8-5.26-3.68-3.5-2.07 1.26 1.5 4.43 1.5 4.43z" fill="#ecbb34"></path>
  </symbol>
  <symbol xmlns="http://www.w3.org/2000/svg" viewBox="0 0 38.57 51.44" id="picture">
    <path d="M21.81 30.8A6.21 6.21 0 0024.5 32l-.23 1.07h-.19a5.92 5.92 0 00-1.22.29v-.09a11.45 11.45 0 00-6.26-2.06v-2.4a4.44 4.44 0 002.88-2c1.48-2.48.4-7.06-.14-8.92 1.45-.08 2.2-1.81 2.12-2.88-.12-1.73-2.31-2.07-4.16-2.24a21.2 21.2 0 00-5.89-.08c-1.93.23-1.41 1.7-1.41 1.7a1.84 1.84 0 00-1.56 1.28c-.62 2 .07 6.25.07 6.25a1.27 1.27 0 00-.73.33 1.66 1.66 0 00-.59 1.31H5.26V5.24h28v15.62h-1.44v-.14C31.77 20 30 18.17 28.56 19a1.49 1.49 0 00-.56 2.15c-1.7-.68-4.13-.65-5.18.9a10.48 10.48 0 00-1.23 3.41c-.48 2.18-.59 4.54.22 5.34z" fill="#cecece"></path>
    <path d="M25.41 33.72c-1.05 0-1.18-.48-1.18-.48v-.19L24.5 32a8.38 8.38 0 002.05.19l-.18 1.06s.08.42-.96.47z" fill="#f4f0ed"></path>
    <path d="M24.23 33.24s.13.52 1.18.48 1-.48 1-.48 3.16-.08 4.4 2.33 2.15 9.14 2.15 9.14h.38v1.49H20.19v-.26c.17-2.26.43-4.26.7-5.88a41.23 41.23 0 00-1-4.68h.17a5.57 5.57 0 012.8-2 5.92 5.92 0 011.22-.38h.19z" fill="#3f3e3e"></path>
    <path d="M30.44 27.76c.41.13 1.41.6.9 2.11a1.31 1.31 0 01-1.89.71 3 3 0 01-2.9 1.59A8.38 8.38 0 0124.5 32a6.21 6.21 0 01-2.69-1.18c-.78-.76-.7-3.16-.24-5.34a8.39 8.39 0 005-2.82 5 5 0 003.71 5.08zm-13.88 1.05v2.34s0 .76-1.27 1a2.81 2.81 0 01-2.26-.8l.23-2.56a7.06 7.06 0 003.3.02z" fill="#f4f0ed"></path>
    <path d="M19.05 17s.11.31.25.82c.54 1.86 1.62 6.44.14 8.92a4.44 4.44 0 01-2.88 2 7.06 7.06 0 01-3.3 0 5.93 5.93 0 01-.84-.26 7.13 7.13 0 01-3.13-3.13 1.76 1.76 0 01-2.15-1.82 1.66 1.66 0 01.59-1.31 1.27 1.27 0 01.73-.33c.72-.06 1.06.85 1.06.85 3-2.08 1.66-6.44 1.66-6.44 1.94-.71 3.63-.09 4.64-.27.43.26 2.28 1.33 3.21.9z" fill="#f4f0ed"></path>
    <path d="M9.52 22.78s-.34-.91-1.06-.85-.69-4.26-.07-6.25A1.84 1.84 0 0110 14.39s-.47-1.47 1.42-1.75a21.2 21.2 0 015.89.08c1.85.17 4 .51 4.16 2.24.08 1.07-.67 2.8-2.12 2.88-.14-.51-.25-.82-.25-.82L19 17c-.93.43-2.78-.64-3.21-.9-1 .18-2.7-.44-4.64.27.03-.03 1.32 4.33-1.63 6.41z" fill="#3f3e3e"></path>
    <path d="M30.17 22.59c.59.61 1.3 2.05.28 5.15h-.17a5 5 0 01-3.71-5.08 8.39 8.39 0 01-5 2.82 10.48 10.48 0 011.23-3.41c1.05-1.55 3.48-1.58 5.18-.9a1.49 1.49 0 01.58-2.17c1.39-.85 3.21.94 3.26 1.7v.14a1.65 1.65 0 01-1.52 1.61z" fill="gray"></path>
    <path d="M20.19 46.2H5.26v-3.52s.6-5 3-8.07A8.38 8.38 0 0113 31.34a2.81 2.81 0 002.26.8c1.24-.23 1.27-1 1.27-1a11.45 11.45 0 016.26 2.06v.09a5.57 5.57 0 00-2.8 2h-.17a41.23 41.23 0 011 4.68c-.27 1.62-.53 3.62-.7 5.88z" fill="#585857"></path>
    <path d="M13.26 28.78L13 31.34a8.38 8.38 0 00-4.76 3.27c-2.41 3.09-3 8.07-3 8.07V23.57h1.9a1.76 1.76 0 002.15 1.82 7.13 7.13 0 003.13 3.13 5.93 5.93 0 00.84.26zm20.04-7.92v23.85h-.38S32 38 30.77 35.57s-4.4-2.33-4.4-2.33l.18-1.06a3 3 0 002.9-1.59 1.31 1.31 0 001.89-.71c.51-1.51-.49-2-.9-2.11 1-3.1.31-4.54-.28-5.15l.13-.12a1.65 1.65 0 001.52-1.61z" fill="#cecece"></path>
    <path fill="#80603c" d="M5.26 42.67v3.53L0 51.44V0l5.26 5.24v37.43z"></path>
    <path fill="#9b7249" d="M38.57 51.44H0l5.26-5.24H33.3l5.27 5.24z"></path>
    <path fill="#80603c" d="M38.57 0v51.44L33.3 46.2V5.24L38.57 0z"></path>
    <path fill="#9b7249" d="M38.57 0L33.3 5.24H5.26L0 0h38.57z"></path>
    <path d="M21.5 36.06s0 .62-.09 1.56-.2 2.17-.35 3.4-.34 2.47-.49 3.4-.28 1.58-.28 1.58a.1.1 0 01-.12.08.12.12 0 01-.09-.09v-1.57c0-.94.11-2.19.25-3.43s.34-2.48.53-3.4.37-1.53.37-1.53a.14.14 0 01.17-.09.15.15 0 01.1.09zm7.23-.06s.21.57.45 1.43.5 2 .71 3.22a26.61 26.61 0 01.39 3.35 12.18 12.18 0 010 1.51.12.12 0 01-.12.1.14.14 0 01-.09-.09l-.07-.46c0-.25-.11-.62-.2-1.05-.17-.88-.4-2-.63-3.22s-.41-2.35-.53-3.24-.17-1.49-.17-1.49a.13.13 0 01.26-.05z" fill="#363535"></path>
    <path d="M19.68 34.27a13.48 13.48 0 01.92 2.82A13.92 13.92 0 0121 40a.07.07 0 01-.09.06.06.06 0 01-.06-.06c-.28-1-.51-1.9-.74-2.85-.11-.47-.22-1-.32-1.43-.05-.24-.09-.47-.15-.72s-.09-.48-.12-.73a.1.1 0 01.09-.12.11.11 0 01.07.12zm-8.29 1.1s-.14.68-.41 1.68c-.14.5-.27 1.09-.47 1.71s-.37 1.29-.58 2-.41 1.24-.61 1.88l-.55 1.69L8.23 46a.1.1 0 01-.13 0 .09.09 0 01-.1-.08l.06-.47c.05-.31.11-.74.22-1.25s.23-1.11.39-1.74.36-1.29.54-2 .42-1.33.62-1.94.43-1.19.6-1.68c.37-1 .67-1.6.67-1.6a.14.14 0 01.18-.07.15.15 0 01.11.2z" fill="#363535"></path>
    <path fill="#fff" d="M13.38 6.39l-6.9 6.07v4.96L19.58 6.5l-6.2-.11zm8.19.11L6.48 20.86v4.86L28.55 6.5h-6.98z"></path>
  </symbol>
  <symbol xmlns="http://www.w3.org/2000/svg" viewBox="0 0 62.91 38.99" id="food">
    <path d="M53.09 19s-.3-.9.3-5.67S55 6.86 55 6.86c.56-.32 3.33 2.24 3.26 3.39s-.74 6.72-.53 8.27v.12c-1.31.23-2.85.48-4.61.72zm-12.35 1.28v.29q-2.84.16-5.94.23c-.5-1.19.09-7.36.75-8.18s5.18-.34 5.18.34-.59 6.31.01 7.32zM50 11.23c.31.78-1.34 4.11-1 8.5v.15c-1.55.16-3.21.33-5 .48a17.62 17.62 0 01.47-9.42c.32-.85 2.46-.8 4-.44.81.18 1.44.5 1.53.73zm2.56-8.84C51.3 5.48 50.77 8.3 50.39 8.8c-.16.2-.86.25-1.71.14a5 5 0 01-3.13-1.29C44.67 6.45 47 .33 47 .33a18.42 18.42 0 015.56 2.06zM43.28.05S41 2.87 41 10.1c0 .41-4.41 1-5.47-.35s-.09-6.19 1.23-8.33A16.94 16.94 0 0143.28 0z" fill="#efa0b1"></path>
    <path d="M52.56 2.39C51.3 5.48 50.77 8.3 50.39 8.8c-.16.2-.86.25-1.71.14a5 5 0 01-3.13-1.29C44.67 6.45 47 .33 47 .33a16.59 16.59 0 00-2-.28 16.4 16.4 0 00-1.7 0S41 2.87 41 10.1c0 .41-4.41 1-5.47-.35s-.09-6.19 1.23-8.33a19.66 19.66 0 00-7.66 6.09 9.91 9.91 0 01.76.81c2.93 3.45 4.76 9.65-.85 12.5h5.77c-.5-1.19.09-7.36.75-8.18s5.18-.34 5.18.34-.6 6.31 0 7.32v.29l3.29-.23a17.62 17.62 0 01.47-9.42c.32-.85 2.46-.8 4-.44.82.18 1.45.45 1.55.73.31.78-1.34 4.11-1 8.5v.15c1.5-.16 2.89-.34 4.16-.52v-.38s-.3-.9.3-5.67S55 6.86 55 6.86c.56-.32 3.33 2.24 3.26 3.39s-.74 6.72-.53 8.27v.12c1.13-.2 2.11-.38 2.87-.55l-.07-.37c2.07-5.26-1.77-11.86-7.97-15.33z" fill="#b78963"></path>
    <path d="M29.89 8.32a10.68 10.68 0 01.46 9.27c-.28.53-5.15.21-4.84-1.59 1.31-7.68-2.69-11.6-3-11.86a17.4 17.4 0 016 2.86c.19.16.38.32.57.51a9.91 9.91 0 01.81.81zM23.21 16c.16.79.24 4-.22 4.67-1.9-.08-3.71-.18-5.41-.29a17.94 17.94 0 00.54-4.7c-.01-.54 4.94-.49 5.09.32zm-7.6 1.32a5.57 5.57 0 01-.09 2.88c-1.73-.14-3.35-.28-4.82-.42 0-.16-.29-1.88.26-2 1.32-.19 4.4-1.05 4.65-.46zm3.87-13.76c2.24 1.51 3.69 6.58 3.48 8.63s-3.64 1.49-4.54 1.24-.39-3.11-1.1-5.35a12.11 12.11 0 00-2.68-4.42 18 18 0 014.84-.1zm-7.62 1.1c4.09 4.2 3.41 9.07 2.81 10.2s-3.58 1.3-4 1c-.67-.54-.58-2.81-1.32-4.92a8.67 8.67 0 00-2.6-4.11 13.83 13.83 0 013.4-2 15.37 15.37 0 011.56-.55zM4 19c.41-2.3-2.38-4.27-2.38-4.27a17.6 17.6 0 012-4.4c.24.11 4.16 2.07 3.87 9.12C6.18 19.3 5 19.16 4 19z" fill="#fffde7"></path>
    <path d="M4 19c-1.39-.2-2.44-.37-3.11-.48a16.92 16.92 0 01.73-3.78S4.42 16.71 4 19z" fill="#cea278"></path>
    <path d="M44 20.36c1.76-.15 3.42-.32 5-.48s2.89-.34 4.16-.52c1.76-.24 3.3-.49 4.61-.72 1.13-.2 2.11-.38 2.87-.55 1.49-.3 2.29-.5 2.29-.5S62.44 39 32.5 39 0 18.37 0 18.37l.9.16c.67.11 1.72.28 3.11.48 1 .15 2.17.29 3.5.45 1 .12 2 .24 3.19.34 1.47.14 3.09.28 4.82.42l2.06.14c1.7.11 3.51.21 5.41.29s3.94.13 6.05.15h5.77q3.11-.06 5.94-.23z" fill="#1e98d9"></path>
    <path d="M10.71 15.86c.38.3 3.36.12 4-1s1.28-6-2.81-10.2l-.11-.34a17.61 17.61 0 012.89-.66 12.11 12.11 0 012.68 4.42c.71 2.24.2 5.1 1.1 5.35s4.34.79 4.54-1.24-1.24-7.12-3.48-8.63a19.64 19.64 0 013 .56c.3.26 4.3 4.18 3 11.86-.31 1.8 4.56 2.12 4.84 1.59a10.68 10.68 0 00-.46-9.27c2.93 3.45 4.76 9.65-.85 12.5-2.11 0-4.13-.08-6.05-.15.46-.71.38-3.88.22-4.67s-5.1-.86-5.09-.32a17.94 17.94 0 01-.54 4.7l-2.06-.14a5.57 5.57 0 00.09-2.88c-.25-.59-3.33.27-4.65.5-.55.1-.29 1.82-.26 2a87.9 87.9 0 01-3.19-.34c.29-7-3.63-9-3.87-9.12a13.93 13.93 0 013.14-3.55 8.67 8.67 0 012.6 4.11c.74 2.11.61 4.38 1.32 4.92z" fill="#cea278"></path>
    <path d="M57.17 22.34c-2.05.31-4 .91-6.12 1.21-2.79.39-5.6.56-8.38 1v.07a31.6 31.6 0 009.61.05c1.78-.21 4.21-.23 5.22-1.94a.29.29 0 00-.33-.39zM56 25.22c-3 .63-6 1.24-8.9 1.9a.09.09 0 000 .18c3.05.81 6.7.61 9.29-1.41.29-.26-.09-.74-.39-.67zm-1.8 4.57c-6.75 1.26-13.68 1.39-20.51 1.85a.16.16 0 00-.08.3c2.43 1.75 6.11.65 8.86.39 4.08-.38 8-.67 11.85-2.11a.22.22 0 00-.12-.43zm-6.13 2.99c-1.71 0-3.31.7-5 .7-.15 0-.14.21 0 .23a12.91 12.91 0 005.05-.51.22.22 0 00-.05-.42z" fill="#5a287f" opacity=".16"></path>
    <path d="M15.62 6l-.1-.1a.28.28 0 00-.38 0L15 6a.41.41 0 10.58 0zm-.69 2.21a.63.63 0 000 1.26.63.63 0 000-1.26zm1.4 2.2a.63.63 0 000 1.25.63.63 0 000-1.25zm.2-2.3a.13.13 0 000 .26.13.13 0 000-.26z" fill="#fff"></path>
    <path d="M16.53 8.18a.07.07 0 100 .13.07.07 0 000-.13zM5.48 10h-.19a.22.22 0 000 .43h.19a.25.25 0 100-.43z" fill="#fff"></path>
    <path d="M5.55 10a.21.21 0 000 .41.21.21 0 000-.41zM7.8 8.92L7.61 9a.48.48 0 000 .92h.19c.86.29.86-1.25 0-1zm-.86 2.39a.53.53 0 000 1 .53.53 0 000-1zm2.34 2.01l-.18-.07c-1-.33-1 1.49 0 1.16l.18-.06a.54.54 0 000-1.03zm5.1 1.86a.71.71 0 00-.5-.65 1 1 0 00-.18 0 .68.68 0 00-.65.86v.12a.66.66 0 00.47.46h.09a.62.62 0 00.76-.58c.02-.07.02-.14.01-.21zm1.95-1.86a.31.31 0 000 .62.31.31 0 000-.62zm7.38-6.68h-.2c-.27 0-.27.44 0 .43h.2a.21.21 0 000-.43zm.2 2.72a.48.48 0 000 1 .48.48 0 000-1zM22.52 8h-.2a.18.18 0 000 .36h.2c.25.1.25-.36 0-.36zm.79 4.48a.75.75 0 000 1.5.75.75 0 000-1.5zm2.33-.38l-.11-.1a.6.6 0 100 .85l.11-.1a.47.47 0 000-.65zm5.67.9l-.1-.14a.37.37 0 00-.62 0l-.1.14c-.23.3.08.72.41.72s.64-.43.41-.72zm2.19-7.9a.55.55 0 000 1.09.55.55 0 000-1.09zm-.37 2.61c-.29-.58-1.14-.19-.82.36s1.05.09.82-.36zm2.78 1.57V9.2c-.41-1.17-1.91.33-.74.74h.08a.56.56 0 00.66-.66zm6.37-3.46c0-.24-.43-.18-.43.06s.14.39.42.42.29-.45.01-.48zm-1.4-2.88a.51.51 0 000 1 .51.51 0 000-1zm-1.53 2.64h-.18a.44.44 0 000 .85h.18c.79.27.79-1.04 0-.85zm-1.88.24l-.07-.15a.36.36 0 00-.62 0l-.07.15c-.38.83 1.14.83.76 0zm1.22-4.01a.44.44 0 000 .88.44.44 0 000-.88zm8.98-.14a.79.79 0 000 1.57.79.79 0 000-1.57zM46.27 5a.67.67 0 000 1.33.67.67 0 000-1.33zm2.41-.59l-.07-.16a.39.39 0 00-.68 0l-.07.16c-.42.9 1.24.9.82 0zM48 6.49l-.18.07a.3.3 0 000 .57l.18.07c.56.2.56-.91 0-.71zm-4.52-2.57a.53.53 0 000 1 .53.53 0 000-1zm.6-2.45a.58.58 0 000 1.16.58.58 0 000-1.16zm-5.66 9.13h-.19c-.21 0-.21.39 0 .41h.19a.24.24 0 100-.41zm.47 1.89a.74.74 0 000 1.48.74.74 0 000-1.48zm2.04-1.63l-.18-.07c-.4-.16-.41.65 0 .49l.18-.07a.18.18 0 000-.35zm3.35-3a.78.78 0 000 1.56.78.78 0 000-1.56zm-1.2 2.34a.44.44 0 000 .88.44.44 0 000-.88zm2.99 1.45a.39.39 0 000 .77.39.39 0 000-.77zm-.8 2.16a.62.62 0 000 1.24.62.62 0 000-1.24zm2.85-1.03L48 12.7a.5.5 0 00-.68 0l-.11.08c-.46.36 0 1.09.45 1.09s.92-.73.46-1.09zm1.15-2.19a.25.25 0 000 .49.25.25 0 000-.49zm2.39-2.45a.51.51 0 000 1 .51.51 0 000-1zm0 2.17a.53.53 0 000 1 .53.53 0 000-1zm1.44-3.59l-.1-.18a.39.39 0 00-.74 0l-.07.18c-.27.73 1.21.74.91 0zM55 5.63l.07.15a.27.27 0 00.47 0l.07-.15c.26-.63-.97-.63-.61 0zm-2.44-1.29c-.77-.45-1.28.92-.46 1.08a.6.6 0 00.46-1.08zm1.9 4.89l-.09-.1a.44.44 0 00-.75.31.44.44 0 00.75.31l.09-.11a.3.3 0 000-.41zm2.19-.09a.3.3 0 000 .6.3.3 0 000-.6zm-1.19 2.4a.29.29 0 000 .58.29.29 0 000-.58zM37.49 13a.23.23 0 000 .45.23.23 0 000-.45zm2.39 2.07a.76.76 0 000 1.52.76.76 0 000-1.52zm-14.37-.71a.47.47 0 000 .94.47.47 0 000-.94zM14.33 4.17a.88.88 0 000 1.76.88.88 0 000-1.76zM49.85 13a.64.64 0 001.24-.28c-.17-.84-1.48-.53-1.24.28z" fill="#fff"></path>
  </symbol>
  <symbol xmlns="http://www.w3.org/2000/svg" viewBox="0 0 74.41 69.39" id="skull">
    <path d="M68.8 48.45c.52-1.9 8.43-13.69 4.53-25C69.22 11.5 56.67-3.26 31.88.64 9.52 4.16-3.84 23.75 1 43.56c6.1 25.1 34.05 22.85 41 20.53 3.8-1.27 5.84 5.89 11 5.26s14.7-5 16.52-8.49c1.07-2.01-.72-12.41-.72-12.41z" fill="#efefef"></path>
    <path d="M25.87 42.24s-3.39-1.9-4.76 1.11 2.2 4.5 2.2 4.5-2.8 1.79-2.08 4.48a3.21 3.21 0 003.4 2.41s-1.95 2.76.49 4.35 4.88-.48 4.88-.48 1.32 2.61 4 2.61a3.93 3.93 0 003.85-3.4s2.78.7 4.29-.72c1.71-1.62.16-4.34.16-4.34a3.48 3.48 0 003-2.85 4.54 4.54 0 00-2.06-4.75s1.46-2.63-.45-4.45-4.14 0-4.14 0-.23-3.52-3.4-3.53a3.61 3.61 0 00-3.08 1.74s-3-2-5-.48a3.65 3.65 0 00-1.3 3.8zm39.37-15.83a3 3 0 014.43.69 2.71 2.71 0 01-.78 4.28s3.1 1.18 3 3.95A3.21 3.21 0 0169 38.39s2.47 2.31.41 4.36-4.88.53-4.88.53-.76 2.83-3.36 3.37a3.93 3.93 0 01-4.47-2.54s-2.58 1.26-4.34.18c-2-1.24-1-4.22-1-4.22a3.48 3.48 0 01-3.51-2.17 4.54 4.54 0 011-5.07s-2-2.28-.47-4.45 4-.85 4-.85S51.94 24 55 23.37a3.64 3.64 0 013.38 1.07S61 21.89 63.19 23a3.65 3.65 0 012.05 3.41z" fill="#f2ce35"></path>
    <path d="M42.78 12.65c-2.84-.85-19.53 5.94-21.61 9.63-1.16 2 2.19 10.16 3.16 9.63 17.51-9.63 20-9.29 24.43-11.68 1.4-.76-4.11-7.03-5.98-7.58z" fill="#66a4da"></path>
    <path d="M22.13 5.93s.12.09.36.31a8 8 0 01.88 1A9.92 9.92 0 0124.44 9a7.92 7.92 0 01.68 2.67 9.67 9.67 0 010 1.61 9.14 9.14 0 01-.4 1.72l-.29.84-.4.81a10.92 10.92 0 01-1 1.55 11.76 11.76 0 01-1.19 1.45l-.31.35-.08.09-.08.08-.17.15-.66.6a18 18 0 01-1.6 1.21 9.56 9.56 0 01-1.87.92 5.55 5.55 0 01-4.49-.11 4 4 0 01-1.72-1.75 4.29 4.29 0 01-.4-2.34 4.94 4.94 0 01.78-2 8.74 8.74 0 01.55-.74 8.18 8.18 0 01.63-.68A5 5 0 0115.58 14a2.78 2.78 0 011.71.44c.12.09.24.18.35.28l.14.15.07.08.15.05.14.26a2.09 2.09 0 01.16.5 2.27 2.27 0 01-.3 1.42 4.89 4.89 0 01-.55.84 7 7 0 01-.93.92l-.37.29a.35.35 0 01-.48-.5l.26-.31a8 8 0 00.66-1 2 2 0 00.41-1.34l-.17-.24s.1.13.05.06l-.07-.06-.15-.08a1.52 1.52 0 00-.81-.08 3.62 3.62 0 00-1.92 1.21c-.15.16-.28.35-.41.52A5.82 5.82 0 0013 18a2.94 2.94 0 00-.37 1.13 1.74 1.74 0 001 1.72 3.19 3.19 0 002.54-.09 8.62 8.62 0 001.39-.7 13.93 13.93 0 001.29-.94l.66-.6.17-.14.07-.07.28-.3a11.85 11.85 0 001.07-1.19 8.13 8.13 0 00.9-1.33l.38-.62.27-.65a7 7 0 00.56-2.49A8.25 8.25 0 0023 9.55a8.05 8.05 0 00-.67-1.64 9.87 9.87 0 00-.59-1 6.81 6.81 0 00-.24-.32.46.46 0 01.05-.66.47.47 0 01.59 0zm4.28-1.79a6.09 6.09 0 00.9 1.27 7.36 7.36 0 001.34 1.19 10.07 10.07 0 002.05 1.05 11.63 11.63 0 002.67.6 9.51 9.51 0 001.52.07 12.58 12.58 0 001.61-.06h.78l.89-.13c.63-.08 1-.24 1.6-.34a5.58 5.58 0 002.52-1.43 1.85 1.85 0 00.15-2.14 2.62 2.62 0 00-.77-.93 3.21 3.21 0 00-1.19-.41 5.78 5.78 0 00-2.76.12 2.47 2.47 0 00-.94.54.57.57 0 00-.15.22v-.1.59a1.13 1.13 0 00.34.51 2 2 0 00.84.31A4.49 4.49 0 0039.56 5a3.85 3.85 0 001-.35c.16-.13.12-.08.15-.09a.35.35 0 01.37-.33.36.36 0 01.33.38 1.25 1.25 0 01-.34.64 3.78 3.78 0 01-1.22.75 5.72 5.72 0 01-2.14.39 3.53 3.53 0 01-1.47-.32A2.48 2.48 0 0135 4.51l-.08-.34v-.61a2.37 2.37 0 01.45-1.12 4.12 4.12 0 011.59-1.21A7.45 7.45 0 0140.77.6a5.34 5.34 0 012.16.67A5 5 0 0144.56 3a4.53 4.53 0 01.58 2.41 4.24 4.24 0 01-.9 2.41 7.41 7.41 0 01-3.8 2.26 16.24 16.24 0 01-1.95.38l-.89.1h-.97a14 14 0 01-1.83 0 11.31 11.31 0 01-1.75-.22 11.28 11.28 0 01-3.1-1 9 9 0 01-3.65-3.18 6.21 6.21 0 01-.61-1.23 4.09 4.09 0 01-.16-.48.47.47 0 01.29-.59.46.46 0 01.59.28z" fill="#db42a1"></path>
    <circle cx="33.31" cy="48.91" r="8.19" fill="#230000"></circle>
    <circle cx="59.32" cy="34.46" r="8.19" transform="rotate(-37.41 59.308 34.467)" fill="#230000"></circle>
    <path d="M50.06 45.92c-1.82.58-2.43 6-1 6.34 1.14.23 2-2.1 2.56-2.26s2.79.58 3.22-.44c.64-1.56-2.84-4.25-4.78-3.64zm-4.43 9.41s.27.21.78.55a16.57 16.57 0 002.18 1.23 12.67 12.67 0 001.52.6 11 11 0 001.76.39 7 7 0 003.71-.47c.26-.14.62-.26.83-.39a7.71 7.71 0 00.87-.57 6.64 6.64 0 001.27-1.27 5 5 0 00.48-.75 4.55 4.55 0 00.39-.76 8 8 0 00.48-1.52 11.66 11.66 0 00.24-2.45V49a.42.42 0 01.36-.47.42.42 0 01.44.28 6.61 6.61 0 01.23 1 10 10 0 010 2.74 9.08 9.08 0 01-.42 1.82 6.62 6.62 0 01-1 1.89A7.88 7.88 0 0158.18 58c-.32.26-.6.41-.9.62a7.86 7.86 0 01-1.09.54 8.54 8.54 0 01-4.55.46A11.19 11.19 0 0148 58.23a12.49 12.49 0 01-2.93-2.29.41.41 0 010-.58.42.42 0 01.56-.03z" fill="#230000"></path>
    <path d="M49.14 55.43a4.36 4.36 0 01-.06.63c0 .18-.07.4-.14.62s-.14.45-.22.68a5.83 5.83 0 01-.59 1.2 3.52 3.52 0 01-.38.51.36.36 0 01-.49 0 .38.38 0 01-.11-.24 3.11 3.11 0 01.06-.63 6.27 6.27 0 01.35-1.29q.15-.35.3-.66c.1-.2.22-.38.31-.55a4.39 4.39 0 01.37-.5.35.35 0 01.48 0 .33.33 0 01.12.23zm4.19.68a7.54 7.54 0 01.17.74c0 .23.07.48.09.76s0 .58 0 .87a8.86 8.86 0 01-.13 1.64 5.13 5.13 0 01-.17.74.33.33 0 01-.43.2.35.35 0 01-.21-.2 5.13 5.13 0 01-.17-.74 8.86 8.86 0 01-.13-1.64v-.87c0-.28.07-.53.09-.76a7.54 7.54 0 01.17-.74.34.34 0 01.42-.21.31.31 0 01.3.21zm3.25-.94a4.62 4.62 0 01.45.49 6.62 6.62 0 01.4.53l.4.65a6.77 6.77 0 01.57 1.31 3.78 3.78 0 01.15.65.33.33 0 01-.29.38.38.38 0 01-.26-.07 3.64 3.64 0 01-.47-.49 7 7 0 01-.79-1.19l-.33-.68c-.1-.22-.16-.45-.23-.63a4.67 4.67 0 01-.16-.65.34.34 0 01.28-.38.35.35 0 01.28.08zM58.35 52a4.51 4.51 0 01.65 0c.19 0 .42 0 .66.06l.73.15a6.24 6.24 0 011.33.46 3.08 3.08 0 01.58.33.34.34 0 01.07.47.31.31 0 01-.23.14 3.69 3.69 0 01-.66 0 6.41 6.41 0 01-1.39-.22l-.71-.22c-.23-.08-.44-.18-.61-.25a4.66 4.66 0 01-.58-.32.33.33 0 01-.09-.47.35.35 0 01.25-.13z" fill="#230000"></path>
    <path d="M7.37 42.33c.25 1.71-.58 3.24-1.84 3.43S3 44.7 2.78 43s.58-3.25 1.85-3.43 2.5 1.05 2.74 2.76z" fill="#f2ce35"></path>
    <path d="M4.49 37.78C2.9 38 2 29.9 4.11 29.92c2.68.02 1.7 7.64.38 7.86zm3.88 2.14c-.71-.22 1.44-8.28 4-6.9s-2.37 7.39-4 6.9zm.91 3.82c0 1.11 6.52 2.28 6.4.18-.19-3.25-6.38-1.28-6.4-.18zM7.09 47.2c-.6.46 2.27 6.3 4.29 4.61s-3.05-5.59-4.29-4.61z" fill="#60a07c"></path>
    <ellipse cx="60" cy="9.97" rx="2.14" ry="2.88" transform="rotate(-41.89 60.001 9.966)" fill="#f2ce35"></ellipse>
    <path d="M62.94 13.41c1.09-1 5.91 4.79 4.31 5.83-2.08 1.36-5.25-4.99-4.31-5.83zm-4.07.34c.65-.2 3.12 7.09.49 7.32s-1.95-6.89-.49-7.32zm-2.65-2.47c-.56-.86-6.17 1.58-5 3.14 1.78 2.39 5.55-2.28 5-3.14zm-.08-3.77c.21-.66-5-3.67-5.65-1.35s5.19 2.73 5.65 1.35z" fill="#60a07c"></path>
  </symbol>
  <symbol xmlns="http://www.w3.org/2000/svg" viewBox="0 0 68.77 57.82" id="water">
    <g>
      <path d="M9.81 32.3c.4-1.15.84-2.31 1.3-3.46 1-2.48 2.11-4.9 3.1-7 .37-.77.73-1.5 1.06-2.15 1.19-2.37 2-3.91 2-3.91s-4.93-9-3.22-12.52c.15.16 2.69 2.72 17.85 3.26C45.5 7 46.72 4.77 46.72 4.77a29.31 29.31 0 004-.52l1-.53c-.26 2.12-3 2.59-3.25 3.24-.41 1-2.76 7.23-2.52 8.13.05.49 8.4 18.91 8.89 22.81S55 51.72 38 55.05 8.21 49.61 7.88 41.51c-.09-2.45.73-5.77 1.93-9.21z" fill="#cae2ea"></path>
      <path d="M51.68 3.72c0 .21-.38.38-1 .53a29.31 29.31 0 01-4 .52S45.5 7 31.94 6.55C16.78 6 14.24 3.45 14.09 3.29a2.09 2.09 0 01.83-1c5.82-3.72 25-2.44 31.07.08.01.04 5.6.63 5.69 1.35z" fill="#a9bdc5"></path>
      <path d="M15.27 19.72c-.33.65-.69 1.38-1.06 2.15l-.13-.06s-3.11-6-7.34-4-2.84 7.33-.81 9.15c3.33 3 5.18 1.91 5.18 1.91-.46 1.15-.9 2.31-1.3 3.46C-3.7 31.64-1.16 15.8 5 13.67c8.16-2.84 10.27 6.05 10.27 6.05z" fill="#c0d6de"></path>
    </g>
    <path d="M19.75 18.09C18.5 19 9.67 40.43 12.84 44.17s9.67 8.12 22.1 6.82 14.87-8.12 15.11-10.88-3.66-19.42-6-20.88c-1.93-1.2-2.69.49-6.09.4-3.09-.08-3.34-1.95-6.26-1.54S29 20 26 19.47s-3.41-3.41-6.25-1.38z" fill="#a8d9e8"></path>
    <path d="M44 27.6c-1.82.77 1.35 10.49-3.82 13.86-2.43 1.59-9.75 4.34-9.65 6s9.85 3.1 16.55-4.05c3.74-4.03-1.34-16.55-3.08-15.81z" fill="#603c7f" opacity=".08"></path>
    <path d="M16.27 7.23c-.31 1.21 4.07 4 13.15 4 6.5 0 7.69-1.56 7.1-2.3s-6.66-.54-9.38-.74c-4.87-.4-10.39-2.84-10.87-.96z" fill="#fff"></path>
    <g>
      <path d="M68.77 28.55s-1.17 27.71-2.48 28.28c-3.84 1.68-11.23.86-12.93.12s-2.5-28.65-2.5-28.65c0 .73 4 1.37 8.94 1.44s8.96-.46 8.97-1.19z" fill="#cae2ea"></path>
      <path d="M59.84 27.12c4.94.07 8.94.71 8.93 1.43s-4 1.26-9 1.19-8.92-.74-8.91-1.44 4.03-1.25 8.98-1.18z" fill="#a9bdc5"></path>
    </g>
    <path d="M53.13 34.09c-.6.46 1.54 21 2.07 21.21s8.81 1 9.8.33 2.4-22.19 1.81-22.27-1.58 1-3.48 1.07-2.08-1.15-4.51-.46c-2.82.8-4.43-.84-5.69.12z" fill="#a8d9e8"></path>
    <path d="M52.56 31.33c-.16 1 .12 12.28 1.23 12.19s1.48-1.76 1.52-3c.11-3.65.5-7.86-.18-8.58s-2.42-1.48-2.57-.61z" fill="#fff"></path>
    <path d="M63.62 45.27c-.61.79-.55 6.73-1.75 7.23s-5 1.27-5 2.31 6.11 1 7.35.31 1.84-10.44 1.2-10.6a2.18 2.18 0 00-1.8.75z" fill="#603c7f" opacity=".08"></path>
  </symbol>
</svg>
