<svg
    xmlns="http://www.w3.org/2000/svg" viewBox="-2 0 151 40">
    <defs>
        <style>
            @keyframes squeeze {
                0% {
                    transform: scale(1, .9);
                }

                35% {
                    transform: scale(1, 1);
                }

                60% {
                    transform: scale(1, .9);
                }

                80% {
                    transform: scale(.9, .9);
                }

                100% {
                    transform: scale(1, 1);
                }
            }

            @keyframes leafBlow {
                0% {
                    transform: rotate(0);
                }

                50% {
                    transform: rotate(8deg);
                }

                100% {
                    transform: rotate(0);
                }
            }

            @keyframes leafBlowAlternate {
                0% {
                    transform: rotate(0);
                }

                50% {
                    transform: rotate(-8deg);
                }

                100% {
                    transform: rotate(0);
                }
            }

            .separator {
                overflow: visible;
            }

            .cls-6 {
                animation: leafBlow 3s ease infinite;
                fill: #cff400;
                transform-box: fill-box;
                transform-origin: center bottom;
            }

            .cls-6:nth-child(even) {
                animation-delay: .1s;
                animation-name: leafBlowAlternate;
            }

            .flower {
                animation: squeeze 6s ease-in-out infinite alternate;
                transform-box: fill-box;
                transform-origin: center bottom;
            }

            .flower:nth-child(2) {
                animation-delay: .5s;
                animation-duration: 4.5s;
            }

            .flower:nth-child(3) {
                animation-delay: .8s;
                animation-duration: 6.5s;
            }

            .cls-1 {
                fill:#e09230;
            }
            
            .cls-2 {
                fill:#e49f32;
            }

            .cls-3 {
                fill:#ecbb34;
            }
            
            .cls-4 {
                fill:#d35b2d;
            }
            
            .cls-5 {
                fill:#da7c2e;
            }
        </style>
    </defs>
    <g class="separator" data-name="Layer 2">
        <g class="flower">
            <path class="cls-1" d="M63.56,17.08c.11-2.24-9.61-3.18-10.46,1.2-.92,4.7,4.36,3.89,4.36,3.89s-4.94,2.88-2.93,7.21c2.47,5.33,9.34-.92,9.34-.92s-4.15,7.46.06,8.49,7.73-7,7.73-7,1,7.53,5.59,6.78.9-8.75.9-8.75,5.26,7.64,9.72,4.79-1-8.13-1-8.13,6.35.24,6.36-2.35c0-3.64-4.63-4.81-4.63-4.81s4.12-2.7,1.67-6.54-7.59,1.23-7.59,1.23,7.59-6.39,2.41-8.28S76.93,9.24,78.6,9s3.63-7.57.25-8.44-9,8-6.68,8.68,1.69-10.7-4.11-9-2.68,9.13-2.68,9.13S59,4.56,56.65,8.13C53.06,13.63,63.46,19.33,63.56,17.08Z"/>
            <path class="cls-2" d="M67,13.38s-4.34-4-6-.68a3.36,3.36,0,0,0,1.43,4.58s-4.36,1.29-2.53,5c1.3,2.66,5.09,1.31,5.09,1.31s-1.35,4.81,1,5.87,6.39-4,6.39-4,1.07,5,3.17,4.54,1.77-4.53,1.77-4.53,3.81,2.79,6.2,1.1-2.68-5.6-2.68-5.6,4.93,2.3,5.59-.9-4.54-3.54-4.54-3.54,4-2,2.78-4a4.25,4.25,0,0,0-6.15-.95s1.08-5.34-1.92-5.38-4.22,4.34-4.22,4.34S71,6.3,68.13,7.06,67,13.61,67,13.61,69.77,13.22,67,13.38Z"/>
            <path class="cls-3" d="M69.31,18.09s-9.94.18-7.6,4.43,6.72.84,8-.7c0,0-1.28,7.8,2.86,6.94s2.3-8,2.3-8,4.37,5.57,7.78,3.66-5.31-6.09-5.31-6.09,6.71.67,7-2.73S75.58,17,75.58,17s6.1-6.16,3.57-7.89S73.69,10.87,73,16.5c0,0-1.37-9-6.28-6C63.24,12.68,69.31,18.09,69.31,18.09Z"/>
        </g>
        <g class="flower">
            <path class="cls-4" d="M31.4,16.22s-4.15.46-3.8,2.33,4,1.87,4,1.87-4.27,4.43-2.8,6.37,3.78-.95,3.78-.95-.39,4.1,1.94,3.82,2.38-3.25,2.38-3.25,1.65,4.09,4.09,3,.4-5.27.4-5.27,1.92,4.1,3.77,2.94-.27-5.2-.27-5.2,3.15.59,3.71-1-3.38-1.13-3.38-1.13,6-2.29,4-4.05-5.75.78-5.75.78S47,10.23,44.92,10s-5.6,6.5-4.44,6.34c2.12-.28,2.39-8.62-.07-8.95s-3.35,7.32-2.53,7.3-.62-7.6-3.1-6.82S34.61,15,34.61,15s-4.23-6-5.76-3.71S31.4,16.22,31.4,16.22Z"/>
            <path class="cls-5" d="M36.05,18.44s-3.47-3.36-4.51-1.21c-.91,1.86,3.1,2.53,3.1,2.53s-3.92,1.94-2.32,3.85,4-2.68,3.84-2.37-1.63,4.64,0,4.77,2.27-4,2.27-4,.4,3.51,1.75,3.16.16-4.08.16-4.08,2,4.63,3.64,3.59S41.67,20,41.67,20s3.71,1.6,4.2.49-3.81-1.87-3.81-1.87,3.61-1.23,2.49-2.69-3.81,1-3.81,1,1.51-4.36-.53-4.24c-1.17.07-1.64,4.08-1.64,4.08s-1.07-4.94-2.92-4.42S36.05,18.44,36.05,18.44Z"/>
            <path class="cls-3" d="M38.74,18.49s-.8-1.53-1.49-1.26.71,1.84.71,1.84-1.8.2-1.63,1,1.88-.17,1.88-.17-1.11,1.87.11,1.88.83-2.06.83-2.06S40.52,21,41,20.57s-1.06-1.32-1.06-1.32,1.77-.41,1.25-1.25-1.61.41-1.61.41.43-1.94-.49-1.89S38.74,18.49,38.74,18.49Z"/>
        </g>
        <g class="flower">
            <path class="cls-4" d="M100.4,16.22s-4.15.46-3.8,2.33,4,1.87,4,1.87-4.27,4.43-2.8,6.37,3.78-.95,3.78-.95-.39,4.1,1.94,3.82,2.38-3.25,2.38-3.25,1.65,4.09,4.09,3,.4-5.27.4-5.27,1.92,4.1,3.77,2.94-.27-5.2-.27-5.2,3.15.59,3.71-1-3.38-1.13-3.38-1.13,6-2.29,4-4.05-5.75.78-5.75.78,3.52-6.26,1.45-6.5-5.6,6.5-4.44,6.34c2.12-.28,2.39-8.62-.07-8.95s-3.35,7.32-2.53,7.3-.62-7.6-3.1-6.82-.17,7.13-.17,7.13-4.23-6-5.76-3.71S100.4,16.22,100.4,16.22Z"/>
            <path class="cls-5" d="M105.05,18.44s-3.47-3.36-4.51-1.21c-.91,1.86,3.1,2.53,3.1,2.53s-3.92,1.94-2.32,3.85,4-2.68,3.84-2.37-1.63,4.64,0,4.77,2.27-4,2.27-4,.4,3.51,1.75,3.16.16-4.08.16-4.08,2,4.63,3.64,3.59S110.67,20,110.67,20s3.71,1.6,4.2.49-3.81-1.87-3.81-1.87,3.61-1.23,2.49-2.69-3.81,1-3.81,1,1.51-4.36-.53-4.24c-1.17.07-1.64,4.08-1.64,4.08s-1.07-4.94-2.92-4.42S105.05,18.44,105.05,18.44Z"/>
            <path class="cls-3" d="M107.74,18.49s-.8-1.53-1.49-1.26.71,1.84.71,1.84-1.8.2-1.63,1,1.88-.17,1.88-.17-1.11,1.87.11,1.88.83-2.06.83-2.06,1.37,1.31,1.85.84-1.06-1.32-1.06-1.32,1.77-.41,1.25-1.25-1.61.41-1.61.41.43-1.94-.49-1.89S107.74,18.49,107.74,18.49Z"/>
        </g>
        <path class="cls-6" d="M18.67,26.53s-5.74,1.6-12.7-3C.83,20.08-1.91,12.71,1.54,11,6.31,8.71,7.05,22.79,18.67,26.53Z"/>
        <path class="cls-6" d="M122.09,26.66a14.9,14.9,0,0,0,8.7-6.55c2.69-4.12,2-10-1.31-9.86C124.89,10.42,129.69,20,122.09,26.66Z"/>
        <path class="cls-6" d="M23.5,26.66a14.91,14.91,0,0,1-8.71-6.55c-2.69-4.12-2-10,1.31-9.86C20.69,10.42,15.9,20,23.5,26.66Z"/>
        <path class="cls-6" d="M126.91,26.53s5.74,1.6,12.7-3c5.15-3.42,7.89-10.79,4.44-12.47C139.28,8.71,138.53,22.79,126.91,26.53Z"/>
    </g>
</svg>