<svg
    xmlns="http://www.w3.org/2000/svg"
    xmlns:xlink="http://www.w3.org/1999/xlink" viewBox="0 0 503.3 125.2"
    xmlns:v="https://vecta.io/nano">
    <defs>
        <linearGradient id="A" x1="251.6" y1="125.2" x2="251.6" y2="62.4" gradientUnits="userSpaceOnUse">
            <stop offset="0" stop-color="#d9d9d9"/>
            <stop offset=".2" stop-color="#e1e1e1"/>
            <stop offset=".7" stop-color="#f4f4f4"/>
            <stop offset="1" stop-color="#fbfbfb"/>
        </linearGradient>
        <linearGradient id="B" x1="251.5" y1="37" x2="251.5" y2="0" xlink:href="#A"/>
        <path id="C" d="M7.6 62.5c1.8 0 4.3 1.4 7.6 4h.4q4-3.7 7.2-3.7 5.4 0 9.5 13.8 4 9.3 10.5 27a49.7 49.7 0 0 1 3.1 8.1l.8.6h.8q0-1 6.5-17.7 7.6-19.7 10.7-27 3.5-4.7 6-4.7a6.3 6.3 0 0 1 5.8 3.3c.3 0 .4.1.4.2.2 0 1.5-1 3.7-2.7a15 15 0 0 1 4.5-1.2h.8q3.2 0 6.4 4.3c0 .6-1.2 1-3.5 1.4Q84 71 84 73.6v14a7.7 7.7 0 0 0 2.5 4.8c.4 0 1 .5 1.5 1.6a15.8 15.8 0 0 1-2.7 2.7 7.1 7.1 0 0 0-1.4 4V113a6.1 6.1 0 0 0 4.1 6c2.7.7 4 1.3 4 1.8h0q-3.4 4-5.4 4-6.5 0-9-3.7h-.2c-.4 0-2 1-4.6 3a8 8 0 0 0-2.9.8 8 8 0 0 1-7-3.3c-.2 0-.4-.3-.7-.8v-.6c0-.4 1-.7 3-.8q3.4-1.8 4-3.3a6 6 0 0 0 1.2-3.7q0-.6-.2-.6.2-4 .2-5.8v-10q0-2.3-.2-4.7a21.2 21.2 0 0 0 .2-3.7L70 83l.3-2c-.1-1.3-.4-2-.7-2h-.2a107.8 107.8 0 0 0-4.6 11.6q-9 23-11.5 29.7c-1.2 3-2 4.7-2.7 4.7H36q-1 0-4-8.6l-2.5-6.2q-10.5-27.6-12-31h-.2c-.2 0-.4.2-.6.6V112c0 2.5.3 4.2 1 5a7.3 7.3 0 0 0 6.2 3.1c.6.1 1 .3 1 .6q0 2.2-4.2 4.3h-.6a8.6 8.6 0 0 1-7.3-3.3h-.3c-.5 0-1.2.6-2 1.8A7.3 7.3 0 0 1 6 125h-.6q-3.8 0-5.4-4.3c0-.2.3-.4.8-.6.1 0 .5.1 1 .2Q8 119 8 113a2.6 2.6 0 0 1 .2-1.4 14.1 14.1 0 0 1-.2-2.1v-9.2Q8 97 4.3 94v-.2c0-.2.7-1 2-2a7.9 7.9 0 0 0 2-5l-.2-8.4a64 64 0 0 1 .2-4.7q-2-5-4-5-.2-.6-4-1l-.2-.4v-.6Q3 63 5.6 63c0-.3.6-.4 2-.6zm-1.4 58.2v.6H9c1 0 1.4-.3 1.4-1a4.9 4.9 0 0 1-.2-.8 4.9 4.9 0 0 0 .8-1.9v-.5h-.6a23.8 23.8 0 0 1-4.1 3.7zm.6-54.5q0 .7 4 2.7h.2a2 2 0 0 0 .4-.6V68q0-1.2-3.5-2.5a2.5 2.5 0 0 0-1 .6zM11 96.4c.3 1.7.6 2.5 1 2.5h.2c.3 0 .6-.7 1-2v-.4c0-.2-.2-.4-.6-.6h-1q-.3 0-.6.6zm.2-4.2v.8a1.7 1.7 0 0 1 .6.2q.8-.3.8-.6v-.4c0-.2-.2-.4-.6-.6H12c-.2 0-.4.2-.6.6zm.6-5l-.4.6v1q.2.6 1 .6h.2a.4.4 0 0 0 .4-.4v-.2c-.1-1-.6-1.6-1.4-1.6zm-.4 24v.3c0 .2.2.4.6.6h.2a1.4 1.4 0 0 0 1.5-1.6q-.1-1-.6-1h-.4a4 4 0 0 0-1.3 1.6zm.4-36.5l-.2 1 .4.2h.4q.3 0 .6-.6V75c0-.2-.1-.3-.4-.3zm0 32.4c0 .3.2.4.4.4h.6q.3 0 .6-.6l-.2-1H13a1 1 0 0 0-1.2 1.2zm.4 8.4l.6.4h.2c.2 0 .5-.3.8-.8v-.4q0-.3-.6-.6a1.3 1.3 0 0 0-1 1.4zm.6-31.8l-.4.6q0 .4.4.4h.2a.3.3 0 0 0 .4-.4q0-.2-.6-.6zm.2-13.2l-.2.4v.4c0 .3.2.4.4.4h.4c.2 0 .3-.1.3-.4v-.6zm.6 47.3v1a8.4 8.4 0 0 0 2.9 1.5l.8-.2v-.6c-1.6-1.7-2.4-2.5-2.7-2.5h-.2c-.2 0-.5.3-.7.8zM17 71.2c0 .3.2.4.4.4h.2q1.7-2.4 3.7-2.4a15 15 0 0 0 3.9.8q.8-.3.8-.6v-.2c0-.3-1.4-1-4-2q0-1-.6-1-2.8 2-2.8 2.3c0 .7-.5 1.3-1.5 2zm1.8 50l-.2.4v.2h.6v-.2a.4.4 0 0 0-.4-.4zm1.8-47v.6a.4.4 0 0 0 .4.3l.4-.6V74H21a1.4 1.4 0 0 1-.6.2zm1.5-1.5v.6h.4a.4.4 0 0 0 .4-.4l-.4-.2zM23 83v.4c0 .3.2.4.6.4a.9.9 0 0 0 .8-1l-.6-.4h-.2q-.3.1-.6.6zm.7-4.5a1.4 1.4 0 0 1 .2.6h1v-.8a1.6 1.6 0 0 1-.2-.6h-.6c-.3 0-.5.3-.6.8zm.2-4.2v.7a4.4 4.4 0 0 1 .7.2l.4-.6V74a.4.4 0 0 0-.4-.4h-.2c-.2 0-.4.2-.6.7zm.6 11.2q0 .4.4.4h.2a.3.3 0 0 0 .4-.4V85h-.6c-.2.1-.4.2-.4.4zm.8-4.7v.6c0 .2.2.4.6.6h.4q.4-.1.8-1a1.1 1.1 0 0 0-1.2-.8c-.2.1-.4.3-.6.6zm.2-9v.2a1 1 0 0 0 .8 1.1 1.3 1.3 0 0 0 1-1.4c0-.2-.2-.4-.6-.6-.8 0-1.2.2-1.2.6zm.4 4.7c0 .4.4.8 1.2 1l.4-.6v-.8c0-.3-.3-.5-.8-.6a1 1 0 0 0-.8.7zm1.2 6.6v.7c.8 0 1.3.7 1.4 2a2 2 0 0 0 1 .4l.4-.6c0-.6-.5-1.2-1.4-2 0-.8-.2-1-.6-1h-.4c-.3.1-.4.2-.4.4zm.6-5v.2c.1 1 .6 1.5 1.4 1.5v-.4-1c0-.3-.1-.4-.4-.4zm0 11v.6c0 .2.3.4.8.6.5-.2.7-.4.7-.6v-.4c0-.2-.2-.4-.6-.6H28c-.3 0-.4.2-.4.4zM28 95a2.9 2.9 0 0 0 1 2.1l1.8-.2a6.7 6.7 0 0 1 1.8.6 4.7 4.7 0 0 1 2.1-.4h2a1.9 1.9 0 0 0-1-1.2h-.2a13.3 13.3 0 0 1-1.9.6 4.2 4.2 0 0 1-4.1-2.3L29 94q-.5 0-1 1zm1.5-14.6l-.2.4V82q0 .1.6.6c.5-.2.8-.4.8-.6v-.2c0-1-.4-1.4-1.2-1.4zm.8 12.7v.6h1V93a.4.4 0 0 0-.4-.4h-.2c-.3 0-.4.1-.4.4zm.8 11.4v.4h.6a.4.4 0 0 0-.4-.4zm1 2.7v.2l2.5 1.5a10.3 10.3 0 0 0 2.7-1.3h1.2v-.4a1.6 1.6 0 0 0-1.6-1H37l-1.2.8H35c-.1 0-.6-.5-1.4-1.4h-.4c-.2 0-.6.5-1.2 1.5zM33.4 91l-.2.4v1.5a2.5 2.5 0 0 1-.8 1.6v.2q0 .4.4.4h.8c1-.8 1.7-1.5 1.7-2-.3-1.5-1-2.2-2-2.2zm.8 20.7v1.2l1 .2c.4 0 .6-.5.8-1.5v-.2a1.8 1.8 0 0 1-1-.2c-.5.2-.8.4-.8.5zm1-7.2c0 .3.2.4.4.4h.4v-.4a.4.4 0 0 0-.4-.4q-.4.1-.4.4zm.6 10.5h0c.1.3.2.4.4.4h.2a1.9 1.9 0 0 0 1.9-1v-.6c-.1-.4-.6-.6-1.5-.6a1.5 1.5 0 0 0-1 1.6zm.6-4v.2h1a.4.4 0 0 0 .4-.4v-.6a.4.4 0 0 0-.4-.4H37c-.5.2-.6.6-.6 1.2zm1-8.3v.2c.1.3.2.4.4.4a.4.4 0 0 0 .4-.4v-.2a.4.4 0 0 0-.4-.4c-.3 0-.4.1-.4.4zm1.4 9.3l-.2.4v.6c0 .2.2.4.6.6h.4l.4-.2c-.2-1-.6-1.4-1.2-1.4zm.2-7.8v.8h.7v-.4c0-.3-.1-.4-.3-.4zm3.5 15c-.7-.4-1-.8-1-1.2h-.7a2 2 0 0 1-.6 1.2c0 .3 1 .6 2.7 1 1.6-.4 2.4-.8 2.4-1v-.6c0-.2-.2-.4-.6-.6h-.2c-.7.8-1.4 1.3-2 1.3zm5.8-.6v.6c0 .2.2.4.6.6h.2c.2 0 .4-.2.6-.6v-.6a.4.4 0 0 0-.4-.4h-.6c-.2 0-.4.1-.4.3zm2-2v.2q0 .4.4.4h.6a1.5 1.5 0 0 1 .2-.6l-.6-.4h-.2c-.2 0-.4.2-.4.4zm.2-3.8v.3c0 .2.2.4.6.6h.6c.4-.1.6-.5.6-1.2 0-.3-.1-.4-.4-.4H51c-.2 0-.4.2-.6.6zm2.4-5.2v.2c0 .2.2.4.6.6h.4a.3.3 0 0 0 .4-.4v-.6c0-.2-.1-.3-.4-.3h-.4q-.3 0-.6.5zM59.4 92v.4h.2a.3.3 0 0 0 .4-.4zm3-10.3c0 .2.2.4.6.6h.2c.2 0 .4-.3.6-1a1.5 1.5 0 0 1-.2-.7H63c-.4.1-.6.4-.6 1zm2-4.5c0 .4.3.6.8.6q1.3-.6 1.3-1.5l-.8-.4a1.2 1.2 0 0 0-1.4 1.3zm3.5-5.6v.2a1.6 1.6 0 0 0 1-1.4h-.4c-.4.1-.6.5-.6 1zm1.5 49.3v.4c.1.3.2.4.4.4h.2c.2 0 .3-.1.3-.4v-.4a.3.3 0 0 0-.3-.3h-.2c-.3 0-.4.1-.4.3zm2.4-2v.6c0 .3.2.4.6.4 2-1 3-1.8 3-2.7v-.3a.4.4 0 0 0-.4-.4c-.8 0-2 .8-3.3 2.4zm1-39v.8q0 .3.6.6h.6q.3 0 .6-1-.3-.8-.6-.8h-.6c-.2-.1-.4.1-.5.5zm1-7.3v.2a1.9 1.9 0 0 0 .4.6v.8l-1 1v.2q0 .3.6.6h.2l4.6-1.4a8.6 8.6 0 0 0 1.8.2 2.4 2.4 0 0 0 .6-1.4 1.3 1.3 0 0 0-1.3-.7h-.2c-.4.4-1.5.7-3.5 1h-.4a2 2 0 0 1-1.5-1zm-.2 31.3v.2c0 .8.4 1 1.2 1l.3-.6v-.8q0-.3-.6-.6h-.4q-.3 0-.6.6zm0 4.5v.2l.2 1h.6q.3 0 .6-.6v-.6q0-.3-.6-.6h-.2q-.3-.1-.6.5zm5.8-15c0 .2-.4.5-1.2.8L74 94v.4.2c.2.4.5.6 1.2.6h1.5a3.8 3.8 0 0 0 2.9 1.2l.2.4c0 1.5-.6 2.3-2 2.3l-.2.4c0 .8.4 1.2 1 1.2.5-1.4 1-2 1.3-2s1-.7 1.2-2q.3 0 .6-.6v-.2c-1-1.4-1.8-2-2.3-2zM74 114h.4.4a1.3 1.3 0 0 0 .8-1.3h-.8a1.3 1.3 0 0 0-.8 1.2zm.2-14.2v.6h1l.2-1.3H75c-.3 0-.5.2-.8.8zm1.4-1.4l.4.2c.8-.3 1-.6 1-.8l-.2-1h-.6c-.4 0-.6.6-.8 1.6zM76 112l.4.2h.3c.2 0 .4-.3.8-.8-.2-.5-.4-.8-.6-.8h-.2a1.3 1.3 0 0 0-.7 1.4zm.2-26.8c.1.3.2.4.4.4h.2c.4-.1.6-.5.6-1.2a.4.4 0 0 1-.4-.4 1.1 1.1 0 0 0-.8 1.1zm0 21.4c.1.3.2.4.4.4h.2a.4.4 0 0 0 .4-.4v-.2a.4.4 0 0 0-.4-.4q-.2 0-.6.5zm0 8.7v1h.2a1.2 1.2 0 0 0 1-1.2l-.6-.4c-.2-.1-.4.1-.6.5zm.8-34.7v.6c0 .2.3.4.8.6a.9.9 0 0 0 .7-1c-.2-.5-.4-.8-.6-.8h-.4c-.2 0-.4.2-.6.6zm0 9.5l.4.2h.2c.3 0 .4-.1.4-.3l-.4-.2h-.2c-.2 0-.4.1-.4.3zm.4-14a1 1 0 0 0 1.1 1.1h.2a.4.4 0 0 0 .4-.4V76l-1.4-.4c-.3 0-.4.2-.4.4zm.2-4.3v.2c0 .4.3.6.8.6a1.3 1.3 0 0 1 .6-.2v-.7a.4.4 0 0 0-.4-.4H78q-.3 0-.6.5zm.2 32.6v.4c.1.4.5.6 1 .6h.4c.3 0 .4-.1.4-.3v-1.6a.3.3 0 0 0-.4-.4H79a1.2 1.2 0 0 0-1.4 1.3zm.7 3.7c0 .2-.1.3-.2.3a1.8 1.8 0 0 1 .2.6h.8v-.6c0-.2-.1-.3-.4-.3zm.8-19.6v.4c0 .2.2.4.6.6h.4a.4.4 0 0 0 .4-.4v-.6l-.8-.2a1.4 1.4 0 0 1-.6.2zm0 29.5a1.3 1.3 0 0 0 1.4 1h1c.2 0 .4-.2.6-.6-.2-.6-1-1-2-1h-.6c-.3 0-.4.2-.4.6zm.6-39.6c0 .3-.1.4-.3.4.2.5.4.7.6.7h.4v-1a1.6 1.6 0 0 1-.6-.1zm-.2 33c.2.5.4.8.6.8h.6c.2 0 .3-.1.3-.4v-1c0-.3-.1-.4-.3-.4h-.4c-.3.1-.5.4-.8 1zm.2 3.5v.8c.1.2.2.3.4.3l.6-1a.3.3 0 0 1-.4-.4 1.4 1.4 0 0 1-.6.2zm.4-9c0 .3-.1.4-.2.4.2.5.4.7.6.7s.4-.2.6-.6c0-.2-.2-.4-.6-.6zm0-4h.4a.3.3 0 0 0 .4-.4l-.4-.2c-.3 0-.4.1-.4.4zm1-9.5v.2c0 .2.3.5 1 1h.4c.2 0 .3-.1.3-.4V93c0-.7-.2-1-.6-1.2h-.6c-.2 0-.4.2-.6.5zM82 67c0 .2.2.4.6.6h1c.2 0 .4-.2.6-.6-.2-.5-.4-.7-.6-.7h-.8c-.3 0-.5.2-1 .7z"/>
        <path id="D" d="M97 62.6h2a12.2 12.2 0 0 1 6.2 3.6h.2q1 0 3.5-2.3a10.6 10.6 0 0 1 4.8-1.4h.8c2 0 4 1.3 6.2 3.8v.5q0 .4-4.6 1.7a5.7 5.7 0 0 0-3.2 5.4v8.7q0 8 2 9c1 .8 1.7 1.2 1.7 1.3v.6q-3.8 2.5-3.8 8.4 0 4.3 3.8 10 6 5.2 12 5.2 7.6 0 13.2-7.5a17.4 17.4 0 0 0 2.5-9.2q-1.3-5.8-2.8-5.8a7.7 7.7 0 0 1-1.4-1.4v-.2c2.7-1.8 4-4 4-7q.2-3.6.2-7.7v-4.2q0-4.2-4.8-6.3c-2.2-.3-3.3-.7-3.3-1.3q1-2.2 4.6-4l2.5-.2q3.3 0 7.5 3.6h.3a46.4 46.4 0 0 0 4-2.9 9.1 9.1 0 0 1 3.3-.8h.4q4.2 0 7 4v.2c0 .6-1 1-3.2 1.3-3.2 1.3-4.8 3.4-4.8 6.3v10.2a16.4 16.4 0 0 0 .2 2.1 2 2 0 0 0-.2 1c0 1.2 1.4 3 4.2 5.6v.2C159.3 96 158 98 158 100v3q0 10.2-11.5 17.7a39.4 39.4 0 0 1-17.8 4.6 41.3 41.3 0 0 1-15.9-3.5q-4-1.6-9.4-7a17.1 17.1 0 0 1-2.9-5.4 17.6 17.6 0 0 1-1.7-6.9l.2-1q0-5.4-4.2-7.8V93q4-2.7 4-5.6V75a1.5 1.5 0 0 0-.2-.7 1.9 1.9 0 0 0 .2-.8q0-3.7-5.3-5.6c-1.5-.1-2.3-.5-2.3-1 0-1.2 1.4-2.6 4.2-4.2zm.6 3.4v.4a3.4 3.4 0 0 0 2.8 1.5h1c0-.3.1-.4.2-.4a3.6 3.6 0 0 0-3.5-1.7 1.7 1.7 0 0 1-.6.2zm3.6 29l-.2.4a1.6 1.6 0 0 0 1 1.5h.8l1.4-.4c2.2 0 3.2.6 3.2 1.8h.4q.5 0 2-3l-.4-.2a2.4 2.4 0 0 0-1.1.2zm0-24.5v.6l1 .2.2-.3v-.4a1.3 1.3 0 0 1-.6-.2 1.1 1.1 0 0 1-.6.2zm.6 8.8c0 .2-.1.3-.2.3a1.8 1.8 0 0 1 .2.6h.4a.4.4 0 0 0 .4-.4v-.6zm-.2 20.5v.4c0 .3.1.4.3.4h.6c.2 0 .3-.1.3-.4v-.6c0-.3-.1-.4-.3-.4h-.4c-.2 0-.4.1-.6.5zm.6-24.2v.3c0 .3.2.4.4.4s.3-.1.3-.4v-.4zm.4 6.3v.6q0 .3.6.6h.4c.2 0 .4-.3.7-1-.2-.5-.4-.7-.6-.7h-.6q-.3 0-.6.6zm3.5 24.4a2.5 2.5 0 0 1-1.6-.6c-.8.3-1.2.6-1.3 1v.2q0 .4 2 .6c.4 1.3.8 2 1 2h.2q.5-1.7 1-2h.8c.2 0 .4.2.6.6v1.3a1.3 1.3 0 0 0 .8.2c.2 0 .5-.3.8-.8v-.2c-.8-2-1.7-3-3-3a3.8 3.8 0 0 1-1.7.7zm-2.5-29.2v.6c0 .2.3.3 1 .3 0-.1.1-.2.2-.2a1 1 0 0 0-1.1-.8zm.6-3v.6h.6l.2-.7-.4-.2a.4.4 0 0 0-.3.4zm0 27.6v.6c0 .3.1.4.3.4a.3.3 0 0 0 .4-.4v-.2a.3.3 0 0 0-.4-.4zm1-2.3v.4c0 .2.2.4.6.6h.4q.3 0 .6-.6V99c0-.2-.1-.3-.4-.3h-.3c-.2 0-.5.2-.8.7zm1-16.3a2 2 0 0 1 .6.4q.3 0 .6-.6c-.2-.5-.4-.8-.6-.8s-.5.3-.6 1zm.2 5.8l.6.4h.6c.2 0 .3-.1.3-.4a1.1 1.1 0 0 0-.7-.8 1.2 1.2 0 0 0-.8.7zm.4-11v.2c0 .2.3.5.8.8q.3 0 .6-.6v-1h-.8q-.3 0-.6.6zm.4 23.4v1q0 .4.4.4h.6c.3 0 .5-.6.6-1.7l-.6-.4h-.4c-.2 0-.4.2-.6.5zm.2-27.2v.6a1.2 1.2 0 0 1 .6.2 2 2 0 0 0 .4-.6c0-.2-.2-.4-.6-.6-.3 0-.4.1-.4.4zm.6 36.7v.4q0 .4.4.4h.2v-.4a.4.4 0 0 0-.5-.4zm0-26v.7h.2q.3 0 .6-.6l-.2-.4a1.5 1.5 0 0 1-.7.2zm.2-15.2a2.2 2.2 0 0 0 1.1.4h.6a.3.3 0 0 0 .4-.4c0-1-.4-1.3-1-1.3a1.2 1.2 0 0 0-1 1.3zm.2 2.3v.2q0 .3.6.6h.2q.3 0 .6-.6V72a.4.4 0 0 0-.4-.4h-.6c-.3.1-.4.2-.4.4zm0 8.3v.7q0 .3.6.6h.2c.2 0 .3-.1.3-.4v-.6l-.6-.6a1.3 1.3 0 0 1-.6.2zm.4-4v.7a1.4 1.4 0 0 1 .6-.2v-.6zm1.4 39.4v.6h.7q.3 0 .6-.6l-.2-.4a2.9 2.9 0 0 1-1.2.4zm.6-21.7v.6h.4V94zm3.6 21.5v.4a1.3 1.3 0 0 0 1.3.8l.2-.4c-.2-.5-.4-.8-.6-.8zm2 2.3v.6c0 .2.2.4.6.6h.8c.2 0 .4-.2.6-.6a2.1 2.1 0 0 0-1.3-.6zm7.3 3.5v.4c0 .2.2.3.3.3h.6a.3.3 0 0 0 .3-.3v-.2q0-.3-.6-.6h-.4a.4.4 0 0 0-.4.3zm4.2 0l-.2.4v.2h.6v-.2a.4.4 0 0 0-.4-.5zm10.2-3v1.8c0 .2.2.3.3.3h1c0-1.4 1.2-2 3.5-2l.2-.4a6.5 6.5 0 0 0-2.5-.6c-1.7.2-2.5.5-2.5 1zm5.7-4c.1.3.2.4.4.4h.4c1 0 1.7-.7 2.3-2.2a.9.9 0 0 0-.9-.7c-1.4.7-2.2 1.5-2.2 2.5zm2 2.3v.2c.1.3.2.4.4.4s.4-.2.6-.6v-.2a.4.4 0 0 0-.4-.4c-.2 0-.4.2-.6.6zm.2-23.2q0 1.3 5.3 1.5 0 .4 1.5 1a3.3 3.3 0 0 1 1.4-.6v.6l-.6.7v1q0 .4.4.4l2-2.5a7.1 7.1 0 0 1-1.4-2.1h-.8a3.2 3.2 0 0 1-1.9.7q-2.7-.5-3.4-1.7a6.9 6.9 0 0 1-2.5.8zm1 3.8v.3c0 .2.2.4.6.6a2.2 2.2 0 0 0 .6-1.2l-.6-.4c-.2 0-.4.2-.7.6zm4.6-26a3.1 3.1 0 0 1 .4 1.5c0 .3-1.2.7-3.7 1-.6.3-1 .7-1 1a2 2 0 0 0 1 1.2 8.9 8.9 0 0 1 2.9-1l1 .6a2.1 2.1 0 0 0-.4 1.1l.6.4h1v-.6a5.9 5.9 0 0 1-.7-1v-.2c0-.2.8-.6 2.3-1.2l.2-.4v-.6c-1.3-.7-2-1.2-2-1.7a.7.7 0 0 0-.8-.8c-.6.2-.8.4-.8.6zm-3.7 13l-.2.4.4.2v-.3zm0-4.6v.8c0 .2.2.4.6.6h.6v-1.4q0-.3-.6-.6h-.2c-.2 0-.4.2-.6.6zm.2-10v.2c0 .3.2.4.4.4s.4-.2.6-.6v-.2a.4.4 0 0 0-.4-.4q-.3 0-.5.6zm0 20v.5h.2a.4.4 0 0 0 .4-.4v-.2zm.4 14.2v.2c0 .2.2.5.7.8h.4a.4.4 0 0 0 .4-.4v-.2l-.2-1h-.7q-.3 0-.6.6zm.2 4.6c.2.5.4.8.6.8h.4a.4.4 0 0 0 .4-.4v-.2l-.2-1h-.6q-.5 0-.6.8zm.4 4.4l.3.7q1-.2 1-1.5h-.2a2.3 2.3 0 0 0-1.2.8zm.2-13.4v.4a.4.4 0 0 0 .4.3c.3 0 .4-.1.4-.3v-.4a.4.4 0 0 0-.4-.4q-.4.1-.4.4zm1-2.7l-.2 1a1.7 1.7 0 0 0 .4.6c.5-.2.7-.4.7-.6V97c0-.3-.1-.4-.3-.4zm0 15.2h.2c.7 0 1-.2 1-.6v-.6c0-.2-.2-.4-.6-.6h-.2c-.3 0-.5.6-.6 1.8zm.2-27.2q0 .3.6.6c.2 0 .4-.2.6-.6v-.2a.4.4 0 0 0-.4-.4h-.2q-.2 0-.6.6zm0 21v.6q0 .4.4.4c.2 0 .3-.1.3-.4v-.2c0-.3-.1-.4-.3-.4zm1-25.7l-.2 1a1.4 1.4 0 0 1 .2.6h.5q.3 0 .6-.6v-.3c0-.2-.2-.4-.6-.6zm.2 10v.2h.4v-.2zm.2 13.7v.6q0 .3.8.8h.8l.2-1-.2-1h-.4q-1.2.2-1.2.6zm.2-4.4v.6q0 .4.4.4h.3c.4-.1.6-.5.6-1v-.2q-.4 0-.4-.2-1 .2-1 .5zm.4 8.8v.6h.6v-.6zm.3-18.8a2.4 2.4 0 0 0 1.2.4l.4-.6v-.2c0-.2-.2-.4-.6-.6q-.5 0-1 1zm1.4 12v.4.6h.4c.2 0 .4-.1.4-.4v-.4a1.7 1.7 0 0 1-.6-.2zm-.2 4.8v.6a.3.3 0 0 0 .4-.4zm.8-35.7v.7c0 .3.2.4.4.4h.2a.4.4 0 0 0 .4-.4v-.4l-.4-.6a1.1 1.1 0 0 1-.6.2zm0 22.6a3.9 3.9 0 0 0 1.9.6v-1q-.2-.6-1-.6a1 1 0 0 0-.8 1.1zM156 67v.6c0 .2.1.3.3.3h.2c.2 0 .4-.3.8-1a1.6 1.6 0 0 1-.2-.6h-.6c-.3 0-.4.2-.6.6z"/>
        <path id="E" d="M190.6 62.4q.4 0 .4.2 3-.2 4.3-.2h2.5q2.8 0 6.4.2l1-.2 1.2.2 3-.2.4.2a1.3 1.3 0 0 1 .6-.2q4.7 0 6.3 1.6h1a14.3 14.3 0 0 1 6-1.6c1 .2 1.4.5 1.4 1a25.4 25.4 0 0 0-1.4 9.4v2a1.3 1.3 0 0 1-.7 1.4h-6c-1.4 0-2-1-2-2.7a5.7 5.7 0 0 0-5.1-2.4l-2.3.2a9.3 9.3 0 0 1-1.2-.2 10.2 10.2 0 0 1-2.1.2l-.8-.2-.4.2-1.4-.2a14.4 14.4 0 0 0-2.1.2l-2.7-.2q-3.6.2-6 .2a10.2 10.2 0 0 1-1.1-.2c-.7 0-1 .7-1.2 2v14.3c0 1 1 1.6 2.7 1.6h17c.2 0 .5.3.8.7v7.8a1.2 1.2 0 0 1-1.4 1.4h-8.4a11.4 11.4 0 0 1-2.3-.2 12.1 12.1 0 0 1-2.4.2h-5.3c-.5 0-.8.8-.8 2.3v14a1.9 1.9 0 0 0 1 1.6q3.2-.2 5-.2h16.4c2 0 3.4-.7 4-2 .4-2 1-3 2-3h6a1.6 1.6 0 0 1 1.5 1v1.8a56.9 56.9 0 0 0 1.2 10.4 1.7 1.7 0 0 1-1 .6 11.1 11.1 0 0 1-6-1.6h-.2a16.2 16.2 0 0 0-3.7 1.4 18.1 18.1 0 0 1-2.5.2H188a9.3 9.3 0 0 1-7.2-3.7h-.6c-.4 0-1.5.8-3.3 2.5a19.8 19.8 0 0 1-3.7 1.2h-1.6q-3 0-6.4-3.7v-1c0-.3 1.2-.7 3.7-1.2q4.3-2 4.3-6.2v-1c0-1.2-.1-2-.2-2a23.1 23.1 0 0 0 .2-2.8v-6.8q0-3.4-4-6.4v-.6c2.7-2.2 4-4.6 4-7v-3a1.7 1.7 0 0 0-.2-1l.2-1.2v-6.8q0-5-6-7c-1.4 0-2.2-.2-2.2-.6v-.8q3.3-3.7 5.5-3.7h3a10.6 10.6 0 0 1 5.7 3.3c0 .3.3.4 1 .4q3-4 10-4zm-18.3 59l.3.2h1.2c1 0 2.3-1 4-2.8v-.4l-.4-.6c-1.2 1.2-2 1.8-2.7 1.8a2.6 2.6 0 0 0-2.3 1.8zm2.3-54.2l-.2 1c0 .5.8 1 2.5 2 .6 1.6 1 2.4 1.4 2.4h.2c.2 0 .4-.2.6-.6v-.2a8 8 0 0 0-4.1-4.5zm4.5 20v.8l1.3 1.4a1.9 1.9 0 0 1-1 1.2l-3.5-.2-.4.6v.8c0 .1.3.3.8.6a6.1 6.1 0 0 1 2.1-.4 2.4 2.4 0 0 0 1.2.4h.4l.8-.6c1.8.4 2.7.7 2.7 1l.2 1h.8c.2 0 .4-.2.6-.6v-.8a6.6 6.6 0 0 0-3.1-2.5c0-.2-.5-.7-1.6-1.5a3.7 3.7 0 0 0-.8-1.2 1.7 1.7 0 0 1-.6.1zm-2.5 17.8v1h1a.4.4 0 0 0 .4-.4v-1.2a.4.4 0 0 0-.4-.4h-.2c-.2 0-.5.2-.8.8zm.2-24.7v.4q0 .4 1 .6h2.3l1.4.4a5.4 5.4 0 0 1 1.7-.6l1.4.2a1.6 1.6 0 0 0 .3-.6V80a3.7 3.7 0 0 1-1.5-2.5h-.4c-.1 0-.3.2-.6.6l.2.4v.2c0 .2-.3.5-.8.8h-.8q-.5 0-.6-.7l.2-1a1.5 1.5 0 0 0-.8-.4c-.4 0-.8.7-1 2-1.4.2-2 .5-2 .8zm0 31v.4h.4v-.4zm1.2-1.6v.4h.4v-.4zm0 3.5v.3c0 .3.2.4.4.4h.2v-.7zm.1-28.5v.4a.3.3 0 0 0 .4-.4zm1.4-2a1.4 1.4 0 0 1-.2.6l.4.2.2-.4v-.4zm.7 16v.2c0 .2.2.4.6.6.2 0 .4-.2.6-.6v-.2a.4.4 0 0 0-.3-.4h-.4c-.3.1-.4.2-.4.4zm0 5.7v.6l2 2.3c.2 0 .2.1.2.2.5-.2.8-.4.8-.6v-.2c0-.2-.6-.6-2-1.4a2.3 2.3 0 0 1-.4-1zm.2 4.5v.8l1.6 1.2a1.2 1.2 0 0 0 .7 1.1 1.6 1.6 0 0 1 .6-.2v-.8l-1.7-1.3c0-.5-.2-.8-.6-.8zm.2-23.8v.8c0 .2.3.5.8.8h.2c.2 0 .6-.7 1-2.2l1-.2v-1.2q0-.2-.6-.6h-.2c-.3 0-.4.6-.6 2-1 .1-1.6.3-1.6.6zm.2 28l-.2.4v.3c.1.3.2.4.4.4h.6v-1zm.2-41.4c.2.5.4.8.6.8h.2a4.3 4.3 0 0 1 1.2-.8l1.4.4.2-.4V71c-1-1-1.6-1.6-1.6-1.7-1.3.7-2 1.4-2 2zm0 4.3v.2c.1.3.2.4.4.4h.2c.2 0 .4-.2.6-.6v-.2a.3.3 0 0 0-.4-.4h-.2c-.2 0-.4.2-.6.6zm2.8 37.3c0 1.4-.7 2-2 2l-.2.4v.2c.1.4.5.6 1 .6a7.7 7.7 0 0 1 2.4-2.1v-.4q-.3-.8-.6-.8zm-1.2 5v.4c0 .3.2.4.4.4h.2a1.7 1.7 0 0 0 1.4-.8 1.2 1.2 0 0 0-.8-.8c-.8.3-1.2.5-1.2.8zm.2-14.3v.4q.1.4.4.4c1.2-1 1.8-2 1.8-2.5l-.6-.4h-.2zm.6-5.6c.2.5.4.8.6.8a.4.4 0 0 0 .4-.4V98a.4.4 0 0 0-.4-.4h-.2c-.3.1-.4.2-.4.4zm.4 10.2c0 .3-.1.4-.2.4.2.5.4.8.6.8a1.1 1.1 0 0 1 .6-.2v-.6a.3.3 0 0 0-.4-.4zm1.5-13.2h.6v-.4h-.2c-.3 0-.4.2-.4.4zm7.6-3.3c-.2 1.2-.4 1.8-.8 1.8a5.7 5.7 0 0 1-1.4-1c-.3 0-.6.6-.8 1.8h-.4a9.8 9.8 0 0 0-2.3-1.4 2.3 2.3 0 0 0-.6 1.1c.4.1 1 .7 2 1.8h1c.6-1 1-1.4 1.2-1.4a4.4 4.4 0 0 1 1.2.8h.4c.1 0 .4-.5.8-1.5.6-.3 1-.5 1-.8a1 1 0 0 0-1.3-1.1zm-5.6-25v.2a.4.4 0 0 0 .4.4l.2-.4v-.2zm2.5 53.8c.2 1.2.8 1.8 1.8 1.8h.4c.2 0 .5-.3.8-.8 0-.2-.6-.7-1.7-1.6h-.6c-.2 0-.4.2-.6.6zm5.5-26v.4q0 .4.4.4h.4 0a1.4 1.4 0 0 1-.2-.6zm1.2-2v.6a1.3 1.3 0 0 1 .6.2c0-.3.2-.4.4-.4-.2-.5-.4-.8-.6-.8a.4.4 0 0 0-.4.4zm1.5 1.2v.7c0 .2.3.5.8.8a.3.3 0 0 0 .4-.4V94c0-.2-.1-.3-.4-.3zm1.8-1.4l-.2.8.4.2h.2a.4.4 0 0 0 .4-.4 1.6 1.6 0 0 1-.2-.6zm.6-25.3c.2.5.4.7.6.7h.2q.3 0 .6-.6v-.4q0-.1-.6-.6a1 1 0 0 0-.8.8zm.6 27v.6q0 .3.6.6h.2q.3 0 .6-.6V94q0-.3-.6-.6h-.4c-.3 0-.4.2-.4.4zm8-27.5l-.2 1c0 .4.3.6.8.6a1.8 1.8 0 0 1 .6-.2v-1a.4.4 0 0 0-.4-.4zm9 2h-1.4a1.7 1.7 0 0 1-.8-.2 2.8 2.8 0 0 0-1.2.6c0 .5 1 1 3.2 1.2 0 .2.3.4 1 .8h.2c1 0 1.7-1 2.2-3q0-.4-.6-.4a4.8 4.8 0 0 1-2.6 1zm.2 49.2v.4q0 .4.4.4h.4v-.6a1.2 1.2 0 0 1-.6-.2z"/>
        <path id="F" d="M236.4 62.4q4.3 0 8.2 4h.4q4-4 8.2-4h18q10.2 0 12.5 1.7 3.4 1 8.4 6.4a61.5 61.5 0 0 1 3.1 7 19.9 19.9 0 0 0 3.1 3.3c0 .6-1 1.5-2.5 2.7l-3 7q-3 5.5-12.5 8.8c-1.7.2-2.5.5-2.5 1s2 2.5 6 6.2q8.8 10.2 12.7 11.7a15.3 15.3 0 0 0 5.1 2l.2.3v.2c0 1-1.2 2.2-3.5 3.5a7.2 7.2 0 0 1-1.7.6l-2.4-.2c-.1 0-.5.1-1.2.2a18.2 18.2 0 0 1-6.8-3.7h-.6c-1.8 1.7-3 2.5-3.3 2.5a13.4 13.4 0 0 1-4.9 1.4q-4.4 0-8.4-4.3v-.4c0-.3 1-.6 2.7-.8 1.6-1 2.4-1.8 2.4-2.7v-.6q0-2-8.2-10c0-.2-1.2-1.5-3.5-4a5.7 5.7 0 0 0-5.2-2.7c-3.3 0-5 .3-5 1l.2 6.8c0 .1-.1.2-.2.2l.2.4v5.5q0 4.3 6 6.3c1.3 0 2 .2 2 .6v.6q-3.2 4-6 4h-1.3q-4 0-7.8-3.7h-.6q-3.2 3-4.5 3a8 8 0 0 1-2.3.6h-1.4a7.2 7.2 0 0 1-5.5-2.7c-.8-.7-1.2-1.2-1.2-1.7a10.4 10.4 0 0 1 3.3-1q4.7-2 4.7-5c.1 0 .3-.3.4-.8a1.2 1.2 0 0 0-.2-.6 5.4 5.4 0 0 1 .2-1.6q-.2-5-.2-7.8v-4.3q0-2.2-3.7-5.2a1.3 1.3 0 0 1-.2-.6c0-.2.8-1 2.5-2.4a10.5 10.5 0 0 0 1.6-4.5l-.2-2V78a13.2 13.2 0 0 1 .2-2.2q0-6-4-7.4a20.6 20.6 0 0 0-4.1-1.2V67q0-2 5-4zm.8 59.3c0 .3.2.4.4.4.6 0 1.3-.7 2-2 1.7-.7 2.5-1 2.5-1.4v-.2c0-.2-.2-.4-.6-.6h-.3a2.3 2.3 0 0 0-2.4 2.2c-1.2.3-1.7 1-1.7 1.8zM241 89a6.8 6.8 0 0 0-.4 1.8c0 .6.6 1 1.8 1h1.7q.4 0 .4.6l-.2 1.4.4.2h.2c.6 0 1.4-.8 2.5-2.4.5 0 .8-.2.8-.6v-.2h-3a3.3 3.3 0 0 1-3.3-1.7zm-.2-18c.1.8.3 1.2.6 1.2h.2c1.2-.2 1.8-.8 1.8-1.7a2.1 2.1 0 0 0-1.4-.6 1 1 0 0 0-1.2 1.2zm0 14.4c.2.5.4.8.6.8h1l.2-1c0-.2-.2-.4-.6-.6h-.6c-.4.1-.6.3-.6.8zm.2-9.8c.2.5.4.8.6.8h.6a.3.3 0 0 0 .4-.4v-.4c0-.2-.2-.4-.6-.6h-.4c-.1 0-.3.2-.6.6zm0 4.5v.6c0 .2.2.4.6.6h1a3.2 3.2 0 0 1 1.4-.8 3.3 3.3 0 0 0 1.5.6c2 0 3-.4 3-1.2-.2-.5-.4-.7-.6-.7l-2.5.2c-.3 0-.8-.6-1.6-1.7-.2 0-.7.6-1.6 1.8a1.2 1.2 0 0 0-1.2.8zm0 28.7v.4q0 .4.4.4h.2a1.5 1.5 0 0 1 .2-.6l-.3-.2zm.2-6.4v.2h.8v-.6h-.4c-.3.1-.4.2-.4.4zm0 10.5h0a.4.4 0 0 0 .4.3v-.2a.3.3 0 0 0-.4-.4zm.8-6.3v.2q0 .3.6.6h.6c.3 0 .5-.8.6-2.3.6 0 1-.6 1-1.7a3.9 3.9 0 0 1 1.6-.6v-.4l-.2-1h-.8a1.8 1.8 0 0 0-1 1.8c-.5 0-.8.7-1 2a1.6 1.6 0 0 0-1.2 1.6zm0 7.8c0 1.3.4 2 1.4 2 .2 0 .4-.2.6-.6v-1.2zm.4-17.6v.2h.4v-.2zm0 14.4l.6.4h.6q.4 0 .6-1.5h-.4a1.2 1.2 0 0 0-1.4 1.4zm.6-28.5v.6c0 .2.2.4.6.6h.2q.3 0 .6-.6V83c0-.2-.2-.4-.6-.6h-.4q-.4.1-.4.4zm.6-9.4a2.3 2.3 0 0 1-.4.6l.4.2h.4v-.4a.3.3 0 0 0-.4-.4zm.6 24.8a1.5 1.5 0 0 1 .2.7h.6a.4.4 0 0 0 .4-.4V98a.4.4 0 0 0-.4-.4h-.2c-.1 0-.3.2-.6.7zm.6 14.2a3.5 3.5 0 0 0-.6 2h1.8c.3 0 .4-.2.4-.6-.4-1-1-1.4-1.6-1.4zm-.4-4.3v1.3h.6q.3 0 .6-.6c-.3-.8-.5-1.2-.8-1.2s-.4.2-.4.4zm.6-23a1.4 1.4 0 0 1 .2.6h1a4.9 4.9 0 0 0 .2-.8l-.6-.4h-.2c-.2 0-.4.2-.6.6zm.6 20.5v.2c.1.8.3 1.2.6 1.2h.4c.2 0 .3-.1.3-.4l-.3-1.3h-.6c-.3.1-.4.2-.4.4zm.8-34c0 .3.2.4.4.4h1.4v-.4a.3.3 0 0 0-.4-.4h-1q-.4.1-.4.4zm.2 38.2l-.2 1c.3.6.5 1 .8 1h.2c.2 0 .4-.3.6-.8-.2-.8-.4-1.2-.6-1.2zm.2-15.8v.6c0 .3.2.4.4.4a.3.3 0 0 0 .4-.4v-.2a.3.3 0 0 0-.4-.4zm0 22.6v.4c0 .2.2.4.6.6h.6a1.3 1.3 0 0 0 1.4-.8c0-.3-.5-.5-1.6-.8-.7.2-1 .4-1 .6zm.4-13l.4.6a1.2 1.2 0 0 1 .6-.2v-.4c0-.2-.1-.3-.4-.3h-.2c-.3 0-.4.2-.4.4zm.8 5a1.6 1.6 0 0 1 .2.6h.4a.4.4 0 0 0 .4-.4v-.4c0-.2-.1-.3-.4-.3h-.2c-.3 0-.4.2-.4.6zm1.4-13.2v.4q0 .3.6.6h1q1.5 0 1.5-1.3l-.8-.6h-.3c-1.2.3-2 .6-2 1zm3-23.6v2.7a.2.2 0 0 1-.2.2l.2.4v13a8.6 8.6 0 0 1-.2 1.8 4.6 4.6 0 0 0 .6 1.4q4.2.2 6.2.2h.2a18.8 18.8 0 0 0 2.1-.2 1.9 1.9 0 0 0 .6.2l2-.2a11.3 11.3 0 0 1 1.6.2 12.8 12.8 0 0 1 2-.2 6.9 6.9 0 0 1 1.4.2q8 0 11-7a14.2 14.2 0 0 0 .8-3.5c-.6-3.3-1.5-5.5-3-6.7-2.6-2.2-4.7-3.3-6.3-3.3h-18.3c-.2 0-.5.3-.8.8zm.6 49.7v.2h.4v-.2zm2.8-26c0 1 .5 1.5 1.4 1.5l.2-.4v-.2q0-.3-1-1zm3.5 0v.6a1.6 1.6 0 0 0 1.6 1h.4c.2 0 .4-.1.4-.4V96c0-.4-.6-.7-1.7-1h-.2c-.2.1-.4.2-.4.4zm4.7.2v1.2c0 .2-.4.5-1.4 1v.3a.4.4 0 0 0 .4.4h.6c0-1 .4-1.6 1.4-1.6l.4-.6V96c0-.2-.3-.4-.8-.8a1.3 1.3 0 0 1-.5.2zM265 66l-.6.8c.2.5.4.7.6.7h.4q.3 0 .6-.6v-.4q0-.4-1-.6zm.4 31.6v.4c0 .8.3 1.2 1 1.2.3-.3.4-.5.4-.6v-1a.4.4 0 0 0-.4-.4h-.6a.4.4 0 0 0-.3.5zm3.5 4.5v.2c.1.8.3 1.2.6 1.2h.5c.1 0 .4-.3.6-.8a1 1 0 0 0-1.2-1q-.4.1-.4.4zm4.7-6.4a.9.9 0 0 0 1 .8l.6-.7v-.4l-1-.2c-.2 0-.4.2-.6.6zm0 14.6q0 .3.6.6h1.8q7 2 8.8 2.8v-.2q0-2.5-6-3c0-.4-1-.8-3.3-1.2-1.2.3-1.8.6-1.8 1zm.8-43.5c0 .7.6 1.6 2 2.7h.4l1.4-.2V69c-1.6-1-2.3-1.8-2.3-2.7h-.8c-.1 0-.3.2-.5.6zm1.4 38.6l-.4.6v.6c0 .2.2.4.6.6h1q0-.4.2-.4c-.2-1-.7-1.3-1.3-1.3zm.2 7.2v.2c.1.3.2.4.4.4h.2q.4 0 .6-1l-.4-.2h-.2c-.2 0-.4.2-.6.7zm.2-17.6l.4.2h.4l1-.2v-.4a.4.4 0 0 0-.4-.4h-.6c-.2 0-.5.3-.8.8zm1.4 21.7v.4c0 .3.2.4.4.4h.4a.4.4 0 0 0 .4-.4v-.4a.3.3 0 0 0-.4-.4h-.3c-.3.1-.4.2-.4.4zm2.4-22.2v.2l1 .2a1.5 1.5 0 0 0 1.2-.6q-.4-1-.8-1h-.2c-.8 0-1 .4-1 1.2zm1.4-22.4l-.4.6c.6 1.8 1.5 2.8 2.7 2.8l.4-.6v-.2c0-1-1-1.8-2.7-2.5zm-.2-4v.2c0 .8.7 1.6 2 2a3.9 3.9 0 0 1 1.8-.8h.4c.7.7 1.2 1 1.6 1v-.4c-1-1.3-1.8-2-2.4-2a9.1 9.1 0 0 1-1.6.2 15.7 15.7 0 0 0-2.1-.4zm.2 48.6v1q.4 0 .4.2a1.7 1.7 0 0 1 .8-.2v-1a1.6 1.6 0 0 1-.6-.2 1.4 1.4 0 0 1-.5.2zm.6-29.4v.4c0 .2.2.4.6.6h.2q.3 0 .6-.6v-.4c0-.2-.2-.4-.6-.6h-.2c-.2 0-.4.2-.6.6zm0 3.5V92c.8.6 1.2 1 1.2 1.3l-.2 1h.4a2.7 2.7 0 0 0 2-1c-.1-.3-.6-.6-1.7-1-.1-1.2-.4-1.7-1-1.7a1.6 1.6 0 0 1-.6.2zm2-1.3v1l1 .2c.4 0 .6-.3.6-.8q-.4-1-.7-1h-.2q-.3 0-.6.6zm2 25v.4q.1.4.4.4h.4v-.4a.4.4 0 0 0-.4-.4zm.2-36v.6a.4.4 0 0 0 .4.3h.6c.2 0 .4-.2.6-.7-.2-.5-.4-.8-.6-.8h-.4c-.2 0-.4.2-.6.6zm.2 4.3v.6c0 .2.3.4.8.6a2.1 2.1 0 0 0 .6-1.3.4.4 0 0 0-.4-.4h-.4c-.2 0-.4.2-.6.6zm.4-8.7a.4.4 0 0 0 .4.3c.3 0 .4-.1.4-.3a.3.3 0 0 0-.4-.4q-.4 0-.4.4zm0 13.3v.6c.1.3.2.4.4.4a.4.4 0 0 0 .4-.4v-.2a.3.3 0 0 0-.4-.4zm1.2 1.7a1.7 1.7 0 0 0-.2.6c.2.5.4.8.6.8h.4a.4.4 0 0 0 .4-.4v-.4c-.2-.4-.6-.6-1.2-.6zm0-13c.2.5.4.8.6.8h1l.2-1-.6-.4h-.6q-.3 0-.6.6zm.4 5v.4h.4a.4.4 0 0 0 .4-.4v-.4h-.4q-.4.1-.4.4zm1.6 1.8V84c0 .2.2.4.7.6.6-.2 1-.5 1-.7v-1c0-.2-.2-.4-.6-.6h-.6c-.2 0-.4.2-.6.6zm.3-4v.6h.4a.3.3 0 0 0 .4-.4v-.2a.3.3 0 0 0-.4-.4c-.3 0-.5.2-.5.4zM292 81v1h1c.3 0 .4-.1.4-.3V81c0-.2-.2-.4-.6-.6h-.2c-.2 0-.5.2-.6.6z"/>
        <path id="G" d="M302 62.4h62a1.8 1.8 0 0 1 1.6 1 28.2 28.2 0 0 0-.2 2.9v5.5a33.2 33.2 0 0 0 1 7.8 1.4 1.4 0 0 1-.8.4q-7 0-8.4-6a3.1 3.1 0 0 0-1.4-2.9h-14.4a1.3 1.3 0 0 0-1.4 1l.2 2.3v14q.6 2.5 4 5v.6c-2.7 2.3-4 4.4-4 6.3l.2 7.8-.2 3.7c0 3.6 1.2 6 3.5 7.2a21.3 21.3 0 0 1 4.5 1.6c.1 0 .2.1.2.4q-2.5 3.7-5 3.7c0 .2-.6.4-1.7.6a13.4 13.4 0 0 1-6.4-2.4c-.8-1-1.5-1.5-2-1.5-2.6 2.5-5 3.7-6.8 3.7a6.5 6.5 0 0 1-1.4.2c-2.3 0-4.6-1.4-6.8-4.3v-.2c0-.5 1-.8 3-1 3.5-1.2 5.3-3.4 5.3-6.6V99.8c0-1.7-1.3-3.7-4-6v-.6q3.4-2.5 4-5.2h0a22.3 22.3 0 0 1 .2-3.7l-.2-12.5a1.4 1.4 0 0 0-1.4-.8h-13.8c-1 0-1.6 1-1.6 3.2Q306.8 80 302 80h-.6a1.3 1.3 0 0 1-1.4-1 25.9 25.9 0 0 0 1.2-8.8l-.2-1a1.2 1.2 0 0 1 .2-.6l-.4-5c0-.7.4-1 1.3-1zm1.8 4.5c.1.8.3 1 .8 1a27.6 27.6 0 0 1 3.3-.6l3 .8c2.3-.8 3.5-1.5 3.5-2-.1-.7-.4-1-1-1l-1.6 1.4h-.6c-.2 0-.6-.4-1.2-1.2l-1.6.6a13.5 13.5 0 0 0-3.1-.8c-1 .3-1.5.8-1.5 1.7zm22.6.2v.2c0 .1.3.3.7.6 1.2-.3 1.8-.8 1.8-1.7h0q0-.2-.6-.6h-.2c-1 .2-1.7.7-1.7 1.7zm.6 27.3c1 .1 1.6.3 1.6.8 0 .1-.1.6-.2 1.6a1.7 1.7 0 0 0 .6.2 16.7 16.7 0 0 0 2.4-.7v-.6c0-1-.7-1.5-2-1.7a2.2 2.2 0 0 0-.4-1.6c-1.2.3-2 1-2 2zm7.2-14h-.6a2.5 2.5 0 0 0-1.8-1.1h-.4v.6c0 1.3-.5 2-1.5 2a2.2 2.2 0 0 0-.8 1.5v.4c0 .2.6.4 1.8.6v.2c0 .5-.6 1.6-2 3.3v.4c0 .2.2.4.6.6 1 0 2-1.2 3-3.7v-.4c-1-.8-1.4-1.4-1.4-2v-.2c0-1 .4-1.4 1-1.4a11 11 0 0 1 1.8.4c1.8-.8 2.7-1.4 2.8-1.7v-.3c0-.1-.3-.3-.8-.6-.3 0-.8.4-1.7 1.3zm-5-9.4v.2a2.9 2.9 0 0 0 1.4 2.3c1.3-.3 2-.8 2-1.3a1.4 1.4 0 0 1-.2-.6h-.8l-1 .2c-.4-1-.6-1.3-.8-1.3s-.3.1-.6.5zm0 33.2v.2c0 .3.2.4.4.4a.4.4 0 0 0 .4-.4v-.6h-.4c-.3 0-.4.2-.4.4zm.2-36.3h0c0 .3.2.4.6.4a1.8 1.8 0 0 0 1.2-1.7h-.4c-1 .5-1.4 1-1.4 1.2zm.2 32l-.2.4v.4c.1.4.5.6 1.2.6v-.6c-.1-.3-.4-.6-1-1zm2-25c-.1 1.4-.7 2-1.7 2 0 .3-.1.4-.2.4.3.8.6 1.3 1 1.4h.6c0-1.6.6-2.4 1.8-2.4v-.8a1.4 1.4 0 0 0-1.4-.8zm-1.7 17h.2a1.6 1.6 0 0 0 1.5-1v-.4q0-.1-.6-.6c-.7 0-1 .6-1.2 2zm.4 15c0 .2.7.6 2 1.2h.4a7.4 7.4 0 0 1 3.1-1.2v-.6h-1.2a11.9 11.9 0 0 1-1.5.4 13.5 13.5 0 0 0-1.6-.4h-.6c-.2 0-.4.2-.7.6zm1 6.4c.4 0 1.2.6 2.5 1.8h.2l.2-.4v-.6c-.8-1.4-1.4-2.2-2-2.3q-1 .2-1 1.5zm.4-47.4v.2h.6v-.6h-.2q-.4 0-.4.4zm.8 38.8l.6.4h.1c.4-.1.6-.5.6-1.2h0-.8c-.3 0-.5.3-.6 1zm4-16.6q-3.7 3.2-3.7 4v.2a1.8 1.8 0 0 1 .2.6h.2c.1 0 1.2-1 3.5-3.2.4 0 .6-.3.6-1a1.1 1.1 0 0 0-.8-.7zM333 101v.2q0 .4.4.4h.8v-.2q-.3-.8-.6-.8h-.2q-.4 0-.4.4zm.1-13v.2h.8a2 2 0 0 0 1.2-1.7V86c0-.3-.2-.4-.6-.4a2.2 2.2 0 0 0-1.4 2.4zm.4 6.2a9.9 9.9 0 0 0-.4 2.2l1.4-.2c.5 1 1 1.4 1 1.4a2.5 2.5 0 0 0 1.4-1.2v-.2c-1 0-1.8-.7-2.7-2zm-.2 16.2c.2.5.4.7.6.7h.6l.2-1c0-.2-.2-.4-.6-.6h-.2c-.3 0-.5.3-.5.8zm.6-37v.2a3.2 3.2 0 0 1 1.4 2.7h.4c.3 0 .6-.8 1-2.5a3 3 0 0 0-1.7-.8h-.6q-.4.1-.4.4zm.8 28.7a2.2 2.2 0 0 0-.4 1.2q0 .3.6.6h.4a.3.3 0 0 0 .4-.4v-1.2zm-.2 10.3a1.3 1.3 0 0 0 1.4 1h.4a4.4 4.4 0 0 0 .2-.7 1.1 1.1 0 0 0-1.2-.8h-.1c-.1 0-.3.2-.6.5zm.4 3.3v.6c.1.3.2.4.4.4a2 2 0 0 0 .4-.6l-.6-.4zm1-32.2a1.4 1.4 0 0 0-.4.8c.2.5.4.8.6.8h.2c.2 0 .4-.2.6-.6v-.7zm-.4 9.8l.6.4h.4a7.1 7.1 0 0 0 1.2-2v-.4h-.2c-1.3.8-2 1.5-2 2zm.7 7.4v1h.6a.4.4 0 0 0 .4-.4v-.6zm-.2 3.7v1.5h.2c.2 0 .4-.2.6-.6v-.8a5.1 5.1 0 0 0-.7-.2zm.2 14v.4l2.4 2.5h.6a.3.3 0 0 0 .4-.4v-.4c-1-1.7-1.8-2.5-2.5-2.5h-.4q-.4.1-.4.4zm1-23.4v1h.2a1.6 1.6 0 0 1 .6-.2V95a.4.4 0 0 0-.4-.4c-.2 0-.3.1-.3.4zm24-23.6v.4a1.4 1.4 0 0 0 .2.8 3.2 3.2 0 0 0-.6 1.6c.1.2.2.3.4.3h.4c.2 0 .4-.2.6-.6v-1.3a2.4 2.4 0 0 0 .4-1.2l-.6-.4h-.2c-.3.1-.4.2-.4.4z"/>
        <path id="H" d="M404.8 62.5q12 0 23 7.7 7.3 6.3 9.8 12 3 10 5.5 11a.4.4 0 0 1 .4.4v.5c-2.5 2.2-3.8 4-3.8 5.5q-.5.6-2 5.7a35.2 35.2 0 0 1-18.9 17.2 46.9 46.9 0 0 1-14.5 2.7 42.2 42.2 0 0 1-23.5-7.3q-7.3-6.4-8.4-9.4-2-2.2-4-9.8-1.5-3.5-3.8-4.6v-.6q4.2-3.6 4.2-6.7l2-4.8q1.4-4 7-10a44.2 44.2 0 0 1 10.1-6.5 44.5 44.5 0 0 1 17-3.2zm-35.7 31c0 1 .4 1.4 1.3 1.4h.2a4.1 4.1 0 0 1 .6-1.7q-1-.3-1-.6-.5 0-1 1zm2.3-.4a1.4 1.4 0 0 0 .6.2l1.8-.2.2.4v.6q0 .8-3 1v.2l.2 1c2-.1 3.2-.3 3.4-.6h1.5c.4 0 1-.4 2-1.2h.1l1.4.2q1-.3 1-1a1.7 1.7 0 0 1-.2-.6h-.8a2.8 2.8 0 0 1-1.7.6h-1.4c-1.3 0-2.4-.8-3.2-2.3h-.8q-.4.1-1 1.5zm1 5.8v.4h.6V99zm1.2 2.3v.6c0 .3.1.4.4.4h.4v-.8l-.2-.3a1.6 1.6 0 0 1-.6.1zm.4-4.4c0 .1-.1.5-.2 1.2q1 .2 2 2h.6l.2-1.2a4.8 4.8 0 0 1-2.1-2.1zm.2-8.4v.8l1 .2c.2 0 .4-.1.4-.4h0c0-.2-.2-.4-.7-.6a1.7 1.7 0 0 1-.6.1zm.6 14.3v.6c0 1 .3 1.5.7 1.7h1l.2-.7a1.7 1.7 0 0 0-1-1.5zm1-22c.2.5.4.8.6.8h.4a.4.4 0 0 0 .4-.4V81q0-1-.6-1h-.2c-.3 0-.5.3-.6 1zm.2 9.2l.4.2c.3 0 .4-.1.4-.3l-.4-.2c-.2 0-.4.2-.4.4zm1-5.5v1c.3 0 .4.1.4.2a.9.9 0 0 0 .8-1l-.4-.2zm0 13.6l.4.2h.4c.4 0 .6-.2.6-.7-.2-.5-.4-.8-.6-.8h-.2c-.3 0-.5.4-.6 1.3zm.2 8.2v.2h.4v-.6c-.2 0-.4.1-.4.3zm1-2a1.3 1.3 0 0 1 .2.6h.6c.2 0 .4-.2.6-.6v-.6c0-.2-.2-.4-.6-.6h-.2q-.4 0-.6 1zm0 3.8v.6c0 .4.3.6.7.6a1.6 1.6 0 0 1 .6-.2v-1a.4.4 0 0 0-.4-.4h-.6q-.4.1-.4.4zM381 78c0 .4-.6 1-1.7 2v.3a1.1 1.1 0 0 0 .8 1.2c.5 0 .8-.7 1-2q.8-.3.8-.6v-.3a.4.4 0 0 0-.4-.4zm-1.4-2.7v.3c0 .3.8.5 2.5.6 0 .3 1 .6 2.7.7a2.2 2.2 0 0 0 .4-.6c0-.2-.4-.7-1.4-1.5h-1a7.3 7.3 0 0 1-1.9-.9 2.5 2.5 0 0 0-1.3 1.1zm2 37v1a4.3 4.3 0 0 0 2.1 1.7c.5-.1.8-.4.8-.7-.5-1.5-1.3-2.3-2.3-2.3h-.2c-.3 0-.4.1-.4.3zm.2-4.2v.6q0 .3.8.6l.2-.3v-.2l-.2-1h-.4c-.2.1-.4.2-.4.4zm.4-19.7c0 1.8 1 3.4 3.3 5v.6q-3 2.2-3 4.4v.6q0 3 4.2 9 5 5.5 9.4 6.7a20.2 20.2 0 0 0 7.3 1.5h1.5q7.7 0 15.5-7 5-6.2 5.3-10.5v-.2q0-2.3-3.2-4.6v-.6q3.2-1.8 3.2-5 0-4.4-7-11.5-7-5.5-13.4-5.5h-3q-8 0-15.3 7.8a22.4 22.4 0 0 0-4.8 9.2zm1.5 21.4l-.2.4h.6a.3.3 0 0 0-.4-.4zm2.5 3.6v1c0 .2.2.4.6.6h.8a.3.3 0 0 0 .4-.3v-.6c0-.2-.4-.6-1-1.2q-.3 0-.6.5zm.4-42.8l-.2.4v.3h.6V71a.4.4 0 0 0-.4-.4zm1 47.2h0a1.2 1.2 0 0 0 1.1.8l1-.2a8.1 8.1 0 0 0 1.5.2c.5-.2.8-.4.8-.6v-.2c0-.5-.8-.7-2.3-.7h-.7q-1.4 0-1.5.6zm6 .4a14.2 14.2 0 0 0 3.4 1.5c0 .2.4.5 1.2 1h.6a.4.4 0 0 0 .4-.4v-.2q-3-2.4-4.8-2.5-.7.3-.7.5zm9.5 2.7l-.2.4q0 .3.6.6h.4c.2 0 .4-.1.4-.4s-.5-.5-1-.5zm1-54.8v.4a.4.4 0 0 0 .4.3h.4c.3 0 .4-.1.4-.3v-.2c0-.2-.2-.3-.6-.3a1.6 1.6 0 0 1-.6.2zm2 1.7q.1.4.4.4h.2a1.3 1.3 0 0 1 .2-.6l-.4-.2c-.3 0-.4.2-.4.4zm1.4-1c.5 1 1 1.5 2 1.5a2.9 2.9 0 0 0 1.2-.7c0-.3-.5-1-1.5-1.7h-1c-.3.1-.4.4-.5 1zm5 53v.7h.6v-.7zm3-49.3v.6h.8c2.7-.6 4-1 4-1.4s-.8-.6-2.5-.6h-.2a2.6 2.6 0 0 0-2.1 1.3zm6 45.7h-.4c-.8-1-1.3-1.4-1.5-1.4-1.5.8-2.3 1.4-2.3 1.7.2.5.4.8.6.8q1.7-.2 2-.2a10.5 10.5 0 0 0 1.4.3c.2-.7 1-1.2 2.5-1.5v-.7c0-.2-.3-.5-.8-.8h-.1zm-3.4-44.5l-.2.3v.2c.3.6.7 1 1.2 1l.2-.4v-.6c0-.3-.4-.5-1.2-.6zm3.6 1.3v.4h.2a.3.3 0 0 0 .4-.4zm1.3 1.4v.6c.1.3.2.4.4.4a.4.4 0 0 0 .4-.4v-.6zm1.4 2v.2c0 .3.2.4.4.4h.2a.4.4 0 0 0 .4-.4v-.2a.4.4 0 0 0-.4-.4h-.2c-.3 0-.4.2-.4.4zm1 37.3v.4c0 .2.2.4.6.6h.2a.3.3 0 0 0 .4-.4v-.2c0-.2-.3-.5-.8-.8a.4.4 0 0 0-.4.4zm.2-33.6v.4h.8V80a.4.4 0 0 0-.4-.4c-.3 0-.4.2-.4.4zm.2 30.2a1.3 1.3 0 0 1-.2.6 1 1 0 0 0 1.1.8h.6v-1c0-.3-.1-.4-.4-.4zm3-3.8a4.4 4.4 0 0 0-2.1-.4q-.2 0-.6.6v.6a2.8 2.8 0 0 1 1.9 2.5q0 .3 1.5 1.5h.4c.2 0 .4-.2.6-.6a10 10 0 0 0-1.3-2.7v-.2l.6-.3h.2q1.2 0 1.5 1.7h.2c.2 0 .4-.6.8-1.7 1-.5 1.5-1 1.5-1.7-.5-1.2-1-2-1.7-2s-1 .7-1.4 2a7 7 0 0 0-2.1.6zm-1.4-25v.7c0 .2.2.4.6.6.2 0 .4-.2.6-.6V82c0-.2-.2-.4-.6-.6a1.3 1.3 0 0 1-.6.2zm.6-5.6v.6.4a1.5 1.5 0 0 1 .6-.2v-.4a.4.4 0 0 0-.4-.4zm.6 4c0 .2.6.7 1.7 1.5q.1 1 .6 1h.2c.2 0 .4-.2.6-.6a8.4 8.4 0 0 1-2.3-2.7h-.2c-.4 0-.6.3-.6.8zm0 16.2l2 2.5h.4c0-.6.4-1.2 1.4-2v-.6a9.4 9.4 0 0 0-2.9-.6zm1-12.2v.3c.1.3.2.4.4.4a.3.3 0 0 0 .4-.4V84zm.2 4.2a1 1 0 0 0 1.1 1h.2v-1.5c0-.3-.1-.4-.4-.4h-.2c-.3 0-.5.4-.8 1zm.2 3.8v.2q0 .3.6.6h.4a.3.3 0 0 0 .4-.4V92a.3.3 0 0 0-.4-.4h-.6q-.4.1-.4.4zm1.5-2.5v.4c0 .8.4 1 1.4 1q2.8 3.8 2.8 4.4 0 .4-1 .6v.6q0 .3.6.6h.2a2.4 2.4 0 0 0 2.3-1.1v-.6q0-1-2-2-1.6-3-3-3c0-.4-.3-.6-1-.8zm0 10.3v.4c0 .3.2.4.4.4h.4q.3 0 .6-.6h0c0-.2-.1-.3-.4-.3h-.6c-.3.1-.4.2-.4.4zm1-16.4v.2c.1.3.2.4.4.4h.2c.2 0 .4-.2.6-.6v-.2a.4.4 0 0 0-.4-.4c-.5.2-.8.4-.8.6zM434 88l-.2.4q0 1 4 5.3h.6v-.6a6.4 6.4 0 0 1-1.7-3.1c-1-1.4-1.8-2-2.6-2zm.6 12a.9.9 0 0 0 1 .7q.8-.2.8-.6v-.7a.3.3 0 0 0-.4-.4h-.4q-1 .4-1 1z"/>
        <path id="I" d="M501.7 62.4c1 .2 1.5.5 1.5.8v.4a26 26 0 0 0-1 8l.2 7.4a2.1 2.1 0 0 1-1.3.6H495c-.6 0-2-1-3.8-2.6q-4.7-3-15.2-5.3-4-.2-6.5-.2h-.2q-11 0-12.5 6.3l-.2 1q0 2 4 4.2c1 .7 4 1.6 9.3 2.8a13.2 13.2 0 0 0 6.1-2.7q.6 0 1.7 2.7 1.5 2.5 7.6 4 12.7 4.2 16.4 11a14.9 14.9 0 0 1 1.3 6.5q0 4.5-3.6 9.5-5.7 5.5-10.8 6.4 0 .6-10.6 1.7a65.2 65.2 0 0 1-19.7-3.6 12.7 12.7 0 0 0-3-1.3q-.6 0-3 3.2-2.6 2-7.4 2a1.7 1.7 0 0 1-.6-1q1-1 1-7.6V111a10 10 0 0 0-.2-1.7c0-.8.4-1 1.3-1h6.7q.6 0 4.2 2.8a44.3 44.3 0 0 0 20.9 5.3q9.3 0 12-4.7a3.7 3.7 0 0 0 .6-1.9v-1.3q0-3.6-13-6.7a20.3 20.3 0 0 0-6.4 2.7h-.2a9.2 9.2 0 0 0-4.2-5.1l-6.8-2.3q-15.4-5.6-15.4-15.7V81q0-12.2 14.8-16.7a47 47 0 0 1 11.4-1.3q9.7 0 21.4 4.7c.4 0 1.4-1 2.8-2.8a8.9 8.9 0 0 1 5.9-2.3q0-.2.5-.2zm-53.5 21v.6c.1.3.2.4.4.4h.4q.2 0 .6-.7-.3-.8-.6-.8c-.6.2-.8.4-.8.6zm.4 32q0 .1-.4.6v.8c.1.8.3 1 .6 1h.3l1.7-1.3a3.3 3.3 0 0 0-2.1-1.1zm-.2 5v.4q0 .6.8.6 2-1 2-2c-1.8.5-2.7.8-2.7 1zm.6-41.5v.4c.2 0 .4-.1.4-.4zm3-7.2c0 .5-.6 1.3-1.7 2a12.5 12.5 0 0 1-.7 2.5v.2h.2a5.9 5.9 0 0 1 1.9-2.1q0-1.4 1.7-1.5V72q-.2-.6-1-.6zm-2 10a1.3 1.3 0 0 0 1.4 1 3.1 3.1 0 0 0 .4-1.5l-.4-.2a1.7 1.7 0 0 0-1.4.7zm1.4 33.2c0 .3.2.4.4.4h.7a2.9 2.9 0 0 0 1.3-1.3v-.6a1.5 1.5 0 0 1-.6-.2c-1.3.4-2 1-2 1.7zm.4-38v.3c0 .3.1.4.4.4h.2a1.3 1.3 0 0 0 1.3-.7v-.2q0-.3-.6-.6h-.6c-.2 0-.5.3-.8.8zm0 6.6q0 .3.6.6c.2 0 .4-.1.4-.4v-.2c0-.3-.1-.4-.4-.4h-.2a.4.4 0 0 0-.4.4zm2.3-1l.3.2h.2V82h-.2a.4.4 0 0 0-.3.4zm.2 5.7v.6a1.3 1.3 0 0 0 1.3.7h.4v-.7c0-.7-.2-1-.6-1h-.6q-.3 0-.6.6zm.6 27c0 .4.3.6.7.6a1.2 1.2 0 0 0 1-1.3l-.6-.4a1 1 0 0 0-1.2 1.1zm1-44v.2c0 .3.1.4.4.4a.4.4 0 0 0 .4-.4l-.4-.2zm.6 18.4l-.2.4c.2 1 .4 1.3.8 1.3s.6-.5.6-1q0-.4-1.2-.6zm.7 27.2v.2c0 .3.2.4.4.4h.6a7.4 7.4 0 0 0 .6-1.7 1.6 1.6 0 0 0-1.6 1.1zm1-28.3v1h1.3v-.7a.4.4 0 0 0-.4-.4zm3.2-20.7a7.9 7.9 0 0 1-1.7-.3c-.5.1-.7.5-.7 1a3.7 3.7 0 0 0 2.7 1 12.6 12.6 0 0 0 2.3-1.7V67c0-.2-.1-.3-.4-.3h-.3a3.9 3.9 0 0 0-1.9.9zm-1.3 49.7v.6a.4.4 0 0 0 .4.4h1.3q1.4 0 1.5-.6v-.4c0-.2-.3-.4-.8-.6zm1.7-28.6v.2c0 .3.2.4.4.4s.3-.1.3-.4v-.2c0-.3-.1-.4-.3-.4s-.5.2-.5.4zm3.2.2v.4c0 .3.2.4.4.4h.7a1.3 1.3 0 0 1 .2-.6c-.2-.5-.4-.8-.6-.8h-.2q-.4 0-.7.6zm.7 30v.4c.1.2.2.3.4.3h.1q1 0 1-.6l-.6-.4h-.2zm2.8-29.8v.2c0 .4.3.6.8.6.5-.2.7-.4.7-.6V89c0-.2-.2-.4-.7-.6-.6.2-1 .4-1 .6zm.6 5c0 1.8.3 2.6.8 2.6l3.2.4a10 10 0 0 0 1.7-.2 18.3 18.3 0 0 0 2.7.2h.2a10.5 10.5 0 0 0 2.9-.6h1v-1c0-.7-.2-1-.6-1h-.7l-2.3 2h-.7a2.2 2.2 0 0 0-1.4-.6h-.4a10.7 10.7 0 0 0-1.5.3h-.8a2.1 2.1 0 0 1-2.3-2.3h-.2a8.1 8.1 0 0 1-1.6.2zm1.4-27.2v.4h.4V67zm.6 26.8h.1q1 0 1-.6h0c0-.2-.1-.3-.4-.3h-.3q-.6.2-.6 1zm3-2.7q-.4 3.2-1 3.2c.2.5.4.7.6.7h.4l2.7-2.5v-.8zm-1 29.2v.2a.4.4 0 0 0 .4.3h.2c.3 0 .4-.1.4-.3v-.2c0-.2-.1-.3-.4-.3h-.2c-.3 0-.4.1-.4.3zm3.2-52.7v.5c0 .2.3.4 1 .8 1-.4 1.7-1 1.7-1.4q-.4-1-1-1a2.7 2.7 0 0 0-1.6 1.2zm.4 26.8v.4a.4.4 0 0 0 .4.3h.4q.7 0 2-1.5v-1h-.4c-.8 0-1.6.6-2.5 1.7zm3-26.2q.1 1 .6 1h.4c.3 0 .4-.1.4-.3v-1l-1-.2c-.2.1-.3.2-.3.4zM483 93l-.2.4c0 .3.2.4.4.4s.4-.1.4-.4V93a1.3 1.3 0 0 1-.6-.2zm.6 3c0 .2 1 .6 2.8 1.3l.2-.4a2.6 2.6 0 0 1-1.5-2.3h-.7a1.3 1.3 0 0 0-.8 1.4zm3.4-25.2c.2.5.4.7.6.7h.2a.3.3 0 0 0 .4-.4v-.3c0-.2-.2-.4-.6-.6h-.2q-.4 0-.4.6zm.6 24.7v.3a10.4 10.4 0 0 0 1.9 1.7h.4q.3 0 .6-.6c-1.3-1-2-1.5-2-2h-.6c-.3 0-.4.2-.4.4zm0 23.5l1.2.8h.2c2-.3 2.8-.7 2.8-1v-.2c0-.2-.3-.4-1-.6-2 .4-3.2 1-3.2 1zm1.2-18.8v.6h1.4v-.4q0-.3-.6-.6h-.4c-.2.1-.4.2-.4.4zm1.5 2.3a2 2 0 0 1 .6.4h.4a.3.3 0 0 0 .4-.4v-.7a.3.3 0 0 0-.4-.4h-.4q-.6.2-.6 1zm2 1l-.2.4c0 .2.1.3.4.3l.2-.3a.4.4 0 0 0-.4-.4zm.6-31.5v.6l.2.4.8-.4a1.1 1.1 0 0 1-.2-.6zm0 28v.4h.4v-.4zm1.5 14.6v.6c0 .3.1.4.4.4h.6v-.4c0-.2-.2-.4-.6-.6zm.2-7c.1.2.4.5 1 .7.1 0 .6-.4 1.5-1.3h.8a7.5 7.5 0 0 1 1.5 1.5 1 1 0 0 0 .8-.7 32.2 32.2 0 0 0-2.3-2.7h-.2a13.2 13.2 0 0 1-3 1.9zm.4-34.2v.8h.2q.3 0 .6-.6l-.2-.4a1.4 1.4 0 0 1-.6.2zm1.7 28v.3c0 .3.1.4.4.4h.2c.2 0 .4-.1.4-.4v-.2q0-.3-.6-.6a.4.4 0 0 0-.3.4z"/>
        <path id="J" d="M157 .1c2.2 0 3.7.7 4.6 2.2l.6.1a5 5 0 0 1 4.3-2.2l1.3-.1a3.8 3.8 0 0 1 .9.1 68 68 0 0 1 3.5-.1h1.6q7.5 0 10.3 1.7a17.7 17.7 0 0 1 8.7 8.2 19.2 19.2 0 0 1 1.8 5.4 6.6 6.6 0 0 0 2.4 3.1c0 .1-.5.6-1.4 1.3a7.2 7.2 0 0 0-1.5 3.9 19.9 19.9 0 0 1-3.1 6.1q-2.8 3.2-4 3.7a17.9 17.9 0 0 1-4.3 2.4 22.9 22.9 0 0 1-5.9 1.2h-10.7c-1 0-2.4-.7-4-2.2h-.3c-.3 0-1 .5-1.8 1.4a9.7 9.7 0 0 1-2.3.8h-1.3c-1 0-2.2-.8-3.6-2.4v-.4q0-.1.3-.3h1c2-.7 3.2-1.6 3.2-2.6a1 1 0 0 0 .3-.8V22c0-.7-.8-1.8-2.4-3.3v-.2C157 17 158 16 158 15V11a16.6 16.6 0 0 0-.2-2.1 14.5 14.5 0 0 0 .2-1.8c0-2-1.3-3.4-4-4-.6-.1-1-.2-1-.5 0-.5.7-1.2 2-2a5.3 5.3 0 0 1 2-.7zm1 2.2v.6c.2 0 .2 0 .2.1.4-.1.6-.3.6-.5s-.2-.3-.5-.3a.9.9 0 0 1-.3.1zm1 17v.2a5.3 5.3 0 0 0 1.3.3 5.4 5.4 0 0 1 2.8-.8q.6.1.6.4 0 .6-1 1.3v.4q0 .2.3.4c.2 0 .4-.4.6-1 .6-.1.8-.2.8-.4a1.4 1.4 0 0 0-.5-.9v-.4-.2a1.9 1.9 0 0 0-.9-.2h-.5a4.8 4.8 0 0 0-2.3.7c-.2 0-.5-.3-.8-.7a.9.9 0 0 0-.6.9zm.1 14a.5.5 0 0 0 .6.4 2.5 2.5 0 0 0 1-.7c0-.3-.2-.5-.6-.7-.6.1-1 .4-1 1zm.7-9a1 1 0 0 1-.1.3c.1.5.2.7.3.7h.5l.1-.6c-.1-.3-.2-.4-.4-.4zm0-2.2q0 .1.3.3h.1a.2.2 0 0 0 .2-.2v-.6h-.2c-.1 0-.2.2-.4.5zm.3-15.3a1.3 1.3 0 0 1 .2.6 4.1 4.1 0 0 0-.2 1v.2c0 .2.1.2.2.2s.3-.4.6-1a.7.7 0 0 0 .4-.1 23.1 23.1 0 0 1 2.9.8h.1c.2 0 .3-.2.3-.4s-.8-.8-2.5-1.2a4.3 4.3 0 0 0-1.6-.5.7.7 0 0 0-.5.5zm0 4v.1c0 .1.2.2.5.5a.9.9 0 0 1 .4-.1v-.3c0-.1-.1-.2-.4-.3h-.2q-.2 0-.2.2zm.2-5.6l-.1.2v.2h.2a.2.2 0 0 0 .2-.2zm.1 11.2q0 .2.2.2a.2.2 0 0 0 .2-.2c0-.1-.1-.2-.2-.2s-.2.1-.2.2zm.3 12.3s0 .2-.1.4l.3.2h.3V29l-.1-.6zm0-15.4v.2h.5V13a.2.2 0 0 0-.2-.2c-.2 0-.2.1-.2.2zm.1 7.3l-.1.6.2.1c.3-.1.5-.2.5-.3v-.1a.2.2 0 0 0-.2-.2zm-.1 10.7v.2c0 .1.1.2.2.2h.1c.1 0 .2-.1.2-.2V31h-.3c-.2 0-.2.1-.2.2zm.8-6.2h.2.4c.1 0 .2-.1.3-.3v-.1c0-.1-.2-.2-.5-.3-.3.1-.5.3-.5.7zm0 2.4v.1c0 .1.1.2.2.2h.3c.1 0 .2-.1.3-.4s-.1-.2-.3-.3h-.1c-.2 0-.3.1-.4.3zm0 2.4v.6c0 .2.1.2.2.2h.3a.8.8 0 0 1 .1-.4c-.1-.3-.2-.4-.4-.4zm.4-19.3c0 .2.3.4 1 .8.1.5.2.7.3.7h.5v-.5c-.7-.5-1-1-1-1.4 0-.1.2-.3.6-.7v-.2h-.2c-.8.7-1 1-1 1.3zm.3-4.7l-.1.2h.2.1zm.3 7.5v.2h.5a2.3 2.3 0 0 0 .1-.5l-.2-.1q-.2 0-.4.3zm.4 2c0 .2.1.2.2.2l.2-.4V15h-.2c-.1 0-.2.1-.2.2zm.3 14.8c0 .2.3.5 1 1h.4l.1-.6v-.2c-.5-.6-.8-1-1-1a.6.6 0 0 0-.5.7zm0 2v.3a.9.9 0 0 0 1 1c.1 0 .2-.1.3-.3h0c-.4-.6-.8-1-1.2-1zm.1-4.7a.9.9 0 0 1 .1.4h.3l1-1.6-.2-.1c-.2-.1-.6.4-1 1.3zm.1-3v.6c.2 0 .2 0 .2.1a1.3 1.3 0 0 0 .7-.6q0-.1-.4-.3h-.3c-.2-.1-.2 0-.2.2zm.1-2.6v.3c0 .1.1.2.2.2h.2q.2 0 .4-.4h0c0-.1-.1-.2-.4-.3h-.2c-.1 0-.2.1-.2.2zm.2-12c.1.4.2.7.4.7h.2c.1 0 .3-.2.3-.7-.3-.2-.5-.3-.5-.4-.3 0-.5.2-.5.3zm.4-5.5V5h.2c.1 0 .2-.1.2-.2s-.1-.2-.2-.2zm0 14v.2l.8.2h.2a1 1 0 0 1 .1-.3l-.2-1a1.9 1.9 0 0 0-.9.7zm2.4-12.2c0 .1.1.4.1 1a23.3 23.3 0 0 1-.1 2.4l.1 5.6c0 1 .8 2 2.3 3.3v.3a5.1 5.1 0 0 0-2.4 4.5v.3a57 57 0 0 0 .1 3.2c0 .1 0 .4-.1 1a23.3 23.3 0 0 1 .1 2.6v.1l-.1.7c.2.5.3.7.5.7h.6a12 12 0 0 1 2.1.1c5.2 0 8.3-.5 9.3-1.5q4.4-2 6.8-7.5a6.5 6.5 0 0 0 .2-1.6V21c0-.6-.6-1.4-2-2.4v-.1l1.4-1.5a1.7 1.7 0 0 0 .6-1.4V15q-.4-2.6-3.3-5.8a12.9 12.9 0 0 0-7.3-3.9 56 56 0 0 0-4.1-.2h-3.8c-.3 0-.7.4-.8 1zm.6 28c.2.3.3.5.5.6h.1a.2.2 0 0 0 .2-.2V34c0-.1-.1-.2-.4-.3-.1 0-.2.1-.5.4zm4.8.2c.1.3.2.4.4.4h.1q.2 0 .3-.3v-.3c0-.1-.1-.2-.2-.2h-.2c-.1-.1-.2 0-.4.4zm4.7-31.2q0 .2.3.4h.1c.3-.3.5-.5.7-.5a1.4 1.4 0 0 0 .7.2h.1q.2 0 .4-.4v-.2a.7.7 0 0 0-.8-.8h-.1a2.1 2.1 0 0 1-1.4 1zm0 30.3v.2h.2a.2.2 0 0 0 .2-.2zm1.8 0q.1.3.7.3h.6a.2.2 0 0 0 .2-.2v-.2l-.8-.2c-.5-.1-.7 0-.7.2zM180.3 5v.2c.2 0 .2 0 .2.1l3.2-.8a1 1 0 0 0 .3-.7.9.9 0 0 0-.5-.2 6.5 6.5 0 0 0-2.2.7 1.2 1.2 0 0 0-1.2.7zm1.2 26.6c0 .1.5.5 1.6 1h1.7c-.3-1-.5-1.4-.8-1.4l-.8.5h-.1a3.7 3.7 0 0 1-1.2-.5c-.3.1-.4.3-.4.4zm1.4-25.8a.6.6 0 0 0 .7.4h.1a.2.2 0 0 0 .2-.2c-.1-.3-.3-.5-.5-.6h-.2q-.1 0-.3.4zm1 1.2v.1c0 .2.1.2.2.2h.3q0-.2.1-.2a.8.8 0 0 1-.1-.3h-.3c-.1 0-.2.1-.2.2zm1.6 24v.7c0 .1.1.2.2.2h.1q.3-.1.3-.7c0-.1-.1-.2-.3-.3a1 1 0 0 1-.3.1zm.2-23.8h.2V7c-.1 0-.2.1-.2.2zm0 1.8v.1l.1.2a.6.6 0 0 1 .3-.1V9a.2.2 0 0 0-.2-.2c-.1 0-.2.1-.2.2zm3 17l-.8-.5h-.1a1.9 1.9 0 0 0-1.6.8.6.6 0 0 0 .7.5h1c.1 0 .2.1.3.3v.6c0 .2-.3.4-1 .6v.3c.1.2.3.3.7.3.3-.4.4-.7.6-.7l.6.3h.4c0-.4.1-.6.2-.6a2.4 2.4 0 0 0-.5-.8v-.2a10.5 10.5 0 0 0 2.3-2c0-.5-.3-.7-1-.8-.1 0-.4.4-.7 1.3a3.5 3.5 0 0 0-1.1.5zm-2-18.2v.3c.2 0 .2-.1.2-.2h0zm0 2.2v.3c0 .1.2.2.5.5a.8.8 0 0 1 .4-.1v-.3l-.1-.6h-.5c-.2 0-.2 0-.2.2zm.7 2.6v.6a.8.8 0 0 1 .3.1l.2-.4v-.7h-.2c-.1 0-.2.1-.3.3zm.6 6.5a5.9 5.9 0 0 0-.3 2.1.8.8 0 0 1 .7.8c0 .5.1.7.3.7a.8.8 0 0 0 .6-.8c0-.2-.3-.3-1-.3v-.4a.8.8 0 0 1 .4-.8h.5l.6 1h.2a2 2 0 0 1 .6-1.3c0-.3-.7-.6-2.2-.7 0-.1-.1-.2-.4-.2zm.1-8v.6c0 .2.1.2.2.2s.4-.2.4-.4a1.9 1.9 0 0 1-.2-.7h-.2c-.1 0-.2.1-.2.2zm.1-3.7a.8.8 0 0 0 .5.8h.1a.2.2 0 0 0 .2-.2.7.7 0 0 0-.8-.6zm.2 8.7v.4c0 .1.1.2.3.2a.8.8 0 0 1 .4-.1v-.7h-.5q-.2 0-.2.2zm.3-6.2v.6a1.6 1.6 0 0 1 1 .6h.3v-.1c-.5-.6-.8-1-.8-1.3h-.3c-.2 0-.2.1-.2.2zm.5 5.2v.1c0 .1.1.2.4.3.3-.1.4-.2.4-.3V15q0-.2-.3-.3c-.3 0-.5.3-.5.7zm.1-3v.1a.2.2 0 0 0 .2.2c.2 0 .2-.1.2-.2l-.2-.1zm.1 5q.1.7.4.7h.1a.2.2 0 0 0 .2-.2c-.2-.4-.3-.7-.5-.7s-.2.1-.2.2zm1 4.4h-.1v.7h.4c.2 0 .2-.1.2-.2a.6.6 0 0 0-.5-.7zm1-6.5a2.3 2.3 0 0 0 .6 1.1v.2c0 .1-.1.2-.3.4a2.5 2.5 0 0 1-.9-.6h-.3v.5a4.7 4.7 0 0 1 2.2 2.3v.1c0 .1-.3.3-.8.6a.7.7 0 0 0 .8.6 3.1 3.1 0 0 0 .8-1.5v-.3c-1-.2-1.4-.4-1.4-.8s.2-.6.3-.6h.5l.2.1v-.2c-.2-1.4-.7-2-1.4-2h-.1c-.1 0-.2.1-.2.2zM191 12v.5h.3V12z"/>
        <path id="K" d="M201.4.1a6.3 6.3 0 0 1 4.6 2.2 1.2 1.2 0 0 0 .5.1c1.5-1.5 3-2.2 4-2.2h1.3c1 0 2.3.8 3.4 2.4v.1a12.3 12.3 0 0 1-3 1.2 4.6 4.6 0 0 0-2 4.2l.2 5.6a1.8 1.8 0 0 0-.2.9 5.9 5.9 0 0 0 2.2 3.5q.2 0 .3.3v.3a11.6 11.6 0 0 0-2.3 2.5l-.1 8.4a3.6 3.6 0 0 0 1.7 3.5 7.3 7.3 0 0 0 2.9.9v.2.5a5.2 5.2 0 0 1-4.3 2.3c-1.2 0-2.5-.7-4-2.2h-.2a9.8 9.8 0 0 0-2.7 1.7 6.5 6.5 0 0 1-2.3.5q-4-1-4-2.5v-.2a10 10 0 0 1 2.4-.8c1.5-1 2.3-2 2.3-3v-8.6a11.2 11.2 0 0 0-2.4-3.2 14.6 14.6 0 0 1 1.7-1.7 5 5 0 0 0 .7-2.4V12a1.9 1.9 0 0 0-.1-.8 6.2 6.2 0 0 0 .1-1V7c0-2-1.5-3.5-4.6-4l-.1-.2v-.3c1.3-1.5 2.6-2.3 4-2.3zm2 3.5c.1.4.2.6.3.6h.4c.1 0 .2-.1.3-.5-.2-.3-.3-.5-.5-.6h-.3c-.1 0-.2.2-.3.5zm3.2 25c-.1.8-.2 1.2-.5 1.2h-.3c-.5-.7-1-1-1-1s-.4.2-.7.7c0 .2.4.5 1.3 1 0 .3.2.5.4.5h.1a9.4 9.4 0 0 1 1.1-.4c0 .2.2.3.6.5.3-.1.5-.2.5-.3v-.2a1.7 1.7 0 0 1-.9-1.4c0-.2-.2-.3-.5-.4zM204 21v.5c0 .1.1.2.4.3l.2-.3V21a.2.2 0 0 0-.2-.2h-.2c-.1 0-.2.1-.2.2zm1 1a5.2 5.2 0 0 1-1 1.9.8.8 0 0 1 .1.3h.3c.2 0 .3-.3.5-1 .6-.2 1-.4 1-.7a.8.8 0 0 0-.8-.6zm-1-14.6a.7.7 0 0 0 .8.6h.2v-.8a.2.2 0 0 0-.2-.2h-.5c-.1 0-.2.2-.3.5zm.2 9l-.1.2v.5a.9.9 0 0 1 .3.1c.3-.1.5-.2.5-.3a.6.6 0 0 0-.6-.5zm-.1 2.3v.4h.3l.1-.6h-.2a.2.2 0 0 0-.1.2zm.1-4.2v.1c.2.3.3.5.5.6h.2a.2.2 0 0 0 .2-.2v-.1c-.1-.2-.3-.4-.7-.4zm.1-9.3v.1c0 .2.1.2.2.2h.2a.2.2 0 0 0 .2-.2V5a.2.2 0 0 0-.2-.2h-.1q-.1 0-.3.4zm1 21.4a3.6 3.6 0 0 0-.8-.1l-.1.2v.2a3.1 3.1 0 0 1 1.1 1.6h.7v-1c0-.1.4-.4 1.3-.7 0-.2.4-.3 1-.4v-.2c-.1-.2-.3-.4-.7-.4h-.2a5.8 5.8 0 0 1-2.1.7zm-.6-16.5l-.1.2v.2c0 .2.4.3 1.3.5.6-.1.8-.1 1-.1a5.4 5.4 0 0 0 1.2.1l.2-.5-.2-.1a10.8 10.8 0 0 0-1.5.1zm.1 2.3v.4c0 .1.2.2.5.3l.1-.2v-.1c0-.1-.1-.2-.3-.4zm.2 5.5v.2h.6c.2 0 .3-.3.3-.8h-.4c-.1 0-.3.2-.5.6zm.3 2v.3h.1v-.2zM207.8 6c-.3.6-.6 1-.7 1h-.5a.9.9 0 0 1-.8-.6h-.1a.2.2 0 0 0-.2.2 2.1 2.1 0 0 1 1 1.3c.5 0 .8.3 1 1h.2.3a3 3 0 0 0 .1-.5c0-.1-.2-.3-.7-.8v-.5c.5-.3.7-.7.7-1zm-2.3 2.2v.3c0 .2.1.2.2.2h.3v-.3a.2.2 0 0 0-.2-.2zm.2 5.2l-.1.2v.7l.6.1c.1 0 .2-.1.4-.3v-.4zm.2-1.6a.9.9 0 0 1 .1.3h.3.2c-.1-.3-.2-.5-.3-.5zm0 7.6v.1h1v-.1c0-.6-.1-1-.3-1h-.2q-.3.1-.3 1zm0 1.8v.1c0 .2.1.2.2.2h.4c.1 0 .2-.1.3-.3h0a.2.2 0 0 0-.2-.2h-.2c-.1 0-.3.2-.4.5zm.4 2.4l-.2.4h0a.2.2 0 0 0 .2.2h.2a.2.2 0 0 0 .2-.2v-.5zm0-7v.1c.5.3.8.5.8.6 0 .5.2.8.5.8s.4-.3.4-.7l-1-1c0-.1-.1-.1-.1-.1h-.2c-.2.1-.2.1-.2.3zm.3-3.2l.2.1h.3c.2 0 .3-.3.4-1l-.2-.1h-.2c-.1 0-.3.3-.5 1zm.2 9.3c.1.3.3.5.7.5a.8.8 0 0 0 .4-.8v-.6h-.3a2 2 0 0 0-.8.9zm.1-3.2c0 .6.2 1 .5 1a1.1 1.1 0 0 0 1-1.3l-.2-.1c-.8.2-1.2.4-1.2.5zm.6-15v.1h.3a3.5 3.5 0 0 1 1.4-.8v-.2q0-.2-.3-.4c-1 .3-1.4.7-1.4 1.3zm.2 7.6v.2c0 .2.1.2.2.2h.5c.2 0 .2-.1.2-.2V12q0-.2-.3-.4h-.2c-.2 0-.2.1-.3.4zm0 2.2v.2h.1V14zm2 19.6l-.1.2c0 .2.1.2.2.2h.3V34c0-.1-.2-.2-.5-.3zm1 .8v.2c0 .1.1.2.2.2h.1c.1 0 .2-.1.2-.2l-.3-.2z"/>
        <path id="L" d="M259 34h-.6c-1.6 0-3-1.2-4.5-3.6l-3.8-9.2a9.8 9.8 0 0 1 .1-1.3c.6-.6.8-1 .8-1.3v-.2a11.7 11.7 0 0 1-3.3-2.6q-1.3-2.5-5.2-11.5c-1-2.8-1.8-4.2-2.5-4.2l-5 .1c-.2 0-.6 0-1.3-.1a1 1 0 0 1-.5.1l-.8-.1a1 1 0 0 0-1 .6l-5.4 12a10.5 10.5 0 0 1-2.8 4.4c-1.4.8-2 1.3-2 1.5v.1a3.7 3.7 0 0 1 1.1 2.8c-.2.5-.4.8-.5.8q-3 7.3-4 8.7c-.4 1-1.5 1.8-3.3 2.6-1.7.2-2.5.4-2.5.6v.4a3.3 3.3 0 0 0 3.3 2.4h.3a6.5 6.5 0 0 0 4.1-2.1h.1a4.7 4.7 0 0 0 3.5 2.1 5.5 5.5 0 0 1 .8-.2 6.7 6.7 0 0 0 3-2.3v-.2l-.1-.2a3.4 3.4 0 0 1-3.6-2.6 8.8 8.8 0 0 1 1.3-3.2c.5-1.7 1-2.5 1.7-2.5l1.5.1a13 13 0 0 0 2.3-.1 36 36 0 0 0 3.2.1l5-.1c0 .1.1.1.3.1h.7l.7-.1a.8.8 0 0 0 .5.1 11.1 11.1 0 0 0 1.5-.1q.7 0 2.8 5.5v.5a2.4 2.4 0 0 1-1.5 2.1c-1.2.3-1.8.4-1.8.6v.2a5.7 5.7 0 0 0 4.6 2.5h.1a5.6 5.6 0 0 0 4-2.2h.6q2.7 2.2 4.4 2.2a4.2 4.2 0 0 0 4.1-2.5.7.7 0 0 0-.4-.6zm-37.6-1.6c0 .1-.1.2-.2.2h-.1a1 1 0 0 0-.1-.3c0-.1.1-.2.2-.2a.2.2 0 0 1 .2.2zm.1-3.7a.2.2 0 0 1-.2.2c-.1 0-.2-.1-.2-.2v-.1a.2.2 0 0 1 .2-.2c.2 0 .2.1.2.2zm2 6.2a.2.2 0 0 1-.2.2h-.4a1 1 0 0 1-.6-.9V34l.1-.2c.3 0 .6.3 1 .8zm.3-9.5a1.8 1.8 0 0 1-1 1.7c-.3 0-.5-.1-.5-.4v-.3c.3-1 .7-1.5 1.2-1.5.2.2.3.3.3.4zm1.7-2.5q-.2.4-.4.4h-.2c-.2-.1-.3-.2-.3-.4v-.3l.1-.2a.8.8 0 0 1 .8.5zm.6-2.7q0 1-.7 1h-1c-.1 0-.2-.1-.2-.2v-.2q0-.4 1.6-1c.2 0 .2.1.2.2zm.8 3h-.2v-.2h.2zm21.6 4c.4 0 .6.2.6.3v.5c0 .2-.1.2-.2.2h-.1c-.1 0-.2-.1-.2-.2zm-.5-.8c.2 0 .2.1.2.2v.4h-.5l-.2-.1c.2-.3.3-.5.5-.6zm.1 2.4v.3h-.3v-.1c0-.1.1-.2.2-.2zm-.8-7.6v-.2h.2a.8.8 0 0 0 .1.3c-.1 0-.1 0-.1.1s-.2-.1-.2-.3zm-1-3h.6c.6.4.8.6.8.7v.4h-.2l-1.2-1zm.8 4v.6c0 .1-.2.2-.4.4l-.1-.2v-.4a.2.2 0 0 1 .2-.2zm-.3-1.6V20h.1v.2zm-.3 2.8v.1q0 .6-.4.7c-.1 0-.2-.1-.2-.2v-.4q0-.2.2-.2zm-.2-2v.2.2c-.2-.1-.3-.2-.3-.4l.2-.3c.1 0 .2.1.2.3zm-6.4-16.6h.2v.2q0 .2-.2.2c-.1 0-.2-.1-.2-.2s.1-.2.2-.2zM237 2.4c0-.1.1-.2.2-.2h.1c.2 0 .2.1.2.2v.2c0 .2-.1.2-.2.2h-.3zm.1 3.3c.2 0 .3.2.5.6s-.3.5-.8.5l-.2-.3c0-.4.1-.6.3-.7zm.2 2.3v.2h-.1V8zm-2.6-5.4a.8.8 0 0 1 .5-.8h.2l.2.1c0 .8.3 1.3 1 1.3v.5c-.1.2-.2.3-.3.3h-.1a4.7 4.7 0 0 0-1.5-1.1zm-3 2.3a.2.2 0 0 1 .2-.2h.1a.7.7 0 0 1 .8.6c-.1.2-.2.4-.3.4h-.4c-.3-.2-.4-.3-.4-.5zm-1 2.2c.1-.2.2-.3.3-.3h.6l.1.6c-.1.2-.2.4-.3.4h-.3q-.3-.2-.3-.4zm-.3 1.3c.3.2.4.4.4.5V9c0 .2-.1.2-.2.2h-.2c-.2 0-.3-.2-.5-.6 0-.1.2-.2.5-.3zm-.5 2.7a.8.8 0 0 0 .3.1v.5h-.3c-.1 0-.2-.1-.2-.2zm-1 1.6c0-.1.1-.2.2-.2h.1v.4h-.4zm7.3 10.4h-.2c-.1 0-.2-.1-.2-.2s.1-.2.2-.2a.2.2 0 0 1 .2.2zm1.6.2h-.2v-.5h.2a.2.2 0 0 1 .2.2.2.2 0 0 1-.2.2zm1.6.6c-.2 0-.4-.1-.4-.2v-.3a.2.2 0 0 1 .2-.2h.4a1 1 0 0 1 .3.2c-.2.4-.4.6-.6.6zm.2-3a5.9 5.9 0 0 1-.9-.1l-1 .1-1-.1-1 .1-.6-.1-.8.1a15.3 15.3 0 0 1-1.6-.1h-3.8a1 1 0 0 1-.5.1l-.3-.5q.8-2 3.3-7.4 2-5.2 2.5-5.6a.7.7 0 0 1 .8.8l5.3 12.3c-.1.2-.2.3-.6.5zm.2-6a4 4 0 0 0 .6-1.5h.3a.2.2 0 0 1 .2.2v.2c-.6.7-1 1-1 1.2zm1 1.7c-.1 0-.2-.1-.2-.2h0c0-.1.1-.2.2-.2h.2a.2.2 0 0 1 .2.2v.2a.2.2 0 0 1-.2.2zm.5 7.6h-.1v-.5h.1a.2.2 0 0 1 .2.2.2.2 0 0 1-.2.2zm.5-12c0 .2-.1.2-.2.2h-.2v-.3h.5zm-1-1h-.3l-.4-.2h-.1l-1.2.3a.6.6 0 0 1-.4-.5l.1-.2c.6-.2 1-.3 1-.5v-.1c-.2-.7-.3-1-.6-1a4.6 4.6 0 0 0-1.1-2.1v-.1h.3a7.8 7.8 0 0 0 .9.2h.1a1.4 1.4 0 0 0 .7-.2c.1 0 .4.2 1 .7h.5c.2 0 .2-.1.2-.3a1 1 0 0 1 .5.9 1.4 1.4 0 0 1-1.2.8c-.4-.7-.6-1-.7-1h-.4c-.1 0-.2.2-.4.5 0 .5.3.8 1 .8.3.7.4 1 .6 1h.2a5.2 5.2 0 0 0 .8-.7h.4q.6.4.6.6v.2l-.2.4c-1 .1-1.5.3-1.5.6zm2 3c-.1.2-.2.3-.3.3h-.1c-.1 0-.2-.1-.2-.2v-.1c0-.4.1-.6.4-.7h.1a.2.2 0 0 1 .2.2zm.7 1.7v-.4h.3a.2.2 0 0 1 .2.2v.1a.2.2 0 0 1-.2.2h-.1c-.1 0-.2-.1-.2-.2zm1 8c0 .1-.1.2-.4.4v-.2-.5h.4c.1 0 .2.1.2.2zm-.6-6a1.1 1.1 0 0 0 .4-.1c1 .2 1.5.4 1.5.7a.9.9 0 0 0-.3.1 1.7 1.7 0 0 1-1.5-.7zm2.8 11h-.4c-.2 0-.2-.2-.2-.7s-.3-.7-1-.7c.4-1 .7-1.5 1-1.5l.6-1a.2.2 0 0 1 .3.3h0c-.4.5-.7.8-.7 1 0 .5.3 1 1 1q-.2 1.5-.6 1.5zm2.3 4.4c0 .5-.3.8-1 1a3.6 3.6 0 0 0-.9-.3l1.6-1v.3zm0-2c0 .1-.3.3-.8.7h-.3c-.1 0-.2-.1-.3-.4s.3-.7 1-1.3h.4v.6zm-.4-5.2l-.2-.3v-.6c0-.1.1-.2.2-.2h.1c.1 0 .2.1.3.5s-.1.6-.4.7zm2.2 5h-.3V30h.3zm0-3c0 .1-.1.2-.2.2h-.2c-.2-.1-.3-.2-.3-.3v-.1c0-.1.2-.2.5-.4q.3.3.3.4zm.8 4.2h-.2c-.1 0-.2-.1-.2-.2v-.5h.3l.1.6zm1.6 1.7h-.7a1.6 1.6 0 0 1-.7-.7v-.4h.5c.8.4 1.3.6 1.3.8s-.2.3-.3.3zm2 1.4h-.3c-.3-.2-.5-.3-.5-.4v-.1q0-.2.2-.2h.1a3.7 3.7 0 0 1 .6.5.9.9 0 0 0-.1.3z"/>
        <path id="M" d="M312 15.4a19.2 19.2 0 0 0-1.8-5.4 17.7 17.7 0 0 0-8.7-8.2Q298.6.1 291 .1l-5 .1a3.8 3.8 0 0 0-.9-.1l-1.3.1a5 5 0 0 0-4.2 2.2l-.6-.1Q277.7.1 274.4.1a5.2 5.2 0 0 0-2.1.7c-1.3 1-2 1.5-2 2 0 .2.3.4 1 .5 2.7.4 4 1.7 4 4a16.9 16.9 0 0 1-.2 1.8 18.8 18.8 0 0 1 .1 2.1V15c0 1-.8 2.2-2.4 3.6v.2c1.6 1.5 2.4 2.6 2.4 3.3v8.5a1 1 0 0 1-.3.8c0 1-1 2-3.2 2.7h-1c-.2.1-.3.2-.3.3v.4c1.4 1.6 2.6 2.4 3.6 2.4h1.3a9.8 9.8 0 0 0 2.3-.8c1-1 1.6-1.4 1.8-1.4h.3c1.5 1.5 2.8 2.2 4 2.2h10.7a22.8 22.8 0 0 0 5.8-1.2 17.6 17.6 0 0 0 4.4-2.4c.7-.3 2-1.5 4-3.7a19.4 19.4 0 0 0 3.1-6.1 7.3 7.3 0 0 1 1.5-3.9c1-.7 1.4-1 1.4-1.3a6.5 6.5 0 0 1-2.4-3.1zm-30.4-11h.2c.1 0 .2.1.2.2s-.1.2-.2.2h-.2zm.6 5.5c-.1.4-.2.7-.3.7h-.2c-.2 0-.3-.2-.4-.7 0-.1.1-.2.5-.4 0 .1.2.2.5.4zm-2.5-4l.2.1h-.1-.2zm-2-.6l.1-.2.4.2a.2.2 0 0 1-.2.2h-.2zm-.1 3a4.5 4.5 0 0 1 .2-1 1.4 1.4 0 0 0-.2-.6.7.7 0 0 1 .5-.5 4.3 4.3 0 0 1 1.6.5c1.7.4 2.5.8 2.5 1.2s-.1.4-.3.4h-.1a22.8 22.8 0 0 0-2.9-.8.7.7 0 0 1-.4.1c-.2.7-.4 1-.6 1s-.2-.1-.2-.2zm3 6.8h.2v.1l-.2.4c-.1 0-.2-.1-.2-.2s.1-.2.2-.2zm-.6-1.5v-.2q.2-.3.4-.3h.2a3.3 3.3 0 0 1-.1.5zm.7-1.6c-.2 0-.3-.2-.3-.7-.7-.4-1-.6-1-.8s.4-.6 1-1.3h.2v.2q-.6.5-.6.7c0 .4.4 1 1 1.4v.5zm-2.5 1.4V13c0-.1.1-.2.2-.2a.2.2 0 0 1 .2.2v.2zm.1 3c0 .2-.1.2-.2.2s-.2-.1-.2-.2.1-.2.2-.2.2.1.2.2zm-.8-5.6c0-.1.1-.2.2-.2h.2c.2.1.4.2.4.3v.3a1 1 0 0 0-.4.1c-.3-.2-.5-.4-.5-.5zM275.6 3c0-.1-.1-.1-.2-.1v-.6a.9.9 0 0 0 .4-.1c.3 0 .5.1.5.3s-.2.3-.6.5zm1.5 30.6a.5.5 0 0 1-.6-.4c0-.5.3-.8 1-1 .4.2.6.4.6.7a2.5 2.5 0 0 1-1 .7zm.6-9.4c.1 0 .2.1.4.4v.6h-.5c-.1 0-.2-.2-.3-.7a.9.9 0 0 0 .1-.3zm-.4-2c.2-.3.3-.5.4-.5h.2v.6a.2.2 0 0 1-.2.2h-.1c-.2-.2-.3-.3-.3-.3zm1.5 9.4c0 .1-.1.2-.2.2h-.1c-.1 0-.2-.1-.2-.2v-.2c0-.1.1-.2.2-.2h.3zm0-2.2h-.3l-.3-.2a4.2 4.2 0 0 0 .1-.4h.5l.1.6zm.1-8.3c0 .1-.1.2-.5.3l-.2-.2.1-.6h.3a.2.2 0 0 1 .2.2zm.6 9.7h-.2c-.1 0-.2-.1-.2-.2v-.6h.2c.1 0 .2.1.4.4a.8.8 0 0 0-.1.3zm0-3h-.2c-.1 0-.2-.1-.2-.2v-.1c.1-.2.2-.3.4-.3h.1c.2.1.3.2.3.3s-.2.3-.3.3zm.5-3c-.1.2-.2.3-.3.3h-.4-.2a.6.6 0 0 1 .5-.7c.3.1.5.2.5.3zm.6-3.3c-.2-.1-.3-.2-.3-.4v-.5q1-.6 1-1.3c0-.2-.2-.3-.6-.4a5.4 5.4 0 0 0-2.8.8 5.1 5.1 0 0 1-1.3-.3v-.2a.9.9 0 0 1 .6-.9 1.6 1.6 0 0 0 .8.7 4.7 4.7 0 0 1 2.3-.7h.5a2 2 0 0 1 .9.2l-.1.2v.4a1.4 1.4 0 0 1 .5.9c0 .2-.3.3-.8.4-.2.6-.4 1-.6 1zm1 1h-.2c-.1 0-.2-.1-.2-.2V22c0-.1.1-.2.2-.2h.2c.2.1.4.2.4.3h0q-.1.4-.3.4zm.4 2.2a1.4 1.4 0 0 1-.7.6c0-.1-.1-.1-.2-.1v-.6a.2.2 0 0 1 .2-.2h.3q.4.2.4.3zm.2 8.5c-.1.2-.2.3-.3.3a.9.9 0 0 1-1-1V32h.1q.6 0 1.2 1zm.1-2.5v.6h-.4c-.6-.5-1-.8-1-1a.6.6 0 0 1 .5-.7c.2 0 .6.3 1 1zm-1-3h-.3a.9.9 0 0 0-.1-.4c.6-1 1-1.4 1-1.4h.2zm1.4-9h-.2l-.8-.2v-.2a1.8 1.8 0 0 1 .9-.8 7.8 7.8 0 0 0 .2.9 1 1 0 0 0-.1.4zm25.8-6.6h.3v.5h-.3zm-1.6-2c0 .3.3.7.8 1.3v.1h-.3a1.6 1.6 0 0 0-1.1-.6v-.6c0-.1.1-.2.2-.2zm.7 11.5h-.2l-.6-1h-.5a.8.8 0 0 0-.4.8v.3c.6 0 1 .1 1 .3a.8.8 0 0 1-.6.8q-.3 0-.3-.7a.8.8 0 0 0-.7-.8 5.7 5.7 0 0 1 .3-2.1c.3 0 .5.1.5.2 1.5.1 2.2.3 2.2.7a2 2 0 0 0-.6 1.3zm.8 1a.2.2 0 0 1-.2.2h-.4V22l.1-.2a.6.6 0 0 1 .5.7zm-2.4-5.7v-.4c0-.1.1-.2.2-.2h.5v.7a.8.8 0 0 0-.4.1c-.2.1-.3 0-.3-.2zm1.3-2c.2.1.3.2.3.3v.5c0 .1-.1.2-.4.3-.2-.1-.4-.2-.4-.3v-.1c0-.3.2-.5.5-.6zm-.3-2v-.1h.2l.2.1c0 .1-.1.2-.2.2a.2.2 0 0 1-.2-.1zm.8 5.3a.2.2 0 0 1-.2.2h-.1q-.3 0-.4-.7c0-.1.1-.2.2-.2s.3.3.5.8zm-1.2-9.6a.2.2 0 0 1-.2.2h-.1a.8.8 0 0 1-.5-.8.7.7 0 0 1 .8.6zm-1 3c0-.1.1-.2.2-.2h.3a2.1 2.1 0 0 0 .2.7c0 .1-.1.2-.4.4a.2.2 0 0 1-.2-.2zm-.4 1h.2v.7l-.2.4a.7.7 0 0 0-.3-.1v-.5c.1-.2.2-.3.3-.3zM304 8h.2 0q0 .2-.2.2zm0 2.2c0-.1.1-.2.2-.2h.5l.1.6v.3a.8.8 0 0 0-.4.1c-.3-.2-.5-.4-.5-.5zm-.8-3v.2h-.2c0-.1.1-.2.2-.3zm-.2 2c0-.1.1-.2.2-.2a.2.2 0 0 1 .2.2v.2a.7.7 0 0 0-.3.1l-.1-.2zm-1-2c-.1 0-.1.1-.1.2h-.3c-.1 0-.2-.1-.2-.2V7c0-.1.1-.2.2-.2h.3a.9.9 0 0 0 .1.3zm-1-1h-.1a.6.6 0 0 1-.7-.4q.3-.4.3-.4h.2c.2 0 .3.2.5.6a.2.2 0 0 1-.2.2zM297.7 5a1.2 1.2 0 0 1 1.2-.7 6.7 6.7 0 0 1 2.2-.7.9.9 0 0 1 .5.2.9.9 0 0 1-.3.7l-3.2.8c0-.1-.1-.1-.2-.1zM294 3a2.1 2.1 0 0 0 1.4-1h.1a.7.7 0 0 1 .8.8V3q-.2.4-.4.4h-.1a1.4 1.4 0 0 1-.7-.2c-.2 0-.4.2-.7.5h-.1q-.3-.2-.3-.4zm-8.7 31.4a.2.2 0 0 1-.2.2h-.1c-.1 0-.3-.2-.5-.6.2-.3.4-.5.5-.5q.4.2.4.3zm-.3-2.6h-.6c-.1 0-.3-.2-.5-.7v-.8a23.3 23.3 0 0 0-.1-2.6v-1-3.5a5.1 5.1 0 0 1 2.4-4.5v-.3C285 17 284 16 284 15V9.5a23.3 23.3 0 0 0 .1-2.4l-.1-1c.1-.7.4-1 .8-1l.8.1 3-.1c2 .1 3.4.2 4 .2a12.9 12.9 0 0 1 7.3 3.8q3 3.3 3.3 6v.6a1.7 1.7 0 0 1-.6 1.4l-1.4 1.6c1.3 1 2 2 2 2.4v.2a6.1 6.1 0 0 1-.2 1.6q-2.3 5.6-6.7 7.6-1.6 1.5-9.3 1.5a12.1 12.1 0 0 0-2-.1zm5 2.6q-.2.3-.3.3h-.1c-.1 0-.2-.1-.4-.4.1-.3.2-.5.4-.5h.2c.1 0 .2.1.2.2zm4-.8h-.3v-.2h.5a.2.2 0 0 1-.2.2zm3-.1a.2.2 0 0 1-.2.2h-.6c-.4 0-.6-.1-.7-.3s.2-.3.7-.3l.8.2zm3-1c-1-.5-1.6-1-1.6-1s.1-.2.4-.4a3.7 3.7 0 0 0 1.2.5h.1l.8-.5c.3 0 .5.5.8 1.4zm2.8-.6h-.1c-.1 0-.2-.1-.2-.2V31a.9.9 0 0 0 .4-.1c.2.1.3.2.3.3 0 .4-.1.6-.4.7zm3.3-4.8v.2a2.6 2.6 0 0 1 .5.8c-.2 0-.2.2-.2.6h-.4l-.6-.3c-.1 0-.3.2-.6.7-.4 0-.6-.1-.7-.3v-.3c.7-.2 1-.4 1-.6v-.6c-.1-.2-.2-.3-.3-.3h-1a.6.6 0 0 1-.7-.5 1.9 1.9 0 0 1 1.6-.8h.1l.8.5a3.6 3.6 0 0 1 1.2-.5c.3-.8.5-1.3.7-1.3.6.1 1 .3 1 .8a10.5 10.5 0 0 1-2.3 2zm4.2-8.3a3 3 0 0 1-.8 1.5.7.7 0 0 1-.8-.6c.5-.3.8-.4.8-.6v-.1a4.8 4.8 0 0 0-2.2-2.3v-.5h.3a2.6 2.6 0 0 0 .9.6q.3-.2.3-.4v-.2a2.3 2.3 0 0 1-.6-1.1c0-.1.1-.2.2-.2h.1c.7 0 1 .7 1.4 2l-.1.2-.2-.1h-.5c-.1 0-.2.2-.3.6s.5.6 1.4.8z"/>
        <path id="N" d="M329.8 0c.1 0 .2 0 .2.1 1-.1 2-.1 2.5-.1h5.8c.4.1.6.1.7.1l1.7-.1.2.1a.8.8 0 0 1 .3-.1c1.8 0 3 .3 3.7 1h.6a8.4 8.4 0 0 1 3.6-.9c.6.1.8.3.8.6a14.9 14.9 0 0 0-.8 5.5v1.2a.8.8 0 0 1-.4.8h-3.6Q344 8 344 6.4a3.4 3.4 0 0 0-3-1.4l-1.4.1c-.1 0-.3 0-.7-.1a6.6 6.6 0 0 1-1.3.1l-.5-.1-.2.1-.8-.1a7.5 7.5 0 0 0-1.3.1l-1.6-.1-3.6.1-.7-.1c-.4 0-.6.4-.7 1.2v8.5c0 .6.5 1 1.6 1h10c.1 0 .3.2.5.4v4.6a.7.7 0 0 1-.8.8h-5a6.8 6.8 0 0 1-1.4-.1 7.3 7.3 0 0 1-1.4.1h-3c-.3 0-.5.4-.5 1.4V31a1.1 1.1 0 0 0 .6.9 52 52 0 0 1 2.9-.1h9.6c1.3 0 2-.4 2.3-1 .3-1 .6-1.7 1.2-1.7h3.4a.9.9 0 0 1 .9.6v1a32.5 32.5 0 0 0 .7 6.1c-.2.2-.4.3-.6.3a6.5 6.5 0 0 1-3.6-.9h-.1a9.4 9.4 0 0 0-2.2.8 12.6 12.6 0 0 1-1.5.1h-13.6a5.5 5.5 0 0 1-4.2-2.2h-.4c-.3 0-1 .5-2 1.5a11 11 0 0 1-2.2.7h-1c-1.2 0-2.4-.7-3.8-2.2v-.6q0-.3 2.2-.7a3.9 3.9 0 0 0 2.5-3.7v-.6c0-.7-.1-1-.1-1a14.3 14.3 0 0 0 .1-1.6v-4q0-2-2.4-3.8v-.3q2.4-2 2.4-4v-1.7a1 1 0 0 0-.1-.6l.1-.7v-4q0-3-3.5-4-1.3 0-1.3-.3v-.5C316.2.8 317.3.1 318 .1h1.8a6.3 6.3 0 0 1 3.4 2c0 .1.2.2.6.2q1.8-2.3 6-2.3zM319 34.8l.2.1h.7c.6 0 1.4-.5 2.3-1.6V33l-.2-.3c-.7.7-1.2 1-1.6 1a1.5 1.5 0 0 0-1.4 1.1zm1.4-32l-.1.6c0 .3.5.6 1.5 1 .4 1 .6 1.4.8 1.4h.1q.2 0 .4-.3v-.1a4.7 4.7 0 0 0-2.4-2.6zm2.7 11.7v.4l.8.8a1.1 1.1 0 0 1-.6.7l-2-.1-.2.3v.5c0 .1.1.2.5.3a3.7 3.7 0 0 1 1.3-.2 1.3 1.3 0 0 0 .7.2h.2l.5-.3c1 .2 1.6.4 1.6.6l.1.6h.5q.1 0 .3-.4v-.5a3.9 3.9 0 0 0-1.8-1.5q0-.2-1-1a2.1 2.1 0 0 0-.5-.7 1 1 0 0 1-.3.1zM321.6 25v.6l.6.1a.2.2 0 0 0 .2-.2v-.7a.2.2 0 0 0-.2-.2h-.1c-.1 0-.2.1-.4.4zm.1-14.6v.2c0 .2.2.3.6.3h1.4.8a3.3 3.3 0 0 1 1-.4l.8.1a1.1 1.1 0 0 0 .2-.4v-.1a2.2 2.2 0 0 1-.9-1.5h-.2c-.1 0-.2.1-.4.3v.2.1c0 .1-.2.3-.5.4h-.5c-.2 0-.3-.1-.3-.4l.1-.6a.9.9 0 0 0-.5-.2c-.2 0-.4.4-.6 1.2-.8.2-1.2.3-1.2.5zm0 18.3v.2h.2v-.2zm.7-1v.2h.2v-.2zm0 2v.2c0 .1.1.2.2.2h.1v-.4zm.1-16.8v.2c.2 0 .2-.1.2-.2zm.8-1.3a.8.8 0 0 1-.1.4l.2.1.1-.2v-.2zm.4 9.4v.1q0 .2.4.4.1 0 .3-.4v-.1a.2.2 0 0 0-.2-.2h-.2c-.2.1-.3.1-.3.3zm0 3.3v.4l1 1.4c.1 0 .1.1.1.1.3-.1.5-.2.5-.4h0c0-.1-.4-.4-1-.8a1.3 1.3 0 0 1-.2-.6zm.1 2.6v.5l1 .7a.7.7 0 0 0 .4.7.9.9 0 0 1 .4-.1v-.5l-1-.8c0-.3-.1-.5-.4-.5zm.1-14v.5c0 .1.1.3.5.5h.1q.2 0 .6-1.3l.6-.1V12q0-.2-.3-.3h-.1c-.2 0-.3.4-.3 1-.6.1-1 .2-1 .4zm.1 16.4v.2h0c0 .1.1.2.2.2h.4v-.6zm.1-24.4c.1.3.2.5.4.5h.1a2.6 2.6 0 0 1 .7-.5l.8.2.1-.2v-.1c-.6-.6-1-1-1-1-.8.4-1.2.8-1.2 1zm0 2.5V8c0 .2.1.2.2.2h.1q.1 0 .3-.4v-.1c0-.2-.1-.2-.2-.2h-.1q-.2 0-.4.3zm1.6 22c0 .8-.4 1.3-1.2 1.3l-.1.2v.1c.1.2.3.4.7.4a4.6 4.6 0 0 1 1.4-1.3v-.2c-.1-.3-.2-.5-.3-.5zm-.7 3v.3c0 .2.1.2.2.2h.1a1 1 0 0 0 .8-.5.7.7 0 0 0-.5-.5c-.5.1-.7.3-.7.4zm.1-8.4v.2c0 .1.1.2.2.2.7-.6 1-1 1-1.5l-.3-.2h-.1zm.4-3.3c.1.3.2.5.3.5a.2.2 0 0 0 .2-.2V21a.2.2 0 0 0-.2-.2h-.1c-.2.1-.2.1-.2.2zm.2 6c0 .1 0 .2-.1.2.1.3.2.5.4.5a.8.8 0 0 1 .3-.1v-.3a.2.2 0 0 0-.2-.2zm1-7.8h.4V19h-.1c-.2 0-.2.1-.2.2zm4.5-2c-.1.7-.2 1-.5 1a3.5 3.5 0 0 1-.8-.6c-.2 0-.3.3-.5 1h-.2a5.9 5.9 0 0 0-1.4-.8 1.4 1.4 0 0 0-.3.7c.3 0 .6.4 1 1h.6c.3-.6.6-.8.7-.8a2.7 2.7 0 0 1 .7.5h.2c.1 0 .2-.3.5-1 .4-.2.5-.3.6-.5a.6.6 0 0 0-.7-.6zM328 2.4v.1c0 .2.1.2.2.2l.1-.2v-.1zm1.5 31.7c.1.7.4 1 1 1h.2c.1 0 .3-.1.5-.5 0-.1-.3-.4-1-1h-.4q-.1 0-.3.4zm3.2-15.3v.2a.2.2 0 0 0 .2.2h.2v-.1a.8.8 0 0 1-.1-.4zm.7-1v.3a.8.8 0 0 1 .3.1.2.2 0 0 1 .2-.2c-.1-.3-.2-.5-.4-.5a.2.2 0 0 0-.2.3zm1 .7v.4c0 .1.1.3.5.5a.2.2 0 0 0 .2-.2v-.5c0-.1-.1-.2-.2-.2zm1-.8l-.1.5.2.1h.1c.2 0 .2-.1.2-.2a1.1 1.1 0 0 1-.1-.4zm.4-15c.1.3.2.4.3.4h.1q.1 0 .3-.3v-.2s-.1-.2-.3-.3a.6.6 0 0 0-.4.5zm.3 16v.4c0 .1.1.2.3.3h.1c.1 0 .2-.1.3-.3v-.2q0-.1-.3-.3h-.2c-.1 0-.2 0-.2.1zm4.7-16.2l-.1.6c0 .2.1.3.5.3a1 1 0 0 1 .4-.1v-.6a.2.2 0 0 0-.2-.2zm5.3 1h-.8a1 1 0 0 1-.5-.1 1.6 1.6 0 0 0-.7.3c0 .3.6.5 2 .7 0 .1.2.3.6.5h.1c.6 0 1-.6 1.3-1.7 0-.2-.1-.2-.3-.2a2.9 2.9 0 0 1-1.5.6zm.1 29v.2a.2.2 0 0 0 .2.2h.2v-.3a.7.7 0 0 1-.3-.2z"/>
    </defs>
    <use xlink:href="#C"/>
    <use xlink:href="#D"/>
    <use xlink:href="#E"/>
    <use xlink:href="#F"/>
    <use xlink:href="#G"/>
    <use xlink:href="#H"/>
    <use xlink:href="#I"/>
    <g fill="url(#A)">
        <use xlink:href="#C"/>
        <use xlink:href="#D"/>
        <use xlink:href="#E"/>
        <use xlink:href="#F"/>
        <use xlink:href="#G"/>
        <use xlink:href="#H"/>
        <use xlink:href="#I"/>
    </g>
    <use xlink:href="#J"/>
    <use xlink:href="#K"/>
    <use xlink:href="#L"/>
    <use xlink:href="#M"/>
    <use xlink:href="#N"/>
    <g fill="url(#B)">
        <use xlink:href="#J"/>
        <use xlink:href="#K"/>
        <use xlink:href="#L"/>
        <use xlink:href="#M"/>
        <use xlink:href="#N"/>
    </g>
</svg>
