<svg xmlns="http://www.w3.org/2000/svg" xmlns:xlink="http://www.w3.org/1999/xlink" viewBox="0 0 965.86 322.07">
    <defs>
        <style>
            @keyframes blowing {
                from {
                    transform: rotate3d(0) scale3d(1, .9, .9) translateY(-10px);
                }

                to {
                    transform: rotate3d(1.1, 1, 1, 5deg) scale3d(1, .9, 2) translateY(10px);
                }
            }

            @keyframes rotate {
                from {
                    transform: rotate(0) translateY(5px);
                }

                to {
                    transform: rotate(2deg) translateY(25px);
                }
            }

            .string {
                animation: rotate 4s ease-in-out infinite alternate;
                transform-origin: center right;
            }

            .banner {
                animation: blowing 4s .1s ease-in-out infinite alternate;
                transform-origin: center top;
            }
            .string {
                fill: #3d124d;
            }
            .pink-banner {
                fill: url(#Degradado-rosa);
            }
            .purple-banner {
                fill: url(#Degradado-morado);
            }
            .green-banner {
                fill: url(#Degradado-verde);
            }
            .yellow-banner {
                fill: url(#Degradado-amarillo);
            }
            .blue-banner {
                fill: url(#Degradado-azul);
            }
        </style>
        <linearGradient id="Degradado-rosa" x1="765.94" y1="167.29" x2="915.1" y2="316.46" gradientTransform="matrix(-0.99, -0.15, -0.15, 0.99, 1159.77, 79.5)" gradientUnits="userSpaceOnUse">
            <stop offset="0.25" stop-color="#db01fa"/>
            <stop offset="1" stop-color="#9a1bcd"/>
        </linearGradient>
        <linearGradient id="Degradado-morado" x1="195.79" y1="129.2" x2="345.43" y2="278.84" gradientTransform="matrix(-0.99, -0.15, -0.15, 0.99, 1159.77, 79.5)" gradientUnits="userSpaceOnUse">
            <stop offset="0" stop-color="#971ccd"/>
            <stop offset="1" stop-color="#5630cd"/>
        </linearGradient>
        <linearGradient id="Degradado-verde" x1="382.25" y1="168.49" x2="534.24" y2="320.48" gradientTransform="matrix(-0.99, -0.15, -0.15, 0.99, 1159.77, 79.5)" gradientUnits="userSpaceOnUse">
            <stop offset="0.18" stop-color="#d9f439"/>
            <stop offset="1" stop-color="#a1b82b"/>
        </linearGradient>
        <linearGradient id="Degradado-amarillo" x1="956.68" y1="127.06" x2="1100.22" y2="270.6" gradientTransform="matrix(-0.99, -0.15, -0.15, 0.99, 1159.77, 79.5)" gradientUnits="userSpaceOnUse">
            <stop offset="0" stop-color="#ffff40"/>
            <stop offset="1" stop-color="#e3ae30"/>
        </linearGradient>
        <linearGradient id="Degradado-azul" x1="573.38" y1="181.14" x2="725.29" y2="333.06" gradientTransform="matrix(-0.99, -0.15, -0.15, 0.99, 1159.77, 79.5)" gradientUnits="userSpaceOnUse">
            <stop offset="0.17" stop-color="#7dd8fb"/>
            <stop offset="1" stop-color="#4c6fdb"/>
        </linearGradient>
    </defs>
    <g id="Layer_2" data-name="Layer 2">
        <g id="Layer_3" data-name="Layer 3">
            <path class="string" d="M53,6.07c272.74,159.76,598.06,210.85,904.38,142-.63-2.31-1.25-4.63-1.88-6.95C651.1,209.54,327.82,158.76,56.79,0Z"/>

            <path class="banner pink-banner" d="M306.82,160.68a12,12,0,0,0,2.85-1.22.68.68,0,0,0,.22-.85h0l-.28-.22a.48.48,0,0,0-.31.09A12.91,12.91,0,0,0,306.82,160.68Z"/>
            <path class="banner pink-banner" d="M302.4,155.56a19.14,19.14,0,0,0,2.06-4.55,1,1,0,0,0-.06-.73.84.84,0,0,0-.42-.41.85.85,0,0,0-.76.1,1.09,1.09,0,0,0-.46.66A18.25,18.25,0,0,0,302.4,155.56Z"/>
            <path class="banner pink-banner" d="M296.55,158.07a14.44,14.44,0,0,0-.93-2.85l-.35-.45a.49.49,0,0,0-.42,0,.69.69,0,0,0-.21.87A11.27,11.27,0,0,0,296.55,158.07Z"/>
            <path class="banner pink-banner" d="M284.85,215.27c6.38-2.47,27.55-12.76,30.66-25,.59-2.21,1.24-6.44-1-10a7.92,7.92,0,0,0-3.66-3.2q-.33-.13-.66-.24a3.54,3.54,0,0,0-.44-.11,8.85,8.85,0,0,0-6.15,1.17,24.75,24.75,0,0,0-10.16,11.35,1.19,1.19,0,0,1-1.41.69h0a1.22,1.22,0,0,1-.83-1.32,24.54,24.54,0,0,0-2.65-15,9.11,9.11,0,0,0-4.23-4.06l-.39-.15A7.87,7.87,0,0,0,278,170c-3.79,1.91-5.48,5.85-6.14,8C268.05,190,280.7,209.83,284.85,215.27Z"/>
            <path class="banner pink-banner" d="M192.22,231.24a12.61,12.61,0,0,1-1.63-.85,12.27,12.27,0,0,1-1.81-1.4,12.08,12.08,0,0,1-1.49-1.73,10.38,10.38,0,0,1-1.13-2,12.56,12.56,0,0,1-.7-2.18,12.82,12.82,0,0,1-.26-2.27,13,13,0,0,1,.21-2.29,11.38,11.38,0,0,1,.63-2.2,11.07,11.07,0,0,1,1.08-2.05,12.13,12.13,0,0,1,1.42-1.79A11.27,11.27,0,0,1,190.3,211a11.67,11.67,0,0,1,2-1.15,12.68,12.68,0,0,1,2.18-.73,10.69,10.69,0,0,1,3.69-.24l2.35.21-1.9-1.4a11.45,11.45,0,0,1-3.69-13.5,12,12,0,0,1,11.92-7.56l2.25.18-1.8-1.36A11.42,11.42,0,0,1,203.8,172a12,12,0,0,1,11.76-7.62l2.21.16L216,163.22a11.41,11.41,0,0,1-3.33-13.36,12,12,0,0,1,11.61-7.68l2.17.15L224.73,141c-3.82-2.95-5.13-8.42-3.17-13.3s6.7-8.06,11.52-7.72l2.17.15-1.72-1.33a10.1,10.1,0,0,1-3.27-4.43,11.41,11.41,0,0,1-.57-2.12,12.92,12.92,0,0,1-.16-2.24,13,13,0,0,1,.92-4.48,12.07,12.07,0,0,1,1.05-2.06,12.53,12.53,0,0,1,1.38-1.83,11.94,11.94,0,0,1,1.66-1.54,12.58,12.58,0,0,1,1.87-1.2,10.11,10.11,0,0,1,8.1-.58l.32.13a9.86,9.86,0,0,1,5.3,5.61,10.84,10.84,0,0,1,.59,2.11,11.71,11.71,0,0,1,.18,2.23l-.17,2.88,1.31-1.69c3.05-3.94,7.88-5.58,12-4.1l.48.19c3.9,1.64,6.28,5.76,6.08,10.5l-.09,2.13,1.28-1.71c3-4,7.75-5.68,11.92-4.26l.62.23c3.83,1.61,6.24,5.67,6.12,10.35l-.05,2.12,1.24-1.72c2.9-4,7.65-5.81,11.83-4.47l.77.28c3.78,1.59,6.2,5.59,6.17,10.19l0,2.13,1.22-1.75c2.8-4.06,7.52-5.93,11.73-4.66a7.62,7.62,0,0,1,.91.33,10.78,10.78,0,0,1,6.2,10l0,2.13,1.18-1.77c2.74-4.11,7.42-6.06,11.63-4.86a8.83,8.83,0,0,1,1.06.37,10.82,10.82,0,0,1,6.23,9.87l.06,2.13,1.15-1.8c2.66-4.15,7.3-6.18,11.53-5.05a8.91,8.91,0,0,1,1.2.41,10.9,10.9,0,0,1,6.27,9.75l.14,2.09s1.35-2.23,1.47-2.4a13.62,13.62,0,0,1,1.44-1.73,10.78,10.78,0,0,1,1.7-1.4,10.25,10.25,0,0,1,1.89-1,9.67,9.67,0,0,1,2-.6,9.33,9.33,0,0,1,2-.17,8.9,8.9,0,0,1,3.3.69l.58.27a9.63,9.63,0,0,1,1.71,1.11,10.21,10.21,0,0,1,1.48,1.46,11.27,11.27,0,0,1,1.19,1.78,11.4,11.4,0,0,1,.83,2,10.85,10.85,0,0,1,.47,2.19,13.48,13.48,0,0,1,.07,2.3,12.82,12.82,0,0,1-.33,2.27,12.37,12.37,0,0,1-.74,2.2,13.74,13.74,0,0,1-1.09,2,13.32,13.32,0,0,1-1.43,1.75,12.51,12.51,0,0,1-1.68,1.42,10.9,10.9,0,0,1-1.89,1,9.7,9.7,0,0,1-3.33.76l-2.15.12,1.85,1.1c4.12,2.45,6.14,7.73,4.93,12.84s-5.43,8.86-10.26,9.12l-2.17.12,1.86,1.11a11.76,11.76,0,0,1,5,12.85A11.57,11.57,0,0,1,369.3,211l-2.21.1,1.91,1.12a11.8,11.8,0,0,1,5.19,12.9,11.57,11.57,0,0,1-10.58,9l-2.25.1,1.95,1.13a11.81,11.81,0,0,1,5.35,12.93,11.57,11.57,0,0,1-10.8,9l-2.34.08,2,1.15c.41.24.82.49,1.19.76a12.72,12.72,0,0,1,1.67,1.52,12.58,12.58,0,0,1,1.36,1.83,11.47,11.47,0,0,1,1,2.08,12.05,12.05,0,0,1,.69,4.51,10.59,10.59,0,0,1-.31,2.28,11.21,11.21,0,0,1-.75,2.18,11.62,11.62,0,0,1-2.67,3.7,11.37,11.37,0,0,1-3.89,2.39,11.87,11.87,0,0,1-4.49.69,11,11,0,0,1-2.28-.33,10.61,10.61,0,0,1-1.7-.57l-.46-.2a12.74,12.74,0,0,1-2-1.18,13.11,13.11,0,0,1-1.69-1.55,11.58,11.58,0,0,1-1.36-1.85,10.92,10.92,0,0,1-1-2.08,13.18,13.18,0,0,1-.54-2.23c0-.2-.2-2.72-.2-2.72l-1.07,1.65a11.54,11.54,0,0,1-12.69,4.89,12.32,12.32,0,0,1-1.52-.51,11.66,11.66,0,0,1-7.06-10l-.11-1.93-1.09,1.59a11.59,11.59,0,0,1-12.77,4.63,11.78,11.78,0,0,1-1.34-.47,11.57,11.57,0,0,1-7-10.17l-.08-1.92-1.11,1.56a11.64,11.64,0,0,1-12.87,4.41,10.62,10.62,0,0,1-1.16-.42,11.52,11.52,0,0,1-7.05-10.36l0-1.93L272,250.33a11.66,11.66,0,0,1-13,4.19c-.33-.11-.66-.23-1-.36a11.46,11.46,0,0,1-7-10.54v-1.93l-1.18,1.53a11.72,11.72,0,0,1-13.05,4c-.27-.09-.53-.19-.79-.3a11.42,11.42,0,0,1-7-10.73l0-1.93-1.2,1.51a11.77,11.77,0,0,1-13.14,3.75c-.21-.08-.41-.15-.61-.24a11.52,11.52,0,0,1-7-11l0-1.84s-1.49,1.83-1.62,2a13.16,13.16,0,0,1-1.73,1.53,12.29,12.29,0,0,1-2,1.16,12,12,0,0,1-2.19.75,13.68,13.68,0,0,1-2.29.3,12.12,12.12,0,0,1-2.31-.15,10.82,10.82,0,0,1-2.23-.59Zm11.32-9-5.76-2.15,2.25-5.78-.63-.23a6.36,6.36,0,0,0-1.28-.34,7.87,7.87,0,0,0-1.34-.09,10.76,10.76,0,0,0-1.33.17,9.52,9.52,0,0,0-1.24.43,6.41,6.41,0,0,0-1.19.68,7.42,7.42,0,0,0-1,.87,6.52,6.52,0,0,0-.84,1.06,6.77,6.77,0,0,0-.61,1.2,7.45,7.45,0,0,0-.37,1.28,6.59,6.59,0,0,0-.11,1.35,7.31,7.31,0,0,0,.15,1.31,6.06,6.06,0,0,0,.42,1.29,6.91,6.91,0,0,0,3.76,3.57h0a8,8,0,0,0,1.3.34,8.54,8.54,0,0,0,1.34.09,7.34,7.34,0,0,0,1.33-.18,7.92,7.92,0,0,0,1.3-.43,8.28,8.28,0,0,0,1.15-.68,6.56,6.56,0,0,0,1-.88,7.19,7.19,0,0,0,.84-1.07,7.47,7.47,0,0,0,.6-1.2Zm21.84,7.89-.63-.22q-5.79-2-11.56-4.13l-.61-.22-.23.61a6.73,6.73,0,0,0,3.67,8.6l.36.14a6.88,6.88,0,0,0,8.77-4.16Zm22,7.52-.63-.21q-5.82-2-11.62-3.94l-.62-.21-.22.62a6.78,6.78,0,0,0,3.73,8.51l.46.17a6.9,6.9,0,0,0,8.69-4.31Zm22.07,7.16-.63-.2q-5.85-1.85-11.68-3.74l-.62-.21-.21.62a6.8,6.8,0,0,0,3.77,8.4,5.37,5.37,0,0,0,.56.21,6.87,6.87,0,0,0,8.61-4.45Zm22.16,6.78-.63-.19q-5.88-1.74-11.73-3.55l-.63-.19-.2.63a6.76,6.76,0,0,0,3.82,8.29c.21.09.44.17.67.25a6.85,6.85,0,0,0,8.51-4.61ZM313.83,258l-.63-.17c-3.94-1.1-7.86-2.22-11.79-3.35l-.63-.19-.18.63a6.78,6.78,0,0,0,3.85,8.19,5.13,5.13,0,0,0,.78.27,6.7,6.7,0,0,0,5.16-.6,6.86,6.86,0,0,0,3.26-4.14Zm22.35,6.05-.64-.17c-3.94-1-7.89-2.09-11.83-3.15l-.63-.17-.17.63a6.81,6.81,0,0,0,3.89,8.08,6.51,6.51,0,0,0,.88.3,6.72,6.72,0,0,0,5.15-.69,6.8,6.8,0,0,0,3.19-4.2Zm17.35-1.95-.64-.16-1.49,6-5.93-1.5-.17.64a6.66,6.66,0,0,0-.19,1.33,7.37,7.37,0,0,0,.06,1.33,6.41,6.41,0,0,0,.32,1.31,7.43,7.43,0,0,0,.56,1.22,6.87,6.87,0,0,0,.79,1.07,6.63,6.63,0,0,0,1,.91,6.52,6.52,0,0,0,1.13.68l.3.13a5.15,5.15,0,0,0,1,.32,7.23,7.23,0,0,0,1.33.2,10.05,10.05,0,0,0,1.33-.07,6.28,6.28,0,0,0,1.29-.34,6.11,6.11,0,0,0,1.21-.58,6.68,6.68,0,0,0,1.07-.81,6.25,6.25,0,0,0,.88-1,6.46,6.46,0,0,0,.69-1.16,7,7,0,0,0,.44-1.26,6.91,6.91,0,0,0,.12-2.66,6.24,6.24,0,0,0-.32-1.29,5.7,5.7,0,0,0-.58-1.22,6.64,6.64,0,0,0-4.16-3.09ZM218.41,199.47a5.73,5.73,0,0,0-4.23.05,6.14,6.14,0,0,0-3.36,3.39,5.94,5.94,0,0,0,0,4.52,5.71,5.71,0,0,0,3,3l.39.15c5.68,2.09,14.71,2,18.07,1.55l2.25-.32-1.51-1.7c-2.22-2.51-8.65-8.14-14.13-10.45Zm-9.72-7.4-.62-.23a6.9,6.9,0,0,0-8.73,4,6.7,6.7,0,0,0,3.75,8.76l.62.23Zm56.82,27.49-3.38.1a23.13,23.13,0,0,1-15.4-5.38,25.73,25.73,0,0,1-2.86-2.81,16.27,16.27,0,0,1-2.12-3.15,12.55,12.55,0,0,1-1.52-6.89,9.92,9.92,0,0,1,2.67-6.07,7,7,0,0,1,5.61-2.08,5.81,5.81,0,0,1,1.77.43,5.53,5.53,0,0,1,1,.56,4.37,4.37,0,0,1,1.67,2.3,3,3,0,0,1,.16,1.35,3.69,3.69,0,0,1-1.61,2.32,1.11,1.11,0,0,1-1,.09l-2.64-1.07-.71,1.08,2.08,2a3.07,3.07,0,0,0,1,.63,3.78,3.78,0,0,0,2.44.15,6.26,6.26,0,0,0,2.72-1.55,6.65,6.65,0,0,0,1.85-2.8,7.94,7.94,0,0,0,.33-3.3,9.49,9.49,0,0,0-2.68-5.5,9.8,9.8,0,0,0-3.26-2.19,11.09,11.09,0,0,0-2-.63,12.61,12.61,0,0,0-5.91.19,13,13,0,0,0-2.85,1.17,13.85,13.85,0,0,0-2.51,1.81,16.41,16.41,0,0,0-5.15,10.58,18.16,18.16,0,0,0,2.58,10.91,20.68,20.68,0,0,0,3.31,4.24,26.62,26.62,0,0,0,4,3.24,25.67,25.67,0,0,0,3.85,2c.57.24,1.14.45,1.71.65a23.68,23.68,0,0,0,3.93,1,20.22,20.22,0,0,0,10-.92l3.2-1.19Zm62.55-8a10.41,10.41,0,0,0-5.92-.66,9.71,9.71,0,0,0-5.38,3,7.92,7.92,0,0,0-1.62,2.89,6.56,6.56,0,0,0-.11,3.35,6.29,6.29,0,0,0,1.33,2.81,3.82,3.82,0,0,0,1.43,1.06,3.41,3.41,0,0,0,1.82.24l2.86-.48,0-1.29-3-.69a1,1,0,0,1-.58-.59,3.19,3.19,0,0,1-.26-1.49,3.05,3.05,0,0,1,.3-1.31,3.14,3.14,0,0,1,.91-1,4.47,4.47,0,0,1,2.7-.94,5.57,5.57,0,0,1,2.2.44l.64.32a6.81,6.81,0,0,1,3.38,4.88,9.9,9.9,0,0,1-1.32,6.49,12.85,12.85,0,0,1-5.22,4.8,17.51,17.51,0,0,1-3.55,1.37,25.83,25.83,0,0,1-4,.69,23.3,23.3,0,0,1-11.12-1.7,22.73,22.73,0,0,1-4.61-2.61l-2.7-2-.94.9,1.94,2.79a20,20,0,0,0,7.64,6.42q.54.25,1.08.48a24.47,24.47,0,0,0,2.69.95,24.78,24.78,0,0,0,6.1,1,26.52,26.52,0,0,0,5.16-.37,21.49,21.49,0,0,0,5.15-1.6,18.47,18.47,0,0,0,8.4-7.49,16.35,16.35,0,0,0,1.9-11.6,14.74,14.74,0,0,0-1-2.91,13.15,13.15,0,0,0-1.66-2.57,12.52,12.52,0,0,0-4.68-3.49Zm-35.31,8.74a6.93,6.93,0,0,0,.72.26,7.5,7.5,0,0,0,5.87-.64,8.24,8.24,0,0,0,4.16-6.89l.27.12a7.54,7.54,0,0,0,7.56-1.08,8.35,8.35,0,0,0,3-7.94,7.63,7.63,0,0,0,7.86-3.42,8.32,8.32,0,0,0,1.27-5.94,7.73,7.73,0,0,0-1.61-3.64,8,8,0,0,0,3.43-2.72,8.43,8.43,0,0,0,1.55-5.87A7.61,7.61,0,0,0,324,177.4a7.11,7.11,0,0,0-1.67-1,6.85,6.85,0,0,0-2.93-.52,7.71,7.71,0,0,0-4.21-9.1,6.74,6.74,0,0,0-.72-.26,7.74,7.74,0,0,0-9.23,5,6.59,6.59,0,0,0-1.69-1,7.13,7.13,0,0,0-6,.22,7.23,7.23,0,0,0-3.27-2.8,7,7,0,0,0-3.66-.48,7.7,7.7,0,0,0-4.32-8.8,6.12,6.12,0,0,0-.79-.28,7.86,7.86,0,0,0-9.29,5.4,6.69,6.69,0,0,0-1.12-.6,7.6,7.6,0,0,0-8.84,2.52,8.35,8.35,0,0,0-1.77,5.8,7.62,7.62,0,0,0,1.54,4.11,8.32,8.32,0,0,0-5.37,8,7.6,7.6,0,0,0,4.56,6.79l.41.15a8.31,8.31,0,0,0-1.67,8.33,7.43,7.43,0,0,0,4.09,4.33,7.35,7.35,0,0,0,2.11.53,8.13,8.13,0,0,0-.1,8,7.6,7.6,0,0,0,3.61,3.23l.63.23a7.89,7.89,0,0,0,2.51.35,7.26,7.26,0,0,0-.27.7,8.09,8.09,0,0,0,.43,6,7.6,7.6,0,0,0,.84,1.31,7.16,7.16,0,0,0,1,1.08,6.91,6.91,0,0,0,1.25.87,7.6,7.6,0,0,0,.76.37c.21.09.43.17.65.24a7.25,7.25,0,0,0,1.5.3,7.79,7.79,0,0,0,1.53,0,7.48,7.48,0,0,0,2.91-.9,8.18,8.18,0,0,0,3.84-4.71,9.21,9.21,0,0,0,.26-1.13A7.73,7.73,0,0,0,292.75,220.34Zm53.7,19c-5.8-1.41-14.69-.41-18.16.44l-2.22.54,1.67,1.54a50,50,0,0,0,12.41,7.84,23.59,23.59,0,0,0,3.47,1.17,5.71,5.71,0,0,0,4.41-.72,6,6,0,0,0,1.84-8.36,5.65,5.65,0,0,0-2.57-2.17A6.5,6.5,0,0,0,346.45,239.34Zm12.83-.4-.63-.16-3.31,13.3.64.16a6.56,6.56,0,0,0,5-.77,6.88,6.88,0,0,0,3.13-4.29,6.63,6.63,0,0,0-4.83-8.24ZM217.36,169.82l-.63-.23a6.83,6.83,0,0,0-8.61,4,6.66,6.66,0,0,0,3.64,8.74l.62.23Zm147.68,46-.64-.16-3.31,13.31.64.16a6.4,6.4,0,0,0,4.88-.76,6.93,6.93,0,0,0,3.14-4.33,6.84,6.84,0,0,0-3.79-7.92A5.82,5.82,0,0,0,365,215.78Zm-139-68.2-.62-.24a6.8,6.8,0,0,0-8.51,4.1,6.6,6.6,0,0,0,3.54,8.69l.61.23Zm9.51,6.86a4.39,4.39,0,0,0-5.5,2.7,4.3,4.3,0,0,0,2.37,5.61h0a4.39,4.39,0,0,0,5.51-2.72,4.28,4.28,0,0,0-2.21-5.53Zm4.11-10.87a4.37,4.37,0,0,0-5.47,2.71,4.29,4.29,0,0,0,2.34,5.6h0a4.35,4.35,0,0,0,5.48-2.73,4.28,4.28,0,0,0-2.18-5.52Zm118.79,49.15a4.31,4.31,0,0,0-5.16,3.24,4.35,4.35,0,0,0,2.39,5.16,3.46,3.46,0,0,0,.54.19,4,4,0,0,0,3.1-.46,4.58,4.58,0,0,0,2.07-2.8,4.37,4.37,0,0,0-2.4-5.15A3.11,3.11,0,0,0,358.43,192.72Zm12.36-.09-.64-.16-3.3,13.3.64.16a6.22,6.22,0,0,0,4.75-.74,7.06,7.06,0,0,0,3.15-4.37,6.8,6.8,0,0,0-3.71-7.9A5.15,5.15,0,0,0,370.79,192.63Zm-136.1-67.3-.63-.23a6.74,6.74,0,0,0-8.4,4.14,6.56,6.56,0,0,0,3.43,8.65l.62.23Zm77.71,27.52a4.79,4.79,0,0,0-3.64.56,22.23,22.23,0,0,0,.91-2.77,6.21,6.21,0,0,0-.53-4.51,5.24,5.24,0,0,0-2.6-2.39,5.5,5.5,0,0,0-.81-.27,6,6,0,0,0-6.92,4.56,21,21,0,0,0-.49,2.59,4.76,4.76,0,0,0-2-1.65,4.77,4.77,0,0,0-4.55.48,5.69,5.69,0,0,0-1.89,7.3,24.32,24.32,0,0,0,5.43,6.34,14.09,14.09,0,0,0,3.73,2.66,6.5,6.5,0,0,0,.62.22,6.21,6.21,0,0,0,2.61.24,31.71,31.71,0,0,0,8.13-2.1,18.11,18.11,0,0,0,3.09-1.56,5.67,5.67,0,0,0,1.93-7.28,4.68,4.68,0,0,0-2.36-2.2C312.84,153,312.63,152.92,312.4,152.85Zm-68.65-20.16a4.37,4.37,0,0,0-5.44,2.73,4.29,4.29,0,0,0,2.31,5.59h0a4.35,4.35,0,0,0,5.45-2.74,4.27,4.27,0,0,0-2.15-5.51Zm117.6,48.78a4.47,4.47,0,0,0-2.77,8.41,4.27,4.27,0,0,0,.54.18,4,4,0,0,0,3.05-.45,4.58,4.58,0,0,0,2.08-2.81,4.37,4.37,0,0,0-2.37-5.15A4.72,4.72,0,0,0,361.35,181.47ZM247.86,121.82a4.34,4.34,0,0,0-5.4,2.74,4.25,4.25,0,0,0,2.26,5.57h0a4.33,4.33,0,0,0,5.41-2.76,4.23,4.23,0,0,0-2.11-5.49Zm116.4,48.4a4.31,4.31,0,0,0-5.1,3.26,4.36,4.36,0,0,0,2.34,5.16,4.72,4.72,0,0,0,.53.18,4,4,0,0,0,3-.45,4.6,4.6,0,0,0,2.08-2.82,4.36,4.36,0,0,0-2.35-5.15A4.56,4.56,0,0,0,364.26,170.22ZM257.78,125.41a4.33,4.33,0,0,0-5.38,2.78,4.27,4.27,0,0,0,2.31,5.55h0a4.33,4.33,0,0,0,5.39-2.79,4.26,4.26,0,0,0-2.14-5.47Zm118.77,44.07-.64-.16-3.31,13.3.64.16a6,6,0,0,0,4.62-.73,7.13,7.13,0,0,0,3.17-4.41,6.75,6.75,0,0,0-3.63-7.88A6,6,0,0,0,376.55,169.48ZM267.7,128.9a4.45,4.45,0,0,0-3,8.35h0a4.47,4.47,0,0,0,3.21-8.28Zm9.95,3.4a4.46,4.46,0,0,0-2.92,8.39h0a4.46,4.46,0,0,0,3.16-8.29Zm59.13,18.41a4.47,4.47,0,0,0-2.89,8.38,3.66,3.66,0,0,0,.43.15,3.88,3.88,0,0,0,3-.36,4.64,4.64,0,0,0,2.17-2.78,4.33,4.33,0,0,0-2.27-5.24Zm10.1,2.84A4.48,4.48,0,0,0,344,162l.46.16a3.93,3.93,0,0,0,3-.4,4.6,4.6,0,0,0,2.14-2.8,4.32,4.32,0,0,0-2.29-5.2A3.57,3.57,0,0,0,346.88,153.55ZM357,156.3a4.48,4.48,0,0,0-2.8,8.41,4.75,4.75,0,0,0,.49.17,4,4,0,0,0,3-.42,4.59,4.59,0,0,0,2.11-2.82,4.34,4.34,0,0,0-2.31-5.17A3.39,3.39,0,0,0,357,156.3ZM240.62,110.1l5.23,2,.23-.61a7.2,7.2,0,0,0,0-5.13,6,6,0,0,0-3.21-3.37,6.15,6.15,0,0,0-1.38-.38,5.89,5.89,0,0,0-1.25,0,7.38,7.38,0,0,0-1.23.22,6.72,6.72,0,0,0-1.18.46,7.41,7.41,0,0,0-3.46,3.84,7.2,7.2,0,0,0-.07,5.15,6.3,6.3,0,0,0,.57,1.13,5.65,5.65,0,0,0,1.74,1.77,6.54,6.54,0,0,0,1,.54l.67.25ZM367.17,159a4.27,4.27,0,0,0-5.06,3.26,4.32,4.32,0,0,0,2.31,5.15,3.31,3.31,0,0,0,.53.18,3.92,3.92,0,0,0,3-.44,4.67,4.67,0,0,0,2.09-2.84,4.37,4.37,0,0,0-2.33-5.14A3.16,3.16,0,0,0,367.17,159ZM262.38,110.07c-3.2-1.15-6.89.79-8.22,4.32l-.23.62.63.23Q259.8,117.13,265,119l.62.21.22-.61a6.59,6.59,0,0,0-3.48-8.52Zm19.76,6.87c-3.23-1.09-6.88.91-8.14,4.46l-.22.63.63.21q5.26,1.82,10.54,3.57l.62.21.21-.62c1.16-3.4-.27-7.06-3.26-8.31ZM302,123.49c-3.25-1-6.86,1-8.05,4.6l-.21.63.63.2q5.29,1.72,10.59,3.4l.63.19.2-.62c1.08-3.38-.38-7-3.33-8.23Zm19.94,6.21c-3.26-1-6.83,1.14-7.95,4.73l-.2.64.63.19q5.31,1.63,10.64,3.22l.63.18.19-.62a6.6,6.6,0,0,0-3.38-8.14Zm20,5.88c-3.27-.93-6.8,1.26-7.86,4.87l-.19.63.64.19q5.34,1.54,10.69,3l.63.17.18-.63a6.66,6.66,0,0,0-3.44-8A5,5,0,0,0,342,135.58Zm41.17,11h0a5.75,5.75,0,0,0-2.05-.44,5.48,5.48,0,0,0-1.23.1,6.5,6.5,0,0,0-1.19.36,7,7,0,0,0-1.13.61,8.35,8.35,0,0,0-1,.82,8.67,8.67,0,0,0-.85,1,8.33,8.33,0,0,0-.63,1.14,7.72,7.72,0,0,0-.44,1.25l-.16.64,5.38,1.35-1.5,6,.64.16a5.73,5.73,0,0,0,1.23.16,5.61,5.61,0,0,0,1.25-.1,6.6,6.6,0,0,0,1.2-.36,6.84,6.84,0,0,0,1.1-.6,6.11,6.11,0,0,0,1-.85,7.08,7.08,0,0,0,.81-1,6.88,6.88,0,0,0,1.07-2.41,7.55,7.55,0,0,0,.21-1.32,7.11,7.11,0,0,0-.05-1.31,7.64,7.64,0,0,0-.26-1.28,6.3,6.3,0,0,0-.49-1.2,6.85,6.85,0,0,0-.7-1.05,6.1,6.1,0,0,0-.88-.88,5,5,0,0,0-1.05-.67Zm-21-5.5c-3.29-.88-6.77,1.37-7.77,5l-.17.63.64.18q5.35,1.45,10.73,2.86l.63.16.17-.63a6.68,6.68,0,0,0-3.49-8A6.44,6.44,0,0,0,362.1,141.12Z"/>
            <path class="banner purple-banner" d="M863.47,205.93a11.31,11.31,0,0,0,2-2.34.69.69,0,0,0-.21-.88l-.43-.08a.64.64,0,0,0-.19.19A13,13,0,0,0,863.47,205.93Z"/>
            <path class="banner purple-banner" d="M857.17,203.09a18.85,18.85,0,0,0-.25-5,1.2,1.2,0,0,0-.41-.66l-.24-.12a.72.72,0,0,0-1,.32,1.09,1.09,0,0,0-.1.78A19.13,19.13,0,0,0,857.17,203.09Z"/>
            <path class="banner purple-banner" d="M853.07,207.83a15.2,15.2,0,0,0-2.13-2.17l-.35-.24c-.37,0-.46.06-.52.18a.71.71,0,0,0,.23.89,10.57,10.57,0,0,0,1.9,1C852.48,207.61,852.77,207.72,853.07,207.83Z"/>
            <path class="banner purple-banner" d="M869.1,264.75c4.58-4.95,18.76-23.24,15.91-35.6-.5-2.27-1.88-6.39-5.55-8.73a9.23,9.23,0,0,0-1.35-.72,7.93,7.93,0,0,0-4.13-.59l-.45.08a8.42,8.42,0,0,0-4.95,3.65,23.9,23.9,0,0,0-3.84,14.58,1.18,1.18,0,0,1-1,1.26l-.19,0-.47-.1a1.24,1.24,0,0,1-.68-.75,26.36,26.36,0,0,0-9.31-12.5,12.08,12.08,0,0,0-2.18-1.21,8.1,8.1,0,0,0-3.93-.66,7.28,7.28,0,0,0-5,3c-2.51,3.32-2.19,7.61-1.78,9.87C842.37,248.88,862.88,261.56,869.1,264.75Z"/>
            <path class="banner purple-banner" d="M788.89,317.35a12.25,12.25,0,0,1-1.26-.62,11.43,11.43,0,0,1-1.93-1.33,12.37,12.37,0,0,1-1.62-1.7,13,13,0,0,1-1.28-2,13.52,13.52,0,0,1-.87-2.16,11.37,11.37,0,0,1-.45-2.28,11,11,0,0,1,0-2.3,12.67,12.67,0,0,1,.43-2.24,12.36,12.36,0,0,1,.88-2.1,11.08,11.08,0,0,1,1.23-1.88,11.71,11.71,0,0,1,1.59-1.57,12.49,12.49,0,0,1,1.87-1.22,12.35,12.35,0,0,1,1.3-.55l2.17-.8-2.27-.46a11.74,11.74,0,0,1-2.16-.67,12.15,12.15,0,0,1-7.36-10.08,11.39,11.39,0,0,1,7.08-11.85l2.1-.79-2.19-.47a11.4,11.4,0,0,1-2-.63,12.18,12.18,0,0,1-7.32-10.13,11.39,11.39,0,0,1,6.92-11.85l2.05-.79-2.14-.47a10.88,10.88,0,0,1-1.86-.59,12.35,12.35,0,0,1-7.27-10.18c-.5-5.22,2.28-10.09,6.75-11.83l2-.79-2.1-.47a9.9,9.9,0,0,1-1.75-.56h0a12.37,12.37,0,0,1-7.22-10.23c-.5-5.25,2.23-10.11,6.66-11.83l2-.78-2.1-.48a10.54,10.54,0,0,1-1.73-.55,10.92,10.92,0,0,1-3.23-2.11,13.37,13.37,0,0,1-1.48-1.69,12.77,12.77,0,0,1-1.18-2,13.45,13.45,0,0,1-.82-2.18,13,13,0,0,1-.43-2.28,13.39,13.39,0,0,1,.37-4.56,11.17,11.17,0,0,1,.77-2.1,11.55,11.55,0,0,1,1.1-1.86,9.29,9.29,0,0,1,11.32-3.18,11,11,0,0,1,3.25,2.12,11.61,11.61,0,0,1,1.5,1.67,13.67,13.67,0,0,1,1.2,2l1.16,2.68.39-2.13c.9-4.84,4.44-8.36,8.81-8.76a9.5,9.5,0,0,1,4.59.73,12.23,12.23,0,0,1,6.21,6.24l.89,2,.36-2.12c.81-4.83,4.28-8.39,8.64-8.87a9.62,9.62,0,0,1,4.77.72,12.39,12.39,0,0,1,6.16,6.08l.93,1.93.32-2.12c.73-4.85,4.14-8.48,8.49-9a9.59,9.59,0,0,1,5,.71,12.28,12.28,0,0,1,6.11,5.9l1,1.92.27-2.13c.64-4.86,4-8.54,8.33-9.16a9.75,9.75,0,0,1,5.14.7,12.34,12.34,0,0,1,6.06,5.72l1,1.9.24-2.13c.56-4.88,3.84-8.61,8.17-9.31a9.87,9.87,0,0,1,5.34.68,12.42,12.42,0,0,1,6,5.56l1,1.89.21-2.14c.47-4.89,3.68-8.69,8-9.45a9.91,9.91,0,0,1,5.53.66,12.56,12.56,0,0,1,6,5.42l1.09,1.7s.17-2.53.2-2.71a12.59,12.59,0,0,1,.49-2.18,10.87,10.87,0,0,1,.88-2,10.56,10.56,0,0,1,1.22-1.73,9.52,9.52,0,0,1,1.52-1.38,9.11,9.11,0,0,1,5.69-1.78,10,10,0,0,1,2.06.28,11.18,11.18,0,0,1,1.64.53l.37.17a11.1,11.1,0,0,1,1.91,1.12,12,12,0,0,1,1.71,1.5,12.15,12.15,0,0,1,1.45,1.8,13.19,13.19,0,0,1,1.13,2.06,12.52,12.52,0,0,1,.76,2.21,12.07,12.07,0,0,1,.35,2.3,12.33,12.33,0,0,1,0,2.28,11.56,11.56,0,0,1-.48,2.19,11.13,11.13,0,0,1-.85,2,10.32,10.32,0,0,1-1.22,1.73,10,10,0,0,1-1.55,1.41,10.49,10.49,0,0,1-1.09.69l-1.88,1,2.13.21a10.74,10.74,0,0,1,3.1.8,12.82,12.82,0,0,1,7.33,8.79c1.28,5.15-.77,10.33-5,12.61l-1.9,1,2.15.21a11.1,11.1,0,0,1,3.2.82,12.77,12.77,0,0,1,7.34,8.73A11.1,11.1,0,0,1,943,225.1l-1.94,1,2.19.2a11.31,11.31,0,0,1,3.35.85,12.73,12.73,0,0,1,7.35,8.67,11.13,11.13,0,0,1-5.32,12.69l-2,1,2.23.19a11.88,11.88,0,0,1,3.53.88,12.68,12.68,0,0,1,7.34,8.61A11.12,11.12,0,0,1,954.19,272l-2.06,1.05,2.3.19a13.3,13.3,0,0,1,1.43.18,13.88,13.88,0,0,1,2.22.67,14.65,14.65,0,0,1,2.08,1.09,13.14,13.14,0,0,1,1.86,1.48,12.62,12.62,0,0,1,1.54,1.79,12.07,12.07,0,0,1,1.18,2,11.47,11.47,0,0,1,.78,2.2,11.3,11.3,0,0,1,.33,2.29,11.51,11.51,0,0,1-.11,2.28,11.94,11.94,0,0,1-.58,2.21,11.52,11.52,0,0,1-1,2,10.67,10.67,0,0,1-1.4,1.78,11.51,11.51,0,0,1-1.72,1.44,11.51,11.51,0,0,1-6.51,2,12.19,12.19,0,0,1-2.32-.24,14.26,14.26,0,0,1-2.25-.68,13,13,0,0,1-2.09-1.11,11.64,11.64,0,0,1-1.84-1.49,14.34,14.34,0,0,1-1.52-1.8L943.09,289l-.2,1.94a11,11,0,0,1-9.14,9.8A11.9,11.9,0,0,1,927,300a12.46,12.46,0,0,1-5.91-5.17l-1-1.68-.24,1.93a11,11,0,0,1-9.31,9.58,11.86,11.86,0,0,1-6.49-.79,12.34,12.34,0,0,1-6-5.35l-1-1.69-.28,1.92a11.06,11.06,0,0,1-9.48,9.42,11.9,11.9,0,0,1-6.28-.82,12.36,12.36,0,0,1-6.09-5.52l-.92-1.72-.31,1.92a11,11,0,0,1-9.63,9.25,11.78,11.78,0,0,1-6.06-.84,12.35,12.35,0,0,1-6.17-5.71l-.89-1.73-.35,1.91a11.08,11.08,0,0,1-9.79,9.09,12,12,0,0,1-5.85-.86,12.27,12.27,0,0,1-6.25-5.9L828,305.5l-.39,1.9a11.1,11.1,0,0,1-10,8.92,11.84,11.84,0,0,1-5.63-.88,12.2,12.2,0,0,1-6.35-6.12l-.85-1.73s-.5,2.39-.56,2.59a12.12,12.12,0,0,1-.83,2.12,11.84,11.84,0,0,1-1.24,1.89,11.45,11.45,0,0,1-1.6,1.59,12.24,12.24,0,0,1-1.89,1.23,11.23,11.23,0,0,1-4.37,1.24,11.75,11.75,0,0,1-2.3-.06,12.54,12.54,0,0,1-2.26-.51C789.46,317.58,789.18,317.47,788.89,317.35Zm10.86-12-6.12.48L793,299.6l-.64.06a6.55,6.55,0,0,0-1.29.24,5.92,5.92,0,0,0-1.24.48,8.21,8.21,0,0,0-1.1.71,8,8,0,0,0-.92.92,5.84,5.84,0,0,0-.75,1.13,7.77,7.77,0,0,0-.49,1.22,6.61,6.61,0,0,0-.26,1.31,7.61,7.61,0,0,0,0,1.35,7.34,7.34,0,0,0,.26,1.32,7,7,0,0,0,.52,1.26,8.28,8.28,0,0,0,.73,1.12,6.41,6.41,0,0,0,1,1,6.87,6.87,0,0,0,6.32,1.42,7.6,7.6,0,0,0,1.24-.49,7,7,0,0,0,1.1-.73,6.48,6.48,0,0,0,1-.94,6.86,6.86,0,0,0,.73-1.11,6.25,6.25,0,0,0,.48-1.23,6.41,6.41,0,0,0,.25-1.31,6.77,6.77,0,0,0,0-1.35Zm23.07-2-.63.06q-6.11.58-12.2,1.12l-.68.06.08.67a7.1,7.1,0,0,0,4.31,5.71,6.71,6.71,0,0,0,3.28.51,6.46,6.46,0,0,0,4.53-2.42,6.68,6.68,0,0,0,1.4-5.08Zm-32.38-27.56-.64.05a6.38,6.38,0,0,0-4.41,2.27,6.79,6.79,0,0,0-1.52,5.08,7.09,7.09,0,0,0,4.29,5.85,6.69,6.69,0,0,0,3.05.51l.68-.05Zm55.44,25.15-.64.07q-6.09.69-12.18,1.32l-.68.07.09.68a7.15,7.15,0,0,0,4.31,5.59,7,7,0,0,0,3.4.5,6.52,6.52,0,0,0,4.49-2.5,6.69,6.69,0,0,0,1.3-5.1Zm-25.47-19c-3.35-1.41-12-3.87-17.9-3.47a5.46,5.46,0,0,0-3.75,1.85,5.85,5.85,0,0,0-1.44,4.5,6.23,6.23,0,0,0,2.1,4.07,5.87,5.87,0,0,0,4.5,1.44c6-.5,14.05-4.35,16.81-6.2l1.87-1.25Zm48.5,16.25-.63.08q-6.09.78-12.17,1.53l-.68.08.1.67a7.22,7.22,0,0,0,4.3,5.48,7,7,0,0,0,3.52.49,6.51,6.51,0,0,0,4.45-2.58,6.65,6.65,0,0,0,1.21-5.13Zm-15.13-21.3-3,1.52a22.82,22.82,0,0,1-16.24,1.59,26.3,26.3,0,0,1-3.83-1.34h0a17.49,17.49,0,0,1-3.35-2,13.45,13.45,0,0,1-4.55-5.65,9.93,9.93,0,0,1-.42-6.63,6.52,6.52,0,0,1,4-4.24,5.78,5.78,0,0,1,2.93-.27,4.31,4.31,0,0,1,1,.29,4.79,4.79,0,0,1,1.61,1.11,3.44,3.44,0,0,1,.77,1.18,3.07,3.07,0,0,1,.11,1.34,3.14,3.14,0,0,1-.46,1.43,1.05,1.05,0,0,1-.83.5l-2.87.14-.19,1.28,2.79.95a3.52,3.52,0,0,0,3.41-.73,6,6,0,0,0,1.72-2.57,6.51,6.51,0,0,0,.36-3.33,8.4,8.4,0,0,0-1.22-3.12,10.19,10.19,0,0,0-4.48-3.69l-.44-.17a10.49,10.49,0,0,0-6-.34,12.13,12.13,0,0,0-5.18,2.67,12.31,12.31,0,0,0-2,2.27,13.89,13.89,0,0,0-1.41,2.71,16.46,16.46,0,0,0,.3,11.79,19.25,19.25,0,0,0,7.32,8.8,22.2,22.2,0,0,0,3.68,2c.4.16.81.32,1.22.46a27,27,0,0,0,5.07,1.25,25.34,25.34,0,0,0,6.21.09,23.68,23.68,0,0,0,3.94-.78,19.3,19.3,0,0,0,8.51-5.06l2.31-2.43ZM787.9,251.88l-.64.05a6.22,6.22,0,0,0-4.29,2.22,6.86,6.86,0,0,0-1.53,5.12,7.13,7.13,0,0,0,4.28,5.89,6.54,6.54,0,0,0,3,.49l.68,0Zm104,43-.63.1q-6.07.88-12.15,1.73l-.68.09.12.67a7.21,7.21,0,0,0,4.28,5.36,6.93,6.93,0,0,0,3.65.48,6.51,6.51,0,0,0,4.41-2.66,6.67,6.67,0,0,0,1.12-5.14Zm23-3.58-.63.1q-6.06,1-12.13,1.94l-.67.1.13.68a7.13,7.13,0,0,0,4.26,5.23,6.82,6.82,0,0,0,3.78.46A6.45,6.45,0,0,0,914,297.1a6.66,6.66,0,0,0,1-5.16ZM785.36,228l-.64,0a6.06,6.06,0,0,0-4.17,2.17,7,7,0,0,0-1.53,5.17,7.21,7.21,0,0,0,4.25,5.89,6.17,6.17,0,0,0,2.87.48l.68-.05Zm93.88,37.92a7.18,7.18,0,0,0,5-3.08,8.12,8.12,0,0,0,.56-8,7.2,7.2,0,0,0,6.56-4.2,8.41,8.41,0,0,0-1-8.46,7.3,7.3,0,0,0,5.46-6.45,8.54,8.54,0,0,0-1.61-5.92,8.28,8.28,0,0,0-3.14-2.63,7.55,7.55,0,0,0,1.83-3.93,8.64,8.64,0,0,0-1.33-6,8.22,8.22,0,0,0-3.69-3.11,6.14,6.14,0,0,0-1.19-.39,6.9,6.9,0,0,0-4.85.58,8.54,8.54,0,0,0-4.9-5.93,7.11,7.11,0,0,0-3.83-.5,6.88,6.88,0,0,0-4.59,2.83,8.08,8.08,0,0,0-1.4,5.59,6.92,6.92,0,0,0-7.2,2.52,8.57,8.57,0,0,0-1.12-.59,7,7,0,0,0-6.62.55,8.34,8.34,0,0,0-4.79-5.61,7.37,7.37,0,0,0-3.95-.5,6.94,6.94,0,0,0-4.55,2.94,8.14,8.14,0,0,0-1.28,5.88,6.87,6.87,0,0,0-4.68,1,7.44,7.44,0,0,0-3.33,5,8.58,8.58,0,0,0,1.09,6,8.11,8.11,0,0,0,3.29,3.08,8.32,8.32,0,0,0,2.89,13.19,7.6,7.6,0,0,0,3.66.56,8.52,8.52,0,0,0,2.34,8.28,8.05,8.05,0,0,0,2.44,1.6,7.37,7.37,0,0,0,5.36.18,8.47,8.47,0,0,0,3.6,7.35,7.83,7.83,0,0,0,5.37,1.35,7.23,7.23,0,0,0,2.44-.76,7.25,7.25,0,0,0,.09.8,8.27,8.27,0,0,0,4.5,6.11l.47.21a8.68,8.68,0,0,0,1,.34,7.45,7.45,0,0,0,1.51.26,7.09,7.09,0,0,0,1.54,0,7.19,7.19,0,0,0,1.49-.36A6.65,6.65,0,0,0,874,275a7.17,7.17,0,0,0,1.21-.92,7,7,0,0,0,1-1.15,7.92,7.92,0,0,0,1.26-5.9,8.59,8.59,0,0,0-.28-1.11A7.33,7.33,0,0,0,879.24,265.94Zm58.52,21.4-.62.11q-6,1.1-12.11,2.15l-.67.12.14.67a7.16,7.16,0,0,0,4.25,5.11,6.88,6.88,0,0,0,3.9.45,6.54,6.54,0,0,0,4.32-2.81,6.65,6.65,0,0,0,.93-5.19ZM797,230.26a3.93,3.93,0,0,0-2.72,1.44,4.51,4.51,0,0,0-.95,3.35,4.62,4.62,0,0,0,2.75,3.77,4.09,4.09,0,0,0,1.92.31,4,4,0,0,0,2.73-1.46,4.42,4.42,0,0,0,.94-3.35,4.63,4.63,0,0,0-2.76-3.75A3.93,3.93,0,0,0,797,230.26Zm114.65,13.92a13,13,0,0,0-5.48-1,10.17,10.17,0,0,0-5.64,1.9,9.22,9.22,0,0,0-3.46,5,7.89,7.89,0,0,0-.11,3.31,6.83,6.83,0,0,0,1.44,3.08,6.94,6.94,0,0,0,2.6,2,3.57,3.57,0,0,0,3.4-.26l2.34-1.64-.52-1.18-2.79.62a1.24,1.24,0,0,1-.69-.07,1.34,1.34,0,0,1-.32-.21,3.25,3.25,0,0,1-.94-1.26,3.17,3.17,0,0,1-.35-1.31,3,3,0,0,1,.35-1.31,4.1,4.1,0,0,1,2-2,5.46,5.46,0,0,1,2.89-.51,7.34,7.34,0,0,1,2.25.55,7.16,7.16,0,0,1,3.09,2.46,10.21,10.21,0,0,1,1.82,6.46,12.16,12.16,0,0,1-2.46,6.55,16.16,16.16,0,0,1-2.55,2.75,23.8,23.8,0,0,1-3.24,2.3,22.82,22.82,0,0,1-16.1,2.73l-3.35-.67-.46,1.22,3,1.71a17.64,17.64,0,0,0,2,1,21.09,21.09,0,0,0,7.81,1.62,24.22,24.22,0,0,0,4-.29,24.88,24.88,0,0,0,5.92-1.72,25.87,25.87,0,0,0,4.47-2.53,20,20,0,0,0,3.89-3.63,17.65,17.65,0,0,0,4.09-10.37A16.73,16.73,0,0,0,917,248.18,15.72,15.72,0,0,0,914.7,246a14.38,14.38,0,0,0-2.68-1.62Zm-116-25.53a3.8,3.8,0,0,0-2.68,1.43,4.48,4.48,0,0,0-1,3.36,4.61,4.61,0,0,0,2.75,3.77,3.93,3.93,0,0,0,1.88.31,3.87,3.87,0,0,0,2.7-1.44,4.51,4.51,0,0,0,.95-3.37,4.64,4.64,0,0,0-2.76-3.76A3.94,3.94,0,0,0,795.65,218.65Zm156.87,59.56-.68.13,1.44,6.07-6,1.17.16.67a6.69,6.69,0,0,0,1.11,2.45,6.36,6.36,0,0,0,.88,1.05,7.05,7.05,0,0,0,2.28,1.5h0a6.42,6.42,0,0,0,1.31.4,8.58,8.58,0,0,0,1.34.14,7.42,7.42,0,0,0,1.34-.12,7.09,7.09,0,0,0,1.29-.4,7.84,7.84,0,0,0,1.17-.63,6.89,6.89,0,0,0,1-.85,6.57,6.57,0,0,0,.82-1,6.49,6.49,0,0,0,.6-1.21,6.19,6.19,0,0,0,.33-1.28,6.71,6.71,0,0,0,.08-1.35,7.5,7.5,0,0,0-.19-1.32,6.9,6.9,0,0,0-.45-1.3,5.87,5.87,0,0,0-.68-1.16,6.23,6.23,0,0,0-.87-1,5.8,5.8,0,0,0-1.09-.86,7.26,7.26,0,0,0-1.13-.61A7.06,7.06,0,0,0,952.52,278.21Zm-169.7-74-.63.05a5.85,5.85,0,0,0-4.06,2.11,7,7,0,0,0-1.53,5.21,7.22,7.22,0,0,0,4.22,5.92,6.07,6.07,0,0,0,2.78.46l.66-.3Zm152.75,56.38c-5.87,1.18-13.41,5.86-16.15,8.1l-1.74,1.43,2.18.69c3.27,1,12.27,2.6,18.46,1.45a5.51,5.51,0,0,0,3.65-2.54,5.88,5.88,0,0,0,.67-4.47,6.4,6.4,0,0,0-2.87-3.9,6.63,6.63,0,0,0-.8-.4A5.85,5.85,0,0,0,935.57,260.55ZM794.3,207a3.81,3.81,0,0,0-2.65,1.4,4.56,4.56,0,0,0-1,3.39,4.71,4.71,0,0,0,2.75,3.78,3.93,3.93,0,0,0,1.85.3,3.85,3.85,0,0,0,2.67-1.43,4.48,4.48,0,0,0,.94-3.38,4.67,4.67,0,0,0-2.75-3.77A3.82,3.82,0,0,0,794.3,207ZM793,195.42a3.83,3.83,0,0,0-2.62,1.4,4.57,4.57,0,0,0-1,3.4,4.69,4.69,0,0,0,2.74,3.78,3.82,3.82,0,0,0,4.46-1.11,4.53,4.53,0,0,0,.94-3.4,4.64,4.64,0,0,0-2.74-3.77A3.83,3.83,0,0,0,793,195.42Zm154,59.32-.67.13,3.19,13.47.62-.13a6.32,6.32,0,0,0,4.16-2.81,6.69,6.69,0,0,0,.84-5.25,7.29,7.29,0,0,0-4.24-5A6.71,6.71,0,0,0,947,254.74ZM781.09,187.81l5.54-.42-.07-.68a7.55,7.55,0,0,0-2.32-4.66,6.28,6.28,0,0,0-1.89-1.23,5.68,5.68,0,0,0-3.91-.23,5.41,5.41,0,0,0-1.13.48,7,7,0,0,0-1,.72,5.75,5.75,0,0,0-.84.92,7.09,7.09,0,0,0-1.31,5,7.55,7.55,0,0,0,2.28,4.69,7.06,7.06,0,0,0,1,.78,6.14,6.14,0,0,0,1,.51l.11,0a5.59,5.59,0,0,0,1.22.31,5.68,5.68,0,0,0,1.23.05l.68-.05Zm22.34,6.7a3.76,3.76,0,0,0-2.61,1.41,4.58,4.58,0,0,0-.93,3.41,4.66,4.66,0,0,0,2.74,3.75,3.88,3.88,0,0,0,1.87.29,3.8,3.8,0,0,0,2.62-1.44,4.51,4.51,0,0,0,.91-3.4,4.66,4.66,0,0,0-2.75-3.73A3.82,3.82,0,0,0,803.43,194.51Zm10.45-1a3.77,3.77,0,0,0-2.6,1.44,4.58,4.58,0,0,0-.89,3.41,4.66,4.66,0,0,0,2.74,3.71,3.89,3.89,0,0,0,1.9.3,3.8,3.8,0,0,0,2.61-1.46,4.53,4.53,0,0,0,.88-3.41,4.66,4.66,0,0,0-2.75-3.7A3.75,3.75,0,0,0,813.88,193.5Zm10.45-1.09a3.79,3.79,0,0,0-2.59,1.46,4.55,4.55,0,0,0-.86,3.42,4.65,4.65,0,0,0,2.74,3.67,3.9,3.9,0,0,0,1.93.29,3.77,3.77,0,0,0,2.6-1.47,4.55,4.55,0,0,0,.85-3.42,4.69,4.69,0,0,0-2.75-3.66A3.88,3.88,0,0,0,824.33,192.41Zm40.58,4a4.6,4.6,0,0,0-3,2.07,23.27,23.27,0,0,0-.47-3,6.57,6.57,0,0,0-2.54-3.85,6,6,0,0,0-1.16-.65,5.29,5.29,0,0,0-3.11-.32,5.21,5.21,0,0,0-3.32,2.31,6.29,6.29,0,0,0-.79,4.78,22.23,22.23,0,0,0,.74,2.52l-.52-.26a4.65,4.65,0,0,0-2.77-.27,4.59,4.59,0,0,0-3.1,2.27,5.78,5.78,0,0,0,1.66,7.41,19.46,19.46,0,0,0,3.88,2.12,36.76,36.76,0,0,0,3.9,1.36,12.82,12.82,0,0,0,5.22.77,6.14,6.14,0,0,0,2.45-.89,30,30,0,0,0,6.32-5.34,17,17,0,0,0,2-2.73,5.78,5.78,0,0,0-1.62-7.43,5.6,5.6,0,0,0-1.06-.61A4.87,4.87,0,0,0,864.91,196.42Zm-64.45-17.79a5.66,5.66,0,0,0-3.91,2.13,7.07,7.07,0,0,0-1.44,5.28l.07.64.64-.06q5.53-.48,11.07-1l.67-.06-.08-.68a7.27,7.27,0,0,0-4.24-5.8A5.8,5.8,0,0,0,800.46,178.63Zm140.93,52.65-.68.13,3.2,13.47.62-.12a6.14,6.14,0,0,0,4-2.75,6.81,6.81,0,0,0,.84-5.29,7.35,7.35,0,0,0-4.25-5A6.45,6.45,0,0,0,941.39,231.28ZM821.24,176.56a5.68,5.68,0,0,0-3.87,2.2,7,7,0,0,0-1.35,5.31l.09.63.63-.07q5.53-.57,11-1.19l.68-.08-.1-.67a7.26,7.26,0,0,0-4.24-5.69A5.68,5.68,0,0,0,821.24,176.56Zm103.48,36.59a3.9,3.9,0,0,0-2.56,1.7,4.51,4.51,0,0,0-.6,3.45,4.69,4.69,0,0,0,2.74,3.32,4.14,4.14,0,0,0,2.35.27,3.93,3.93,0,0,0,2.58-1.73,4.43,4.43,0,0,0,.58-3.44,4.71,4.71,0,0,0-2.74-3.31A4.06,4.06,0,0,0,924.72,213.15Zm-82.71-39a5.63,5.63,0,0,0-3.84,2.26,7.06,7.06,0,0,0-1.25,5.33l.1.63.63-.07q5.52-.67,11-1.39l.68-.09-.12-.67a7.34,7.34,0,0,0-4.25-5.58A5.83,5.83,0,0,0,842,174.14Zm93.81,33.68-.67.14,3.19,13.46.62-.12a6,6,0,0,0,3.95-2.69,6.9,6.9,0,0,0,.82-5.33,7.37,7.37,0,0,0-4.24-5.06A6.29,6.29,0,0,0,935.82,207.82Zm-13.69-6.12a3.92,3.92,0,0,0-2.54,1.7,4.54,4.54,0,0,0-.59,3.45,4.7,4.7,0,0,0,2.73,3.33,4.16,4.16,0,0,0,2.33.26,3.86,3.86,0,0,0,2.55-1.71,4.49,4.49,0,0,0,.58-3.45,4.75,4.75,0,0,0-2.75-3.32A4.08,4.08,0,0,0,922.13,201.7Zm-36.35-17.52a3.75,3.75,0,0,0-2.51,1.59,4.53,4.53,0,0,0-.69,3.46,4.73,4.73,0,0,0,2.74,3.46,3.9,3.9,0,0,0,2.15.27,3.78,3.78,0,0,0,2.53-1.61,4.55,4.55,0,0,0,.67-3.45,4.78,4.78,0,0,0-2.76-3.45A3.82,3.82,0,0,0,885.78,184.18Zm-23-12.82a5.66,5.66,0,0,0-3.79,2.33,7,7,0,0,0-1.16,5.36l.11.62.63-.08q5.51-.76,11-1.58l.68-.1-.13-.67a7.36,7.36,0,0,0-4.25-5.46A5.85,5.85,0,0,0,862.73,171.36Zm33.44,11.12a3.79,3.79,0,0,0-2.5,1.61,4.55,4.55,0,0,0-.65,3.47,4.76,4.76,0,0,0,2.74,3.43,4,4,0,0,0,2.18.26,3.8,3.8,0,0,0,2.51-1.62,4.53,4.53,0,0,0,.64-3.48,4.78,4.78,0,0,0-2.75-3.41A4,4,0,0,0,896.17,182.48Zm23.36,7.78a3.82,3.82,0,0,0-2.5,1.67,4.5,4.5,0,0,0-.59,3.47,4.7,4.7,0,0,0,2.74,3.34,4,4,0,0,0,2.28.26,3.85,3.85,0,0,0,2.52-1.68,4.52,4.52,0,0,0,.58-3.48,4.77,4.77,0,0,0-2.74-3.33A4,4,0,0,0,919.53,190.26Zm-13-9.57a3.79,3.79,0,0,0-2.49,1.64,4.58,4.58,0,0,0-.62,3.47,4.78,4.78,0,0,0,2.74,3.39,4,4,0,0,0,2.22.26,3.8,3.8,0,0,0,2.5-1.65,4.5,4.5,0,0,0,.61-3.47,4.74,4.74,0,0,0-2.75-3.38A3.92,3.92,0,0,0,906.55,180.69Zm-23.11-12.46a5.66,5.66,0,0,0-3.77,2.39,7.12,7.12,0,0,0-1.06,5.39l.12.62.63-.1q5.5-.85,11-1.76l.67-.11-.14-.67a7.41,7.41,0,0,0-4.25-5.35A5.86,5.86,0,0,0,883.44,168.23Zm46.82,16.14-.67.13L932.78,198l.62-.12a5.85,5.85,0,0,0,3.83-2.62,7,7,0,0,0,.83-5.37,7.39,7.39,0,0,0-4.24-5.09A6.16,6.16,0,0,0,930.26,184.37Zm-13.32-5.56a3.83,3.83,0,0,0-2.47,1.65,4.54,4.54,0,0,0-.59,3.49,4.71,4.71,0,0,0,2.73,3.35,4,4,0,0,0,2.26.26,3.8,3.8,0,0,0,2.48-1.67,4.54,4.54,0,0,0,.58-3.49,4.73,4.73,0,0,0-2.74-3.33A4,4,0,0,0,916.94,178.81Zm-12.85-14.06a5.67,5.67,0,0,0-3.73,2.46,7.09,7.09,0,0,0-1,5.4l.14.62.62-.11q5.49-.94,11-1.94l.67-.13-.15-.67a7.35,7.35,0,0,0-4.24-5.24A6,6,0,0,0,904.09,164.75Zm24.08-3.44h0a7,7,0,0,0-1-.32,6,6,0,0,0-1.24-.17,5.83,5.83,0,0,0-2.41.48,5.24,5.24,0,0,0-1.07.61,6.2,6.2,0,0,0-1.65,1.87,7.1,7.1,0,0,0-.5,1.17,6.64,6.64,0,0,0-.3,1.28,8.25,8.25,0,0,0,0,1.32,7.37,7.37,0,0,0,.18,1.31l.14.62,5.48-1.05,1.45,6.09.62-.12A5.65,5.65,0,0,0,929,174a5.56,5.56,0,0,0,1.08-.62,5.63,5.63,0,0,0,.91-.84,5.74,5.74,0,0,0,.72-1,5.38,5.38,0,0,0,.53-1.21,7.22,7.22,0,0,0,.27-1.26,6.43,6.43,0,0,0,.05-1.32,7.26,7.26,0,0,0-.21-1.32,6.75,6.75,0,0,0-.42-1.27,7.1,7.1,0,0,0-.65-1.18,8.44,8.44,0,0,0-.82-1.05,8.32,8.32,0,0,0-1-.87,7.31,7.31,0,0,0-1.11-.65Z"/>
            <path class="banner green-banner" d="M726.38,211.27a17,17,0,0,0,4.31-3.25,1.37,1.37,0,0,0-.09-1.77,1.1,1.1,0,0,0-.38-.27.87.87,0,0,0-.39-.07.91.91,0,0,0-.67.33A20.13,20.13,0,0,0,726.38,211.27Z"/>
            <path class="banner green-banner" d="M610.18,217.17a.54.54,0,0,0,.22.05,12.53,12.53,0,0,0,3.67-.65,14.17,14.17,0,0,0-3.4-.84c-.46,0-.6.05-.73.17a.83.83,0,0,0-.2.54A.76.76,0,0,0,610.18,217.17Z"/>
            <path class="banner green-banner" d="M719.61,209.65a15.72,15.72,0,0,0,.41-3.86.89.89,0,0,0-.24-.57l-.63,0-.07-.11a.43.43,0,0,0-.1.09.78.78,0,0,0-.19.56A16.68,16.68,0,0,0,719.61,209.65Z"/>
            <path class="banner green-banner" d="M621.94,208.36a16.52,16.52,0,0,0,.73-3.82.8.8,0,0,0-.44-.75.58.58,0,0,0-.58.13.78.78,0,0,0-.21.53A15.94,15.94,0,0,0,621.94,208.36Z"/>
            <path class="banner green-banner" d="M615.19,209.76a21.08,21.08,0,0,0-2.87-5.06,1,1,0,0,0-.39-.29c-.57-.08-.84,0-1,.24a1.26,1.26,0,0,0-.35.86,1.32,1.32,0,0,0,.32.91A17.67,17.67,0,0,0,615.19,209.76Z"/>
            <path class="banner green-banner" d="M731.38,281.05a15.24,15.24,0,0,0,3.67.52c.5,0,.66-.1.78-.24a.79.79,0,0,0-.32-1.21.93.93,0,0,0-.34-.06A14,14,0,0,0,731.38,281.05Z"/>
            <path class="banner green-banner" d="M586,317.3a13.44,13.44,0,0,1-2-1.24,11.44,11.44,0,0,1-1.68-1.59,12.32,12.32,0,0,1-1.33-1.9,12.47,12.47,0,0,1-1-2.11,13.24,13.24,0,0,1-.52-2.26,11.77,11.77,0,0,1-.08-2.31,11.21,11.21,0,0,1,.37-2.27,11.17,11.17,0,0,1,2-4.08,10.64,10.64,0,0,1,1.51-1.67,12.16,12.16,0,0,1,1.82-1.33,12.92,12.92,0,0,1,2-.93,12.32,12.32,0,0,1,1.36-.35l2.29-.47-2.73-1A11.87,11.87,0,0,1,581,282.05a11.54,11.54,0,0,1,8.86-10.66l2.19-.48-2.51-1a11.85,11.85,0,0,1-7.06-11.76,11.54,11.54,0,0,1,8.7-10.67l2.15-.48-2.4-.92a11.82,11.82,0,0,1-7-11.77c.34-5.22,3.85-9.62,8.54-10.69l1.69-.58-1.89-.79a11.79,11.79,0,0,1-6.85-11.79c.33-5.25,3.8-9.65,8.44-10.7l1.7-.58-1.89-.79a10.7,10.7,0,0,1-4.19-3.22,13,13,0,0,1-1.19-1.88,12.75,12.75,0,0,1-.85-2.11A12,12,0,0,1,587,189a12.61,12.61,0,0,1-.07-2.31,12.36,12.36,0,0,1,.35-2.28,13.59,13.59,0,0,1,.73-2.15,12.17,12.17,0,0,1,1.09-2,11.19,11.19,0,0,1,1.39-1.68,9.7,9.7,0,0,1,7.43-2.87,9.31,9.31,0,0,1,2.91.7,10.8,10.8,0,0,1,4.19,3.22,11.11,11.11,0,0,1,1.21,1.87,12.1,12.1,0,0,1,.87,2.09l.73,2.83.72-2c1.65-4.64,5.69-7.59,10.07-7.36a9.28,9.28,0,0,1,3.1.72,11.64,11.64,0,0,1,6.44,7.7l.57,2.07.68-2c1.56-4.64,5.55-7.65,9.92-7.48a9.19,9.19,0,0,1,3.26.72,11.78,11.78,0,0,1,6.43,7.54l.61,2,.65-2c1.48-4.67,5.41-7.75,9.77-7.65a9.25,9.25,0,0,1,3.43.73,11.83,11.83,0,0,1,6.42,7.37l.65,2.05.61-2.06c1.39-4.7,5.26-7.84,9.64-7.82a9.53,9.53,0,0,1,3.59.74,11.71,11.71,0,0,1,6.39,7.21l.69,2,.57-2.06c1.32-4.72,5.13-7.92,9.5-8a9.54,9.54,0,0,1,3.77.75,11.76,11.76,0,0,1,6.36,7l.72,2,.54-2.08c1.23-4.75,5-8,9.35-8.14a9.45,9.45,0,0,1,3.94.74,11.92,11.92,0,0,1,6.36,6.91l.79,1.94.64-2.73a12.6,12.6,0,0,1,.83-2.07,10.85,10.85,0,0,1,1.17-1.83,11.15,11.15,0,0,1,1.47-1.52,9.79,9.79,0,0,1,1.71-1.14,9.49,9.49,0,0,1,1.87-.75,8.81,8.81,0,0,1,4-.17,10.06,10.06,0,0,1,2.14.64,9.6,9.6,0,0,1,1.7.91,12.44,12.44,0,0,1,1.7,1.39,12.73,12.73,0,0,1,1.44,1.72,13.36,13.36,0,0,1,1.14,2,12.9,12.9,0,0,1,.78,2.19,12.22,12.22,0,0,1,.4,2.28,12,12,0,0,1,0,2.32,12.64,12.64,0,0,1-.4,2.24,12.46,12.46,0,0,1-.81,2.08,12.83,12.83,0,0,1-1.16,1.85,10.15,10.15,0,0,1-3.2,2.69,9.47,9.47,0,0,1-1.19.51l-2,.74,2.08.52a10.43,10.43,0,0,1,1.46.49,12.43,12.43,0,0,1,7.26,10.46c.45,5.27-2.38,10.07-6.89,11.7l-2,.73,2.1.52a11.66,11.66,0,0,1,1.51.51,12.45,12.45,0,0,1,7.32,10.43,11.2,11.2,0,0,1-7.05,11.71l-2.07.73,2.13.53a11,11,0,0,1,1.62.54,12.42,12.42,0,0,1,7.38,10.39,11.22,11.22,0,0,1-7.21,11.71L751,273l2.18.53a10.73,10.73,0,0,1,1.74.57,12.45,12.45,0,0,1,7.43,10.35,11.21,11.21,0,0,1-7.44,11.72l-2.2.74,2.26.53a12.64,12.64,0,0,1,1.37.39l.5.2a13.5,13.5,0,0,1,1.57.78,14.09,14.09,0,0,1,1.87,1.38,11.71,11.71,0,0,1,1.58,1.73,12.32,12.32,0,0,1,1.23,2,12.47,12.47,0,0,1,.84,2.17,12,12,0,0,1,.43,2.29,11.88,11.88,0,0,1,0,2.31A11.28,11.28,0,0,1,763,315a12,12,0,0,1-1.29,1.85,10.56,10.56,0,0,1-1.66,1.55,11.63,11.63,0,0,1-1.91,1.17,11.5,11.5,0,0,1-2.13.78,10.91,10.91,0,0,1-2.27.33,11.06,11.06,0,0,1-2.3-.12,12.46,12.46,0,0,1-2.23-.58l-.5-.19a15,15,0,0,1-1.6-.81,11.93,11.93,0,0,1-1.88-1.4,12.21,12.21,0,0,1-1.57-1.73,13.89,13.89,0,0,1-1.21-2c-.08-.17-1-2.54-1-2.54l-.51,1.9a11.12,11.12,0,0,1-10.51,8.32,11.68,11.68,0,0,1-4.87-.91,12.22,12.22,0,0,1-6.58-6.76l-.7-1.81-.54,1.87A11.15,11.15,0,0,1,707,322a11.46,11.46,0,0,1-4.66-.91,12.09,12.09,0,0,1-6.64-6.94l-.67-1.82-.58,1.85a11.17,11.17,0,0,1-10.8,7.9,11.4,11.4,0,0,1-4.46-.91,12.08,12.08,0,0,1-6.7-7.13l-.64-1.83-.6,1.84a11.19,11.19,0,0,1-11,7.72,11.57,11.57,0,0,1-4.26-.9,12,12,0,0,1-6.73-7.31l-.61-1.85-.64,1.83A11.21,11.21,0,0,1,637,321.06a11.36,11.36,0,0,1-4.07-.9,12,12,0,0,1-6.77-7.49l-.57-1.85-.68,1.82A11.26,11.26,0,0,1,613.67,320a11.49,11.49,0,0,1-3.87-.89,12,12,0,0,1-6.83-7.72l-.59-1.77s-.85,2.22-.93,2.39a12.89,12.89,0,0,1-1.16,2,11,11,0,0,1-1.52,1.69A11.78,11.78,0,0,1,597,317a13.67,13.67,0,0,1-2.06.95,12.34,12.34,0,0,1-2.22.52,11.61,11.61,0,0,1-2.29.06,11.83,11.83,0,0,1-2.27-.39,10.14,10.14,0,0,1-1.37-.48Zm11.8-10.72-6.1-.42L592,300l-.65,0a6.41,6.41,0,0,0-1.32,0,7.75,7.75,0,0,0-1.28.3,8.69,8.69,0,0,0-1.21.55,7,7,0,0,0-1,.77,5.18,5.18,0,0,0-.92,1,7.76,7.76,0,0,0-.68,1.12,7.89,7.89,0,0,0-.46,1.25,6.2,6.2,0,0,0-.2,1.34,6.65,6.65,0,0,0,0,1.34,6.86,6.86,0,0,0,.32,1.32,8.69,8.69,0,0,0,.55,1.21,6.73,6.73,0,0,0,3.33,3,6.91,6.91,0,0,0,2.12.51,7.65,7.65,0,0,0,1.35,0,8.31,8.31,0,0,0,1.29-.3,6.93,6.93,0,0,0,1.2-.56,6.69,6.69,0,0,0,1.09-.79,7.5,7.5,0,0,0,.89-1,6.4,6.4,0,0,0,.67-1.14,6.67,6.67,0,0,0,.46-1.27,6.46,6.46,0,0,0,.19-1.33Zm23.07,1.34-.65,0c-4.06-.2-8.13-.43-12.2-.66l-.67,0,0,.67a7,7,0,0,0,4.26,6.71,6.77,6.77,0,0,0,2.26.52,6.57,6.57,0,0,0,4.85-1.73,6.72,6.72,0,0,0,2.16-4.79Zm23.08,1-.64,0q-6.1-.21-12.21-.47l-.67,0,0,.67a7.06,7.06,0,0,0,4.28,6.61,6.85,6.85,0,0,0,2.36.52,6.55,6.55,0,0,0,4.82-1.81,6.71,6.71,0,0,0,2.08-4.83Zm-30.18-14.74a5.81,5.81,0,0,0,1.49,4.13,5.67,5.67,0,0,0,2,1.46,5.79,5.79,0,0,0,1.87.43,5.41,5.41,0,0,0,4-1.49,5.64,5.64,0,0,0,1.75-4,21.05,21.05,0,0,0-.29-3.91,40.23,40.23,0,0,0-2.58-9.31c-1.32-3.22-4.16-4.47-6.91-5.7l-1.19-.51a25,25,0,0,0-7.49-2.08,5.33,5.33,0,0,0-4,1.26,5.71,5.71,0,0,0-2,3.95,5.9,5.9,0,0,0,1.32,4.18,5.6,5.6,0,0,0,3.67,2,20.71,20.71,0,0,0-2.54,1.9,6.46,6.46,0,0,0-2.15,4.43,6.61,6.61,0,0,0,1.54,4.72,6.37,6.37,0,0,0,2.44,1.81,6.16,6.16,0,0,0,6.54-1.06,21.66,21.66,0,0,0,2.4-2.57C613.76,293.94,613.75,294.05,613.75,294.15Zm-20.48-18-.65,0a6.37,6.37,0,0,0-4.7,1.6,6.82,6.82,0,0,0-2.3,4.77,7,7,0,0,0,4.19,6.84,6.4,6.4,0,0,0,2.06.49l.67.05ZM667,309.47l-.64,0q-6.1-.1-12.22-.26l-.67,0v.68a7,7,0,0,0,4.28,6.49,6.85,6.85,0,0,0,2.48.53,6.56,6.56,0,0,0,4.78-1.89,6.68,6.68,0,0,0,2-4.87Zm23.12.19h-.64q-6.12,0-12.23-.06h-.67v.68a7,7,0,0,0,4.29,6.37,6.64,6.64,0,0,0,2.6.53,6.53,6.53,0,0,0,4.75-2,6.7,6.7,0,0,0,1.91-4.9Zm22.78-72.15a46.45,46.45,0,0,0-26.71-30.95,42.2,42.2,0,0,0-15.52-3.34c-19.73-.09-36.8,13.54-41.53,33.22-3.07,14.29,3.22,28.51,16.44,37.22-1.14,5.71-2.35,11.46-3.6,17.11l-.94,4.25,4.25.58a223.27,223.27,0,0,0,26.35,1.93A218.13,218.13,0,0,0,698,296.29l4.28-.46-1-4.31c-1.36-5.64-2.69-11.42-4-17.19C710.34,266,716.34,251.9,712.94,237.51Zm.35,72h-.64c-4.08.07-8.15.11-12.23.15h-.68l0,.67a7,7,0,0,0,4.3,6.27,6.83,6.83,0,0,0,2.72.53A6.51,6.51,0,0,0,711.5,315a6.72,6.72,0,0,0,1.82-4.93ZM594.53,252.23l-.65,0a6.23,6.23,0,0,0-4.57,1.57,7.06,7.06,0,0,0,1.83,11.67,6.23,6.23,0,0,0,2,.48l.67.05Zm13.63,10a4.08,4.08,0,0,0-3,1.05,4.44,4.44,0,0,0-1.45,3.13,4.52,4.52,0,0,0,2.7,4.38,4.28,4.28,0,0,0,1.36.32,4.06,4.06,0,0,0,3-1.07,4.41,4.41,0,0,0,1.44-3.14,4.54,4.54,0,0,0-2.72-4.36A3.91,3.91,0,0,0,608.16,262.27ZM736.41,308.9l-.64,0q-6.12.19-12.23.34l-.67,0,0,.68a7.08,7.08,0,0,0,4.3,6.14,6.77,6.77,0,0,0,2.84.53,6.53,6.53,0,0,0,4.68-2.12,6.72,6.72,0,0,0,1.73-5ZM608.63,250.63a4.08,4.08,0,0,0-3,1.05,4.56,4.56,0,0,0-1.46,3.15,4.51,4.51,0,0,0,2.7,4.37,4.17,4.17,0,0,0,1.34.32,4.08,4.08,0,0,0,3-1.06,4.58,4.58,0,0,0-1.27-7.52A4,4,0,0,0,608.63,250.63Zm143.68,51.43-.68,0,.47,6.19-6.12.27,0,.67a6.61,6.61,0,0,0,.23,1.33,6.47,6.47,0,0,0,.48,1.25,6.14,6.14,0,0,0,.7,1.17,8,8,0,0,0,.92,1,8.62,8.62,0,0,0,1.08.8,9.18,9.18,0,0,0,1,.5l.2.08a7,7,0,0,0,2.62.41,6.68,6.68,0,0,0,1.33-.2,7.34,7.34,0,0,0,1.26-.45,7.17,7.17,0,0,0,1.12-.69,6,6,0,0,0,1-.91,6.55,6.55,0,0,0,.77-1.09,5.74,5.74,0,0,0,.52-1.21,6.19,6.19,0,0,0,.3-1.31,7.6,7.6,0,0,0,0-1.35,8,8,0,0,0-.23-1.34,7,7,0,0,0-.49-1.24,6.09,6.09,0,0,0-.7-1.15,6.33,6.33,0,0,0-.93-1,7,7,0,0,0-2-1.25A7.07,7.07,0,0,0,752.31,302.06Zm-22.65-6.66a23.41,23.41,0,0,0,2.45,2.62,6.67,6.67,0,0,0,1.83,1.16,6.17,6.17,0,0,0,7.17-1.69,6.42,6.42,0,0,0,1.45-4.71,6.75,6.75,0,0,0-2.24-4.47,23.41,23.41,0,0,0-2.58-2,5.28,5.28,0,0,0,3.61-1.94,5.63,5.63,0,0,0,1.24-4.16,5.92,5.92,0,0,0-3.59-4.91,5.55,5.55,0,0,0-2.45-.43,28.6,28.6,0,0,0-8.9,2.47c-2.49,1.05-5.32,2.24-6.58,5.44a38.85,38.85,0,0,0-2.39,9.25,21.89,21.89,0,0,0-.21,3.91,6,6,0,0,0,1.83,4,5.9,5.9,0,0,0,1.75,1.15,5.55,5.55,0,0,0,2.31.43,5.37,5.37,0,0,0,3.9-1.8,5.62,5.62,0,0,0,1.41-4.11C729.67,295.57,729.66,295.49,729.66,295.4Zm-133.87-67-.65,0a6.07,6.07,0,0,0-4.45,1.53,7,7,0,0,0-2.32,4.86,6.91,6.91,0,0,0,4.09,6.85,6.2,6.2,0,0,0,1.93.47l.67,0ZM609.11,239a4,4,0,0,0-2.93,1,4.59,4.59,0,0,0,1.22,7.54,4,4,0,0,0,1.32.3,4,4,0,0,0,2.94-1,4.59,4.59,0,0,0-1.24-7.53A4,4,0,0,0,609.11,239Zm.47-11.63a3.92,3.92,0,0,0-2.89,1A4.61,4.61,0,0,0,607.9,236a3.63,3.63,0,0,0,1.29.3,3.93,3.93,0,0,0,2.91-1,4.61,4.61,0,0,0-1.23-7.55A4,4,0,0,0,609.58,227.37Zm140.95,50.78-.68,0,1,13.73.64,0a6.36,6.36,0,0,0,4.52-2.17,6.72,6.72,0,0,0,1.64-5,7.2,7.2,0,0,0-4.3-6A6.49,6.49,0,0,0,750.53,278.15ZM597.05,204.5l-.65,0a5.88,5.88,0,0,0-4.33,1.5,7.07,7.07,0,0,0-2.33,4.9,6.91,6.91,0,0,0,4,6.85,5.57,5.57,0,0,0,1.87.45l.67.05Zm25.31-7.78a4.92,4.92,0,0,0-3.78,1.52,5.92,5.92,0,0,0-1.64,3.95v.13a25.43,25.43,0,0,0-1.93-2.65,5.87,5.87,0,0,0-2.22-1.63,5.55,5.55,0,0,0-6.2,1.34,7,7,0,0,0-.22,9.15,21.07,21.07,0,0,0,2.22,2.21,5,5,0,0,0-3.6,1.59,6,6,0,0,0-1.61,4,5.83,5.83,0,0,0,3.42,5.5,5.08,5.08,0,0,0,1.78.39,25.18,25.18,0,0,0,8.71-1.68c2.46-.84,5.25-1.8,6.7-4.92a39.61,39.61,0,0,0,2.94-9.05,22.78,22.78,0,0,0,.47-3.87A6.08,6.08,0,0,0,626,198.6a5.21,5.21,0,0,0-2-1.5A5,5,0,0,0,622.36,196.72Zm112.27,67.22a4,4,0,0,0-2.88,1.34,4.39,4.39,0,0,0-1.13,3.26,4.6,4.6,0,0,0,2.76,4,4.16,4.16,0,0,0,1.77.33,4,4,0,0,0,2.89-1.36,4.33,4.33,0,0,0,1.11-3.26,4.61,4.61,0,0,0-2.76-4A4.29,4.29,0,0,0,734.63,263.94Zm14.12-9.71-.68,0,1,13.74.64,0a6.18,6.18,0,0,0,4.4-2.12,6.84,6.84,0,0,0,1.64-5.07,7.2,7.2,0,0,0-4.28-6.06A6.36,6.36,0,0,0,748.75,254.23Zm-14.85-1.94a4,4,0,0,0-2.84,1.32,4.52,4.52,0,0,0-1.14,3.28,4.6,4.6,0,0,0,2.76,4,4,4,0,0,0,1.74.33,4.05,4.05,0,0,0,2.86-1.34,4.47,4.47,0,0,0,1.12-3.28,4.63,4.63,0,0,0-2.77-4A4.12,4.12,0,0,0,733.9,252.29Zm-136-64.14,5.54.38,0-.67a7.4,7.4,0,0,0-1.55-4.93,6.19,6.19,0,0,0-2.47-1.9,5.62,5.62,0,0,0-3-.39,6.29,6.29,0,0,0-1.19.31,6.75,6.75,0,0,0-1.1.57,6,6,0,0,0-1,.79,7.11,7.11,0,0,0-2.07,4.69,7.36,7.36,0,0,0,1.52,4.95,6.45,6.45,0,0,0,.88.92,7.32,7.32,0,0,0,1,.72,5.2,5.2,0,0,0,.53.26c.21.08.41.16.63.22a6,6,0,0,0,1.21.23l.67,0Zm135.26,52.49a4,4,0,0,0-2.8,1.31,4.5,4.5,0,0,0-1.14,3.3,4.62,4.62,0,0,0,2.75,4,4,4,0,0,0,4.54-1,4.51,4.51,0,0,0,1.12-3.3,4.63,4.63,0,0,0-2.76-4A4,4,0,0,0,733.17,240.64ZM618.45,181.9a5.74,5.74,0,0,0-4.19,1.53,7.16,7.16,0,0,0-2.25,5l0,.64.65,0q5.54.33,11.07.6l.67,0,0-.67a7,7,0,0,0-4-6.73A5.61,5.61,0,0,0,618.45,181.9Zm114,47.09a4,4,0,0,0-2.78,1.3,4.56,4.56,0,0,0-1.13,3.31,4.6,4.6,0,0,0,2.74,4,3.94,3.94,0,0,0,1.69.31,3.88,3.88,0,0,0,2.78-1.31,4.44,4.44,0,0,0,1.12-3.3,4.61,4.61,0,0,0-2.74-4A3.93,3.93,0,0,0,732.45,229ZM747,230.33l-.68,0,1,13.73.64,0a6.05,6.05,0,0,0,4.29-2.07,6.93,6.93,0,0,0,1.65-5.12,7.2,7.2,0,0,0-4.26-6.06A6,6,0,0,0,747,230.33ZM639.25,182.87a5.74,5.74,0,0,0-4.17,1.6,7.14,7.14,0,0,0-2.15,5l0,.64.65,0q5.54.24,11.07.42l.68,0v-.68a7.06,7.06,0,0,0-4.07-6.63A5.53,5.53,0,0,0,639.25,182.87ZM733,212.39a19.71,19.71,0,0,0,2.2-2.17,6.58,6.58,0,0,0,1.52-4.61,7,7,0,0,0-1.92-4.54,6,6,0,0,0-2.06-1.43,5.5,5.5,0,0,0-6.38,1.52,23.34,23.34,0,0,0-1.89,2.61,1.21,1.21,0,0,0,0-.19,6.21,6.21,0,0,0-1.72-4,5.37,5.37,0,0,0-1.77-1.21,5.06,5.06,0,0,0-2-.39,4.84,4.84,0,0,0-3.64,1.8,5.9,5.9,0,0,0-1.32,4.07,23.38,23.38,0,0,0,.56,3.88,41.15,41.15,0,0,0,3.14,9.12,8.93,8.93,0,0,0,5,4.4c.58.24,1.18.46,2,.77a25.56,25.56,0,0,0,8.7,1.82,5,5,0,0,0,3.47-1.62,5.77,5.77,0,0,0,1.48-4.17,6.15,6.15,0,0,0-1.68-4,5.61,5.61,0,0,0-1.84-1.28A5.11,5.11,0,0,0,733,212.39Zm-72.95-28.9a5.71,5.71,0,0,0-4.13,1.67,7.12,7.12,0,0,0-2.07,5.07v.64l.64,0q5.55.15,11.08.24h.68v-.67a7.1,7.1,0,0,0-4.1-6.53A5.85,5.85,0,0,0,660.07,183.49Zm20.83.28a5.72,5.72,0,0,0-4.11,1.74,7.1,7.1,0,0,0-2,5.1v.64h.64c3.7,0,7.39.05,11.09.05h.68l0-.67a7.18,7.18,0,0,0-4.13-6.42A5.58,5.58,0,0,0,680.9,183.77Zm64.29,22.65-.68,0,1,13.73.64,0a5.85,5.85,0,0,0,4.17-2A6.92,6.92,0,0,0,752,213a7.2,7.2,0,0,0-4.22-6.08A5.91,5.91,0,0,0,745.19,206.42ZM701.74,183.7a5.72,5.72,0,0,0-4.07,1.8,7.14,7.14,0,0,0-1.89,5.14l0,.65h.65q5.53,0,11.09-.13h.67l0-.68a7.09,7.09,0,0,0-4.16-6.31A5.62,5.62,0,0,0,701.74,183.7Zm20.84-.42a5.73,5.73,0,0,0-4.05,1.87,7.19,7.19,0,0,0-1.79,5.18l0,.64h.64q5.54-.14,11.09-.32l.67,0,0-.68a7.17,7.17,0,0,0-4.17-6.21A5.84,5.84,0,0,0,722.58,183.28Zm23.26-.34a6.21,6.21,0,0,0-1.2-.34,5.74,5.74,0,0,0-2.44.11,5.51,5.51,0,0,0-1.15.45,6.32,6.32,0,0,0-1,.7,6.89,6.89,0,0,0-.89.9,8.55,8.55,0,0,0-.68,1.08,7.38,7.38,0,0,0-.48,1.22,9.05,9.05,0,0,0-.25,1.28,7.35,7.35,0,0,0,0,1.33l0,.64,5.54-.24.46,6.21.64,0a5.53,5.53,0,0,0,1.23-.2,5.61,5.61,0,0,0,1.16-.45,6.32,6.32,0,0,0,1-.7,6.06,6.06,0,0,0,.87-.89,6.17,6.17,0,0,0,.71-1.12,8.9,8.9,0,0,0,.46-1.19,7,7,0,0,0,.25-1.29,8.57,8.57,0,0,0,0-1.34,8.46,8.46,0,0,0-.22-1.32,7.75,7.75,0,0,0-.45-1.25,8.1,8.1,0,0,0-.65-1.15,7.38,7.38,0,0,0-.84-1,7.61,7.61,0,0,0-1-.81,7,7,0,0,0-1.11-.59Z"/>
            <path class="banner green-banner" d="M727.69,218.07a13.19,13.19,0,0,0,3.75.75h0a.65.65,0,0,0,.53-.72.86.86,0,0,0-.23-.57l-.46-.21A14.37,14.37,0,0,0,727.69,218.07Z"/>
            <path class="banner green-banner" d="M723.8,294.47a.8.8,0,0,0,.3.06.71.71,0,0,0,.46-.22.75.75,0,0,0,.18-.54,16.57,16.57,0,0,0-.93-4,15.43,15.43,0,0,0-.5,4,.82.82,0,0,0,.49.7Z"/>
            <path class="banner green-banner" d="M734.73,292.94a1.22,1.22,0,0,0,.46.09,1.08,1.08,0,0,0,.83-.39,1.21,1.21,0,0,0,.27-.88,1.3,1.3,0,0,0-.43-.87,19.9,19.9,0,0,0-5-3,21.41,21.41,0,0,0,3.57,4.8A1.33,1.33,0,0,0,734.73,292.94Z"/>
            <path class="banner green-banner" d="M619.55,293.11a.71.71,0,0,0,.5-.67,15.59,15.59,0,0,0-.58-4.06,15.31,15.31,0,0,0-.84,3.95.81.81,0,0,0,.21.56.61.61,0,0,0,.26.19Z"/>
            <path class="banner green-banner" d="M652.79,257.05c-3.62-1.52-6.46-6.1-7.07-11.39-.83-7.1,2.34-13.34,7.07-13.91a4.73,4.73,0,0,1,.84,0,6.46,6.46,0,0,1,2.28.5c3.54,1.49,6.41,6,7.12,11.35.57,4.28-.34,8.46-2.44,11.17a6.87,6.87,0,0,1-4.58,2.8,6.26,6.26,0,0,1-3.22-.48Zm.87-24a4.18,4.18,0,0,0-.71,0c-2.51.31-4,2.46-4.67,3.72a15.14,15.14,0,0,0-1.38,8.69c.56,4.8,3.07,8.91,6.23,10.24a5.61,5.61,0,0,0,2,.44,4.29,4.29,0,0,0,.72,0,5.78,5.78,0,0,0,3.83-2.36c1.86-2.4,2.7-6.27,2.19-10.1-.63-4.8-3.14-8.9-6.25-10.2A5.19,5.19,0,0,0,653.66,233.08Z"/>
            <path class="banner green-banner" d="M649.84,289.31a217.87,217.87,0,0,0,43.55.57c-1.2-5.15-2.36-10.37-3.47-15.54l-1.23,1.32a20.17,20.17,0,0,1-4.12,3.32,10.73,10.73,0,0,1,.2,1.45,9.26,9.26,0,0,1-.22,3.14l-1,4.16-1.29-4.12c-.15-.49-.28-1-.4-1.44s-.39-1.41-.42-1.54l-.55.24a23.81,23.81,0,0,1-3.59,1.15,6.57,6.57,0,0,1-.09.66,8.91,8.91,0,0,1-1,3l-2,3.74-.28-4.27c0-.51,0-1-.05-1.49s0-.69,0-1.05a23.24,23.24,0,0,1-2.35.11,20.61,20.61,0,0,1-2.34-.12v.79c0,.7,0,1.18,0,1.67l-.18,4.31-2.07-3.79a8.94,8.94,0,0,1-1-3c0-.19-.07-.39-.1-.59a25.66,25.66,0,0,1-3.53-1.18l-.68-.32-.06.24c-.11.4-.2.77-.29,1.16s-.23.94-.37,1.43l-1.2,4.12-1.12-4.17a9.15,9.15,0,0,1-.29-3.14,9.69,9.69,0,0,1,.17-1.41,23.35,23.35,0,0,1-4.19-3.48L653,273.88C652,279,650.93,284.14,649.84,289.31Z"/>
            <path class="banner green-banner" d="M655.62,273.28l-2.31-1.19.36-1.87-2.54-1.44C639.14,262,633,249.86,635.49,238a35.45,35.45,0,0,1,48.63-25.06A39,39,0,0,1,706.67,239c2.76,11.91-3.13,23.81-15,30.33l-2.53,1.38.4,1.86-2.27,1.15a42.13,42.13,0,0,1-4,1.76c-.15-.27-.3-.54-.46-.79a9.24,9.24,0,0,0-2.1-2.36l-3.42-2.62s2.49,6.25,2.72,6.86l-.55.15c-.85.23-1.73.42-2.64.58-.06-.23-.14-.44-.21-.66a9.16,9.16,0,0,0-1.49-2.8l-2.73-3.41s1,6.68,1.05,7.28c-.7.05-1.36.08-2,.07s-1.29,0-2-.07l.9-7.25-2.65,3.3a8.69,8.69,0,0,0-1.43,2.77c-.08.23-.15.47-.21.71-.89-.17-1.78-.39-2.64-.64l-.59-.19c.21-.58,2.58-6.82,2.58-6.82l-3.32,2.5a8.25,8.25,0,0,0-2,2.32c-.16.25-.32.51-.46.78C658.36,274.64,657,274,655.62,273.28Zm.26-10.55a4.18,4.18,0,0,0,1.55.33,3.26,3.26,0,0,0,.62,0,5,5,0,0,0,.8-.17,4.41,4.41,0,0,0,2.9-3.34,4.37,4.37,0,0,0,3.71-1.91,4.73,4.73,0,0,0,.56-4.06,4.49,4.49,0,0,0,2.26-3.19,4.92,4.92,0,0,0-.92-3.81,4.68,4.68,0,0,0,1-3.69,4.85,4.85,0,0,0-2-3.36,5,5,0,0,0-.13-3.92,4.58,4.58,0,0,0-2.34-2.27,4.64,4.64,0,0,0-.66-.22,4.86,4.86,0,0,0-1.59-3.78,4.59,4.59,0,0,0-1.2-.76,4.19,4.19,0,0,0-2.79-.15,4.56,4.56,0,0,0-2.29-2.19,4.11,4.11,0,0,0-5.15,1.73h0a4,4,0,0,0-4.19.63,4.63,4.63,0,0,0-1.64,3.91,4.35,4.35,0,0,0-2.95,2.65,4.87,4.87,0,0,0,.19,4,4.68,4.68,0,0,0-1.69,3.46,4.83,4.83,0,0,0,1.41,3.61,4.8,4.8,0,0,0-.55,3.82,4.67,4.67,0,0,0,2.45,3,4.87,4.87,0,0,0,.76,3.93,4.44,4.44,0,0,0,1.93,1.56,4.35,4.35,0,0,0,1.62.34,4.75,4.75,0,0,0,2.76,3.5,4.18,4.18,0,0,0,4.18-.51A4.49,4.49,0,0,0,655.88,262.73Zm16.26,5.7a4,4,0,0,0,1.49,1.13,3.58,3.58,0,0,0,1.15.24,3.26,3.26,0,0,0,2.28-.94,5.18,5.18,0,0,0,1.42-3.65c.07-4.25-4.61-9.08-6.15-10.55l-.7-.63-.8.62c-1.08.86-6.46,5.37-6.62,9.81a5.47,5.47,0,0,0,1.2,3.78,3.61,3.61,0,0,0,1.28.91,3.35,3.35,0,0,0,1.2.27,3.46,3.46,0,0,0,2.46-1.1,7,7,0,0,0,.92-1.14A7.12,7.12,0,0,0,672.14,268.43Zm17-5.58a4.19,4.19,0,0,0,3.38,0,4.39,4.39,0,0,0,2.53-3.35,4.24,4.24,0,0,0,3.51-1.82,4.74,4.74,0,0,0,.68-3.91,4.44,4.44,0,0,0,2.4-2.94A4.89,4.89,0,0,0,701,247a4.68,4.68,0,0,0,1.33-3.57,4.8,4.8,0,0,0-1.76-3.5,4.92,4.92,0,0,0,.1-4,4.66,4.66,0,0,0-2.47-2.54q-.27-.11-.54-.18a4.85,4.85,0,0,0-1.71-4,4.57,4.57,0,0,0-1.13-.69,4,4,0,0,0-3.1,0,4.49,4.49,0,0,0-2.1-1.83,4.22,4.22,0,0,0-1.79-.33,4.17,4.17,0,0,0-3.55,2.41,4.07,4.07,0,0,0-4,.82,4.67,4.67,0,0,0-1.52,3.74,4.26,4.26,0,0,0-2.94,2.43,4.86,4.86,0,0,0-.06,3.9,4.52,4.52,0,0,0-1.92,3.26,4.94,4.94,0,0,0,1.12,3.77,4.78,4.78,0,0,0,1.5,7,5,5,0,0,0,.8,4.33,4.57,4.57,0,0,0,1.83,1.43,4.48,4.48,0,0,0,1.76.34,4.86,4.86,0,0,0,2.94,3.4h0a6.68,6.68,0,0,0,.8.2,4.29,4.29,0,0,0,3.52-1.12A4.5,4.5,0,0,0,689.09,262.85Zm-29.33-47.23a4.34,4.34,0,0,0-3.44,1.37,5.23,5.23,0,0,0-1.46,3.55,5.46,5.46,0,0,0,1.29,3.67,29.76,29.76,0,0,0,9.15,6.39,6.3,6.3,0,0,0,2.15.58,1.3,1.3,0,0,0,1-.35c.61-.63.65-1.91-1.12-6.14a30.77,30.77,0,0,0-4.26-7.4,4.86,4.86,0,0,0-1.8-1.33A4.47,4.47,0,0,0,659.76,215.62Zm11-4.36a4.43,4.43,0,0,0-3.2,1.31,5.27,5.27,0,0,0-1.51,3.77c0,3.93,2.49,12.89,4.48,13.73l.27.08H671a1.25,1.25,0,0,0,.93-.44c1.65-1.65,3.75-9.22,3.68-13.27a5.32,5.32,0,0,0-3.11-4.83A4.24,4.24,0,0,0,670.78,211.26Zm11.14,4.65a4.51,4.51,0,0,0-3.33,1.59,29.11,29.11,0,0,0-4.1,7.31c-1.79,4.43-1.54,5.55-1,6.09l.25.21.12,0a1.71,1.71,0,0,0,.62.11c2.33,0,8.7-3.78,11.18-6.68a5.23,5.23,0,0,0,1.22-3.66,5.47,5.47,0,0,0-1.52-3.57,4.89,4.89,0,0,0-1.62-1.11A4.25,4.25,0,0,0,681.92,215.91Z"/>
            <path class="banner green-banner" d="M607.81,291.24a1.49,1.49,0,0,0,.45.11,1.07,1.07,0,0,0,.74-.28,19.69,19.69,0,0,0,3.46-4.74,18.86,18.86,0,0,0-5,2.85,1.2,1.2,0,0,0-.4.84,1.28,1.28,0,0,0,.3.9,1.07,1.07,0,0,0,.44.32Z"/>
            <path class="banner green-banner" d="M685,257.51c-4.09-1.72-6.55-7.51-5.84-13.76.48-4.26,2.35-8,5-10.06a6.56,6.56,0,0,1,5-1.46,5.82,5.82,0,0,1,1.45.41c4,1.7,6.55,7.47,6,13.72-.4,4.21-2.21,7.95-4.84,10a6.73,6.73,0,0,1-5.19,1.55,5.86,5.86,0,0,1-1.51-.42Zm4.05-23.92a4.24,4.24,0,0,0-.71-.05c-3.84,0-7.35,4.59-8,10.44-.61,5.52,1.55,10.79,5,12.25a5.46,5.46,0,0,0,1.24.35,5.78,5.78,0,0,0,.71.05c3.93,0,7.46-4.6,8-10.49a15.45,15.45,0,0,0-1.57-8.72,7.71,7.71,0,0,0-3.52-3.49A4.75,4.75,0,0,0,689.09,233.59Z"/>
            <path class="banner green-banner" d="M607.6,279.82a.65.65,0,0,0,.2.05l.33,0a14.88,14.88,0,0,0,3.6-.42,14.28,14.28,0,0,0-3.86-1.1h0a.7.7,0,0,0-.7.67.83.83,0,0,0,.18.57.63.63,0,0,0,.28.21Z"/>
            <path class="banner yellow-banner" d="M180.1,107.86a17.91,17.91,0,0,0,5.39-1.07,1.31,1.31,0,0,0,.68-.67,1.26,1.26,0,0,0,.07-.93.94.94,0,0,0-.53-.6,1,1,0,0,0-.79,0A20.91,20.91,0,0,0,180.1,107.86Z"/>
            <path class="banner yellow-banner" d="M71.3,64a14.8,14.8,0,0,0,3.38.85A14.14,14.14,0,0,0,72,62.67l-.31-.16a.68.68,0,0,0-.47,0,.84.84,0,0,0-.45.4.66.66,0,0,0,.24.94Z"/>
            <path class="banner yellow-banner" d="M174.62,103.59a16.28,16.28,0,0,0,2.18-3.29.78.78,0,0,0,0-.58.5.5,0,0,0-.29-.33h0a.74.74,0,0,0-.88.45A16,16,0,0,0,174.62,103.59Z"/>
            <path class="banner yellow-banner" d="M85.68,61a16.22,16.22,0,0,0,2.47-3.12.68.68,0,0,0-.2-.94h0a.64.64,0,0,0-.47,0,.77.77,0,0,0-.46.39A15.46,15.46,0,0,0,85.68,61Z"/>
            <path class="banner yellow-banner" d="M78.86,59.34a20.31,20.31,0,0,0-.31-5.76,1,1,0,0,0-.44-.6h0a1.12,1.12,0,0,0-.84,0,1.33,1.33,0,0,0-.73.63,1.2,1.2,0,0,0-.13.92A17,17,0,0,0,78.86,59.34Z"/>
            <path class="banner yellow-banner" d="M155.91,174a.7.7,0,0,0,.55,0,.82.82,0,0,0,.41-.43.71.71,0,0,0-.4-.94,14.7,14.7,0,0,0-3.94-.73,15.93,15.93,0,0,0,3.08,2l.12.05Z"/>
            <path class="banner yellow-banner" d="M133,207.38A11.39,11.39,0,0,1,126,195.77l.19-1.92-1.32,1.4a12,12,0,0,1-13.49,2.68h0a11.38,11.38,0,0,1-6.71-11.72l.23-1.91-1.35,1.37a12,12,0,0,1-13.12,2.64l-.44-.2a11.36,11.36,0,0,1-6.52-11.84l.26-1.9-1.37,1.34a12.08,12.08,0,0,1-13,2.5l-.62-.29A11.36,11.36,0,0,1,62.44,166l.29-1.89-1.39,1.31a12,12,0,0,1-12.89,2.34c-.27-.11-.54-.24-.8-.37a11.32,11.32,0,0,1-6.1-12.05l.33-1.89-1.42,1.29a12.1,12.1,0,0,1-12.76,2.2c-.33-.14-.67-.3-1-.47a11.33,11.33,0,0,1-5.89-12.2l.27-1.83s-1.76,1.58-1.93,1.7a12.61,12.61,0,0,1-2,1.25,11.39,11.39,0,0,1-2.18.84,12.63,12.63,0,0,1-2.31.42,15.19,15.19,0,0,1-2.34-.05,13.28,13.28,0,0,1-2.3-.49c-.33-.11-.66-.23-1-.37h0a12.2,12.2,0,0,1-1.15-.56A12,12,0,0,1,4,143.83a12.55,12.55,0,0,1-1.59-1.65,12.74,12.74,0,0,1-1.23-1.93,10.92,10.92,0,0,1-.82-2.13A11.45,11.45,0,0,1,0,135.87a12.47,12.47,0,0,1,.09-2.28,12.24,12.24,0,0,1,.56-2.22,11.57,11.57,0,0,1,1-2.08A11.7,11.7,0,0,1,3,127.43a13.43,13.43,0,0,1,1.71-1.56,12.38,12.38,0,0,1,2-1.21,11.24,11.24,0,0,1,2.18-.84,12.44,12.44,0,0,1,2.3-.39,12.72,12.72,0,0,1,2.31,0,13.85,13.85,0,0,1,1.43.27l2.27.54-1.66-1.65A11.28,11.28,0,0,1,14,108.77a12.29,12.29,0,0,1,13.12-5.66l2.22.51L27.73,102a11.26,11.26,0,0,1-1.39-13.76,12.24,12.24,0,0,1,13-5.74l2.18.49-1.56-1.6a11.24,11.24,0,0,1-1.25-13.68A12.23,12.23,0,0,1,51.51,61.9l2.14.47L52.13,60.8A11.22,11.22,0,0,1,51,47.2a12.17,12.17,0,0,1,12.74-5.88l2.13.47-1.51-1.57a9.93,9.93,0,0,1-2.58-4.85,11.39,11.39,0,0,1-.24-2.19A12.82,12.82,0,0,1,61.75,31a12.69,12.69,0,0,1,.62-2.2,12.4,12.4,0,0,1,1-2.08,11.89,11.89,0,0,1,1.38-1.87,13.26,13.26,0,0,1,1.66-1.61,12.35,12.35,0,0,1,1.91-1.26,11.61,11.61,0,0,1,2.06-.9,10.62,10.62,0,0,1,7.34.21c.3.13.59.28.88.43a9.83,9.83,0,0,1,4.73,6.52,11,11,0,0,1,.26,2.17,13,13,0,0,1-.16,2.22c0,.19-.63,2.81-.63,2.81l1.56-1.46c3.42-3.19,8.1-4.21,11.93-2.6l.78.37c3.9,2.08,5.87,6.71,4.89,11.52l-.42,2.08,1.53-1.48a11.16,11.16,0,0,1,12-2.71l.63.29c3.94,2,6,6.61,5.1,11.43l-.39,2.09,1.5-1.5c3.39-3.39,8.12-4.52,12.05-2.86l.49.22c4,1.95,6.1,6.51,5.3,11.35l-.35,2.1,1.47-1.54c3.31-3.45,8.19-4.66,12.12-3l.35.16c4,1.87,6.19,6.4,5.48,11.25l-.31,2.1,1.44-1.56a11.11,11.11,0,0,1,12.39-3.07h0c4,1.8,6.3,6.29,5.67,11.15l-.28,2.11,1.42-1.58c3.29-3.68,8.22-5,12.32-3.28s6.42,6.2,5.86,11.1l-.14,2S198.82,88.15,199,88a14,14,0,0,1,1.71-1.5,11.62,11.62,0,0,1,4-1.86,9.75,9.75,0,0,1,2.09-.29,9.38,9.38,0,0,1,2.05.12,9.21,9.21,0,0,1,2,.59,8.55,8.55,0,0,1,1.7.94A8.81,8.81,0,0,1,214,87.36,10.08,10.08,0,0,1,215.27,89a11,11,0,0,1,.9,1.94,11.64,11.64,0,0,1,.51,2.13,12.22,12.22,0,0,1,.13,2.23,12.86,12.86,0,0,1-.3,2.27,11.78,11.78,0,0,1-.68,2.19,13.84,13.84,0,0,1-2.49,3.87,13.59,13.59,0,0,1-1.7,1.51,13.79,13.79,0,0,1-1.9,1.16,11.41,11.41,0,0,1-2.05.73,11.07,11.07,0,0,1-2.12.31,8.24,8.24,0,0,1-1.32,0l-2.16-.19,1.68,1.36c3.71,3,4.9,8.51,2.9,13.36A11.8,11.8,0,0,1,195,129.32l-2.16-.2,1.69,1.37a11.55,11.55,0,0,1,3,13.39,11.82,11.82,0,0,1-11.84,7.43l-2.2-.22,1.73,1.39a11.58,11.58,0,0,1,3.15,13.45,11.82,11.82,0,0,1-12,7.37l-2.25-.24,1.78,1.41a11.6,11.6,0,0,1,3.3,13.51A11.85,11.85,0,0,1,167,195.27l-2.33-.27,1.85,1.44a11.65,11.65,0,0,1,1.06.92A11.81,11.81,0,0,1,169,199.1a12.87,12.87,0,0,1,1.07,2,11.33,11.33,0,0,1,.64,2.19,12.29,12.29,0,0,1,.21,2.27A11.93,11.93,0,0,1,170,210a11.72,11.72,0,0,1-1.1,2,12.51,12.51,0,0,1-1.45,1.78,12.88,12.88,0,0,1-1.8,1.47,11.67,11.67,0,0,1-2,1.11,12.65,12.65,0,0,1-2.23.68,13.17,13.17,0,0,1-2.29.23,12.17,12.17,0,0,1-2.31-.21,11.88,11.88,0,0,1-4.25-1.74,11.34,11.34,0,0,1-1.76-1.45,13.59,13.59,0,0,1-1.46-1.77,12.12,12.12,0,0,1-1.06-2,11.28,11.28,0,0,1-.63-2.19,12.45,12.45,0,0,1-.18-2.28c0-.18.21-2.69.21-2.69l-1.3,1.44a11.87,11.87,0,0,1-13.37,3Zm-1.17-14-.27.59a6.71,6.71,0,0,0,3.5,9,7,7,0,0,0,9-3.6l.27-.61-.61-.26q-5.67-2.4-11.32-4.86Zm29.54,5.75-2.43,5.7-5.69-2.35-.26.6a6.45,6.45,0,0,0-.4,1.27,6.14,6.14,0,0,0-.15,1.32,6,6,0,0,0,.11,1.34,6.82,6.82,0,0,0,1,2.47,7.74,7.74,0,0,0,.86,1.05,7.15,7.15,0,0,0,2.2,1.47h0a6.75,6.75,0,0,0,1.3.38,8.21,8.21,0,0,0,1.33.13,7.53,7.53,0,0,0,1.34-.15,6,6,0,0,0,1.29-.39,7.15,7.15,0,0,0,1.19-.64,6.3,6.3,0,0,0,1-.85,6.08,6.08,0,0,0,.87-1,6.69,6.69,0,0,0,.63-1.18A6.93,6.93,0,0,0,166,207a6.49,6.49,0,0,0,.13-1.32,6.25,6.25,0,0,0-.11-1.32,7,7,0,0,0-.38-1.29A6.72,6.72,0,0,0,162,199.4ZM110.49,183.9l-.28.58a6.71,6.71,0,0,0,3.45,9.1,7,7,0,0,0,9-3.49l.29-.61-.62-.27q-5.62-2.51-11.24-5.05Zm-21.15-9.84-.29.57a6.67,6.67,0,0,0-.35,5.23,6.75,6.75,0,0,0,3.76,4,6.94,6.94,0,0,0,8.94-3.38l.3-.6-.61-.29Q95.5,177,89.92,174.33Zm-21-10.19-.3.57a6.67,6.67,0,0,0,3,9.14l.36.17a7,7,0,0,0,8.92-3.28l.3-.59-.6-.3q-5.57-2.69-11.1-5.43ZM47.48,153.3l-.31.57A6.67,6.67,0,0,0,50,163.06l.47.22a7,7,0,0,0,8.87-3.16l.32-.6-.6-.3q-5.52-2.79-11-5.62ZM26.79,142.39l-.32.55a6.67,6.67,0,0,0,2.67,9.24,4.41,4.41,0,0,0,.58.28,7,7,0,0,0,8.83-3.06l.33-.58-.6-.32q-5.47-2.88-10.92-5.81Zm-14-7.63L16,129.39l-.61-.32a4.6,4.6,0,0,0-.63-.31,5.25,5.25,0,0,0-.59-.21,6.53,6.53,0,0,0-1.32-.29,7.66,7.66,0,0,0-1.36,0,7.49,7.49,0,0,0-1.3.23,6,6,0,0,0-1.3.49,8.14,8.14,0,0,0-1.14.7,7.28,7.28,0,0,0-1,.92,7.1,7.1,0,0,0-.8,1.09,6.78,6.78,0,0,0-.57,1.22,6.57,6.57,0,0,0-.31,1.31A7.22,7.22,0,0,0,5,135.51a6.5,6.5,0,0,0,.22,1.32,6.73,6.73,0,0,0,3.22,4.11,6.5,6.5,0,0,0,.65.32l.6.22a7.51,7.51,0,0,0,1.33.29,6.87,6.87,0,0,0,1.36,0,7.2,7.2,0,0,0,1.35-.23,7.66,7.66,0,0,0,1.26-.49,6.15,6.15,0,0,0,1.14-.72,6.87,6.87,0,0,0,1.8-2l.33-.58Zm131.54,49.12a22.75,22.75,0,0,0,1,3.39,6.17,6.17,0,0,0,3.36,3.39,6.36,6.36,0,0,0,5.06,0,6.59,6.59,0,0,0,3.48-3.56,6.43,6.43,0,0,0,0-4.93,21.19,21.19,0,0,0-1.45-2.83,5.52,5.52,0,0,0,4.2-.19,5.79,5.79,0,0,0,3-3.16,5.66,5.66,0,0,0-3-7.32h0a29.4,29.4,0,0,0-9.26-1.56c-2.74-.12-5.85-.26-8.46,2a40.32,40.32,0,0,0-6.43,7.2,20.79,20.79,0,0,0-2,3.38,5.62,5.62,0,0,0-.17,4.35,5.46,5.46,0,0,0,3,3.13l.06,0a5.67,5.67,0,0,0,4.3,0,5.81,5.81,0,0,0,3.17-3Zm-110.57-70a5.65,5.65,0,0,0-.71,4.29,5.37,5.37,0,0,0,2.42,3.36,24.44,24.44,0,0,0-3.2.6,6.69,6.69,0,0,0-4,3,6.4,6.4,0,0,0-.76,4.88,6.23,6.23,0,0,0,3.66,4.24,6.52,6.52,0,0,0,4.25.27,22.83,22.83,0,0,0,3.4-1.25l-.14.24a5.64,5.64,0,0,0-.53,4.32,5.54,5.54,0,0,0,2.74,3.37l.45.21a5.83,5.83,0,0,0,3.91.19,5.9,5.9,0,0,0,3.43-2.77,22.12,22.12,0,0,0,1.53-3.6,39.08,39.08,0,0,0,1.91-9.38c.26-3.43-1.77-5.77-3.75-8a28,28,0,0,0-6.79-6,5.33,5.33,0,0,0-.63-.32A5.88,5.88,0,0,0,33.79,113.91ZM155.71,125.5a43.14,43.14,0,0,0-22.87-48.36q-.78-.36-1.56-.69C113.61,69,92.33,74.12,79.47,88.93c-9.4,11.36-10.17,26.67-2,40-3.68,4.58-7.43,9.16-11.17,13.63L63.43,146l3.66,2.34a224.65,224.65,0,0,0,23.29,12.93c3.28,1.57,6.66,3.09,10,4.51,4.81,2,9.74,3.89,14.65,5.56l4.09,1.38,1-4.23c1.35-5.58,2.79-11.28,4.28-17C140.24,149.65,152.19,139.71,155.71,125.5Zm15,51.65-5.38,12.62.62.25a6.87,6.87,0,0,0,8.88-3.78,6.71,6.71,0,0,0-3.46-8.82ZM18.18,111.08a6.65,6.65,0,0,0-.74,5.21,6.48,6.48,0,0,0,3.13,4l.57.31,7-11.86-.59-.32a5.38,5.38,0,0,0-.64-.31A7,7,0,0,0,18.18,111.08Zm145.15,47a4.51,4.51,0,0,0-5.82,5.82,4.15,4.15,0,0,0,2.26,2.32,4.5,4.5,0,0,0,5.81-5.83,4.15,4.15,0,0,0-2.25-2.31Zm16.74-2.91-5.39,12.63.62.26a6.81,6.81,0,0,0,8.77-3.83,6.88,6.88,0,0,0,.12-5.16,6.33,6.33,0,0,0-3.47-3.63ZM47.82,102.68a4.52,4.52,0,0,0-5.62,2,4.39,4.39,0,0,0-.43,3.41,4.11,4.11,0,0,0,2,2.53,2.53,2.53,0,0,0,.37.18,4.49,4.49,0,0,0,5.62-2,4.39,4.39,0,0,0,.42-3.41,4.11,4.11,0,0,0-2-2.52C48.07,102.79,47.94,102.74,47.82,102.68ZM168,147.44a4.51,4.51,0,0,0-5.79,5.85,4.09,4.09,0,0,0,2.22,2.29,4.52,4.52,0,0,0,5.79-5.86,4.14,4.14,0,0,0-2.22-2.28ZM30.42,90.49a6.84,6.84,0,0,0-.76,5.27,6.35,6.35,0,0,0,3.05,3.91l.56.31,7-11.87-.6-.32c-.2-.11-.4-.21-.61-.3A7,7,0,0,0,30.42,90.49Zm23.19,2.08a4.5,4.5,0,0,0-5.59,2A4.38,4.38,0,0,0,47.58,98a4.1,4.1,0,0,0,2,2.5,3.14,3.14,0,0,0,.37.18,4.47,4.47,0,0,0,5.59-2A4.38,4.38,0,0,0,56,95.23a4.1,4.1,0,0,0-2-2.49Zm119.1,44.22a4.43,4.43,0,0,0-5.66,2.42,4.51,4.51,0,0,0-.09,3.46,4.09,4.09,0,0,0,2.2,2.27,4.41,4.41,0,0,0,5.67-2.43,4.47,4.47,0,0,0,.08-3.46,4,4,0,0,0-2.18-2.25Zm16.68-3.47-5.34,12.51.62.25a6.76,6.76,0,0,0,8.67-3.87,6.59,6.59,0,0,0-3.25-8.73Zm-130-50.87a4.56,4.56,0,0,0-6,5.44,4.1,4.1,0,0,0,2,2.48l.36.17a4.55,4.55,0,0,0,6-5.46,4,4,0,0,0-2-2.46Zm118,43.7a4.42,4.42,0,0,0-5.64,2.42,4.57,4.57,0,0,0-.1,3.48,4.08,4.08,0,0,0,2.18,2.25,4.4,4.4,0,0,0,5.64-2.44,4.52,4.52,0,0,0,.08-3.48,4,4,0,0,0-2.16-2.23ZM42.67,69.91a6.79,6.79,0,0,0-.78,5.29,6.19,6.19,0,0,0,3,3.83l.56.31,7-11.86-.6-.33a6.36,6.36,0,0,0-.59-.28A6.93,6.93,0,0,0,42.67,69.91Zm22.56,2.44,0,0a4.58,4.58,0,0,0-6,5.47,4,4,0,0,0,2,2.45l.35.17a4.46,4.46,0,0,0,5.55-2,4.55,4.55,0,0,0,.44-3.45,4,4,0,0,0-2-2.43ZM188.6,110.69a6.9,6.9,0,0,0,3.84-8.3,5.62,5.62,0,0,0-3.19-3.55,5.8,5.8,0,0,0-4.53,0,23.71,23.71,0,0,0-2.93,1.52.61.61,0,0,0,.07-.14,5.86,5.86,0,0,0,.25-4.27,5,5,0,0,0-2.78-3.07,5.13,5.13,0,0,0-4.08.08,6.06,6.06,0,0,0-3.06,3,23,23,0,0,0-1.28,3.68,40,40,0,0,0-1.33,9.43c-.06,3.44,2,5.55,4.06,7.58a24.89,24.89,0,0,0,7.1,5.29,5.59,5.59,0,0,0,7.14-3,5.89,5.89,0,0,0,.3-4.3,5,5,0,0,0-2.55-3A20.65,20.65,0,0,0,188.6,110.69Zm10.21.56-5.38,12.62.62.25a6.72,6.72,0,0,0,8.56-3.91,7,7,0,0,0,.18-5.12,6,6,0,0,0-3.33-3.58ZM91,50.59a5.21,5.21,0,0,0-3.75-.08A6.07,6.07,0,0,0,84,53.3a1.62,1.62,0,0,1-.1.18,21.38,21.38,0,0,0-.56-3.22A5.6,5.6,0,0,0,80,46.47a5.93,5.93,0,0,0-4.33-.08,6.91,6.91,0,0,0-4.4,8,20.2,20.2,0,0,0,1,2.92l-.19-.09a5.37,5.37,0,0,0-3.87-.07A6.06,6.06,0,0,0,65,60a5.72,5.72,0,0,0-.5,4.38,5.1,5.1,0,0,0,2.58,3.11c.31.16.63.31,1,.44a28.79,28.79,0,0,0,7.83,1.8c2.65.3,5.65.64,8.4-1.49A40.68,40.68,0,0,0,91.1,61.5a23.54,23.54,0,0,0,2.22-3.23,5.92,5.92,0,0,0,.6-4.26,5,5,0,0,0-2.5-3.23ZM54.91,49.33a7,7,0,0,0-.8,5.33A6,6,0,0,0,57,58.39l.56.31,7-11.85L64,46.52a5.12,5.12,0,0,0-.58-.28A6.9,6.9,0,0,0,54.91,49.33ZM207.6,89.19a6.67,6.67,0,0,0-1.25-.08,6.52,6.52,0,0,0-1.23.18,6.16,6.16,0,0,0-2.33,1.1,7.33,7.33,0,0,0-1,.87,8.16,8.16,0,0,0-.81,1,8.27,8.27,0,0,0-.64,1.17l-.26.61,5.15,2.13-2.43,5.71.62.25a6.64,6.64,0,0,0,1.2.34,6.09,6.09,0,0,0,1.25.08,6.61,6.61,0,0,0,1.25-.18,6.52,6.52,0,0,0,1.19-.43,5.94,5.94,0,0,0,1.15-.68,8.76,8.76,0,0,0,1-.87,7.41,7.41,0,0,0,.82-1,7.92,7.92,0,0,0,.62-1.19,6.62,6.62,0,0,0,.41-1.26,6.53,6.53,0,0,0,.17-1.31,8.09,8.09,0,0,0-.06-1.3,6.53,6.53,0,0,0-.31-1.25,6.67,6.67,0,0,0-.53-1.15,7.39,7.39,0,0,0-.74-1,6.31,6.31,0,0,0-.94-.81,6.54,6.54,0,0,0-1-.57A6.24,6.24,0,0,0,207.6,89.19ZM189.41,81.4c-3.13-1.31-6.93.39-8.49,3.8l-.28.61.62.27q5.12,2.22,10.26,4.4l.6.25.26-.59a7.12,7.12,0,0,0,.18-5.45,5.82,5.82,0,0,0-3.11-3.27ZM170.1,72.93h0a6.69,6.69,0,0,0-8.47,3.68l-.29.61.61.28q5.09,2.31,10.19,4.58l.6.26.27-.59a7.18,7.18,0,0,0,.28-5.45A5.81,5.81,0,0,0,170.22,73Zm-19.18-8.81h0c-3.09-1.3-6.81.27-8.46,3.57l-.3.61.61.29q5.06,2.39,10.13,4.75l.58.27.29-.58a7.13,7.13,0,0,0,.37-5.44,5.79,5.79,0,0,0-3-3.38ZM72.85,32.7l4.94,2.72.32-.56A7.1,7.1,0,0,0,79,29.8a5.89,5.89,0,0,0-3.43-4.19,4.94,4.94,0,0,0-.58-.2,5.1,5.1,0,0,0-1.23-.23,5.41,5.41,0,0,0-1.27,0,6.8,6.8,0,0,0-1.25.27,7.45,7.45,0,0,0-4,3.27,7.11,7.11,0,0,0-.88,5.07,6.5,6.5,0,0,0,.4,1.2,6.43,6.43,0,0,0,.62,1.08,5.56,5.56,0,0,0,.84.93,6.49,6.49,0,0,0,1,.72l.57.31Zm59,22.29h0c-3.05-1.28-6.75.25-8.44,3.47l-.32.6.61.3c3.34,1.65,6.7,3.29,10,4.92l.59.28.29-.57a7.07,7.07,0,0,0,.47-5.43,5.81,5.81,0,0,0-3-3.43Zm-18.94-9.47c-3-1.27-6.71.21-8.43,3.36l-.32.59.6.31q5,2.56,10,5.09l.57.3.31-.57a7.08,7.08,0,0,0,.57-5.42,5.79,5.79,0,0,0-2.9-3.48ZM94.16,35.73A6.8,6.8,0,0,0,85.76,39l-.34.58.6.32q4.94,2.67,9.91,5.28l.57.3.31-.57a7.12,7.12,0,0,0,.67-5.41A5.83,5.83,0,0,0,94.64,36,3.49,3.49,0,0,0,94.16,35.73Z"/>
            <path class="banner yellow-banner" d="M181.21,116.71a.72.72,0,0,0,.88-.42.79.79,0,0,0,0-.58.57.57,0,0,0-.3-.36,15.42,15.42,0,0,0-3.71-.88,12.8,12.8,0,0,0,3.05,2.23h0Z"/>
            <path class="banner yellow-banner" d="M139.65,180.77a.7.7,0,0,0,.55,0,.75.75,0,0,0,.43-.41,15.45,15.45,0,0,0,1-3.94,14.87,14.87,0,0,0-2.33,3.38A.72.72,0,0,0,139.65,180.77Z"/>
            <path class="banner yellow-banner" d="M150.53,184.16a1.25,1.25,0,0,0,.91,0,1.27,1.27,0,0,0,.65-.68,1.18,1.18,0,0,0,0-.92,19.16,19.16,0,0,0-3.27-4.81,19.11,19.11,0,0,0,1,5.8,1.1,1.1,0,0,0,.58.6Z"/>
            <path class="banner yellow-banner" d="M44.29,135.05a.82.82,0,0,0,1-.34,15.28,15.28,0,0,0,1.32-3.85,16,16,0,0,0-2.63,3.2.74.74,0,0,0-.07.56.68.68,0,0,0,.34.42h0Z"/>
            <path class="banner yellow-banner" d="M93.89,118.91c-4.38-1.84-5.93-8.3-3.51-14.71,2.51-6.65,8.32-10.84,12.94-9.34a3.66,3.66,0,0,1,.46.18l.34.15c4,2,5.39,8.23,3.15,14.48-2.4,6.74-8.19,11-12.9,9.42Zm9.3-22.64-.39-.15c-2.42-.79-4.78.48-6,1.31a15.24,15.24,0,0,0-5.27,7.12c-2.08,5.53-.92,11.25,2.91,13.13l.4.15c4,1.29,9.09-2.6,11.21-8.49,2-5.54.84-11.23-2.64-13Z"/>
            <path class="banner yellow-banner" d="M103.39,159.62c3.42,1.44,6.9,2.8,10.38,4.06,1.27-5.07,2.61-10.19,4-15.25l-1.75.65a21.51,21.51,0,0,1-5.31,1.2,10.85,10.85,0,0,1-.48,1.39,9.08,9.08,0,0,1-1.65,2.68l-2.83,3.23.73-4.21c.08-.5.19-1,.29-1.45s.29-1.4.32-1.51l-.62,0a24.81,24.81,0,0,1-3.83-.51l-.39.57a9.49,9.49,0,0,1-2.25,2.22l-3.52,2.46,1.72-3.93c.18-.42.38-.83.58-1.23,0,0,.39-.79.5-1-.46-.16-.92-.34-1.36-.53l-.82-.36A22.63,22.63,0,0,1,95,146.92c-.15.27-.29.55-.43.83-.25.49-.48.92-.73,1.37l-2.11,3.68-.16-4.21a8.88,8.88,0,0,1,.43-3.1c.06-.18.11-.36.18-.54a24.3,24.3,0,0,1-2.79-2.67l-.39-.45-.19.21c-.28.3-.54.6-.8.9s-.69.78-1,1.11L84,147.15,84.9,143a8.88,8.88,0,0,1,1.18-2.92,10.35,10.35,0,0,1,.79-1.16A22.37,22.37,0,0,1,84.63,134l-.55-1.75c-3.24,4.1-6.59,8.26-10,12.38a221.66,221.66,0,0,0,29.29,15Z"/>
            <path class="banner yellow-banner" d="M100.06,144c-.29-.12-.57-.24-.84-.37-.57-.27-1.15-.57-1.72-.88.34-.52,4.16-6.07,4.16-6.07l-3.94,1.81a9.09,9.09,0,0,0-2.58,1.84c-.19.18-.37.37-.55.56-.74-.54-1.46-1.11-2.15-1.71l-.43-.39,5.53-5-4.22.8a9,9,0,0,0-2.93,1.18c-.27.16-.54.33-.8.52-1-1.07-1.9-2.19-2.83-3.41l-1.56-2,1.2-1.51L84.71,127c-7.87-11.16-7.94-24.49-.19-33.95a38.74,38.74,0,0,1,43.92-10.38c.46.19.9.39,1.34.59a36.87,36.87,0,0,1,19.55,40.87c-3,11.75-13.83,19.83-27.69,20.57l-2.93.16-.49,1.81-2.63.07c-1.47,0-3,0-4.48-.14,0-.3,0-.59-.06-.88a8.64,8.64,0,0,0-.84-3L108.32,139s-.61,6.61-.66,7.19l-.61-.1c-.88-.16-1.78-.37-2.68-.61,0-.22.08-.44.1-.65a8.68,8.68,0,0,0-.07-3.12l-.94-4.14s-2.19,6.39-2.36,6.85Zm9.78-21.27-.55.12c-2,.44-8.44,2.15-10.54,5.88a5.16,5.16,0,0,0-.64,3.88,3.49,3.49,0,0,0,1.84,2.16,3.74,3.74,0,0,0,2.62,0,7.23,7.23,0,0,0,1.39-.64,7.64,7.64,0,0,0,.22,1.48,3.6,3.6,0,0,0,1.56,2.23l.37.18a3.44,3.44,0,0,0,2.37.07,5.32,5.32,0,0,0,3-2.63c2-3.75,0-10-.76-11.94l-.15-.39Zm14,16.23a4.36,4.36,0,0,0,1.6.33,4.63,4.63,0,0,0,3.84-1.91l.22.1a4.38,4.38,0,0,0,3.83-.22,4.8,4.8,0,0,0,2.41-3.18,4.69,4.69,0,0,0,3.54-1.58,4.8,4.8,0,0,0,1.19-3.68,4.76,4.76,0,0,0,2.85-2.61,4.55,4.55,0,0,0,0-3.85,4.81,4.81,0,0,0,1.93-3.5,4.37,4.37,0,0,0-1.49-3.7,4.65,4.65,0,0,0,.24-4.23,4.14,4.14,0,0,0-2.17-2.13,4.22,4.22,0,0,0-1.37-.32,4.2,4.2,0,0,0-2.58-3.56,4.43,4.43,0,0,0-4.34.64,4.18,4.18,0,0,0-1.23-.79,4.27,4.27,0,0,0-2.78-.18,4.85,4.85,0,0,0-3.11,2.68,4.53,4.53,0,0,0-3.8.89,4.91,4.91,0,0,0-1.85,3.45,4.84,4.84,0,0,0-3.25,2.06,4.77,4.77,0,0,0-.72,3.83,4.82,4.82,0,0,0-2.51,3,4.51,4.51,0,0,0,.63,3.87,4.92,4.92,0,0,0-1.23,4.17,4.33,4.33,0,0,0,2.47,3.1,4.44,4.44,0,0,0,1.16,4.3,6,6,0,0,0,.64.51,6.42,6.42,0,0,0,.68.36,4.39,4.39,0,0,0,3,.13A4.34,4.34,0,0,0,123.79,139ZM99.06,123.46a4.48,4.48,0,0,0,3.64-.09h0l.28-.16a4.79,4.79,0,0,0,2.38-3.37,4.72,4.72,0,0,0,3.54-1.86,4.78,4.78,0,0,0,.91-3.77,4.83,4.83,0,0,0,2.65-2.84,4.59,4.59,0,0,0-.28-3.83,4.92,4.92,0,0,0,1.67-3.54,4.34,4.34,0,0,0-1.59-3.49,4.67,4.67,0,0,0,.26-4,4.13,4.13,0,0,0-2.21-2.23,4.07,4.07,0,0,0-1-.28,4.22,4.22,0,0,0-2.14-3.74,3.68,3.68,0,0,0-.44-.23,4.41,4.41,0,0,0-4,.4,4.08,4.08,0,0,0-1.47-1,4.33,4.33,0,0,0-2.67-.2,4.8,4.8,0,0,0-3.29,2.78A4.55,4.55,0,0,0,91.35,93a4.83,4.83,0,0,0-1.67,3.62A4.76,4.76,0,0,0,86.54,99a4.62,4.62,0,0,0-.37,3.81,4.78,4.78,0,0,0-2.26,3.15,4.46,4.46,0,0,0,.87,3.72,4.7,4.7,0,0,0-1.11,3.81,4.28,4.28,0,0,0,2.38,3.21,4.42,4.42,0,0,0,.81,4.14A4.18,4.18,0,0,0,88.5,122a4.39,4.39,0,0,0,2.56.26,4.43,4.43,0,0,0,2.34,2.45l.35.13a6.4,6.4,0,0,0,.81.19,4.67,4.67,0,0,0,4.18-1.74C98.85,123.36,99,123.42,99.06,123.46Zm38.15-30.32a4.73,4.73,0,0,0-3.69,0,30.66,30.66,0,0,0-7.11,4.74c-3.68,3.17-4,4.27-3.73,5a1.44,1.44,0,0,0,.86.82c2.26,1,9.65.25,13.17-1.25a5.31,5.31,0,0,0,2.79-2.71,5.23,5.23,0,0,0,.25-3.84,4.46,4.46,0,0,0-2.48-2.76Zm-20.53-9.85a4.65,4.65,0,0,0-3.35-.05,5.42,5.42,0,0,0-3,2.53,5.19,5.19,0,0,0-.51,3.82c1,3.71,5,10,7.27,11.06a1.38,1.38,0,0,0,1,.07c.73-.26,1.44-1.16,1.77-5.93a29.15,29.15,0,0,0-.49-8.39,4.53,4.53,0,0,0-2.28-2.91A3.11,3.11,0,0,0,116.68,83.29Zm12.34.93h0a5.09,5.09,0,0,0-6.4,2.59c-1.84,3.59-3.28,11.32-2.53,13.54a1.31,1.31,0,0,0,.69.84c2.07.87,8.7-6.71,10.45-10.22a5.23,5.23,0,0,0,.31-4,4.58,4.58,0,0,0-2.32-2.65Z"/>
            <path class="banner yellow-banner" d="M35,128.73a1.19,1.19,0,0,0,.79.05,20.54,20.54,0,0,0,5.35-2.7,20.34,20.34,0,0,0-5.91.4,1.25,1.25,0,0,0-.76.57,1.16,1.16,0,0,0,.47,1.66Z"/>
            <path class="banner yellow-banner" d="M123.14,132.93a6,6,0,0,1-1-.51,7,7,0,0,1-2.92-4.61c-.68-3.37.34-7.5,2.73-11.06,3.64-5.42,9.45-8.22,13.53-6.51a7.07,7.07,0,0,1,.94.5c4,2.64,4.13,9.66.27,15.65-3.55,5.49-9.39,8.3-13.58,6.54Zm11.78-21.45h0c-3.54-1.49-8.67,1.07-11.92,5.94-2.14,3.2-3.09,7-2.48,10a5.87,5.87,0,0,0,2.43,3.87,7,7,0,0,0,.81.42c3.61,1.52,8.75-1.05,11.95-6a14.94,14.94,0,0,0,2.57-8.41c-.05-1.43-.45-4-2.57-5.42a3.88,3.88,0,0,0-.63-.35Z"/>
            <path class="banner yellow-banner" d="M40.66,118.77a18.4,18.4,0,0,0,2.94.9,14.1,14.1,0,0,0-3-2.61l0,0a.8.8,0,0,0-1,.32.7.7,0,0,0-.09.56.63.63,0,0,0,.31.42l.29.16Z"/>
            <path class="banner blue-banner" d="M513,261.27a20.2,20.2,0,0,0,5.82-2.81,1.37,1.37,0,0,0,.52-.93,1.47,1.47,0,0,0-.26-1.08,1.36,1.36,0,0,0-.56-.44,1.6,1.6,0,0,0-.39-.11,1.25,1.25,0,0,0-.87.27A22.89,22.89,0,0,0,513,261.27Z"/>
            <path class="banner blue-banner" d="M514.71,269.26a12.58,12.58,0,0,0,2.72.84h0a.84.84,0,0,0,.91-.76.93.93,0,0,0-.16-.69.83.83,0,0,0-.37-.3l-.34-.08a17.54,17.54,0,0,0-4.45.21C513.61,268.77,514.17,269,514.71,269.26Z"/>
            <path class="banner blue-banner" d="M475,229.62l.17-.73-.75-.07q-9-.87-17.89-1.84l2.06-11.08q8.46,2.49,17,4.89l.79.22s.83-13.06,1.23-19.18q6.84,1.24,13.68,2.42-2.49,8.79-5,17.58l-.23.77.8.07q9,.75,18,1.39l-1.61,11.14q-8.64-2.23-17.24-4.58l-.75-.21-.08.78q-1.83,18.13-3.62,36.3c-5-.86-9.91-1.73-14.86-2.64Q470.81,247.24,475,229.62Zm26.39,3.58.71.18,1.16-7.93-.71,0q-9.13-.66-18.29-1.44,2.59-8.88,5.14-17.77l.2-.7-.72-.13q-4.71-.81-9.4-1.67l-.73-.13s-.83,13.13-1.2,19.33q-8.67-2.41-17.28-4.94l-.7-.2-1.45,7.9.71.07q9,1,18,1.82-4.12,17.72-8.33,35.43l-.16.67.69.13c3.5.63,7,1.26,10.51,1.86l.7.12.07-.7q1.83-18.26,3.72-36.5Q492.66,230.93,501.35,233.2Z"/>
            <path class="banner blue-banner" d="M432.77,256.63a15.37,15.37,0,0,0,4.59-.19c-.55-.28-1.11-.54-1.64-.77a14,14,0,0,0-2.36-.78l-.34-.06a.79.79,0,0,0-.63.16.92.92,0,0,0,.19,1.58Z"/>
            <path class="banner blue-banner" d="M505.89,258.61a17.59,17.59,0,0,0,1.4-4.48.94.94,0,0,0-.52-1l-.41-.05a.89.89,0,0,0-.72.78A17.91,17.91,0,0,0,505.89,258.61Z"/>
            <path class="banner blue-banner" d="M386.47,288.67a11.45,11.45,0,0,1-2-1.13,11.31,11.31,0,0,1-1.74-1.49,11.45,11.45,0,0,1-1.42-1.81,12.23,12.23,0,0,1-1-2.05,13,13,0,0,1-.61-2.22,13.54,13.54,0,0,1-.16-2.3,11.94,11.94,0,0,1,.28-2.29,11.64,11.64,0,0,1,.73-2.18,12.3,12.3,0,0,1,1.12-2,12.49,12.49,0,0,1,3.26-3.17,12.45,12.45,0,0,1,2-1,12.18,12.18,0,0,1,2.17-.63,13.49,13.49,0,0,1,1.41-.15l2.35-.12L390.78,265a11.83,11.83,0,0,1,4.75-22.08l2.25-.15-2-1.09a11.91,11.91,0,0,1,4.8-22.07l2.2-.17-1.92-1.07a12,12,0,0,1,4.8-22.07l2.16-.17L406,195.05c-4.21-2.38-6.35-7.62-5.19-12.75s5.3-9,10.07-9.32l2.16-.17-1.89-1.06a10.41,10.41,0,0,1-3.9-3.92,12.73,12.73,0,0,1-.89-2,13.52,13.52,0,0,1-.51-2.2,13.33,13.33,0,0,1-.1-2.29A12.83,12.83,0,0,1,406,159a12.47,12.47,0,0,1,.71-2.19,13.33,13.33,0,0,1,1.06-2,12.25,12.25,0,0,1,1.4-1.77,10.65,10.65,0,0,1,1.64-1.45,9.88,9.88,0,0,1,7.84-1.77,9.76,9.76,0,0,1,1.56.5,10.19,10.19,0,0,1,4.85,4.39,10.39,10.39,0,0,1,.9,2,11.87,11.87,0,0,1,.53,2.19c0,.18.28,2.88.28,2.88l1-1.89c2.36-4.34,6.84-6.67,11.15-5.8a9.33,9.33,0,0,1,1.75.53,11.06,11.06,0,0,1,6.36,9.12l.25,2.13,1-1.9c2.28-4.36,6.71-6.75,11-5.95a9,9,0,0,1,1.9.57,11.12,11.12,0,0,1,6.38,9l.28,2.11,1-1.9c2.21-4.4,6.59-6.86,10.9-6.14a9.26,9.26,0,0,1,2.05.6,11.21,11.21,0,0,1,6.41,8.79l.32,2.12.92-1.93c2.12-4.43,6.45-7,10.78-6.32a9,9,0,0,1,2.21.62,11.3,11.3,0,0,1,6.41,8.63l.36,2.11.89-2c2-4.46,6.33-7.07,10.65-6.49a9.24,9.24,0,0,1,2.37.64,11.19,11.19,0,0,1,6.42,8.47l.39,2.11.86-2c2-4.5,6.19-7.19,10.53-6.68a9.12,9.12,0,0,1,2.51.66,11.34,11.34,0,0,1,6.45,8.35l.49,2,1.05-2.53a12.25,12.25,0,0,1,1.14-1.93,11.06,11.06,0,0,1,1.45-1.63,9.58,9.58,0,0,1,1.7-1.28,9.34,9.34,0,0,1,1.86-.89,9.56,9.56,0,0,1,2-.46,8.8,8.8,0,0,1,4,.4c.23.08.45.16.68.26a8.66,8.66,0,0,1,1.18.59,10,10,0,0,1,1.68,1.24,11.71,11.71,0,0,1,1.46,1.6,12.42,12.42,0,0,1,1.14,1.9,12.55,12.55,0,0,1,.81,2.12,14,14,0,0,1,.43,2.27,13.5,13.5,0,0,1,0,2.3,12.46,12.46,0,0,1-.39,2.29,13.18,13.18,0,0,1-.75,2.14,12.17,12.17,0,0,1-1.14,1.94,10.87,10.87,0,0,1-1.43,1.65,9.83,9.83,0,0,1-1.69,1.29,10.44,10.44,0,0,1-1.9.9,9.25,9.25,0,0,1-1.25.34l-2,.45,2,.82c4.41,1.86,7.22,6.8,6.83,12s-3.95,9.58-8.65,10.53l-2,.44,2,.83a12.06,12.06,0,0,1,6.95,12A11.35,11.35,0,0,1,559,243.5l-2,.46,2,.84a12.09,12.09,0,0,1,7.05,12,11.36,11.36,0,0,1-9,10.49l-2,.49,2,.84a12.12,12.12,0,0,1,7.15,12,11.39,11.39,0,0,1-9.2,10.48l-2.3.41,2.56,1c.31.13.62.27.91.42a12.59,12.59,0,0,1,1.88,1.26,13.94,13.94,0,0,1,1.63,1.63,11.52,11.52,0,0,1,1.29,1.92,12.43,12.43,0,0,1,1.39,4.39,11.69,11.69,0,0,1,0,2.3,10.68,10.68,0,0,1-.4,2.27,12.45,12.45,0,0,1-.81,2.13,11.66,11.66,0,0,1-1.23,1.92,12.2,12.2,0,0,1-1.57,1.65,11.14,11.14,0,0,1-1.88,1.28,12.62,12.62,0,0,1-2.07.88,11.75,11.75,0,0,1-2.24.46,11,11,0,0,1-2.29,0,12.63,12.63,0,0,1-2.25-.45,9.48,9.48,0,0,1-1-.38,10.08,10.08,0,0,1-1.1-.52,13.09,13.09,0,0,1-1.92-1.28,12.56,12.56,0,0,1-1.62-1.64,12,12,0,0,1-1.28-1.93,13.86,13.86,0,0,1-.88-2.15c-.05-.18-.63-2.65-.63-2.65l-.8,1.79a11.3,11.3,0,0,1-11.7,6.69,11.74,11.74,0,0,1-10.09-9.2l-.42-1.9-.82,1.76a11.35,11.35,0,0,1-11.83,6.43,11.11,11.11,0,0,1-2.95-.8,11.77,11.77,0,0,1-7-8.55l-.37-1.9-.86,1.73a11.39,11.39,0,0,1-11.94,6.23,11.59,11.59,0,0,1-2.78-.77,11.86,11.86,0,0,1-7-8.74l-.34-1.91-.89,1.73a11.46,11.46,0,0,1-14.64,5.28,11.78,11.78,0,0,1-7-8.92l-.31-1.9-.92,1.69a11.44,11.44,0,0,1-12.18,5.83,11.24,11.24,0,0,1-2.4-.72,11.7,11.7,0,0,1-7-9.09l-.27-1.92-.95,1.68a11.5,11.5,0,0,1-12.29,5.63,12,12,0,0,1-2.21-.68,11.68,11.68,0,0,1-7-9.34l-.31-1.83-1,1.71c-.1.17-.2.35-.3.5a13.21,13.21,0,0,1-1.46,1.77,11.11,11.11,0,0,1-1.78,1.44,10.85,10.85,0,0,1-2,1.06,13.13,13.13,0,0,1-2.2.63,11.8,11.8,0,0,1-2.28.2,12.56,12.56,0,0,1-2.28-.27,11.75,11.75,0,0,1-2-.62Zm11.41-10-6-1.29,1.3-6.06-.64-.14a6.68,6.68,0,0,0-1.32-.15,7.83,7.83,0,0,0-1.32.11,8.76,8.76,0,0,0-1.28.36,7.35,7.35,0,0,0-1.15.61,5.53,5.53,0,0,0-1.07.86,8.29,8.29,0,0,0-.85,1,8,8,0,0,0-.66,1.17,6.76,6.76,0,0,0-.4,1.28,6.64,6.64,0,0,0-.17,1.33,6.86,6.86,0,0,0,.11,1.34,8.5,8.5,0,0,0,.35,1.29,6.16,6.16,0,0,0,.61,1.2,6.79,6.79,0,0,0,3.11,2.64,7.67,7.67,0,0,0,1.15.36,6.61,6.61,0,0,0,1.33.15,6.8,6.8,0,0,0,1.34-.11,6.45,6.45,0,0,0,1.28-.37,7.21,7.21,0,0,0,1.2-.62,6.91,6.91,0,0,0,1-.84,7,7,0,0,0,1.91-3.48Zm22.65,4.65-.64-.13q-6-1.19-12-2.41l-.65-.14-.13.65a6.84,6.84,0,0,0,5.31,8.08,6.67,6.67,0,0,0,5.08-1,6.75,6.75,0,0,0,2.89-4.4Zm22.72,4.27-.64-.12q-6-1.08-12-2.21l-.65-.12-.12.65a6.9,6.9,0,0,0,4.06,7.57,6.24,6.24,0,0,0,1.4.41,6.62,6.62,0,0,0,5.05-1.09,6.73,6.73,0,0,0,2.81-4.45Zm22.79,3.9-.64-.11q-6-1-12.06-2l-.65-.12-.11.66a6.86,6.86,0,0,0,4.1,7.46,6.47,6.47,0,0,0,1.5.44,6.62,6.62,0,0,0,5-1.18,6.73,6.73,0,0,0,2.73-4.5Zm-59-28.23a4.39,4.39,0,0,0-5.15,3.45,4.43,4.43,0,0,0,2.58,5,4,4,0,0,0,.79.25,4.3,4.3,0,0,0,3.25-.63,4.37,4.37,0,0,0,1.9-2.84,4.46,4.46,0,0,0-2.59-5A4.73,4.73,0,0,0,407.09,263.29ZM488.88,295l-.64-.1q-6-.87-12.09-1.81l-.65-.11-.1.66a6.83,6.83,0,0,0,5.74,7.81,6.65,6.65,0,0,0,5-1.26,6.73,6.73,0,0,0,2.64-4.55ZM418.2,265.57a4.25,4.25,0,0,0-3.23.64,4.49,4.49,0,0,0,.7,7.82,3.72,3.72,0,0,0,.82.25,4.23,4.23,0,0,0,3.24-.65,4.4,4.4,0,0,0,1.88-2.86,4.45,4.45,0,0,0-2.6-4.95A3.8,3.8,0,0,0,418.2,265.57Zm11.1,2.18a4.28,4.28,0,0,0-3.22.67,4.48,4.48,0,0,0,.74,7.8,4.92,4.92,0,0,0,.85.26,4.3,4.3,0,0,0,3.23-.68,4.43,4.43,0,0,0,1.86-2.88,4.48,4.48,0,0,0-2.61-4.91A4.18,4.18,0,0,0,429.3,267.75ZM398.22,248l-.65-.14a6.87,6.87,0,0,0-4,13,6.49,6.49,0,0,0,1.13.36l.64.14Zm42.19,21.81a4.19,4.19,0,0,0-3.2.7,4.4,4.4,0,0,0-1.85,2.88,4.47,4.47,0,0,0,2.61,4.9,4.11,4.11,0,0,0,.89.26,4.26,4.26,0,0,0,3.23-.7,4.38,4.38,0,0,0,1.83-2.89,4.37,4.37,0,0,0-3.51-5.15Zm71.37,28.34-.64-.08c-4-.52-8.08-1.07-12.11-1.62l-.66-.09-.09.66a6.94,6.94,0,0,0,4.15,7.25,7.26,7.26,0,0,0,1.73.47,6.6,6.6,0,0,0,5-1.35,6.82,6.82,0,0,0,2.57-4.59ZM409.42,251.91a4.24,4.24,0,0,0-3.19.61,4.48,4.48,0,0,0,.63,7.84,3.52,3.52,0,0,0,.78.24,4.2,4.2,0,0,0,3.21-.61,4.5,4.5,0,0,0-.66-7.84A3.29,3.29,0,0,0,409.42,251.91Zm125.3,49-.65-.07q-6.06-.69-12.13-1.42l-.67-.08-.07.66a7,7,0,0,0,4.18,7.13,6.76,6.76,0,0,0,1.84.49,6.6,6.6,0,0,0,4.95-1.43,6.75,6.75,0,0,0,2.48-4.64Zm-85.37-64.44a5.63,5.63,0,0,0-4.23,1,6.14,6.14,0,0,0-2.54,4l-.09.56a26.17,26.17,0,0,0-2-3.52,6.55,6.55,0,0,0-2.86-2.36,6,6,0,0,0-1.43-.41,6.47,6.47,0,0,0-5,1.23,7.15,7.15,0,0,0-1.6,9.64,24.21,24.21,0,0,0,2.35,2.87l-.11,0a6,6,0,0,0-6.77,5.07,6.15,6.15,0,0,0,1,4.52,5.82,5.82,0,0,0,2.54,2.07,6.46,6.46,0,0,0,1.32.38,29.59,29.59,0,0,0,10-.5c2.88-.52,6.14-1.12,8.22-4.2a42.16,42.16,0,0,0,4.66-9.21,23.54,23.54,0,0,0,1.12-4.06,6.14,6.14,0,0,0-3.52-6.67A5.94,5.94,0,0,0,449.35,236.51Zm102.14,60-.67-.06-.52,6.16-6.07-.63-.06.67a7.49,7.49,0,0,0,0,1.34,6.92,6.92,0,0,0,.28,1.31,6.66,6.66,0,0,0,.5,1.25,7.7,7.7,0,0,0,.76,1.13,6.56,6.56,0,0,0,.95.95,6.3,6.3,0,0,0,1.12.76l.59.28c.21.09.42.16.63.23a7.25,7.25,0,0,0,1.31.27,7.5,7.5,0,0,0,1.34,0,8.26,8.26,0,0,0,1.31-.27,6.13,6.13,0,0,0,1.21-.52,6.29,6.29,0,0,0,1.1-.75,7,7,0,0,0,.93-1,6.32,6.32,0,0,0,.71-1.12,6,6,0,0,0,.49-1.25,6.52,6.52,0,0,0,.23-1.32,6.78,6.78,0,0,0,0-1.35,6.59,6.59,0,0,0-.29-1.3,5.8,5.8,0,0,0-.51-1.23,5.58,5.58,0,0,0-.76-1.13,6.89,6.89,0,0,0-2.63-2A6.45,6.45,0,0,0,551.49,296.51Zm-139.74-56a4.17,4.17,0,0,0-3.16.61,4.51,4.51,0,0,0,.61,7.85,4,4,0,0,0,.77.23,4.2,4.2,0,0,0,3.17-.61,4.52,4.52,0,0,0-.63-7.85A3.93,3.93,0,0,0,411.75,240.53Zm94.51,39.78a4.26,4.26,0,0,0-3.17.86,4.41,4.41,0,0,0-1.69,3,4.48,4.48,0,0,0,2.67,4.69,4.21,4.21,0,0,0,1.09.3,4.27,4.27,0,0,0,3.19-.86,4.39,4.39,0,0,0,1.67-3,4.5,4.5,0,0,0-2.68-4.68A4.57,4.57,0,0,0,506.26,280.31Zm1-37.66.72.19,3.44-24.54-.71-.05q-8.53-.56-17.07-1.24,2.4-8.53,4.78-17.08l.2-.7-.72-.12c-8.35-1.4-16.74-2.89-24.94-4.42l-.72-.14s-.88,12.59-1.29,18.52q-8.13-2.32-16.21-4.75l-.7-.21-4.61,24.32.71.08q8.79,1,17.59,1.88-4.17,17.36-8.43,34.71l-.16.68.68.13c8.59,1.6,17.42,3.17,26.26,4.64l.7.12.07-.7q1.68-17.88,3.41-35.76Q498.77,240.49,507.29,242.65Zm10.17,39.13a4.17,4.17,0,0,0-3.15.87,4.43,4.43,0,0,0-1.67,3,4.5,4.5,0,0,0,2.68,4.65,4.39,4.39,0,0,0,1.13.3,4.21,4.21,0,0,0,3.18-.89,4.37,4.37,0,0,0,1.64-3,4.5,4.5,0,0,0-2.68-4.64A4.39,4.39,0,0,0,517.46,281.78Zm11.22,1.36a4.2,4.2,0,0,0-3.14.91,4.42,4.42,0,0,0-1.64,3,4.49,4.49,0,0,0,2.69,4.61,4.25,4.25,0,0,0,4.33-.6,4.44,4.44,0,0,0,1.62-3,4.53,4.53,0,0,0-2.7-4.61A4.24,4.24,0,0,0,528.68,283.14ZM403.23,224.7l-.64-.14a6.89,6.89,0,0,0-4,13.06,6.6,6.6,0,0,0,1.09.35l.65.14Zm136.71,59.73a4.2,4.2,0,0,0-3.15.93,4.41,4.41,0,0,0-1.6,3,4.51,4.51,0,0,0,2.7,4.59,4.44,4.44,0,0,0,1.19.31,4.24,4.24,0,0,0,3.16-.94,4.35,4.35,0,0,0,1.59-3,4.54,4.54,0,0,0-2.7-4.57A4.08,4.08,0,0,0,539.94,284.43ZM414.08,229.14a4.13,4.13,0,0,0-3.12.61,4.46,4.46,0,0,0-1.93,2.87,4.41,4.41,0,0,0,2.51,5,4.66,4.66,0,0,0,.75.23,4.09,4.09,0,0,0,3.13-.61,4.52,4.52,0,0,0-.6-7.86A3.54,3.54,0,0,0,414.08,229.14Zm106.21,34.38-.13,0a23.16,23.16,0,0,0,3.08-2,6.94,6.94,0,0,0,2.56-4.57,7.2,7.2,0,0,0-1.27-5.12,6.53,6.53,0,0,0-4.36-2.71,6.41,6.41,0,0,0-4.9,1.32,24.85,24.85,0,0,0-2.9,2.75c0-.2,0-.4.08-.59a6.16,6.16,0,0,0-3.61-6.44,5.9,5.9,0,0,0-1.4-.38,5.59,5.59,0,0,0-4.18,1.13,6.08,6.08,0,0,0-2.35,4.12,23.49,23.49,0,0,0-.12,4.21,42.4,42.4,0,0,0,1.76,10.23c1.09,3.58,4,5.16,6.85,6.69,1.13.61,2.43,1.27,3.83,1.86a23.09,23.09,0,0,0,5.52,1.62,5.72,5.72,0,0,0,4.22-1.16,6.05,6.05,0,0,0,2.29-4,6,6,0,0,0-5-6.92ZM541,272.85a4.12,4.12,0,0,0-3.1.92,4.41,4.41,0,0,0-1.61,3,4.52,4.52,0,0,0,2.68,4.59,4,4,0,0,0,1.18.3,4.13,4.13,0,0,0,3.12-.93,4.4,4.4,0,0,0,1.6-3,4.53,4.53,0,0,0-2.69-4.57A4,4,0,0,0,541,272.85Zm12.47-.15-.66-.07-1.16,13.67.65.07a6.45,6.45,0,0,0,4.8-1.48,6.83,6.83,0,0,0,2.41-4.72,7,7,0,0,0-4.16-7A6.41,6.41,0,0,0,553.5,272.7ZM408.25,201.38l-.65-.14a6.65,6.65,0,0,0-7.71,5.31,6.74,6.74,0,0,0,3.77,7.75,6.22,6.22,0,0,0,1.06.33l.65.15Zm133.88,59.89a4.11,4.11,0,0,0-3.06.91,4.42,4.42,0,0,0-1.62,3,4.49,4.49,0,0,0,2.66,4.59,3.89,3.89,0,0,0,1.16.3,4.13,4.13,0,0,0,3.09-.92,4.44,4.44,0,0,0,1.6-3.05,4.52,4.52,0,0,0-2.67-4.57A3.89,3.89,0,0,0,542.13,261.27ZM425.74,187.08l-.46.13-.15.11c-.54.41-.59,1-.71,2.14a22.48,22.48,0,0,1-.86,4.64,30.74,30.74,0,0,1-4.93,9.65,7.08,7.08,0,0,0-1.57,5.21,3.89,3.89,0,0,0,2,2.68,4.52,4.52,0,0,0,.49.25,5.08,5.08,0,0,0,.91.28,7.56,7.56,0,0,0,7.72-3.8c4.33-6.31,1.16-16.74-.49-19.83a2.81,2.81,0,0,0-1.23-1.37A1.19,1.19,0,0,0,425.74,187.08Zm117.49,62.61a4.07,4.07,0,0,0-3,.91,4.56,4.56,0,0,0,1,7.64,4.13,4.13,0,0,0,1.15.29,4.09,4.09,0,0,0,3-.92,4.42,4.42,0,0,0,1.6-3.05,4.53,4.53,0,0,0-2.66-4.58A4,4,0,0,0,543.23,249.69Zm12.29-.8-.67-.07-1.16,13.69.65.06a6.31,6.31,0,0,0,4.68-1.45,7,7,0,0,0,2.42-4.76,7,7,0,0,0-4.12-7A6,6,0,0,0,555.52,248.89ZM431.1,190.83a1.16,1.16,0,0,0-1.16.37,1.26,1.26,0,0,0-.26,1.19c.59,2,2.8,6.86,5.23,9.32a3.45,3.45,0,0,0,1.15.78,4,4,0,0,0,.67.21,3.82,3.82,0,0,0,.68.07,3.73,3.73,0,0,0,2.76-1.3,4.22,4.22,0,0,0,1-2.82,3.93,3.93,0,0,0-1.13-2.72A24.32,24.32,0,0,0,433,191.5,16.93,16.93,0,0,0,431.1,190.83Zm-17.84-12.77-.64-.14a6.6,6.6,0,0,0-7.6,5.33,6.7,6.7,0,0,0,3.7,7.74,5,5,0,0,0,1,.32l.65.15Zm26.82-4.5a4.81,4.81,0,0,0-2.17.51,4.54,4.54,0,0,0-1.73,1.59,5,5,0,0,0-.82,2.1,3,3,0,0,0,.8,2.58l.23.17.11.05a1.15,1.15,0,0,0,1.2-.2,1.26,1.26,0,0,0,.3-1.48.46.46,0,0,1,0-.38,1.72,1.72,0,0,1,.47-.66,1.22,1.22,0,0,1,.52-.33,1.15,1.15,0,0,1,.61,0,1.35,1.35,0,0,1,.34.11,2.22,2.22,0,0,1,.91.71,3.79,3.79,0,0,1,.7,1.65,4.73,4.73,0,0,1-.83,3.65,5.44,5.44,0,0,1-3.24,2,6.7,6.7,0,0,1-4-.55h0a9.78,9.78,0,0,1-1.93-1.16,16.86,16.86,0,0,1-1.81-1.68,15.83,15.83,0,0,1-4-9.69,1.2,1.2,0,0,0-.71-1l-.26-.08h-.11a1.22,1.22,0,0,0-1.22.95,15.56,15.56,0,0,0,0,6.89,17.15,17.15,0,0,0,5,8.76,13.32,13.32,0,0,0,2.85,2c.28.14.58.29.91.43a11.2,11.2,0,0,0,2.16.66,10,10,0,0,0,4,0,10.11,10.11,0,0,0,6.4-4.32,10.28,10.28,0,0,0,1-1.89,10,10,0,0,0,.55-2.1,10.13,10.13,0,0,0-.28-4.18,7.57,7.57,0,0,0-2.16-3.56,5.92,5.92,0,0,0-1.74-1.11A5.34,5.34,0,0,0,440.08,173.56Zm117.45,51.53-.66-.07-1.16,13.68.64.06a6.09,6.09,0,0,0,4.56-1.42,7.11,7.11,0,0,0-1.63-11.81A6.25,6.25,0,0,0,557.53,225.09Zm-13.21-19.16h0c-.82-.35-1.6.26-2.18.84-2.47,2.43-8.54,11.41-6.25,18.75a7.88,7.88,0,0,0,4.56,5.57,6.24,6.24,0,0,0,1.68.44,4.59,4.59,0,0,0,1.49-.06,3.82,3.82,0,0,0,2.67-2,7.21,7.21,0,0,0,0-5.46,31,31,0,0,1-1.9-10.73,23.23,23.23,0,0,1,.54-4.71c.22-1.12.33-1.68-.06-2.25l-.33-.31Zm-6.07,1.93h-.13a24.37,24.37,0,0,0-10,2.09,3.89,3.89,0,0,0-1.88,2.26,4.19,4.19,0,0,0,.14,3,3.88,3.88,0,0,0,2.2,2.07l0,0a3.92,3.92,0,0,0,.66.15,3.53,3.53,0,0,0,2-.38c3-1.59,6.58-5.59,7.71-7.27a1.32,1.32,0,0,0,.1-1.22,1.25,1.25,0,0,0-.62-.62ZM416.7,162.08l5.43,1.17.13-.65a7.28,7.28,0,0,0-.76-5.08,6,6,0,0,0-2.9-2.61,5.57,5.57,0,0,0-3.41-.3A6,6,0,0,0,414,155a6.08,6.08,0,0,0-1.09.64,7.26,7.26,0,0,0-2.8,4.31,7.39,7.39,0,0,0,.73,5.11,5.85,5.85,0,0,0,.74,1,5.69,5.69,0,0,0,.91.86,5.59,5.59,0,0,0,1.26.73,5.75,5.75,0,0,0,1,.31l.65.15Zm21.34-3.2a5.84,5.84,0,0,0-4.7,1.12,7.23,7.23,0,0,0-2.7,4.37l-.13.64.64.14q5.43,1.11,10.87,2.19l.65.13.13-.66a6.77,6.77,0,0,0-3.69-7.6A6.33,6.33,0,0,0,438,158.88Zm111.9,32.52a1.15,1.15,0,0,0-1.35.74,15.37,15.37,0,0,1-6.65,8,16.63,16.63,0,0,1-2.22,1,8.84,8.84,0,0,1-2.18.51,6.91,6.91,0,0,1-3.4-.44,5,5,0,0,1-.57-.28,5.54,5.54,0,0,1-2.51-2.95,4.74,4.74,0,0,1,.27-3.73,3.45,3.45,0,0,1,1.15-1.34,2.09,2.09,0,0,1,1.42-.4,1.34,1.34,0,0,1,.43.11l.16.07a1.44,1.44,0,0,1,.4.48,1.94,1.94,0,0,1,.26.78.44.44,0,0,1-.11.37,1.27,1.27,0,0,0-.14,1.5l.35.39.2.08a1.13,1.13,0,0,0,.92,0,2.93,2.93,0,0,0,1.52-2.22,4.91,4.91,0,0,0-.17-2.25,4.66,4.66,0,0,0-1.18-2.05,4.9,4.9,0,0,0-1.52-1c-.13-.05-.25-.1-.39-.14a5.68,5.68,0,0,0-4.06.3,7.36,7.36,0,0,0-3.1,2.74,9.67,9.67,0,0,0-1.49,3.9,10.4,10.4,0,0,0-.1,2.17,11.15,11.15,0,0,0,.38,2.11,10.48,10.48,0,0,0,4.84,6.1q.52.29,1,.51a10.67,10.67,0,0,0,2.77.73,11.83,11.83,0,0,0,3.25-.09,12.8,12.8,0,0,0,3.3-1,16,16,0,0,0,2.87-1.72,16.89,16.89,0,0,0,4.48-5.07,15.51,15.51,0,0,0,2-6.57,1.22,1.22,0,0,0-.73-1.22Zm9.6,9.89-.66-.07-1.16,13.68.65.06a5.93,5.93,0,0,0,4.43-1.39,7.17,7.17,0,0,0-1.57-11.85A5.84,5.84,0,0,0,559.54,201.29Zm-101-38.46a5.79,5.79,0,0,0-4.37,1,7.2,7.2,0,0,0-2.92,4.64l-.12.64.64.12q5.46,1,10.91,2l.65.12.11-.65a6.82,6.82,0,0,0-3.73-7.51A6.05,6.05,0,0,0,458.49,162.83ZM479,166.44a5.79,5.79,0,0,0-4.36,1.06,7.2,7.2,0,0,0-2.84,4.68l-.1.64.64.12q5.47.93,10.94,1.83l.65.11.1-.66a6.85,6.85,0,0,0-3.78-7.41A6.18,6.18,0,0,0,479,166.44Zm20.56,3.28a5.78,5.78,0,0,0-4.33,1.12,7.19,7.19,0,0,0-2.75,4.73l-.1.65.65.1q5.47.85,11,1.65l.66.1.09-.67a6.83,6.83,0,0,0-3.83-7.31A5.75,5.75,0,0,0,499.58,169.72Zm20.62,2.93a5.74,5.74,0,0,0-4.3,1.19,7.16,7.16,0,0,0-2.67,4.79l-.08.64.64.09q5.49.76,11,1.47l.66.08.07-.66a6.85,6.85,0,0,0-3.87-7.21A5.9,5.9,0,0,0,520.2,172.65Zm20.66,2.59a5.75,5.75,0,0,0-4.28,1.26,7.17,7.17,0,0,0-2.58,4.83l-.07.65.64.08q5.5.67,11,1.29l.66.07.07-.66a6.91,6.91,0,0,0-3.91-7.11A5.48,5.48,0,0,0,540.86,175.24Zm21.9,2.51a5.64,5.64,0,0,0-3.63,0,6.26,6.26,0,0,0-1.11.53,6.5,6.5,0,0,0-1,.77,7.61,7.61,0,0,0-.84.95,7.43,7.43,0,0,0-.67,1.14,7.69,7.69,0,0,0-.69,2.52l-.06.65,5.52.57-.52,6.17.64.07a5.18,5.18,0,0,0,1.24,0,4.77,4.77,0,0,0,1.21-.28,6.15,6.15,0,0,0,1.13-.53,5.77,5.77,0,0,0,1-.76,6.15,6.15,0,0,0,.87-1,7.13,7.13,0,0,0,.64-1.11,6.48,6.48,0,0,0,.46-1.23,9.46,9.46,0,0,0,.22-1.33,8.17,8.17,0,0,0,0-1.31,7.06,7.06,0,0,0-.25-1.31,6.73,6.73,0,0,0-1.13-2.35,7.59,7.59,0,0,0-.85-.94,7.27,7.27,0,0,0-1-.74,4.07,4.07,0,0,0-.66-.33A4.52,4.52,0,0,0,562.76,177.75Z"/>
            <path class="banner blue-banner" d="M439.55,249.58a23,23,0,0,0-2.58-6.17,1.24,1.24,0,0,0-.57-.47,1.36,1.36,0,0,0-1.24.16,1.49,1.49,0,0,0-.33,2A20.33,20.33,0,0,0,439.55,249.58Z"/>
            <path class="banner blue-banner" d="M447.08,249.25a17.4,17.4,0,0,0,1.61-4.41.93.93,0,0,0-.53-1,.84.84,0,0,0-.73.09.92.92,0,0,0-.38.61A17.39,17.39,0,0,0,447.08,249.25Z"/>
        </g>
    </g>
</svg>